<?xml version="1.0" encoding="utf-8"?>
<!-- Generator: Adobe Illustrator 22.1.0, SVG Export Plug-In . SVG Version: 6.00 Build 0)  -->
<svg version="1.1" id="レイヤー_1" xmlns="http://www.w3.org/2000/svg" xmlns:xlink="http://www.w3.org/1999/xlink" x="0px"
	 y="0px" viewBox="0 0 174.1 83.4" style="enable-background:new 0 0 174.1 83.4;" xml:space="preserve">
<style type="text/css">
	.st0{fill:#FFFFFF;}
</style>
<title>guji_logo</title>
<polygon class="st0" points="78.5,75 78.5,79.1 82.7,75 84.1,75 80.6,78.3 84.2,83.2 82.8,83.2 79.9,79.1 78.5,80.4 78.5,83.2 
	77.4,83.2 77.4,75 "/>
<polygon class="st0" points="91.9,83.2 90.8,83.2 90.8,79.9 87.7,75 89,75 91.4,78.9 93.8,75 95.1,75 91.9,79.9 "/>
<path class="st0" d="M98.4,77.5c0.2-0.5,0.4-1,0.7-1.4c0.3-0.4,0.8-0.8,1.2-1c1.1-0.5,2.3-0.5,3.4,0c0.5,0.2,0.9,0.6,1.2,1
	c0.3,0.4,0.6,0.9,0.7,1.4c0.3,1.1,0.3,2.2,0,3.2c-0.2,0.5-0.4,1-0.7,1.4c-0.3,0.4-0.8,0.7-1.2,0.9c-1.1,0.5-2.3,0.5-3.4,0
	c-0.5-0.2-0.9-0.5-1.2-0.9c-0.3-0.4-0.6-0.9-0.7-1.4C98,79.7,98,78.6,98.4,77.5 M99.4,80.4c0.1,0.4,0.3,0.8,0.5,1.1
	c0.2,0.3,0.5,0.6,0.9,0.8c0.8,0.4,1.8,0.4,2.6,0c0.3-0.2,0.7-0.5,0.9-0.8c0.2-0.3,0.4-0.7,0.5-1.1c0.2-0.8,0.2-1.6,0-2.4
	c-0.1-0.4-0.3-0.8-0.5-1.1c-0.2-0.3-0.5-0.6-0.9-0.8c-0.8-0.4-1.8-0.4-2.6,0c-0.4,0.2-0.7,0.5-0.9,0.8c-0.2,0.3-0.4,0.7-0.5,1.1
	C99.1,78.7,99.1,79.6,99.4,80.4"/>
<polygon class="st0" points="109,76 109,75 115.6,75 115.6,76 112.9,76 112.9,83.2 111.8,83.2 111.8,76 "/>
<path class="st0" d="M118.9,77.5c0.2-0.5,0.4-1,0.7-1.4c0.3-0.4,0.8-0.8,1.2-1c1.1-0.5,2.3-0.5,3.4,0c0.5,0.2,0.9,0.6,1.2,1
	c0.3,0.4,0.6,0.9,0.7,1.4c0.3,1.1,0.3,2.2,0,3.2c-0.2,0.5-0.4,1-0.7,1.4c-0.3,0.4-0.8,0.7-1.2,0.9c-1.1,0.5-2.3,0.5-3.4,0
	c-0.5-0.2-0.9-0.5-1.2-0.9c-0.3-0.4-0.6-0.9-0.7-1.4C118.5,79.7,118.5,78.6,118.9,77.5 M119.9,80.4c0.1,0.4,0.3,0.8,0.5,1.1
	c0.2,0.3,0.5,0.6,0.9,0.8c0.8,0.4,1.8,0.4,2.6,0c0.3-0.2,0.7-0.5,0.9-0.8c0.2-0.3,0.4-0.7,0.5-1.1c0.2-0.8,0.2-1.6,0-2.4
	c-0.1-0.4-0.3-0.8-0.5-1.1c-0.2-0.3-0.5-0.6-0.9-0.8c-0.8-0.4-1.8-0.4-2.6,0c-0.3,0.2-0.7,0.5-0.9,0.8c-0.2,0.3-0.4,0.7-0.5,1.1
	C119.6,78.7,119.6,79.6,119.9,80.4"/>
<path class="st0" d="M76.8,0.8L84.3,0L61.2,40.5C73,37.3,85.8,26.1,96,8.2l0.7,0.7C86.1,27.6,73.2,38.6,60.4,41.8
	C49.2,65.2,34.3,77.5,17.6,78.3C6.7,78.7,0.3,73.5,0,66C-0.5,59.8,4.2,54.5,10.3,54c0.2,0,0.3,0,0.5,0c1.4-0.1,2.8,0,4.2,0.3
	l-0.2,1.1c-0.7-0.1-1.4-0.1-2.1,0c-4.2,0.2-7.3,4.4-7.1,10.2c0.3,7.1,5.3,11.7,12.5,11.3c11.9-0.5,20.2-8.7,29.7-24.1
	c5-8,8.8-15.9,13.1-22.3l-0.3-0.2c-6.7,8.4-13.1,12.7-18.7,13c-3.5,0.2-6.6-3.2-6.8-8.1c-0.3-6.6,3.2-15.4,10.2-23
	C51.9,4.7,59.3,0.8,64.4,0.5C69,0.3,71.8,3.3,72.2,9L76.8,0.8z M51.7,11c-7.1,9.1-10.3,18.4-10,23.6c0.2,4.1,1.6,6.1,4.4,5.9
	c3.3-0.2,7.7-3.5,12.9-9.8c6.7-8.1,9.8-17.4,9.5-22.8c-0.2-4.6-1.7-6.4-4.9-6.3C61.2,1.8,56.7,4.8,51.7,11"/>
<path class="st0" d="M93.1,28.6c-0.1-5.6,0.1-7.1-4.5-7.1h-0.3v-1.1l9.7-0.9c-0.1,3.6-0.1,6-0.1,6.9l0.2,10.4c0.1,5.5,1.9,8,6.4,8
	c2.6,0,5.1-1,6.9-2.8l0.1-13.4V28c0-5-0.8-6.4-6-6.4h-0.3v-1.1c4.2-0.4,8-0.7,11.5-1c-0.2,4.2-0.2,6.9-0.2,7.8l-0.2,12.4V41
	c0,3.1,0.3,4,2.2,4c1,0,2-0.2,2.9-0.4l0.3,1.1c-3.8,0.9-7.3,1.7-10.4,2.5v-4.7c-4.1,2.9-7.7,4.5-11.5,4.5c-4.6,0-6.7-3.1-6.8-9.4
	L93.1,28.6z"/>
<path class="st0" d="M140.4,3.5c1.7-0.1,3,1.2,3.1,2.9c0,0.1,0,0.1,0,0.2c0.1,1.7-1.2,3-2.9,3.1c-0.1,0-0.1,0-0.2,0
	c-1.6,0.1-3-1.1-3.1-2.7c0-0.1,0-0.3,0-0.4c-0.1-1.7,1.2-3,2.9-3.1C140.2,3.5,140.3,3.5,140.4,3.5"/>
<path class="st0" d="M159.4,46.6c5-0.3,5-1.7,5-6.9V29.5c0-2.5-0.2-3.8-2.7-5.7l-1.3-1v-0.5l8.1-3l0.7,0.2c-0.1,2.5-0.1,4.4-0.1,5.6
	v15.6c0,4.3,0.2,5.4,4.9,5.8v1c-2.2-0.1-4.6-0.1-7.1-0.1s-5,0-7.6,0.1L159.4,46.6L159.4,46.6z M166.5,3.5c1.7-0.1,3,1.2,3.1,2.9
	c0,0.1,0,0.1,0,0.2c0.1,1.7-1.2,3-2.9,3.1c-0.1,0-0.1,0-0.2,0c-1.6,0.1-3-1.1-3.1-2.7c0-0.1,0-0.3,0-0.4c-0.1-1.7,1.2-3,2.9-3.1
	C166.4,3.5,166.5,3.5,166.5,3.5"/>
<path class="st0" d="M130.1,63c6.8-2.2,8.1-7.3,8.1-17.9V28.8c0-2.9-0.7-3.6-3-4.6l-1.8-0.7v-0.7l9.2-3.6l0.6,0.4
	c-0.2,4.1-0.2,6.4-0.2,7v19.2c0,6-0.6,9.9-2.8,12.6c-2.1,2.4-5.3,4.1-9.8,5.5L130.1,63z"/>
</svg>
