<?xml version="1.0" encoding="utf-8"?>
<!-- Generator: Adobe Illustrator 22.1.0, SVG Export Plug-In . SVG Version: 6.00 Build 0)  -->
<svg version="1.1" id="レイヤー_1" xmlns="http://www.w3.org/2000/svg" xmlns:xlink="http://www.w3.org/1999/xlink" x="0px"
	 y="0px" viewBox="0 0 164.9 26.3" style="enable-background:new 0 0 164.9 26.3;" xml:space="preserve">
<style type="text/css">
	.st0{enable-background:new    ;}
	.st1{fill:#FFFFFF;}
</style>
<g class="st0">
	<path class="st1" d="M16.9,12.9c1.7,0.4,3,1,3.9,1.8c1.2,1.1,1.8,2.5,1.8,4.2c0,1.2-0.4,2.4-1.2,3.6c-0.8,1.1-1.9,2-3.3,2.5
		c-1.4,0.5-3.5,0.8-6.3,0.8H0V25h0.9c1.1,0,1.8-0.3,2.3-1c0.3-0.4,0.4-1.4,0.4-2.8V5c0-1.6-0.2-2.5-0.5-3C2.6,1.5,1.9,1.3,0.9,1.3H0
		V0.6h10.9c2,0,3.7,0.1,4.9,0.4C17.6,1.5,19,2.3,20,3.4c1,1.1,1.5,2.4,1.5,3.9c0,1.3-0.4,2.4-1.2,3.4C19.6,11.7,18.4,12.4,16.9,12.9
		z M7.2,11.9c0.5,0.1,1,0.2,1.6,0.2c0.6,0,1.2,0.1,1.9,0.1c1.8,0,3.2-0.2,4.1-0.6c0.9-0.4,1.6-1,2.1-1.8c0.5-0.8,0.7-1.7,0.7-2.6
		c0-1.5-0.6-2.7-1.8-3.8c-1.2-1-3-1.6-5.3-1.6C9.3,1.8,8.2,2,7.2,2.2V11.9z M7.2,23.9c1.4,0.3,2.9,0.5,4.2,0.5
		c2.2,0,3.9-0.5,5.1-1.5c1.2-1,1.8-2.3,1.8-3.7c0-1-0.3-1.9-0.8-2.8c-0.5-0.9-1.4-1.6-2.6-2.1c-1.2-0.5-2.7-0.8-4.5-0.8
		c-0.8,0-1.4,0-2,0c-0.5,0-1,0.1-1.3,0.1V23.9z"/>
	<path class="st1" d="M29.5,22.1c0.6,0,1.1,0.2,1.5,0.6c0.4,0.4,0.6,0.9,0.6,1.5c0,0.6-0.2,1.1-0.6,1.5c-0.4,0.4-0.9,0.6-1.5,0.6
		c-0.6,0-1.1-0.2-1.5-0.6c-0.4-0.4-0.6-0.9-0.6-1.5c0-0.6,0.2-1.1,0.6-1.5C28.4,22.3,28.9,22.1,29.5,22.1z"/>
	<path class="st1" d="M59.9,25.7h-6.7L44.7,14c-0.6,0-1.1,0-1.5,0c-0.2,0-0.3,0-0.5,0c-0.2,0-0.4,0-0.6,0v7.3c0,1.6,0.2,2.6,0.5,3
		c0.5,0.5,1.2,0.8,2.1,0.8h1v0.7H34.9V25h0.9c1.1,0,1.8-0.3,2.3-1c0.3-0.4,0.4-1.3,0.4-2.7V5c0-1.6-0.2-2.6-0.5-3
		c-0.5-0.5-1.2-0.8-2.2-0.8h-0.9V0.6H44c2.7,0,4.6,0.2,5.9,0.6c1.3,0.4,2.3,1.1,3.2,2.2c0.9,1,1.3,2.3,1.3,3.7c0,1.5-0.5,2.9-1.5,4
		c-1,1.1-2.6,1.9-4.7,2.4l5.2,7.2c1.2,1.7,2.2,2.8,3.1,3.3c0.9,0.5,2,0.9,3.3,1V25.7z M42,12.8c0.2,0,0.4,0,0.6,0c0.2,0,0.3,0,0.4,0
		c2.4,0,4.2-0.5,5.4-1.6c1.2-1,1.8-2.4,1.8-4c0-1.6-0.5-2.8-1.5-3.8c-1-1-2.3-1.5-3.9-1.5c-0.7,0-1.7,0.1-2.9,0.4V12.8z"/>
	<path class="st1" d="M64.3,22.1c0.6,0,1.1,0.2,1.5,0.6c0.4,0.4,0.6,0.9,0.6,1.5c0,0.6-0.2,1.1-0.6,1.5c-0.4,0.4-0.9,0.6-1.5,0.6
		c-0.6,0-1.1-0.2-1.5-0.6c-0.4-0.4-0.6-0.9-0.6-1.5c0-0.6,0.2-1.1,0.6-1.5C63.3,22.3,63.7,22.1,64.3,22.1z"/>
	<path class="st1" d="M86.5,0v8.7h-0.7c-0.2-1.7-0.6-3-1.2-4c-0.6-1-1.4-1.8-2.5-2.4c-1.1-0.6-2.2-0.9-3.3-0.9
		c-1.3,0-2.4,0.4-3.2,1.2c-0.8,0.8-1.3,1.7-1.3,2.7c0,0.8,0.3,1.5,0.8,2.1c0.8,0.9,2.6,2.2,5.5,3.7c2.4,1.3,4,2.2,4.8,2.9
		c0.9,0.7,1.5,1.5,2,2.4c0.5,0.9,0.7,1.9,0.7,2.9c0,1.9-0.7,3.5-2.2,4.9c-1.5,1.4-3.4,2.1-5.7,2.1c-0.7,0-1.4-0.1-2.1-0.2
		c-0.4-0.1-1.2-0.3-2.4-0.7c-1.2-0.4-2-0.6-2.3-0.6c-0.3,0-0.6,0.1-0.7,0.3c-0.2,0.2-0.3,0.6-0.4,1.2h-0.7v-8.6h0.7
		c0.3,1.8,0.8,3.2,1.3,4.1c0.5,0.9,1.4,1.6,2.5,2.2c1.1,0.6,2.3,0.9,3.7,0.9c1.5,0,2.8-0.4,3.7-1.2c0.9-0.8,1.3-1.8,1.3-2.9
		c0-0.6-0.2-1.2-0.5-1.9s-0.9-1.2-1.6-1.8c-0.5-0.4-1.8-1.2-4-2.4c-2.2-1.2-3.7-2.2-4.6-2.9c-0.9-0.7-1.6-1.5-2.1-2.4
		c-0.5-0.9-0.7-1.8-0.7-2.9c0-1.8,0.7-3.4,2.1-4.7c1.4-1.3,3.1-2,5.3-2c1.3,0,2.8,0.3,4.2,1c0.7,0.3,1.2,0.5,1.5,0.5
		c0.3,0,0.6-0.1,0.8-0.3C85.5,1,85.7,0.6,85.8,0H86.5z"/>
	<path class="st1" d="M98,12.2h11.7V5c0-1.3-0.1-2.1-0.2-2.5c-0.1-0.3-0.4-0.6-0.8-0.8c-0.5-0.3-1.1-0.4-1.7-0.4h-0.9V0.6h10.8v0.7
		H116c-0.6,0-1.2,0.1-1.7,0.4c-0.4,0.2-0.7,0.5-0.8,0.9c-0.1,0.4-0.2,1.2-0.2,2.5v16.2c0,1.3,0.1,2.1,0.2,2.5
		c0.1,0.3,0.4,0.6,0.8,0.8c0.5,0.3,1.1,0.4,1.7,0.4h0.9v0.7h-10.8V25h0.9c1,0,1.8-0.3,2.2-0.9c0.3-0.4,0.5-1.3,0.5-2.9v-7.7H98v7.7
		c0,1.3,0.1,2.1,0.2,2.5c0.1,0.3,0.4,0.6,0.8,0.8c0.5,0.3,1.1,0.4,1.7,0.4h0.9v0.7H90.8V25h0.9c1,0,1.8-0.3,2.3-0.9
		c0.3-0.4,0.4-1.3,0.4-2.9V5c0-1.3-0.1-2.1-0.2-2.5c-0.1-0.3-0.4-0.6-0.8-0.8c-0.5-0.3-1.1-0.4-1.7-0.4h-0.9V0.6h10.8v0.7h-0.9
		c-0.6,0-1.2,0.1-1.7,0.4c-0.4,0.2-0.6,0.5-0.8,0.9C98.1,3,98,3.8,98,5V12.2z"/>
	<path class="st1" d="M131.5,0c3.3,0,6.1,1.2,8.5,3.7c2.4,2.5,3.6,5.6,3.6,9.3c0,3.8-1.2,7-3.6,9.5s-5.3,3.8-8.8,3.8
		c-3.5,0-6.4-1.2-8.7-3.7c-2.4-2.5-3.5-5.6-3.5-9.6c0-4,1.4-7.3,4.1-9.8C125.4,1.1,128.2,0,131.5,0z M131.2,1.4
		c-2.3,0-4.1,0.8-5.4,2.5c-1.7,2.1-2.5,5.1-2.5,9.1c0,4.1,0.9,7.3,2.6,9.5c1.3,1.7,3.1,2.5,5.3,2.5c2.4,0,4.3-0.9,5.9-2.8
		c1.5-1.8,2.3-4.8,2.3-8.7c0-4.3-0.8-7.5-2.5-9.6C135.5,2.2,133.6,1.4,131.2,1.4z"/>
	<path class="st1" d="M152.9,14v7.3c0,1.6,0.2,2.6,0.5,3c0.5,0.5,1.2,0.8,2.1,0.8h1v0.7h-10.8V25h0.9c1.1,0,1.8-0.3,2.3-1
		c0.2-0.4,0.4-1.3,0.4-2.7V5c0-1.6-0.2-2.6-0.5-3c-0.5-0.5-1.2-0.8-2.2-0.8h-0.9V0.6h9.2c2.3,0,4,0.2,5.3,0.7
		c1.3,0.5,2.4,1.2,3.3,2.3c0.9,1.1,1.3,2.4,1.3,3.9c0,2.1-0.7,3.7-2,5c-1.4,1.3-3.3,1.9-5.7,1.9c-0.6,0-1.3,0-2-0.1
		C154.4,14.3,153.7,14.1,152.9,14z M152.9,12.9c0.7,0.1,1.2,0.2,1.7,0.3c0.5,0.1,0.9,0.1,1.3,0.1c1.3,0,2.4-0.5,3.3-1.5
		c0.9-1,1.4-2.3,1.4-3.9c0-1.1-0.2-2.1-0.7-3c-0.4-0.9-1.1-1.6-1.9-2.1c-0.8-0.5-1.7-0.7-2.8-0.7c-0.6,0-1.4,0.1-2.4,0.4V12.9z"/>
</g>
</svg>
