<?xml version="1.0" encoding="utf-8"?>
<!-- Generator: Adobe Illustrator 16.2.1, SVG Export Plug-In . SVG Version: 6.00 Build 0)  -->
<!DOCTYPE svg PUBLIC "-//W3C//DTD SVG 1.1//EN" "http://www.w3.org/Graphics/SVG/1.1/DTD/svg11.dtd">
<svg version="1.1" id="レイヤー_1" xmlns="http://www.w3.org/2000/svg" xmlns:xlink="http://www.w3.org/1999/xlink" x="0px"
	 y="0px" width="126.672px" height="129.158px" viewBox="0 0 126.672 129.158" enable-background="new 0 0 126.672 129.158"
	 xml:space="preserve">
<rect x="-234.302" y="-356.366" fill="none" width="595.276" height="841.89"/>
<g>
	<rect width="126.672" height="129.158"/>
	<polygon fill="#FFFFFF" points="24.393,35.745 33.509,35.745 33.509,41.522 17.934,41.522 17.934,16.401 24.393,16.401 	"/>
	<path fill="#FFFFFF" d="M48.148,26.234l-2.798,6.603h5.668L48.148,26.234z M53.137,38.365h-9.908l-1.469,3.157h-6.279v-0.933
		l11.301-24.51h2.765l11.34,24.51v0.933h-6.28L53.137,38.365z"/>
	<polygon fill="#FFFFFF" points="70.106,29.177 70.106,41.523 63.467,41.523 63.467,16.295 65.799,16.295 78.505,28.712 
		78.505,16.401 85.069,16.401 85.069,41.561 82.772,41.561 	"/>
	<polygon fill="#FFFFFF" points="95.931,35.889 95.931,41.522 89.575,41.522 89.575,35.889 89.575,22 89.575,16.401 95.931,16.401 
		95.931,22 	"/>
	<polygon fill="#FFFFFF" points="24.501,63.123 24.501,71.269 17.969,71.269 17.969,46.152 33.616,46.152 33.616,51.893 
		24.501,51.893 24.501,57.383 32.575,57.383 32.575,63.123 	"/>
	<polygon fill="#FFFFFF" points="43.04,65.635 43.04,71.269 36.685,71.269 36.685,65.635 36.685,51.749 36.685,46.152 43.04,46.152 
		43.04,51.749 	"/>
	<g>
		<path fill="#FFFFFF" d="M58.816,45.88c5.205,0,10.837,2.836,11.806,9.548h-6.315c-0.897-2.548-2.797-3.696-5.49-3.696
			c-3.769,0-6.244,2.833-6.244,6.995c0,3.696,2.439,6.924,6.244,6.962c2.726,0,4.917-1.364,5.599-4.055h6.314
			c-0.933,7.106-6.566,9.904-11.913,9.904c-6.387,0.036-12.847-4.27-12.882-12.811C45.969,50.188,52.429,45.88,58.816,45.88"/>
	</g>
	<polygon fill="#FFFFFF" points="80.116,65.635 80.116,71.269 73.766,71.269 73.766,65.635 73.766,51.749 73.766,46.152 
		80.116,46.152 80.116,51.749 	"/>
	<path fill="#FFFFFF" d="M102.173,58.697c0-9.044-12.597-9.044-12.597,0C89.576,67.812,102.173,67.812,102.173,58.697
		 M82.975,58.697c0-17.368,25.764-17.368,25.764,0C108.738,76.1,82.975,76.1,82.975,58.697"/>
	<path fill="#FFFFFF" d="M24.141,103.103v4.27h5.134c2.584,0,2.547-4.27-0.035-4.27H24.141z M24.141,93.702v4.055h4.058
		c2.545,0,2.545-4.055-0.036-4.055H24.141z M34.515,100.019c2.044,1.04,3.013,2.904,3.013,5.128
		c-0.035,4.382-2.689,7.932-7.825,7.932H17.934V87.961h10.731c4.34,0,7.822,3.372,7.822,7.713
		C36.486,97.183,35.732,99.012,34.515,100.019"/>
	<rect x="17.97" y="78.073" fill="#FFFFFF" width="19.558" height="3.688"/>
</g>
</svg>
