<?xml version="1.0" encoding="utf-8"?>
<!-- Generator: Adobe Illustrator 22.1.0, SVG Export Plug-In . SVG Version: 6.00 Build 0)  -->
<svg version="1.1" id="レイヤー_1" xmlns="http://www.w3.org/2000/svg" xmlns:xlink="http://www.w3.org/1999/xlink" x="0px"
	 y="0px" viewBox="0 0 456.1 57.6" style="enable-background:new 0 0 456.1 57.6;" xml:space="preserve">
<style type="text/css">
	.st0{fill:#FFFFFF;}
</style>
<g>
	<path class="st0" d="M15.4,16.4c3.9,0,7.4,1.3,7.5,2c0.2,1.4,0.2,2.2,0.2,2.6c0,0.5-0.2,0.7-0.4,0.7c-0.8,0-1.9-4.2-7.3-4.2
		c-6.1,0-10.7,4.8-10.7,11.4c0,6.8,3.7,11.5,9.5,11.6c7.2,0.1,8.1-5.3,9-5.3c0.5,0,0.6,0.6,0.6,2.4c0,2.6-4.6,4.3-9.3,4.3
		C6.4,41.9,0,36.5,0,29.2C0,21.8,5.3,16.4,15.4,16.4"/>
	<path class="st0" d="M41.6,19.9c0-1.3-0.5-1.6-2.5-1.7c-0.6-0.1-0.8-0.3-0.8-0.5c0-0.5,0.4-0.7,1-0.7c1.6,0,3.1,0.2,4.6,0.2
		c1.6,0,3.1-0.2,4.4-0.2c0.6,0,1,0.1,1,0.5c0,0.5-0.4,0.6-1.8,0.8c-1.2,0.1-1.9,0.4-1.9,1.6V27c0,0.7,0.2,0.9,0.9,0.9h12.3
		c0.6,0,0.9-0.2,0.9-0.9v-7.6c0-1-0.5-1-1.9-1.2c-1.1-0.2-1.3-0.3-1.3-0.6c0-0.4,0.3-0.6,0.6-0.6c1.7,0,3.3,0.2,5,0.2
		c1.7,0,3.3-0.2,5-0.2c0.3,0,0.5,0.3,0.5,0.5c0,0.6-0.9,0.6-1.8,0.8c-1,0.1-2.1,0.4-2.1,1.5v18.1c0,1.6,0.7,1.9,1.5,1.9
		c1,0.1,2.2,0,2.2,0.7c0,0.4-0.1,0.7-0.6,0.7c-1.7,0-3.5-0.2-5.2-0.2c-1.7,0-3.5,0.2-5.2,0.2c-0.6,0-0.8-0.3-0.8-0.6
		c0-0.6,1-0.6,2-0.8c1-0.1,2.1-0.3,2.1-1.9v-7.2c0-0.7-0.3-0.9-0.9-0.9H46.5c-0.6,0-0.9,0.2-0.9,0.9v7.2c0,1.5,0.6,1.8,1.9,1.9
		c1.5,0.1,1.9,0.3,1.9,0.8c0,0.5-0.3,0.6-0.7,0.6c-1.7,0-3.5-0.2-5.2-0.2c-1.8,0-3.5,0.2-5.3,0.2c-0.5,0-0.6-0.2-0.6-0.6
		c0-0.8,1.1-0.7,2.1-0.9c1-0.2,1.9-0.5,1.9-2L41.6,19.9L41.6,19.9z"/>
	<path class="st0" d="M94.8,16.3c7.6,0,13.3,5.4,13.3,12.8c0,7.3-5.7,12.8-13.6,12.8c-7.8,0-13.4-5.5-13.4-12.8
		C81,21.7,86.7,16.3,94.8,16.3 M94.4,40.5c6,0,9.1-4.1,9.1-11.4c0-7.4-3.9-11.4-8.7-11.4c-5,0-9,4-9,11.4
		C85.8,36.4,88.8,40.5,94.4,40.5"/>
	<path class="st0" d="M122.2,34.9c0-1,0.3-1.4,0.8-1.4c1.2,0-0.2,7,7.8,7c3.9,0,5.5-1.7,5.5-4.2c0-5.8-13-5-13-13.6
		c0-4.2,3.5-6.5,8.4-6.5c3.6,0,6,1.4,6.1,2.1c0.1,0.9,0.3,2.9,0.3,3.8c0,0.6-0.2,1-0.6,1c-0.6,0-0.5-0.7-1.4-2.4
		c-0.8-1.3-2.1-3-5.6-3c-2.6,0-4.3,1.2-4.3,3.8c0,5.4,13.3,4.9,13.3,12.9c0,4.6-3.7,7.6-8.9,7.6c-5.1,0-8.5-1.2-8.5-3L122.2,34.9
		L122.2,34.9z"/>
	<path class="st0" d="M162,26.9c0,0.5,0.4,0.9,1.5,0.9h4.1c1.6,0,2.4-0.1,3.4-0.8c0.9-0.6,1.1-2.3,1.6-2.3s0.5,0.2,0.5,0.8
		c0,0.5-0.2,1.3-0.2,3.2c-0.1,1.9,0,3.3,0,4c0,0.4-0.2,0.5-0.5,0.5c-0.5,0-0.3-1.2-1.2-2.9c-0.5-0.9-2.1-1.4-3.5-1.4h-4.2
		c-1,0-1.4,0.3-1.4,1v7.9c0,1.3,1,2,5.9,2c3.1,0,5.1-0.7,5.9-1.9c1.1-1.6,1.4-3.1,1.9-3.1c0.4,0,0.5,0.2,0.5,0.5
		c0,0.4-0.5,2.9-0.8,4.3c-0.2,1-0.3,1.7-0.8,1.7c-1.2,0-4.9-0.2-10.2-0.2c-4.6,0-8.3,0.2-9.8,0.2c-0.7,0-1-0.2-1-0.6
		c0-0.8,1.1-0.7,2.2-0.8c1.3-0.2,2.2-0.5,2.2-2.3V21.4c0-2.6-0.5-3.1-1.7-3.1c-1.2-0.1-1.7-0.3-1.7-0.6c0-0.4,0.2-0.6,0.8-0.6
		c1.5,0,3.8,0.2,8.4,0.2c4.7,0,7.8-0.2,10.3-0.2c1.3,0,1.4,0.2,1.4,1v3.9c0,0.5-0.1,0.8-0.4,0.8c-0.8,0-0.5-1.7-1.8-2.8
		c-1.3-1.1-3.3-1.8-7.1-1.8c-4.1,0-4.2,0.5-4.2,1.5L162,26.9L162,26.9z"/>
	<path class="st0" d="M214.8,34.5c0.2,0.2,0.3,0.3,0.4,0.3c0.2,0,0.2-0.2,0.2-0.5V20.6c0-1.8-0.4-1.9-1.8-2.1
		c-1.8-0.3-2.6-0.3-2.6-0.9c0-0.4,0.3-0.5,0.8-0.5c1,0,2.4,0.2,4.3,0.2c1.9,0,2.7-0.2,3.8-0.2c0.8,0,1,0.2,1,0.5
		c0,0.6-0.8,0.6-1.8,0.7c-1.2,0.2-2.1,0.8-2.1,2.4V39c0,1.5,0.1,2.2,0.1,2.4c0,0.3-0.1,0.5-0.4,0.5c-0.3,0-0.6-0.2-0.9-0.5
		l-18.5-19.2c-0.2-0.2-0.3-0.4-0.5-0.4c-0.2,0-0.3,0.8-0.3,1.9v10c0,5.6,0.6,5.9,2.5,6c1.3,0.1,2.5,0.3,2.5,0.8
		c0,0.5-0.3,0.6-0.9,0.6c-1.1,0-2.5-0.2-4.6-0.2c-2.4,0-3.7,0.2-4.6,0.2c-0.4,0-0.8-0.1-0.8-0.5c0-1.1,3-0.5,3.5-1.4
		c0.4-0.6,0.7-3.1,0.7-5.5V21.3c0-2.3-1.1-2.9-2.8-3.1c-1.3-0.1-1.7-0.2-1.7-0.6c0-0.3,0.2-0.6,0.8-0.6c1,0,3.1,0.2,5.1,0.2
		c1.4,0,1.7,0.2,2.1,0.5L214.8,34.5z"/>
	<path class="st0" d="M270.4,47.8c0,0.2-0.2,0.5-0.5,0.5c-0.9,0-11.6-9.5-11.6-20.3c0-11.1,10-20.7,11.6-20.7c0.3,0,0.6,0.1,0.6,0.4
		c0,0.4-8.3,7.9-8.3,19.4C262.2,40.4,270.4,47.2,270.4,47.8"/>
	<path class="st0" d="M297.5,16.3c7.6,0,13.3,5.4,13.3,12.8c0,7.3-5.7,12.8-13.6,12.8c-7.8,0-13.4-5.5-13.4-12.8
		C283.8,21.7,289.4,16.3,297.5,16.3 M297.2,40.5c6,0,9.1-4.1,9.1-11.4c0-7.4-3.9-11.4-8.7-11.4c-5,0-9,4-9,11.4
		C288.5,36.4,291.6,40.5,297.2,40.5"/>
	<path class="st0" d="M348.4,34.5c0.2,0.2,0.3,0.3,0.4,0.3c0.2,0,0.2-0.2,0.2-0.5V20.6c0-1.8-0.4-1.9-1.8-2.1
		c-1.8-0.3-2.6-0.3-2.6-0.9c0-0.4,0.3-0.5,0.8-0.5c1,0,2.4,0.2,4.3,0.2c1.9,0,2.7-0.2,3.8-0.2c0.8,0,1,0.2,1,0.5
		c0,0.6-0.8,0.6-1.8,0.7c-1.2,0.2-2.1,0.8-2.1,2.4V39c0,1.5,0.1,2.2,0.1,2.4c0,0.3-0.1,0.5-0.4,0.5c-0.3,0-0.6-0.2-0.9-0.5L331,22.2
		c-0.2-0.2-0.3-0.4-0.5-0.4c-0.2,0-0.3,0.8-0.3,1.9v10c0,5.6,0.6,5.9,2.5,6c1.3,0.1,2.5,0.3,2.5,0.8c0,0.5-0.3,0.6-0.9,0.6
		c-1.1,0-2.5-0.2-4.6-0.2c-2.4,0-3.7,0.2-4.6,0.2c-0.4,0-0.8-0.1-0.8-0.5c0-1.1,3-0.5,3.5-1.4c0.4-0.6,0.7-3.1,0.7-5.5V21.3
		c0-2.3-1.1-2.9-2.8-3.1c-1.3-0.1-1.7-0.2-1.7-0.6c0-0.3,0.2-0.6,0.8-0.6c1,0,3.1,0.2,5.1,0.2c1.4,0,1.7,0.2,2.1,0.5L348.4,34.5z"/>
	<path class="st0" d="M376.7,26.9c0,0.5,0.4,0.9,1.5,0.9h4.1c1.6,0,2.4-0.1,3.4-0.8c0.9-0.6,1.1-2.3,1.6-2.3c0.4,0,0.5,0.2,0.5,0.8
		c0,0.5-0.2,1.3-0.2,3.2c-0.1,1.9,0,3.3,0,4c0,0.4-0.2,0.5-0.5,0.5c-0.5,0-0.3-1.2-1.2-2.9c-0.5-0.9-2.1-1.4-3.5-1.4h-4.2
		c-1,0-1.4,0.3-1.4,1v7.9c0,1.3,1,2,5.9,2c3.1,0,5.1-0.7,5.9-1.9c1.1-1.6,1.4-3.1,1.9-3.1c0.4,0,0.5,0.2,0.5,0.5
		c0,0.4-0.5,2.9-0.8,4.3c-0.2,1-0.3,1.7-0.8,1.7c-1.2,0-4.9-0.2-10.2-0.2c-4.6,0-8.3,0.2-9.8,0.2c-0.7,0-1-0.2-1-0.6
		c0-0.8,1.1-0.7,2.2-0.8c1.4-0.2,2.2-0.5,2.2-2.3V21.4c0-2.6-0.5-3.1-1.7-3.1c-1.2-0.1-1.7-0.3-1.7-0.6c0-0.4,0.2-0.6,0.8-0.6
		c1.5,0,3.8,0.2,8.4,0.2c4.7,0,7.8-0.2,10.3-0.2c1.3,0,1.4,0.2,1.4,1v3.9c0,0.5-0.1,0.8-0.4,0.8c-0.8,0-0.5-1.7-1.8-2.8
		c-1.4-1.1-3.3-1.8-7.1-1.8c-4,0-4.2,0.5-4.2,1.5L376.7,26.9L376.7,26.9z"/>
	<path class="st0" d="M405.7,7.8c0-0.2,0.2-0.5,0.5-0.5c0.9,0,11.6,9.5,11.6,20.3c0,11.1-10,20.7-11.6,20.7c-0.3,0-0.6-0.1-0.6-0.4
		c0-0.4,8.3-7.9,8.3-19.4C413.8,15.2,405.7,8.4,405.7,7.8"/>
	<path class="st0" d="M436.6,24.6c0,0.6,0.5,0.9,0.9,0.9c0.5,0,0.9,0.1,0.9,0.3c0,0.2-0.2,0.2-0.3,0.2c-0.7,0-1.5-0.1-2.2-0.1
		c-0.7,0-1.5,0.1-2.2,0.1c-0.2,0-0.3-0.1-0.3-0.2c0-0.3,0.4-0.3,0.8-0.3c0.4,0,0.8-0.3,0.8-0.9V19c0-1.4-0.1-1.5-0.9-1.5
		c-2.6,0-2.5,1.6-3,1.6c-0.2,0-0.2-0.1-0.2-0.2c0-0.2,0.1-0.4,0.5-1.5c0.3-1,0.4-1.2,0.6-1.2c0.2,0,0.4,0.8,1.1,0.8h5.3
		c0.4,0,1.1,0,1.5-0.2c0.3-0.1,0.3-0.4,0.5-0.4c0.2,0,0.2,0.2,0.2,1.3c0,1.2-0.2,1.3-0.3,1.3c-0.2,0-0.2-0.3-0.4-0.8
		c-0.2-0.4-0.6-0.7-1.9-0.7c-1.1,0-1.3,0.1-1.3,1.5L436.6,24.6L436.6,24.6z"/>
	<path class="st0" d="M449.4,23c0.1,0.1,0.1,0.2,0.2,0.2c0.1,0,0.1-0.1,0.2-0.2l3-6c0.2-0.4,0.5-0.7,0.8-0.7c0.7,0,1.4,0,2.1,0
		c0.3,0,0.4,0,0.4,0.3c0,0.2-0.3,0.2-0.9,0.2c-0.5,0-0.8,0.1-0.8,0.8V25c0,0.4,0.4,0.5,0.7,0.5c0.5,0,1,0,1,0.3
		c0,0.1-0.1,0.2-0.4,0.2c-0.7,0-1.3-0.1-2-0.1c-0.8,0-1.5,0.1-2,0.1c-0.3,0-0.5,0-0.5-0.2c0-0.2,0.3-0.3,0.8-0.4
		c0.4-0.1,0.8-0.2,0.8-0.7v-5.9c0-0.2,0-0.4-0.1-0.4c0,0-0.1,0.1-0.2,0.3l-3.3,6.7c0,0.1-0.1,0.2-0.2,0.2s-0.1-0.1-0.2-0.2l-3.3-6.4
		c-0.2-0.3-0.2-0.6-0.3-0.6c-0.1,0-0.1,0.2-0.1,0.5l0,5.9c0,0.4,0.5,0.5,0.9,0.6c0.7,0.1,0.9,0.2,0.9,0.4c0,0.1-0.1,0.2-0.3,0.2
		c-0.5,0-1.1-0.1-1.9-0.1c-0.9,0-1.5,0.1-1.9,0.1c-0.2,0-0.3-0.1-0.3-0.2c0-0.3,0.4-0.3,0.9-0.4c0.4,0,0.9-0.2,0.9-0.9l0.3-5.2
		c0.1-1.1,0.1-1.6,0.1-2.1c0-0.4-0.3-0.6-1-0.6c-0.6,0-0.7-0.1-0.7-0.3c0-0.2,0.1-0.2,0.4-0.2c0.3,0,0.9,0.1,2.4,0.1
		c0.1,0,0.2,0.1,0.3,0.2L449.4,23z"/>
</g>
</svg>
