<?xml version="1.0" encoding="utf-8"?>
<!-- Generator: Adobe Illustrator 16.2.1, SVG Export Plug-In . SVG Version: 6.00 Build 0)  -->
<!DOCTYPE svg PUBLIC "-//W3C//DTD SVG 1.1//EN" "http://www.w3.org/Graphics/SVG/1.1/DTD/svg11.dtd">
<svg version="1.1" id="レイヤー_1" xmlns="http://www.w3.org/2000/svg" xmlns:xlink="http://www.w3.org/1999/xlink" x="0px"
	 y="0px" width="195.27px" height="51.852px" viewBox="0 0 195.27 51.852" enable-background="new 0 0 195.27 51.852"
	 xml:space="preserve">
<polygon fill="#FFFFFF" points="0,51.42 11.601,51.42 11.601,48.388 3.752,48.388 3.752,26.435 11.241,26.435 11.241,23.401 
	3.752,23.401 3.752,3.464 11.601,3.464 11.601,0.432 0,0.432 "/>
<path fill="#FFFFFF" d="M34.513,38.091v6.628c0,4.933,2.244,7.133,7.277,7.133c4.533,0,7.132-2.601,7.132-7.133v-8.208
	c0-2.139-0.588-4.298-1.657-6.08l-7.563-12.966c-0.762-1.317-1.147-2.976-1.147-4.932V7.06c0-1.729,0.335-4.027,3.236-4.027
	c2.899,0,3.235,2.299,3.235,4.027v5.837h3.752V6.772C48.778,2.089,46.624,0,41.791,0c-4.638,0-6.989,2.399-6.989,7.132v6.265
	c0,2.536,0.685,4.196,1.949,6.374l6.984,12.171c1.033,1.845,1.436,3.306,1.436,5.216v7.273c0,3.817-2.118,4.388-3.38,4.388
	c-1.317,0-3.525-0.569-3.525-4.388V38.09L34.513,38.091L34.513,38.091z"/>
<rect x="80.884" y="0.432" fill="#FFFFFF" width="3.752" height="50.988"/>
<path fill="#FFFFFF" d="M121.321,51.421h3.735l-7.485-50.99h-5.616l-7.485,50.99h3.736l1.943-14.402h9.229L121.321,51.421z
	 M118.999,33.987h-8.473l3.721-30.954h1.03L118.999,33.987z"/>
<path fill="#FFFFFF" d="M147.268,51.421h3.752V28.017h3.311c5.757,0,7.421-1.664,7.421-7.419V7.853c0-5.756-1.664-7.421-7.421-7.421
	h-7.062V51.421z M153.826,24.986h-2.807V3.465h2.807c1.94,0,4.172,0.425,4.172,3.74v14.041
	C157.998,24.561,155.767,24.986,153.826,24.986"/>
<polygon fill="#FFFFFF" points="183.668,51.42 195.27,51.42 195.27,48.388 187.42,48.388 187.42,26.435 194.91,26.435 
	194.91,23.401 187.42,23.401 187.42,3.464 195.27,3.464 195.27,0.432 183.668,0.432 "/>
<polygon fill="#FFFFFF" points="69.729,51.42 73.439,51.42 79.708,25.925 73.439,0.432 69.729,0.432 76.493,25.926 76.459,26.054 
	"/>
</svg>
