<?xml version="1.0" encoding="utf-8"?>
<!-- Generator: Adobe Illustrator 27.7.0, SVG Export Plug-In . SVG Version: 6.00 Build 0)  -->
<svg version="1.1" id="レイヤー_1" xmlns="http://www.w3.org/2000/svg" xmlns:xlink="http://www.w3.org/1999/xlink" x="0px"
	 y="0px" viewBox="0 0 30 30" style="enable-background:new 0 0 30 30;" xml:space="preserve">
<style type="text/css">
	.st0{fill:#727388;}
	.st1{fill:#E5E5E5;}
</style>
<path class="st0" d="M28.1,1.9C26.9,0.7,25.2,0,23.5,0h-17C4.8,0,3.1,0.7,1.9,1.9S0,4.8,0,6.5v17c0,1.7,0.7,3.4,1.9,4.6
	C3.1,29.3,4.8,30,6.5,30h17c1.7,0,3.4-0.7,4.6-1.9c1.2-1.2,1.9-2.9,1.9-4.6v-17C30,4.8,29.3,3.1,28.1,1.9z"/>
<path class="st1" d="M12.8,30v-9.4H8.9v-3.9h3.8v-2.6c0-3.6,1.9-5.5,5.4-5.5c1.1,0,2.2,0.2,2.8,0.2H21V12h-1.5
	c-1.7,0-2.8,0.9-2.8,2.5v2.1H21l-0.6,3.8H17V30H12.8z"/>
</svg>
