<svg xmlns="http://www.w3.org/2000/svg" width="30" height="30" viewBox="0 0 30 30">
  <g id="icon_line3" transform="translate(-255 -7625)">
    <rect id="長方形_105" data-name="長方形 105" width="30" height="30" rx="6" transform="translate(255 7625)" fill="#c7c8d0"/>
    <g id="グループ_82" data-name="グループ 82" transform="translate(162.606 7509.412)">
      <path id="パス_117" data-name="パス 117" d="M116.772,129.555a11.991,11.991,0,0,0-.24-1.7,7.448,7.448,0,0,0-2.68-3.9,10.9,10.9,0,0,0-8.8-2.084,9.673,9.673,0,0,0-5.359,2.631c-2.243,2.213-2.883,4.794-1.752,7.535,1.106,2.68,3.307,4.13,5.992,4.935.547.166,1.119.246,1.672.363.664.141.83.326.8.983-.018.369-.123.725-.141,1.094-.012.215-.006.535.123.633a.785.785,0,0,0,.639-.037,12.837,12.837,0,0,0,1.426-.781,28.431,28.431,0,0,0,6.263-4.923A7.209,7.209,0,0,0,116.772,129.555Z" transform="translate(0 -0.094)" fill="#fff"/>
      <path id="パス_118" data-name="パス 118" d="M116.8,129.462a7.16,7.16,0,0,1-2.053,4.739,28.277,28.277,0,0,1-6.263,4.929,12.837,12.837,0,0,1-1.426.781c-.191.086-.51.141-.639.037s-.135-.418-.123-.633c.018-.369.123-.725.141-1.094.031-.664-.135-.848-.8-.983-.559-.117-1.131-.2-1.672-.363-2.686-.805-4.886-2.256-5.992-4.935-1.137-2.741-.5-5.322,1.752-7.535a9.714,9.714,0,0,1,5.359-2.631,10.9,10.9,0,0,1,8.8,2.084,7.414,7.414,0,0,1,2.68,3.9A14.351,14.351,0,0,1,116.8,129.462Zm-9.9-.35.1-.018c.6.787,1.2,1.567,1.782,2.36.184.252.43.436.707.27a.817.817,0,0,0,.307-.6c.031-1.119.012-2.243.012-3.368,0-.461-.166-.682-.51-.664-.406.025-.492.3-.486.651.012.682.006,1.371.006,2.188-.695-.922-1.3-1.733-1.905-2.544-.178-.24-.418-.412-.67-.246a.834.834,0,0,0-.326.6c-.031,1.137-.012,2.274-.018,3.411,0,.356.1.627.51.627s.5-.283.492-.633C106.9,130.457,106.9,129.781,106.9,129.111Zm4.536-1.014h1.321c.344,0,.6-.135.6-.5s-.234-.516-.578-.516h-1.77c-.4,0-.59.2-.59.608.006,1.168.006,2.336,0,3.5,0,.406.2.59.6.59.578-.006,1.149-.006,1.727,0,.338,0,.584-.111.615-.486.025-.32-.215-.516-.621-.522-.424-.006-.848,0-1.291,0V129.9c.43,0,.842-.006,1.254,0,.35.006.627-.074.664-.473.031-.326-.227-.529-.664-.529s-.842,0-1.26,0C111.439,128.6,111.439,128.386,111.439,128.1Zm-9.569,2.674v-3.085c0-.344-.123-.59-.5-.6s-.51.24-.51.584c0,1.162-.006,2.329,0,3.491,0,.443.172.6.627.6.559.006,1.119,0,1.678,0,.356,0,.621-.1.608-.516-.012-.381-.258-.492-.6-.486C102.754,130.777,102.33,130.771,101.869,130.771Zm3.386-1.377V127.71c0-.363-.129-.627-.522-.621-.363.006-.5.258-.5.6v3.46c0,.356.123.627.522.615s.5-.3.5-.639C105.25,130.549,105.256,129.972,105.256,129.394Z" transform="translate(-0.032)" fill="#454763"/>
      <g id="グループ_82-2" data-name="グループ 82">
        <path id="パス_119" data-name="パス 119" d="M236.3,212.789c0,.676-.006,1.346,0,2.022.006.35-.08.633-.492.633s-.51-.27-.51-.627c.006-1.137-.012-2.274.018-3.411a.834.834,0,0,1,.326-.6c.258-.166.5.012.67.246.6.811,1.211,1.623,1.905,2.544,0-.817.006-1.506-.006-2.188-.006-.35.074-.627.486-.651.338-.018.51.2.51.664,0,1.125.018,2.243-.012,3.368a.838.838,0,0,1-.307.6c-.27.166-.516-.018-.707-.27-.59-.793-1.186-1.573-1.782-2.36A.766.766,0,0,1,236.3,212.789Z" transform="translate(-129.431 -83.678)" fill="#c7c8d0"/>
        <path id="パス_120" data-name="パス 120" d="M309.726,211.972v.8h1.26c.43.006.688.2.664.529-.037.406-.313.486-.664.473-.412-.012-.817,0-1.254,0v.873c.443,0,.867-.006,1.291,0,.406.006.645.2.621.522-.031.369-.277.486-.615.486-.578-.006-1.149-.006-1.727,0-.4,0-.6-.178-.6-.59,0-1.168.006-2.335,0-3.5a.53.53,0,0,1,.59-.608c.59-.006,1.18,0,1.77,0,.35,0,.584.16.578.516s-.258.5-.6.5Z" transform="translate(-198.32 -83.875)" fill="#c7c8d0"/>
        <path id="パス_121" data-name="パス 121" d="M154.331,214.875c.467,0,.885.006,1.309,0,.338-.006.59.1.6.486.012.412-.252.516-.608.516-.559-.006-1.119.006-1.678,0-.455-.006-.627-.16-.627-.6-.006-1.162-.006-2.329,0-3.491,0-.338.141-.584.51-.584s.5.252.5.6C154.325,212.8,154.331,213.818,154.331,214.875Z" transform="translate(-52.494 -84.105)" fill="#c7c8d0"/>
        <path id="パス_122" data-name="パス 122" d="M209.22,213.309v1.727c0,.35-.092.633-.5.639s-.522-.258-.522-.615V211.6c0-.344.135-.6.5-.6.393-.006.522.258.522.621C209.214,212.185,209.22,212.75,209.22,213.309Z" transform="translate(-103.997 -83.916)" fill="#c7c8d0"/>
      </g>
    </g>
  </g>
</svg>
