<?xml version="1.0" encoding="utf-8"?>
<!-- Generator: Adobe Illustrator 27.7.0, SVG Export Plug-In . SVG Version: 6.00 Build 0)  -->
<svg version="1.1" id="レイヤー_1" xmlns="http://www.w3.org/2000/svg" xmlns:xlink="http://www.w3.org/1999/xlink" x="0px"
	 y="0px" viewBox="0 0 30 30" style="enable-background:new 0 0 30 30;" xml:space="preserve">
<style type="text/css">
	.st0{fill:#727388;}
	.st1{fill:#E5E5E5;}
</style>
<path class="st0" d="M28.1,1.9C26.9,0.7,25.2,0,23.5,0h-17C4.8,0,3.1,0.7,1.9,1.9S0,4.8,0,6.5v17c0,1.7,0.7,3.4,1.9,4.6
	C3.1,29.3,4.8,30,6.5,30h17c1.7,0,3.4-0.7,4.6-1.9c1.2-1.2,1.9-2.9,1.9-4.6v-17C30,4.8,29.3,3.1,28.1,1.9z"/>
<path class="st1" d="M11.5,6.6c-0.9,0-1.5,0.2-2,0.4C8.9,7.2,8.4,7.5,8,8C7.5,8.5,7.2,8.9,7,9.5c-0.2,0.5-0.3,1.2-0.4,2.1
	s0,1.2,0,3.5s0,2.6,0.1,3.5c0,0.9,0.2,1.5,0.4,2c0.2,0.6,0.5,1,1,1.5s0.9,0.8,1.5,1c0.5,0.2,1.2,0.3,2.1,0.4c0.9,0,1.2,0,3.5,0
	s2.6,0,3.5-0.1c0.9,0,1.5-0.2,2-0.4c0.6-0.2,1-0.5,1.5-1s0.8-0.9,1-1.5c0.2-0.5,0.3-1.2,0.4-2.1c0-0.9,0-1.2,0-3.5s0-2.6-0.1-3.5
	c0-0.9-0.2-1.5-0.4-2.1c-0.2-0.6-0.5-1-1-1.5s-0.9-0.8-1.5-1c-0.5-0.2-1.2-0.3-2.1-0.4s-1.2,0-3.5,0S12.4,6.6,11.5,6.6 M11.6,21.9
	c-0.8,0-1.3-0.2-1.6-0.3c-0.4-0.2-0.7-0.3-1-0.6s-0.5-0.6-0.6-1c-0.1-0.3-0.3-0.7-0.3-1.6S8,17.2,8,15s0-2.5,0-3.4
	c0-0.8,0.2-1.3,0.3-1.6c0.2-0.4,0.3-0.7,0.6-1s0.6-0.5,1-0.6c0.3-0.1,0.7-0.3,1.6-0.3c0.9,0,1.2-0.1,3.4-0.1c2.3,0,2.5,0,3.4,0
	c0.8,0,1.3,0.2,1.6,0.3c0.4,0.2,0.7,0.3,1,0.6s0.5,0.6,0.6,1c0.1,0.3,0.3,0.7,0.3,1.6c0,0.9,0.1,1.2,0.1,3.4c0,2.3,0,2.5,0,3.4
	c0,0.8-0.2,1.3-0.3,1.6c-0.2,0.4-0.3,0.7-0.6,1c-0.3,0.3-0.6,0.5-1,0.6c-0.3,0.1-0.7,0.3-1.6,0.3s-1.2,0.1-3.4,0.1
	S12.5,21.9,11.6,21.9 M18.5,10.5c0,0.6,0.5,1,1,1s1-0.5,1-1c0-0.6-0.5-1-1-1l0,0C18.9,9.5,18.5,9.9,18.5,10.5 M10.7,15
	c0,2.4,2,4.3,4.3,4.3c2.4,0,4.3-2,4.3-4.3s-2-4.3-4.3-4.3C12.6,10.7,10.7,12.6,10.7,15 M12.2,15c0-1.6,1.3-2.8,2.8-2.8
	c1.6,0,2.8,1.3,2.8,2.8c0,1.6-1.3,2.8-2.8,2.8C13.5,17.8,12.2,16.6,12.2,15L12.2,15"/>
</svg>
