<?xml version="1.0" encoding="utf-8"?>
<!-- Generator: Adobe Illustrator 22.1.0, SVG Export Plug-In . SVG Version: 6.00 Build 0)  -->
<svg version="1.1" id="レイヤー_1" xmlns="http://www.w3.org/2000/svg" xmlns:xlink="http://www.w3.org/1999/xlink" x="0px"
	 y="0px" viewBox="0 0 26.1 22.7" style="enable-background:new 0 0 26.1 22.7;" xml:space="preserve">
<style type="text/css">
	.st0{fill:#707070;}
</style>
<g transform="translate(-430 500)">
	<g>
		<path class="st0" d="M443-477.3c-0.2,0-0.5-0.1-0.7-0.2c-1-0.9-10.2-9-11.7-12.2c-0.8-1.7-0.9-3.6-0.3-5.4
			c0.6-1.8,1.9-3.2,3.7-4.1c3.2-1.5,7-0.5,8.9,2.3c0.9-1.2,2-2.1,3.5-2.6c1.8-0.6,3.7-0.5,5.5,0.3c1.7,0.8,3,2.3,3.7,4.1
			s0.5,3.7-0.3,5.5c-1.4,3.2-10.6,11.3-11.6,12.2C443.5-477.4,443.3-477.3,443-477.3z M437.2-498c-0.8,0-1.5,0.2-2.2,0.5
			c-1.2,0.6-2.2,1.6-2.6,2.9c-0.5,1.3-0.4,2.7,0.2,3.9c1,2.2,7.4,8.2,10.5,11c3.1-2.8,9.5-8.8,10.5-11c0.6-1.3,0.7-2.7,0.2-4
			c-0.5-1.3-1.4-2.3-2.6-2.9c-1.2-0.6-2.6-0.7-3.9-0.2c-1.3,0.5-2.3,1.4-2.9,2.6c-0.1,0.2-0.2,0.4-0.2,0.7c-0.1,0.4-0.5,0.7-1,0.7
			c0,0,0,0,0,0c-0.4,0-0.8-0.3-1-0.7c-0.1-0.2-0.2-0.5-0.3-0.7c-0.6-1.2-1.6-2.2-2.9-2.6C438.3-497.9,437.8-498,437.2-498z"/>
	</g>
</g>
</svg>
