<?xml version="1.0" encoding="utf-8"?>
<!-- Generator: Adobe Illustrator 22.1.0, SVG Export Plug-In . SVG Version: 6.00 Build 0)  -->
<svg version="1.1" id="レイヤー_1" xmlns="http://www.w3.org/2000/svg" xmlns:xlink="http://www.w3.org/1999/xlink" x="0px"
	 y="0px" viewBox="0 0 30 30" style="enable-background:new 0 0 30 30;" xml:space="preserve">
<g>
	<path d="M28.1,1.9C26.9,0.7,25.2,0,23.5,0h-17C4.8,0,3.1,0.7,1.9,1.9C0.7,3.1,0,4.8,0,6.5v17c0,1.7,0.7,3.4,1.9,4.6
		C3.1,29.3,4.8,30,6.5,30h17c1.7,0,3.4-0.7,4.6-1.9c1.2-1.2,1.9-2.9,1.9-4.6v-17C30,4.8,29.3,3.1,28.1,1.9z M24.2,18.3
		c-0.5,1.6-1.9,2.8-3.6,2.9c-1.4,0-2.7-0.8-3.3-2.2l-0.1-0.1l-0.1,0c-0.8,0.5-1.6,0.8-2.6,0.8c-2.6,0-4.7-2.1-4.8-4.8
		c0-2.6,2.1-4.7,4.8-4.8c0.8,0,1.6,0.2,2.2,0.6l0.1,0.1v-0.1c0-0.2,0.2-0.4,0.4-0.4h1.8c0.2,0,0.4,0.2,0.4,0.4v6.9c0,0.6,0.4,1,1,1
		c0.4,0,0.9-0.5,1.1-1.1c0.3-0.8,0.4-1.6,0.4-2.5c0-3.9-3.2-7.1-7.2-7.1c-3.9,0-7.1,3.2-7.2,7.1c0,3.9,3.2,7.1,7.1,7.2
		c0.8,0,1.5-0.1,2.2-0.3l0.6-0.2c0,0,0.1,0,0.1,0c0.2,0,0.3,0.1,0.4,0.3l0.6,1.7c0,0.1,0,0.2,0,0.3c0,0.1-0.1,0.2-0.2,0.2L18,24.3
		c-1,0.3-2,0.5-3,0.5c-5.4,0-9.7-4.4-9.8-9.8c0-5.4,4.4-9.7,9.8-9.8c5.4,0,9.7,4.4,9.8,9.8C24.7,16.1,24.5,17.3,24.2,18.3z"/>
	<path d="M14.6,12.7c-1.3,0-2.3,1.1-2.3,2.3c0,1.3,1.1,2.3,2.3,2.4c1.3,0,2.3-1.1,2.3-2.4C16.9,13.7,15.9,12.7,14.6,12.7z"/>
</g>
</svg>
