<?xml version="1.0" encoding="utf-8"?>
<!-- Generator: Adobe Illustrator 27.7.0, SVG Export Plug-In . SVG Version: 6.00 Build 0)  -->
<svg version="1.1" id="レイヤー_1" xmlns="http://www.w3.org/2000/svg" xmlns:xlink="http://www.w3.org/1999/xlink" x="0px"
	 y="0px" viewBox="0 0 30 30" style="enable-background:new 0 0 30 30;" xml:space="preserve">
<style type="text/css">
	.st0{fill:#727388;}
	.st1{fill:#E5E5E5;}
</style>
<path class="st0" d="M28.1,1.9C26.9,0.7,25.2,0,23.5,0h-17C4.8,0,3.1,0.7,1.9,1.9S0,4.8,0,6.5v17c0,1.7,0.7,3.4,1.9,4.6
	C3.1,29.3,4.8,30,6.5,30h17c1.7,0,3.4-0.7,4.6-1.9c1.2-1.2,1.9-2.9,1.9-4.6v-17C30,4.8,29.3,3.1,28.1,1.9z"/>
<path class="st1" d="M15,23.5c-0.9,0-1.7-0.1-2.5-0.4c0.3-0.6,0.9-1.5,1-2.2c0.1-0.4,0.5-2,0.5-2c0.3,0.5,1.1,1,1.9,1
	c2.5,0,4.4-2.3,4.4-5.3c0-2.8-2.3-4.9-5.2-4.9c-3.6,0-5.6,2.4-5.6,5.1c0,1.2,0.7,2.8,1.7,3.3c0.2,0.1,0.3,0,0.3-0.1s0.2-0.7,0.2-1
	c0-0.1,0-0.2-0.1-0.2c-0.3-0.4-0.6-1.2-0.6-1.9c0-1.9,1.4-3.7,3.8-3.7c2.1,0,3.5,1.4,3.5,3.4c0,2.3-1.2,3.9-2.7,3.9
	c-0.8,0-1.5-0.7-1.3-1.5c0.2-1,0.7-2.1,0.7-2.8c0-0.6-0.3-1.2-1.1-1.2s-1.5,0.9-1.5,2.1c0,0.7,0.3,1.3,0.3,1.3s-0.8,3.5-1,4.2
	s-0.1,1.8,0,2.4c-3.1-1.2-5.4-4.3-5.4-7.9c0-4.7,3.8-8.4,8.4-8.4c4.7,0,8.4,3.8,8.5,8.5C23.5,19.7,19.7,23.5,15,23.5z"/>
</svg>
