<?xml version="1.0" encoding="utf-8"?>
<!-- Generator: Adobe Illustrator 22.1.0, SVG Export Plug-In . SVG Version: 6.00 Build 0)  -->
<svg version="1.1" id="レイヤー_1" xmlns="http://www.w3.org/2000/svg" xmlns:xlink="http://www.w3.org/1999/xlink" x="0px"
	 y="0px" viewBox="0 0 25.7 25.7" style="enable-background:new 0 0 25.7 25.7;" xml:space="preserve">
<style type="text/css">
	.st0{fill:#707070;}
</style>
<path class="st0" d="M25.7,24.3l-5.4-5.4c1.7-2,2.7-4.6,2.7-7.4C23,5.2,17.8,0,11.5,0S0,5.2,0,11.5c0,0,0,0,0,0
	C0,17.8,5.2,23,11.5,23c2.8,0,5.4-1,7.4-2.7l5.4,5.4L25.7,24.3z M2,11.5C2,6.3,6.3,2,11.5,2c5.2,0,9.5,4.3,9.5,9.5
	c0,5.2-4.3,9.5-9.5,9.5C6.3,21,2,16.7,2,11.5z"/>
</svg>
