<?xml version="1.0" encoding="utf-8"?>
<!-- Generator: Adobe Illustrator 27.7.0, SVG Export Plug-In . SVG Version: 6.00 Build 0)  -->
<svg version="1.1" id="レイヤー_1" xmlns="http://www.w3.org/2000/svg" xmlns:xlink="http://www.w3.org/1999/xlink" x="0px"
	 y="0px" viewBox="0 0 30 30" style="enable-background:new 0 0 30 30;" xml:space="preserve">
<style type="text/css">
	.st0{fill:#C7C8D0;}
	.st1{fill:#454763;}
</style>
<path class="st0" d="M30,6.5v17c0,1.7-0.7,3.4-1.9,4.6c-1.2,1.2-2.9,1.9-4.6,1.9h-17c-1.7,0-3.4-0.7-4.6-1.9C0.7,26.9,0,25.2,0,23.5
	v-17c0-1.7,0.7-3.4,1.9-4.6S4.8,0,6.5,0h17c1.7,0,3.4,0.7,4.6,1.9C29.3,3.1,30,4.8,30,6.5z"/>
<g>
	<polygon class="st1" points="17.6,22.2 14,17.1 9.6,22.2 7.5,22.2 13.1,15.7 7.6,7.8 12.4,7.8 15.8,12.6 20,7.8 22,7.8 16.7,14 
		22.5,22.2 	"/>
	<polygon class="st0" points="11.8,9 20.2,21 18.3,21 10,9 10,9 	"/>
</g>
</svg>
