<?xml version="1.0" encoding="utf-8"?>
<!-- Generator: Adobe Illustrator 27.7.0, SVG Export Plug-In . SVG Version: 6.00 Build 0)  -->
<svg version="1.1" id="レイヤー_1" xmlns="http://www.w3.org/2000/svg" xmlns:xlink="http://www.w3.org/1999/xlink" x="0px"
	 y="0px" viewBox="0 0 30 30" style="enable-background:new 0 0 30 30;" xml:space="preserve">
<style type="text/css">
	.st0{fill:#C7C8D0;}
	.st1{fill:#454763;}
</style>
<path class="st0" d="M28.1,1.9C26.9,0.7,25.2,0,23.5,0h-17C4.8,0,3.1,0.7,1.9,1.9S0,4.8,0,6.5v17c0,1.7,0.7,3.4,1.9,4.6
	C3.1,29.3,4.8,30,6.5,30h17c1.7,0,3.4-0.7,4.6-1.9c1.2-1.2,1.9-2.9,1.9-4.6v-17C30,4.8,29.3,3.1,28.1,1.9z"/>
<path class="st1" d="M23.1,19.1c-0.2,0.7-0.8,1.3-1.5,1.5c-1.3,0.3-6.6,0.3-6.6,0.3s-5.3,0-6.6-0.3c-0.7-0.2-1.3-0.8-1.5-1.5
	C6.5,17.8,6.5,15,6.5,15s0-2.8,0.3-4.1C7,10.2,7.6,9.6,8.3,9.4C9.7,9.1,15,9.1,15,9.1s5.3,0,6.6,0.3c0.7,0.2,1.3,0.8,1.5,1.5
	c0.3,1.3,0.3,4.1,0.3,4.1S23.5,17.8,23.1,19.1z"/>
<polygon class="st0" points="13.3,17.5 13.3,12.5 17.7,15 "/>
</svg>
