<?xml version="1.0" encoding="utf-8"?>
<!-- Generator: Adobe Illustrator 24.2.1, SVG Export Plug-In . SVG Version: 6.00 Build 0)  -->
<svg version="1.1" id="レイヤー_1" xmlns="http://www.w3.org/2000/svg" xmlns:xlink="http://www.w3.org/1999/xlink" x="0px"
	 y="0px" viewBox="0 0 425.1 120.9" style="enable-background:new 0 0 425.1 120.9;" xml:space="preserve">
<style type="text/css">
	.st0{fill:#FFFFFF;}
</style>
<g id="A">
	<g>
		<g>
			<path class="st0" d="M153,26.5l9.2-1L134,74.8c14.3-3.9,30-17.5,42.4-39.3l0.8,0.8c-12.9,22.7-28.7,36.2-44.3,40.1
				c-13.6,28.4-31.8,43.5-52.1,44.4c-13.3,0.6-21.1-5.8-21.5-15c-0.3-8,5.4-14.2,13.1-14.5c1.7-0.1,3.5,0,5.1,0.4l0,1.3
				c-1.1-0.1-1.9-0.1-2.6,0c-5.1,0.2-8.9,5.4-8.6,12.4c0.4,8.6,6.5,14.2,15.2,13.8c14.5-0.7,24.6-10.6,36.2-29.3
				c6-9.8,10.8-19.4,15.9-27.2l-0.4-0.3c-8.2,10.2-16,15.5-22.8,15.8c-4.3,0.2-8.1-3.9-8.4-9.9c-0.3-8,3.9-18.8,12.4-28.1
				c8.2-9,17.3-13.8,23.5-14.1c5.6-0.3,9,3.4,9.6,10.2L153,26.5z M122.5,38.8c-8.7,11.1-12.5,22.4-12.2,28.8c0.2,5,1.9,7.4,5.4,7.2
				c4-0.2,9.4-4.2,15.8-12c8.2-9.9,11.9-21.2,11.6-27.8c-0.2-5.6-2.1-7.8-6-7.6C134,27.6,128.5,31.2,122.5,38.8z"/>
		</g>
		<path class="st0" d="M7.3,19.2c0-7-1.1-8.4-4.9-9.7l-1-0.3C0.2,8.8,0,8.7,0,8.3V7.5C0,7.2,0.2,7,0.8,6.7c3-1.3,8.4-4.1,11-5.7
			c0.8-0.6,1.6-1,2.3-1c0.7,0,0.9,0.5,0.8,1.8c-0.1,0.8-0.1,12.7-0.1,22v12.1c3.3-3.2,9.3-5.2,14.4-5.2c9.2,0,19.1,7.4,19.1,22.3
			c0,12.2-9.8,23.6-21.7,23.6c-5.8,0-9.9-1.3-12.3-2.7l-4.2,2.3c-0.4,0.3-0.7,0.4-1.3,0.3l-1.3-0.3C7.1,76,7,75.8,7.1,75.3
			c0.2-1.5,0.2-10.1,0.2-17.7C7.3,57.6,7.3,19.2,7.3,19.2z M14.8,52.9c0,8.6,0.3,11.8,1.6,15.1c1,2.5,5.4,5.2,9.9,5.2
			c6.3,0,14-4.3,14-17.9c0-10.1-5.3-19.7-15.5-19.7c-3.9,0-7.6,1.3-9.9,3.7L14.8,52.9L14.8,52.9z"/>
		<path class="st0" d="M182.6,44.3c0,5.4,0,21.2,0.1,24.4c0.1,1.8,0.5,3.2,2.7,3.2h4.7c0.9,0,1.1,0.3,1.1,0.9v1.8c0,0.6-0.2,1-0.6,1
			c-0.7,0-5.3-0.3-11.8-0.3c-6.7,0-10.8,0.3-11.8,0.3c-0.5,0-0.7-0.4-0.7-1v-1.8c0-0.7,0.2-0.9,1.4-0.9h5c1.1,0,2.2-0.7,2.3-2.6
			c0.1-3.2,0.1-21.1,0.1-27.2v-6.6c0-7.4-0.1-16.9-0.3-19.6c-0.2-3.5-1.9-5.2-5.2-6.3L167.5,9c-0.5-0.2-0.6-0.3-0.6-0.5V7.6
			c0-0.3,0.3-0.5,0.9-0.7c3.6-1.7,8.3-3.5,12.2-6c0.9-0.6,1.6-0.8,2.2-0.8c0.7,0,0.9,0.5,0.8,1.9c-0.1,5.7-0.4,27.4-0.4,33.1
			L182.6,44.3L182.6,44.3z"/>
		<path class="st0" d="M252.3,47.6c-0.2,0.9-0.3,2.6-0.3,5c0,10.2,6.5,17.9,14.8,17.9c6.4,0,10.8-3.6,12.6-7.1
			c0.2-0.4,0.6-0.6,0.9-0.5l1.3,0.7c0.3,0.1,0.5,0.4,0,1.6c-1.9,4.2-7.3,11.4-16.6,11.4c-5.9,0-12.5-1.8-16.4-7.4
			C245,63.9,244,60,244,52.7c0-4.1,1-11,6.6-16.6c4.5-4.6,9.7-5.5,14.9-5.5c12,0,15.3,11.2,15.3,15.3c0,1.5-1.3,1.7-2.9,1.7
			C277.9,47.6,252.3,47.6,252.3,47.6z M268.9,44.5c2,0,2.8-0.5,2.8-1.5c0-2.4-1.3-9.3-8-9.3c-4.6,0-9,3-10.9,10.7L268.9,44.5
			L268.9,44.5z"/>
		<path class="st0" d="M311.2,62.3c0,7.8,3.5,9.2,5.4,9.2c2.4,0,5.4-0.4,6.9-1.4c0.5-0.3,0.9-0.2,1.3,0.2l0.5,0.9
			c0.3,0.4,0.1,0.8-0.2,1.1c-1,1-5.3,4.2-11.6,4.2c-5.1,0-10.1-4.9-10.1-8.9c0-4.3,0.3-13.4,0.3-14.9v-2.3c0-1.9,0.1-8.8,0.2-13.2
			h-6.4c-0.9,0-1.6-0.4-1.6-1.2s0.6-1.1,1.9-1.9c2.5-1.5,10.5-9.6,11.9-13.1c0.3-0.8,0.8-1,1.5-1c0.8,0,1.1,0.7,1.1,1.6l-0.5,10.3
			h14.5c0.6,0,0.9,0.5,0.7,0.9l-1,3.6c-0.1,0.5-0.3,0.8-0.9,0.8h-13.4c-0.2,4.8-0.3,9.8-0.3,14.6v10.5H311.2z"/>
		<path class="st0" d="M354.9,62.3c0,7.8,3.5,9.2,5.4,9.2c2.4,0,5.4-0.4,6.9-1.4c0.5-0.3,0.9-0.2,1.2,0.2l0.5,0.9
			c0.3,0.4,0.1,0.8-0.2,1.1c-1,1-5.3,4.2-11.5,4.2c-5.1,0-10.1-4.9-10.1-8.9c0-4.3,0.3-13.4,0.3-14.9v-2.3c0-1.9,0.1-8.8,0.2-13.2
			h-6.4c-0.9,0-1.6-0.4-1.6-1.2s0.6-1.1,1.9-1.9c2.5-1.5,10.5-9.6,11.9-13.1c0.3-0.8,0.8-1,1.5-1c0.8,0,1,0.7,1,1.6l-0.5,10.3h14.5
			c0.6,0,0.9,0.5,0.7,0.9l-1.1,3.6c-0.1,0.5-0.3,0.8-0.9,0.8h-13.4c-0.2,4.8-0.3,9.8-0.3,14.6V62.3z"/>
		<path class="st0" d="M415.9,62.9c0,5.9,1.3,7.8,3.1,7.8c1.7,0,3.1-0.8,3.6-1.6c0.4-0.5,0.6-0.7,1.1-0.4l1,0.8
			c0.3,0.3,0.5,0.8-0.1,1.9c-0.8,1.6-2.8,5.1-8.1,5.1c-3.7,0-6.5-2.7-7.4-7h-0.2c-2.2,2.6-5.6,4.8-10.3,6.4c-2,0.6-3.9,0.6-6.2,0.6
			c-2.5,0-6.2-2.1-6.2-8.7c0-4.8,2.2-9,10.4-12.6c4.7-2.1,10.1-4.6,11.8-6v-6.7c-0.2-1.8-0.3-4.5-1.5-5.8c-1.1-1.4-3.2-2.3-6.2-2.3
			c-2.1,0-5.3,0.8-6.8,2.2c-1.5,1.3-0.5,2.9-0.5,4.8c0,3.7-1.3,5.9-5.5,5.9c-1.7,0-2.5-0.9-2.5-3.3c0-3.3,2.9-7.3,7.2-9.8
			c4.4-2.6,8-3.6,12.7-3.6c4.9,0,6.9,1.5,8.3,2.8c2.2,2.2,2.3,4.6,2.3,7.4v15.9L415.9,62.9L415.9,62.9z M408.3,52.4
			c-3.8,2.8-14,4.9-14,13.5c0,3.9,2.3,5.7,5.4,5.7c3,0,8.5-3.7,8.5-6.5V52.4H408.3z"/>
		<path class="st0" d="M65.8,73.8c7.7-0.5,7.7-2.6,7.7-10.6V49.8c0-0.7,0-1.4,0-2c0-3.8-0.3-5.8-4.1-8.7l-1.9-1.6v-0.7l12.4-4.6
			l1,0.4c-0.1,3.9-0.2,6.7-0.2,8.5v22c0,0.8,0,1.4,0,2c0,6.6,0.3,8.2,7.5,8.9v1.6c-3.4-0.1-7-0.1-10.8-0.1c-3.7,0-7.6,0-11.6,0.1
			V73.8z M76.7,8c2.7,0,4.7,2,4.7,4.7c0,2.8-2.1,4.7-4.7,4.7c-2.9,0-4.8-1.9-4.8-4.7C71.9,10.1,74,8,76.7,8z"/>
		<path class="st0" d="M205.2,73.8c7.7-0.5,7.7-2.6,7.7-10.6V49.8c0-0.7,0-1.4,0-2c0-3.8-0.3-5.8-4.1-8.7l-1.9-1.6v-0.7l12.4-4.6
			l1,0.4c-0.1,3.9-0.2,6.7-0.2,8.5v22c0,0.8,0,1.4,0,2c0,6.6,0.3,8.2,7.5,8.9v1.6c-3.4-0.1-7-0.1-10.9-0.1c-3.7,0-7.6,0-11.6,0.1
			v-1.8H205.2z M216,8c2.7,0,4.7,2,4.7,4.7c0,2.8-2.1,4.7-4.7,4.7c-2.9,0-4.8-1.9-4.8-4.7C211.3,10.1,213.3,8,216,8z"/>
	</g>
</g>
<g id="マーク付見本">
</g>
<g id="ガイドライン">
</g>
</svg>
