<?xml version="1.0" encoding="utf-8"?>
<!-- Generator: Adobe Illustrator 26.0.0, SVG Export Plug-In . SVG Version: 6.00 Build 0)  -->
<svg version="1.1" xmlns="http://www.w3.org/2000/svg" xmlns:xlink="http://www.w3.org/1999/xlink" x="0px" y="0px"
	 viewBox="0 0 170.1 29.4" style="enable-background:new 0 0 170.1 29.4;" xml:space="preserve">
<style type="text/css">
	.st0{fill:#FFFFFF;}
</style>
<g id="guide">
</g>
<g id="logo">
	<g>
		<path class="st0" d="M51.7,0.5C41.6,0.5,36.9,8,36.9,15.1c0,6.8,4.5,14.1,14.3,14.1c8.8,0,14.8-6.1,14.8-15.1
			C66,6.2,60,0.5,51.7,0.5z M58.1,24.4c-2.1,2.1-4.6,2.4-5.9,2.4c-6.3,0-10.5-5.1-10.5-12.8c0-3.7,1-6.6,3-8.6
			c1.6-1.6,3.7-2.4,6.1-2.4c6.1,0,10.4,5.1,10.4,12.4C61.2,19.3,60.2,22.3,58.1,24.4z"/>
		<path class="st0" d="M99.7,11.5v4c0,4.6-0.3,6.9-2.2,8.7c-1.3,1.3-3.2,1.7-4.7,1.7c-1.4,0-3.9-0.2-5.5-1.6
			c-1.6-1.4-2.6-3.3-2.6-7.9v-5c0-5.3,0.2-9.4,0.4-10.8l-5.1,0c0.3,1.2,0.5,5.4,0.5,10.8v5.9c0,5.4,1.3,7.8,3.2,9.5
			c2.1,1.9,5.3,2.5,8.2,2.5c2.5,0,5.4-0.4,7.6-2.4c3.4-2.8,3.7-7.1,3.7-11.5v-4c0-5.3,0.2-9.4,0.4-10.8l-4.6,0
			C99.5,2.1,99.7,6.2,99.7,11.5z"/>
		<path class="st0" d="M163.7,25.8c-1.6,0-4.5,0-4.9-0.4c-0.4-0.3-0.2-6.5-0.3-9.8c0,0,0-0.1,0.1-0.1c0.9,0,5.2,0.1,6.4,0.1
			c1.6,0.1,2.2,0.3,2.9,0.7c0-1,0.1-3,0.3-4.2c-0.4,0.1-1.2,0.3-3.4,0.3c-1.2,0-5.5,0-6.2,0c-0.1,0-0.1-0.1-0.1-0.2V4
			c0-0.1,0.1-0.1,0.1-0.1c2.4,0,5.2,0.1,6.4,0.1c2,0.2,2.9,0.5,3.5,0.9c0-1.8,0.2-3.4,0.3-4.1l-15,0c0.3,1.1,0.5,4.7,0.5,10.8V18
			c0,5.4-0.3,9.6-0.4,11l13.1,0c1.5,0,1.9,0,2.1-0.1c0.1-1,0.5-2.7,0.9-3.9C168.8,25.5,166.9,25.8,163.7,25.8z"/>
		<path class="st0" d="M132,16.3c5.4-3.2,7.1-11.6,0.6-14.7c-1.3-0.6-3.9-0.9-6.1-0.9c-1.5,0-7.9,0.1-7.9,0.1
			c0.7,3.1,0.5,10.6,0.6,17.3c0.1,3.4-0.3,9.4-0.5,11h5c-0.5-3.2-0.5-11.3-0.5-11.3c0-0.1,0-0.2,0.1-0.2c0.9,0,4.7,0.1,4.7,0.1
			c0.4,0,0.6,0.2,0.8,0.5c1.6,2.2,5.1,7.8,6.7,9.2c1.1,1,2.1,1.5,3.7,1.7c0.6,0.1,1.5,0.1,2.8-0.1C139,26.2,134.6,19.8,132,16.3z
			 M130.1,14.1c-1.6,1-5.7,0.6-6.6,0.3c-0.1-0.1-0.1-0.1-0.1-0.4V3.9c0-0.1,0-0.2,0.1-0.3c0.4-0.1,1.8-0.1,2.8-0.1
			c3.4,0,6.2,2,6.2,5.9C132.4,11.6,131.7,13.1,130.1,14.1z"/>
		<polygon class="st0" points="13.5,0.8 13.5,0.8 13.5,0.8 		"/>
		<path class="st0" d="M13.5,0.8C13.2,0.2,13.1,0,13,0c-0.2-0.1-0.5,0.8-0.5,0.8C11.9,2,4.6,18.9,4.6,18.9C2.8,23.1,1,27,0,29h4.8
			c0.4-1.7,1.6-4.8,2.6-7.7c0-0.1,0.1-0.1,0.2-0.1l10.1,0c0.1,0,0.1,0,0.1,0.1c1,2.4,2.2,6,2.8,7.7l6.1,0c-1.1-1.6-3.8-6.7-5.6-10.7
			C18.6,12.2,13.5,0.8,13.5,0.8z M16.7,18.3H8.6c-0.1,0-0.1,0-0.1-0.1l4-10.5l4.3,10.5C16.8,18.3,16.8,18.3,16.7,18.3z"/>
	</g>
</g>
</svg>
