<?xml version="1.0" encoding="utf-8"?>
<!-- Generator: Adobe Illustrator 18.0.0, SVG Export Plug-In . SVG Version: 6.00 Build 0)  -->
<!DOCTYPE svg PUBLIC "-//W3C//DTD SVG 1.1//EN" "http://www.w3.org/Graphics/SVG/1.1/DTD/svg11.dtd">
<svg version="1.1" id="レイヤー_1" xmlns="http://www.w3.org/2000/svg" xmlns:xlink="http://www.w3.org/1999/xlink" x="0px"
	 y="0px" viewBox="0 277.1 841.9 48.2" enable-background="new 0 277.1 841.9 48.2" xml:space="preserve">
<g>
	<path fill="#FFFFFF" stroke="#FFFFFF" stroke-width="0.7087" stroke-miterlimit="10" d="M5.5,281.4c3.6,0,4.3,0.1,7.4,0.1
		c0.1,0,0.5,0.4,0.7,0.8c0.7,2.2,1,2.8,2.1,5.4c3.2,7,9.6,21.2,10.4,22.3c0.1,0.2,0.4,0.3,0.5,0.2c0.5-1,10.9-21.8,11.8-24.4
		c0.1-0.2,1-2.3,1.3-3.4c0.1-0.3,0.5-0.9,0.7-0.9c2,0,6.6-0.2,7-0.2c0.8,0,1.4,0.1,1.4,0.7c0,0.4-0.4,0.8-1.4,1
		c-0.9,0.2-1.6,0.4-2.5,0.8c-0.9,0.3-1.7,1.5-1.7,4.6c0,16.4,0.7,23.9,0.8,25.6c0.3,2.6,1,3.3,3.6,4c1,0.2,1.5,0.7,1.5,1.1
		c0,0.4-0.8,0.8-1.6,0.8c-0.7,0-4.9-0.3-7-0.3c-1.1,0-2.9,0.2-4.3,0.2c-0.7,0-1.5-0.2-1.5-0.9c0-0.5,0.7-0.9,1.4-1.1
		c2.3-0.7,2.4-2.1,2.5-4.3c0.2-2.6,0.1-19.8-0.1-22.8c-0.1-0.2-0.2-0.8-0.4-0.3c-0.8,1.3-7,14.3-9.2,19.1c-1.3,3.1-2.6,6.1-3.5,8.4
		c-0.7,1.7-0.9,1.6-1.3,1.6c-0.3,0-0.7-0.4-0.9-1.1c-0.4-1.5-1-3.4-2.1-6.2c-3.1-7.8-7.5-17.2-9.6-22.2c-0.2-0.4-0.3-0.4-0.4,0.2
		c-0.4,2.5-1.1,17.4-0.9,22.8c0.1,3.1,0.5,3.8,3.4,4.8c1.2,0.3,1.5,0.5,1.5,1.1c0,0.4-0.7,0.7-1.5,0.7c-1.3,0.2-3.6,0-5.1,0
		c-1.3,0-3.1,0.2-4.5,0.2c-0.9,0-1.4-0.2-1.4-0.9c0-0.2,0.4-0.7,1.1-0.9c3.5-1.1,3.8-2.1,4.3-5.5c0.5-4,1.7-21.1,1.9-25.6
		c0-0.4-0.1-2.7-2.5-3.4c-0.9-0.2-1.6-0.4-2.3-0.7c-0.4-0.1-0.9-0.5-0.9-0.9C3.9,281.4,4.3,281.4,5.5,281.4z"/>
	<path fill="#FFFFFF" stroke="#FFFFFF" stroke-width="0.7087" stroke-miterlimit="10" d="M74.2,282c0.4,1.6,1.4,4.3,2.4,7.3
		c2.9,8.6,7.1,20.3,8,22.7c1.9,4.8,2.7,5.4,5.2,6c0.9,0.3,1.3,0.5,1.3,1s-0.4,0.8-1.7,0.8c-1.9,0-4.6-0.3-7-0.3
		c-1.7,0-2.5,0.1-3.9,0.1s-1.7-0.4-1.7-0.7s0.3-0.8,1.3-1c2.6-0.5,2.4-1.7,2.2-3.1c-0.4-2.4-1.9-6.3-3.2-10
		c-0.1-0.2-0.3-0.5-1.9-0.5c-3.1,0-8,0.1-9.2,0.2c-0.2,0-0.5,0.3-0.7,0.4c-1.4,3.8-2.9,8.8-2.9,10.4c0,0.7,0.2,1.7,2.7,2.5
		c1,0.3,1.5,0.7,1.5,1.1c0,0.5-0.9,0.8-1.5,0.8c-1,0-2.3-0.2-4.4-0.2s-4.9,0.3-5.8,0.3c-1,0-1.3-0.2-1.3-0.5c0-0.3,0.4-0.9,1.2-1.2
		c2.8-1,3.5-1.2,5.1-5c1.3-3.1,7.6-20.9,10-27.2c0.2-0.4,0.3-1,0.3-1.2c0-0.2,0-0.3,0.1-0.4c0.5-0.7,1.3-2.3,1.6-2.9
		c0.4-0.4,0.7-0.7,0.9-0.7C73.5,280.4,73.7,280.7,74.2,282z M75.9,301.1c-1-3.1-3.8-11.9-4.4-12.7c-0.2-0.3-0.3-0.4-0.4,0
		c-1,2.8-3.9,11.1-4.4,12.9c-0.1,0.2,0.1,0.4,0.3,0.4c2.2-0.1,6.9,0,8.7-0.2C75.8,301.6,76,301.2,75.9,301.1z"/>
	<path fill="#FFFFFF" stroke="#FFFFFF" stroke-width="0.7087" stroke-miterlimit="10" d="M101,287.3c-0.2-2.7-0.2-3.6-3.3-4.2
		c-1.2-0.2-1.5-0.7-1.5-1.1c0-0.4,0.7-0.7,1.4-0.7c1.4,0,4.3,0.2,6.1,0.2c2.7,0,4-0.2,6-0.2c0.9,0,1.4,0.2,1.4,0.7
		c0,0.5-0.5,0.9-1.4,1c-3.3,0.7-3.2,2.2-3.4,3.8c-0.3,2-0.3,5.8-0.3,17.4c0,3.3,0.1,6.9,0.2,8.8c0.2,3.2,0.4,4.3,4,5.1
		c1,0.2,1.4,0.5,1.4,1c0,0.5-0.9,0.8-1.5,0.8c-2.8,0-6.8-0.3-8.3-0.3c-1.6,0-2.2,0.1-4.3,0.1c-1.1,0-1.4-0.4-1.4-0.9
		c0-0.5,0.5-0.8,1.6-1c2.8-0.7,3.1-1.5,3.3-4.3c0.2-2.1,0.3-8.2,0.3-13.2C101.3,296.5,101.2,289.2,101,287.3z"/>
	<path fill="#FFFFFF" stroke="#FFFFFF" stroke-width="0.7087" stroke-miterlimit="10" d="M150.1,286.7c3.1,3.1,5,8.4,5,13.1
		c0,8.5-5,14.7-9,17c-3.3,2-7.9,3.3-13.2,3.3c-2.3,0-7.2-0.2-10.9-0.4c-1.1-0.1-2.1-0.1-2.9-0.1c-1.3,0-1.7-0.4-1.7-0.9
		c0-0.5,0.5-0.8,1.2-0.9c3.8-0.4,4.2-1.6,4.3-6.2c0.1-2.7,0.2-4.6,0.2-8.1c0-3.4-0.1-10.4-0.3-15.2c-0.1-3.8-0.2-4.6-3.6-5.1
		c-0.7-0.1-1.3-0.5-1.3-1c0-0.5,0.5-0.8,1.3-0.8h1.5c2.8,0,9.1-0.5,13.9-0.5C142.4,280.9,147.8,284.5,150.1,286.7z M128.4,283.2
		c-0.4,0.3-0.5,0.4-0.5,0.8c-0.1,0.7-0.2,6-0.2,11.3v8.5c0,4.2,0.1,7.6,0.2,10.3c0.2,1.9,1.1,2.6,1.2,2.7c1.1,0.9,3.4,1.5,4.6,1.5
		c2.5,0,7.3-1.1,10.4-3.8c3.4-3.1,5.8-8.2,5.8-14.7c0-5.1-2.4-10.6-6-13.4c-2.8-2.2-7.4-3.5-11.6-3.5
		C130.1,282.8,128.8,283,128.4,283.2z"/>
	<path fill="#FFFFFF" stroke="#FFFFFF" stroke-width="0.7087" stroke-miterlimit="10" d="M181.2,281.5c1.9,0,4.3-0.1,5.1-0.2
		c0.2-0.1,0.4,0.3,0.5,0.7c0,2.7,0.1,4.5,0.1,5.6c0,0.9-0.3,1.5-0.9,1.5c-0.5,0-0.8-0.9-0.9-1.4c-0.8-3.2-2-3.7-3.7-4
		c-1.4-0.2-5.5-0.3-7.9-0.2c-0.1,0-0.8,0.3-0.9,1.6c-0.1,1.5-0.3,12.6-0.2,13.4c0.1,0.2,0.1,0.5,0.4,0.5h3.6c5.2,0,5.5-0.2,6.4-2.9
		c0.3-0.9,0.7-1.2,1-1.2c0.4,0,0.5,0.9,0.4,1.3c-0.1,1.6-0.2,2.8-0.2,4.3c0,1.6,0.1,2.4,0.2,3.6c0.1,1.1-0.2,1.7-0.7,1.7
		c-0.4,0-0.8-0.7-1-1.3c-0.8-2.7-1-2.9-4.4-3.1c-1.7-0.1-4-0.1-5.6-0.1c-0.2,0-0.5,0.4-0.5,0.5c-0.2,1.2-0.2,6.8-0.2,9.3
		c0,1.7,0.2,3.9,0.5,4.9c0.2,0.7,0.7,1.2,1.1,1.3c1,0.2,2.8,0.4,5,0.4c0.7,0,4-0.1,5.2-0.4c1.7-0.4,3.3-1.6,4.6-4.4
		c0.7-1.3,1-1.6,1.3-1.6c0.4,0,0.5,1,0.4,1.6c-0.1,0.4-1.6,5.8-2,6.3c-0.2,0.2-0.7,0.7-1,0.7c-0.7,0-9.1-0.4-18.1-0.4
		c-2.9,0-4.2,0.3-6.3,0.3c-1.1,0-1.6-0.1-1.6-0.8c0-0.4,0.7-0.7,1.5-1c2.8-0.7,3.8-1.1,4-4.3c0.2-2.5,0.4-9.5,0.4-16.8
		c0-7,0.1-8.3-0.1-9.9c-0.1-2.6-0.7-3.3-3.2-3.9c-1.2-0.3-1.6-0.5-1.6-1c0-0.5,0.8-0.9,1.5-0.9c2.6,0,4.8,0.2,8.5,0.2
		C172.5,281.5,181.2,281.5,181.2,281.5z"/>
	<path fill="#FFFFFF" stroke="#FFFFFF" stroke-width="0.7087" stroke-miterlimit="10" d="M197.5,281.4c1.2,0,3.9,0.2,6.8,0.2
		c0.3,0,0.9,0.4,1.2,0.8c0.9,1.1,2.2,2.8,4.4,5.9c2.5,3.4,14.7,17.6,18.5,21.8c0.3,0.3,0.5-0.2,0.5-0.4c0.3-1.9,0.1-8.3,0.1-16.8
		c0-2-0.1-4-0.3-5.9c-0.1-1.2-0.4-2.6-3.5-3.6c-1.1-0.3-1.5-0.9-1.5-1.3c0-0.4,0.8-0.5,1.4-0.5c1.4,0,3.1,0.1,4.8,0.1
		c2,0,3.8-0.2,5.2-0.2c1,0,1.3,0.2,1.3,0.7c0,0.3-0.3,0.9-1.3,1.2c-2.4,0.5-3.4,1.1-3.6,4.3c-0.1,2.1-0.7,13.8-0.7,23.9
		c0,2.5,0.4,6.9,0.4,7.9c0,0.5-0.3,1.2-0.8,1.2c-0.8,0-2-1.2-2.5-1.9c-1-1.2-2-2.7-3.5-4.7c-5.2-6.7-14.9-18.1-19.9-24.5
		c-0.2-0.3-0.7-0.2-0.7,0.1c-0.1,1.6-0.2,3.3-0.3,7.9c0,5.4-0.2,14.4-0.1,16.3c0.2,2.7,0.9,3.6,3.5,4.5c1.2,0.3,1.4,0.7,1.4,1.1
		c0,0.5-0.8,0.8-1.7,0.8c-1.6,0-3.9-0.3-6-0.3c-1.2,0-2.6,0.1-3.6,0.1c-0.8,0-1.4-0.1-1.4-0.7c0-0.4,0.5-0.9,1.1-1
		c2.6-1,3.7-1.2,3.9-5.6c0.3-4.8,1.1-19,1.1-23.9c0-2.1-0.3-2.6-0.4-2.8c-1.5-2-2.2-2-4.7-2.7c-0.7-0.2-1.2-0.4-1.2-1
		C195.6,281.6,196.2,281.4,197.5,281.4z"/>
	<path fill="#FFFFFF" stroke="#FFFFFF" stroke-width="0.7087" stroke-miterlimit="10" d="M285.1,281.4c1.4,0.2,3.4,1,4.3,1.1
		c0.3,0,0.9,0.4,0.9,1.7c0,1.2,0.3,3.8,0.4,5.1c0.1,1.2-0.4,2-0.9,2c-0.3,0-0.7-0.7-0.9-1.5c-0.5-2.1-1.5-3.8-2.3-4.5
		c-3.1-2.4-5.9-3.1-9-3.1c-9,0-14.7,7.9-14.7,16.8c0,3.9,0.8,7.1,2,9.7c3.2,6.8,9.6,9.5,14.1,9.5c1.1,0,3.8-0.2,6.1-1.6
		c2.4-1.3,3.8-3.3,5.1-5.7c0.8-1.2,1-1.5,1.2-1.5c0.5,0,0.7,1.3,0.5,2c-0.2,1.5-1.4,4.6-2.2,6c-0.2,0.5-1.2,1.2-1.7,1.5
		c-0.9,0.4-5.4,1.6-10.2,1.6c-7.9,0-13.7-4.2-15.8-6.9c-2.1-2.6-4.7-6.9-4.7-13.5c0-6.7,3.8-12.1,6.1-14.2c4.8-4.2,9.9-5.5,15.1-5.5
		C280.4,280.4,282.9,280.8,285.1,281.4z"/>
	<path fill="#FFFFFF" stroke="#FFFFFF" stroke-width="0.7087" stroke-miterlimit="10" d="M338,299.9c0,8.3-3.8,14.1-7.9,17.2
		c-3.5,2.6-8.1,3.4-11,3.4c-5.7,0-11.1-2.6-14.5-6.8c-2.9-3.5-4.6-8.3-4.6-13.3c0-7.3,3.1-12.3,7.2-15.9c2.7-2.4,7.5-4.2,11.5-4.2
		C329.3,280.4,338,288.8,338,299.9z M309.8,285.7c-2.4,2.5-4.4,7-4.4,13.9c0,8.8,6.1,18.9,15.1,18.9c4.6,0,6.8-2.1,7.3-2.8
		c2.2-2.1,4.7-6.9,4.7-14c0-6.4-2.6-12.7-6.8-16.2c-2.3-2-5.8-3.2-8.4-3.2C315.1,282.3,311.7,283.7,309.8,285.7z"/>
	<path fill="#FFFFFF" stroke="#FFFFFF" stroke-width="0.7087" stroke-miterlimit="10" d="M347.8,281.4c3.6,0,4.3,0.1,7.4,0.1
		c0.1,0,0.5,0.4,0.7,0.8c0.7,2.2,1,2.8,2.1,5.4c3.2,7,9.6,21.2,10.4,22.3c0.1,0.2,0.4,0.3,0.5,0.2c0.5-1,10.9-21.8,11.8-24.4
		c0.1-0.2,1-2.3,1.3-3.4c0.1-0.3,0.5-0.9,0.7-0.9c2,0,6.6-0.2,7-0.2c0.8,0,1.4,0.1,1.4,0.7c0,0.4-0.4,0.8-1.4,1
		c-0.9,0.2-1.6,0.4-2.5,0.8c-0.9,0.3-1.7,1.5-1.7,4.6c0,16.4,0.7,23.9,0.8,25.6c0.3,2.6,1,3.3,3.6,4c1,0.2,1.5,0.7,1.5,1.1
		c0,0.4-0.8,0.8-1.6,0.8c-0.7,0-4.9-0.3-7-0.3c-1.1,0-2.9,0.2-4.3,0.2c-0.7,0-1.5-0.2-1.5-0.9c0-0.5,0.7-0.9,1.4-1.1
		c2.3-0.7,2.4-2.1,2.5-4.3c0.2-2.6,0.1-19.8-0.1-22.8c-0.1-0.2-0.2-0.8-0.4-0.3c-0.8,1.3-7,14.3-9.2,19.1c-1.3,3.1-2.6,6.1-3.5,8.4
		c-0.7,1.7-0.9,1.6-1.3,1.6c-0.3,0-0.7-0.4-0.9-1.1c-0.4-1.5-1-3.4-2.1-6.2c-3.1-7.8-7.5-17.2-9.6-22.2c-0.2-0.4-0.3-0.4-0.4,0.2
		c-0.4,2.5-1.1,17.4-0.9,22.8c0.1,3.1,0.5,3.8,3.4,4.8c1.2,0.3,1.5,0.5,1.5,1.1c0,0.4-0.7,0.7-1.5,0.7c-1.7,0-4.2-0.2-5.6-0.2
		c-1.3,0-3.1,0.2-4.5,0.2c-0.9,0-1.4-0.2-1.4-0.9c0-0.2,0.4-0.7,1.1-0.9c3.5-1.1,3.8-2.1,4.3-5.5c0.5-4,1.7-21.1,1.9-25.6
		c0-0.4-0.1-2.7-2.5-3.4c-1-0.3-1.6-0.5-2.4-0.7c-0.4-0.1-0.9-0.5-0.9-1C346.2,281.4,346.5,281.4,347.8,281.4z"/>
	<path fill="#FFFFFF" stroke="#FFFFFF" stroke-width="0.7087" stroke-miterlimit="10" d="M410.1,282.8c-0.7,0-1.2,0.2-1.6,0.5
		c-0.2,0.2-0.5,0.9-0.5,2.3c-0.1,1.2-0.1,8.5-0.1,15.4c0,5.4,0.1,10.4,0.1,11.8c0.1,3.8,0.5,4.3,3.4,5.2c1.1,0.3,1.5,0.5,1.5,1.1
		c0,0.5-1,0.7-1.9,0.7c-1.4,0-3.4-0.2-5.9-0.2c-1.6,0-3.9,0.2-5.7,0.2c-1,0-1.5-0.3-1.5-0.9c0-0.4,0.5-0.8,1.1-1
		c3.2-0.8,3.7-1.9,3.9-4.4c0.2-2.8,0.3-7.8,0.3-10.7c0-2-0.1-14.5-0.2-16.4c-0.1-2.1,0-2.9-3.2-3.4c-1.1-0.2-1.7-0.5-1.7-0.9
		c0-0.4,0.5-0.8,1.3-0.9c0.4-0.1,1.3,0,1.9,0c2.2,0,6.6-0.4,9.3-0.4c5,0,8.4,1.4,10.4,3.5c2.6,2.7,3.3,6.1,3.3,8.1
		c0,5.2-2.3,7.6-3.9,9.2c-1.4,1.3-4,2.6-6.4,2.6c-0.7,0-2.1-0.1-2.9-0.4c-0.7-0.3-1-0.5-1-1c0-0.2,0.2-0.5,0.7-0.5
		c0.5,0,1.1,0,1.4,0c2.9,0,7.1-2.7,7.1-9.6C419.1,287.4,415.3,282.8,410.1,282.8z"/>
	<path fill="#FFFFFF" stroke="#FFFFFF" stroke-width="0.7087" stroke-miterlimit="10" d="M449.6,282c0.4,1.6,1.4,4.3,2.4,7.3
		c2.9,8.6,7.1,20.3,8,22.7c1.9,4.8,2.7,5.4,5.2,6c0.9,0.3,1.3,0.5,1.3,1s-0.4,0.8-1.7,0.8c-1.9,0-4.6-0.3-7-0.3
		c-1.7,0-2.5,0.1-3.9,0.1c-1.4,0-1.7-0.4-1.7-0.7s0.3-0.8,1.3-1c2.6-0.5,2.4-1.7,2.2-3.1c-0.4-2.4-1.9-6.3-3.2-10
		c-0.1-0.2-0.3-0.5-1.9-0.5c-3.1,0-8,0.1-9.2,0.2c-0.2,0-0.5,0.3-0.7,0.4c-1.4,3.8-2.9,8.8-2.9,10.4c0,0.7,0.2,1.7,2.7,2.5
		c1,0.3,1.5,0.7,1.5,1.1c0,0.5-0.9,0.8-1.5,0.8c-1,0-2.3-0.2-4.4-0.2c-2.1,0-4.9,0.3-5.8,0.3c-1,0-1.3-0.2-1.3-0.5
		c0-0.3,0.4-0.9,1.2-1.2c2.8-1,3.5-1.2,5.1-5c1.3-3.1,7.6-20.9,10-27.2c0.2-0.4,0.3-1,0.3-1.2c0-0.2,0-0.3,0.1-0.4
		c0.5-0.7,1.3-2.3,1.6-2.9c0.4-0.4,0.7-0.7,0.9-0.7C449,280.4,449.2,280.7,449.6,282z M451.4,301.1c-1-3.1-3.8-11.9-4.4-12.7
		c-0.2-0.3-0.3-0.4-0.4,0c-1,2.8-3.9,11.1-4.4,12.9c-0.1,0.2,0.1,0.4,0.3,0.4c2.2-0.1,6.9,0,8.7-0.2
		C451.3,301.6,451.5,301.2,451.4,301.1z"/>
	<path fill="#FFFFFF" stroke="#FFFFFF" stroke-width="0.7087" stroke-miterlimit="10" d="M472.2,281.4c1.2,0,3.9,0.2,6.8,0.2
		c0.3,0,0.9,0.4,1.2,0.8c0.9,1.1,2.2,2.8,4.4,5.9c2.5,3.4,14.7,17.6,18.5,21.8c0.3,0.3,0.5-0.2,0.5-0.4c0.3-1.9,0.1-8.3,0.1-16.8
		c0-2-0.1-4-0.3-5.9c-0.1-1.2-0.4-2.6-3.5-3.6c-1.1-0.3-1.5-0.9-1.5-1.3c0-0.4,0.8-0.5,1.4-0.5c1.4,0,3.1,0.1,4.8,0.1
		c2,0,3.8-0.2,5.2-0.2c1,0,1.3,0.2,1.3,0.7c0,0.3-0.3,0.9-1.3,1.2c-2.4,0.5-3.4,1.1-3.6,4.3c-0.1,2.1-0.7,13.8-0.7,23.9
		c0,2.5,0.4,6.9,0.4,7.9c0,0.5-0.3,1.2-0.8,1.2c-0.8,0-2-1.2-2.5-1.9c-1-1.2-2-2.7-3.5-4.7c-5.2-6.7-14.9-18.1-19.9-24.5
		c-0.2-0.3-0.7-0.2-0.7,0.1c-0.1,1.6-0.2,3.3-0.3,7.9c0,5.4-0.2,14.4-0.1,16.3c0.2,2.7,0.9,3.6,3.5,4.5c1.2,0.3,1.4,0.7,1.4,1.1
		c0,0.5-0.8,0.8-1.7,0.8c-1.6,0-3.9-0.3-6-0.3c-1.2,0-2.6,0.1-3.6,0.1c-0.8,0-1.4-0.1-1.4-0.7c0-0.4,0.5-0.9,1.1-1
		c2.6-1,3.7-1.2,3.9-5.6c0.3-4.8,1.1-19,1.1-23.9c0-2.1-0.3-2.6-0.4-2.8c-1.5-2-2.2-2-4.7-2.7c-0.7-0.2-1.2-0.4-1.2-1
		C470.4,281.6,470.9,281.4,472.2,281.4z"/>
	<path fill="#FFFFFF" stroke="#FFFFFF" stroke-width="0.7087" stroke-miterlimit="10" d="M516.9,281.1c0.9,0,3.7,0.3,6.3,0.3
		c1.5,0,2-0.1,4.3-0.1c0.9,0,1.2,0.3,1.2,0.7c0,0.4-0.4,0.9-1.2,1.1c-2,0.4-1.6,1.2-0.9,2.7c0.7,1.3,4.8,8.6,7.3,12.9
		c0.1,0.2,0.4,0.1,0.5-0.1c1.5-2.4,5.8-9.7,7.2-12.1c1.2-2.1,0.5-2.8-1.6-3.4c-0.9-0.2-1.2-0.8-1.2-1.2c0-0.4,0.7-0.5,1.3-0.5
		c1.4,0,2.3,0.1,3.6,0.1c2.1,0,5.2-0.2,6.2-0.2c0.7,0,1.2,0.2,1.2,0.5c0,0.4-0.5,0.8-1.4,1.1c-2.6,0.7-4.3,2.2-6.1,4.6
		c-2.6,3.5-5.6,8.7-7.4,11.6c-0.7,1-1.4,2.8-1.4,3.6c0,3.3,0.1,10.6,0.3,12.6c0.2,1.2,0.9,2,3.9,2.7c1.1,0.3,1.5,0.7,1.5,1.1
		c0,0.4-0.5,0.7-1.6,0.7c-0.9,0-3.6-0.2-4.8-0.2c-3.4,0-7,0.3-7.8,0.3c-1,0-1.4-0.3-1.4-0.7s0.4-0.9,1.5-1.1c3.1-0.7,3.6-2,3.6-2.8
		c0.2-2.4,0.2-8.8,0.2-12.2c0-0.3-0.3-1.6-0.5-2.1c-1-2.1-4.4-8.1-7.1-12.5c-2.6-4.2-3.3-4.9-5.8-5.6c-1.1-0.2-1.5-0.7-1.5-1.1
		C515.5,281.5,516,281.1,516.9,281.1z"/>
	<path fill="#FFFFFF" stroke="#FFFFFF" stroke-width="0.7087" stroke-miterlimit="10" d="M582.6,296.2c0.1,0,0.7,0.3,0.7,0.4
		c0-0.2,0.2,1.5,0.2,2.3c0,0.5-1.1,0.7-1.4,0.7c-0.2,0-5.5,0-6.1,0c-0.3,0-0.5,0.3-0.5,0.4c-0.1,1.2-0.1,9.8-0.1,12.7
		c0,1.5,0.3,2.3,1,2.9c1.1,1,2.2,1.1,3.4,1.1c0.8,0,1.9-0.3,2.7-0.9c0.5-0.3,0.7-0.3,0.9-0.3c0.1,0,0.3,0.1,0.3,0.7
		c0,0.4-0.4,1.1-0.8,1.5c-1.5,1.5-3.5,2.6-6,2.6c-2.3,0-4.3-1.5-4.9-2.7c-0.7-1-0.8-2.3-0.8-3.9c0-2.2,0.2-11,0.2-13.1
		c0-0.4-1-0.9-2.1-1.2c-0.4-0.2-0.8-0.4-0.8-0.7c0-0.3,0.2-0.4,0.3-0.7c2-1.6,3.7-3.1,4.5-4c0.7-0.9,1.1-1.3,1.3-1.3
		c0.3,0,0.8,0.5,0.8,0.7s0,1.1,0,2.7c0,0.2,0.2,0.4,0.4,0.4C577,296.4,582.3,296.2,582.6,296.2z"/>
	<path fill="#FFFFFF" stroke="#FFFFFF" stroke-width="0.7087" stroke-miterlimit="10" d="M609.4,298.3c1.1,1.6,1.6,3.8,1.6,6.3
		c0.1,3.7,0.2,7.4,0.2,10.9c0,1.5,0.8,2,2.2,2.3c1.1,0.2,1.5,0.5,1.5,1c0,0.5-0.4,0.8-1.5,0.8c-1.9,0-2.5-0.2-4.4-0.2
		c-1.3,0-2.4,0.1-4,0.1c-0.9,0-1.1-0.3-1.1-0.7c0-0.3,0.5-0.7,1.2-0.9c1.4-0.4,1.5-0.7,1.7-2.9c0.1-1.1,0-7.6,0-8.5
		c0-3.3-0.3-5.1-0.9-5.9c-0.9-1.1-2.3-2-4.5-2c-2.4,0-4.3,1.1-4.5,1.3c-0.1,0.1-0.9,1.1-0.9,2.9c-0.2,2.5-0.2,10.2-0.1,12.3
		c0.1,2,0.9,2.3,2.2,2.6c0.8,0.2,1.2,0.7,1.2,1c0,0.5-0.7,0.7-1.4,0.7c-0.4,0-3.3-0.1-4.6-0.1c-1.3,0-3.3,0.2-4.3,0.2
		c-0.5,0-1.3-0.2-1.3-0.8c0-0.3,0.4-0.7,1.6-1c1.4-0.5,2-1.2,2.2-3.4c0.2-2.5,0.5-9.3,0.5-24.5c0-2,0.1-4.3-0.2-6
		c-0.2-1.5-0.3-1.6-1.9-2.7c-0.2-0.1-0.5-0.7-0.5-1.2c0-0.2,0.2-0.3,0.2-0.3c1.7-0.5,4.3-1.1,5.6-2.1c0.2-0.1,0.8-0.4,1.1-0.4
		c0.2,0,0.3,0.4,0.3,0.7c-0.5,4.3-0.8,19-0.8,20.6c0,0.3,0.3,0.4,0.4,0.3c2.3-2.2,4.7-3.4,7-3.4
		C606.3,295.6,608.2,296.7,609.4,298.3z"/>
	<path fill="#FFFFFF" stroke="#FFFFFF" stroke-width="0.7087" stroke-miterlimit="10" d="M637.1,298c1.2,1.2,2,2.9,2,4.9
		c0,0.3-0.4,1-1.1,1c-0.7,0-10.2,0-12.7-0.1c-0.2,0-0.4,0.3-0.4,0.4c-0.2,0.4-0.3,1.5-0.3,2.1c0,2.3,0.9,5,2.1,6.8
		c1.2,1.7,3.6,3.3,6.2,3.3c2.4,0,4.2-0.7,5-2.1c0.2-0.3,0.5-0.7,0.8-0.7c0.3,0,0.4,0.4,0.4,0.7c0,0.4-0.2,1.1-0.4,1.4
		c-2,3.1-4.9,4.5-8.1,4.5c-6,0-10-4.8-10-11.8c0-4.7,2.3-9.5,6.7-11.6c1.4-0.7,3.3-1.1,4.3-1.1C633.5,295.7,635.7,296.4,637.1,298z
		 M625.3,301.6c-0.1,0.3,0.1,0.7,0.2,0.7c1.4,0.1,4.4,0.1,7.2,0c1.3,0,1.9-0.3,1.9-1.5c0-1.6-1.6-3.5-3.7-3.5
		C628.4,297.2,626.4,298.8,625.3,301.6z"/>
	<path fill="#FFFFFF" stroke="#FFFFFF" stroke-width="0.7087" stroke-miterlimit="10" d="M679.1,281.5c0.3,0.1,0.7,1,0.7,1.1
		c0.1,1.1,0.5,4.6,0.5,4.8c0,1,0,1.6-0.4,1.6s-1.1-0.4-1.3-1.2c-0.7-2.1-2.2-3.9-2.7-4.3c-1-0.9-2.3-1.3-3.9-1.3
		c-3.7,0-6.4,2.9-6.4,6.9c0,4.2,2.8,6,7.8,9.5c4.3,3.1,7.6,6.1,7.6,11.5c0,2.9-1.5,6.2-4.6,8.3c-1.7,1.2-5,2.1-7.5,2.1
		c-1.7,0-5.6-0.7-7.3-1.5c-0.5-0.3-1.3-1.6-1.3-1.9c-0.3-2-0.9-4.6-0.9-5.6c0-0.2,0.5-1.1,0.8-1.1c0.4,0,1.3,1.5,2.1,3.4
		c1.4,3.3,5.1,4.7,7.2,4.7c3.8,0,6.8-2.9,6.8-7.1c0-2.5-1.1-5.1-7-9.1c-4.7-3.3-8.1-6.7-8.1-11.7c0-2.7,1.2-5.5,3.1-7.2
		c1.7-1.6,4.4-2.9,8.3-2.9C675.3,280.4,678.1,281.4,679.1,281.5z"/>
	<path fill="#FFFFFF" stroke="#FFFFFF" stroke-width="0.7087" stroke-miterlimit="10" d="M718.1,281.5c2-0.1,3.1-0.4,3.8-1.1
		c0.4-0.2,0.5-0.3,0.8-0.3c0.3,0,0.5,0.5,0.2,1.3c-0.5,1.9-0.9,3.7-1.2,6.8c-0.1,0.5-0.5,1.1-1,1.1c-0.4,0-0.7-0.4-0.8-1.9
		c-0.3-3.1-1.1-3.4-4.5-3.5c-1-0.1-7.1-0.1-7.8,0.1c-0.3,0.1-0.5,0.7-0.5,0.8c0,2.7,0,9.3,0,14.5c0,6.9,0,12.5,0.2,14.6
		c0.3,2.6,0.5,3.4,4,4.2c0.8,0.2,1.5,0.7,1.5,1.1c0,0.7-1,0.7-1.5,0.7c-0.4,0-3.9-0.3-6.3-0.3c-2.8,0-5.7,0.4-6.3,0.4
		c-1.1,0-1.6-0.3-1.6-0.7c0-0.4,0.5-0.9,1.1-1c3.9-1,4-2,4.2-6.3c0.1-3.5,0.4-15.5,0.4-20.1c0-3.4,0-4.5,0-7c0-0.4-0.3-0.8-0.4-0.8
		c-1.1-0.2-6-0.3-6.9-0.3c-2.1,0-3.3,0.3-4.2,1.3c-0.2,0.2-0.9,1.1-1.9,3.1c-0.5,1.2-0.9,1.2-1.1,1.2c-0.3,0-0.5-0.8-0.5-1.3
		c0-1.1,1.1-4.3,1.1-7.8c0-0.4,0.5-1,0.9-1c0.4,0,0.3,0.4,0.9,1c0.2,0.2,1.1,1.1,1.9,1.1c1.4,0.2,5.9,0.3,13,0.3
		C708.3,281.6,715.9,281.5,718.1,281.5z"/>
	<path fill="#FFFFFF" stroke="#FFFFFF" stroke-width="0.7087" stroke-miterlimit="10" d="M767.2,299.9c0,8.3-3.8,14.1-7.9,17.2
		c-3.5,2.6-8.1,3.4-11,3.4c-5.7,0-11.1-2.6-14.5-6.8c-2.9-3.5-4.6-8.3-4.6-13.3c0-7.3,3.1-12.3,7.2-15.9c2.7-2.4,7.5-4.2,11.5-4.2
		C758.5,280.4,767.2,288.8,767.2,299.9z M738.9,285.7c-2.4,2.5-4.4,7-4.4,13.9c0,8.8,6.1,18.9,15.1,18.9c4.6,0,6.8-2.1,7.3-2.8
		c2.2-2.1,4.7-6.9,4.7-14c0-6.4-2.6-12.7-6.8-16.2c-2.2-1.9-5.7-3.2-8.2-3.2C744.2,282.3,740.8,283.7,738.9,285.7z"/>
	<path fill="#FFFFFF" stroke="#FFFFFF" stroke-width="0.7087" stroke-miterlimit="10" d="M796.3,299.4c-0.3,0.2-1.3,0.7-1.7,1
		c-0.2,0.1-0.3,0.7-0.2,0.9c0.5,1.4,5.2,9.4,8.6,13.4c1.5,1.9,3.1,2.9,5.5,3.5c0.4,0.1,0.9,0.5,0.9,0.9c0,0.3-0.4,0.5-0.8,0.8
		c-0.7,0.3-1.9,0.4-3.1,0.4c-2.6,0-5.8-1.6-7.4-3.8c-2-2.8-4.8-7.4-7-11.1c-0.8-1.2-1.9-2.7-2.2-2.9c-0.2-0.2-2.3-0.8-3.9-0.8
		c-0.4,0-0.7,0.5-0.7,0.7c-0.1,1,0.1,8.5,0.2,11.9c0.1,2.5,0.8,3.3,3.4,3.9c1,0.3,1.3,0.7,1.3,1c0,0.5-1.1,0.8-1.3,0.8
		c-2.3,0-3.4-0.3-7.2-0.3c-1,0-3.9,0.2-4.5,0.2c-0.8,0-1.4-0.2-1.4-0.9c0-0.4,0.5-0.5,1.2-0.9c2.4-0.9,3.5-1.2,3.6-3.4
		c0.1-1.9,0.3-8.1,0.3-11.7c0-9.1-0.1-14.5-0.3-16.8c-0.2-2.2-0.8-2.3-3.3-2.9c-0.9-0.2-1.3-0.5-1.3-1c0-0.4,0.3-0.7,1.5-0.7
		c1.7,0,2,0,3.2,0c2.1,0,6-0.3,9.1-0.3c3.8,0,6.9,0.5,9.1,2.5c1.9,1.6,3.2,4.6,3.2,7.4C800.9,294.3,799.1,297.5,796.3,299.4z
		 M793.4,285.3c-1.3-1.3-3.7-2.3-5.6-2.3c-0.3,0-2.1,0.1-2.6,0.4c-0.3,0.1-0.7,1-0.7,1.2c-0.2,2.1-0.3,13.4-0.2,14.5
		c0.1,0.4,0.5,0.9,0.9,0.9c3.3,0,6.2-1,7-1.5c1.5-1,3.7-3.6,3.7-7.3C795.9,289.8,795,286.9,793.4,285.3z"/>
	<path fill="#FFFFFF" stroke="#FFFFFF" stroke-width="0.7087" stroke-miterlimit="10" d="M831.3,281.5c1.9,0,4.3-0.1,5.1-0.2
		c0.2-0.1,0.4,0.3,0.5,0.7c0,2.7,0.1,4.5,0.1,5.6c0,0.9-0.3,1.5-0.9,1.5c-0.5,0-0.8-0.9-0.9-1.4c-0.8-3.2-2-3.7-3.7-4
		c-1.4-0.2-5.5-0.3-7.9-0.2c-0.1,0-0.8,0.3-0.9,1.6c-0.1,1.5-0.3,12.6-0.2,13.4c0.1,0.2,0.1,0.5,0.4,0.5h3.6c5.2,0,5.5-0.2,6.4-2.9
		c0.3-0.9,0.7-1.2,1-1.2c0.4,0,0.5,0.9,0.4,1.3c-0.1,1.6-0.2,2.8-0.2,4.3c0,1.6,0.1,2.4,0.2,3.6c0.1,1.1-0.2,1.7-0.7,1.7
		c-0.5,0-0.8-0.7-1-1.3c-0.8-2.7-1-2.9-4.4-3.1c-1.7-0.1-4-0.1-5.6-0.1c-0.2,0-0.5,0.4-0.5,0.5c-0.2,1.2-0.2,6.8-0.2,9.3
		c0,1.7,0.2,3.9,0.5,4.9c0.2,0.7,0.7,1.2,1.1,1.3c1,0.2,2.8,0.4,5,0.4c0.7,0,4-0.1,5.2-0.4c1.7-0.4,3.3-1.6,4.6-4.4
		c0.7-1.3,1-1.6,1.3-1.6c0.4,0,0.5,1,0.4,1.6c-0.1,0.4-1.6,5.8-2,6.3c-0.2,0.2-0.7,0.7-1,0.7c-0.7,0-9.1-0.4-18.1-0.4
		c-2.9,0-4.2,0.3-6.3,0.3c-1.1,0-1.6-0.1-1.6-0.8c0-0.4,0.7-0.7,1.5-1c2.8-0.7,3.8-1.1,4-4.3c0.2-2.5,0.4-9.5,0.4-16.8
		c0-7,0.1-8.3-0.1-9.9c-0.1-2.6-0.7-3.3-3.2-3.9c-1.2-0.3-1.6-0.5-1.6-1c0-0.5,0.8-0.9,1.5-0.9c2.6,0,4.8,0.2,8.5,0.2
		C822.6,281.5,831.3,281.5,831.3,281.5z"/>
</g>
</svg>
