<?xml version="1.0" encoding="utf-8"?>
<!-- Generator: Adobe Illustrator 21.1.0, SVG Export Plug-In . SVG Version: 6.00 Build 0)  -->
<svg version="1.1" id="レイヤー_1" xmlns="http://www.w3.org/2000/svg" xmlns:xlink="http://www.w3.org/1999/xlink" x="0px"
	 y="0px" viewBox="0 0 225.8 58.9" style="enable-background:new 0 0 225.8 58.9;" xml:space="preserve">
<style type="text/css">
	.st0{fill:#FFFFFF;}
</style>
<g>
	<path class="st0" d="M23.7,0c-2.1,0.1-5.1,0.8-6.2,2.3c-0.8,1-0.4,2.5,0.8,3c0.5,0.3,1.2,0.3,1.8,0c1.2-0.6,1.5-2.2,0.6-3.2
		l-0.2-0.2c0,0,0-0.1,0-0.1l0,0c1.8-0.7,4-0.5,6.2,0.6c0.9,0.5,1.4,0.8,3.6,2.6c1.8,1.4,3.2,2.3,4.4,2.9C34.9,7.9,35.1,8,35.2,8
		c0,0,0.1,0,0,0.1c0,0-2.7,6.6-3.2,7.6c0,0-0.5,1.2-0.7,1.5c-0.1,0.2-0.2,0.3-0.4,0.1c0,0-2.6-2.8-4.3-4.9C24.9,10.2,23.9,9,23.9,9
		c-0.1-0.1-0.1-0.1-0.2-0.1l-8.6,0c-3.6,0-5.2,0.7-6.3,2c-1.3,1.6-1.3,4.6,0.5,6.8c0.3,0.4,0.6,0.6,0.8,0.8l3.2-3.4
		c0.1-0.1,0.1-0.1,0-0.2l-0.2-0.2c-1-1.1-1.1-2.5-0.4-3.3c0.7-0.8,1.5-0.9,4.2-0.9c1.8,0,3.2,0.1,3.6,0.1c0.1,0,0.1,0.1,0.1,0.2
		c-0.3,1.1-0.4,1.3-1,2.9c-0.2,0.4-4.1,10.1-5,12.2c-1.3,3.1-2.7,4.7-3.9,5.6c-1.2,0.8-3.5,0.9-4.6-0.2c-0.9-0.9-1.2-2.5-0.4-3.7
		c0.5-0.8,1.1-1.1,1.4-1.2c0.1,0,0.1-0.1,0.1-0.2l-2.1-4.9c-0.7,0.3-1.6,0.7-2.6,1.6c-1.1,1-1.9,2.3-2.3,3.5c-0.4,1.4-0.4,3,0,4.4
		c0.7,2,2.2,3.6,4.1,4.3c1.7,0.6,3.9,0.5,5.8-0.2c1.7-0.7,3.2-2,4.3-3.8c0.7-1.1,0.9-1.5,2.6-5.8c0.7-1.7,3.2-7.7,3.6-8.7
		c0.3-0.6,0.4-1,0.4-1c0-0.1,0.1-0.1,0.1,0c0,0,1.2,1.2,4.7,5.4c2.1,2.6,3.9,4.7,3.9,4.7s0.1-0.4,0.3-0.8c0.2-0.4,5.8-14.1,6.6-16.1
		c0,0,0-0.1,0.1-0.1c0.2,0,0.2,0.1,0.4,0.1c1.2,0.2,2.5,0.2,3.3-0.1c1.5-0.5,2.5-1.7,2.5-3.4c0-1.2-0.8-2.4-1.8-2.9
		C40.2,1.7,38.4,2,37.5,3c-0.6,0.6-1,1.5-1.2,2.1c0,0-0.1,0-0.1,0c-0.1-0.1-0.3-0.3-0.6-0.4c-2.6-2.3-4.8-3.5-7.2-4.1
		C27.2,0.2,25.2,0,23.7,0L23.7,0z M40.6,3.9c1.1,0.5,1.1,2,0,2.5c-0.5,0.3-1.5,0.2-2.6-0.2c0,0,0,0,0-0.1c0.3-0.7,0.5-1.4,0.9-1.9
		C39.3,3.8,40,3.7,40.6,3.9z M38.8,13.2c-0.2,0.4-1,2.5-2.7,6.8c-0.9,2.2-1.9,4.6-2.2,5.2l-0.4,1.1c0,0.1-0.1,0.1-0.2,0.2l-0.3,0.2
		c-0.6,0.3-1.4,0.6-2.2,0.8c-1.8,0.4-3.4,0-4.6-0.8c-0.5-0.3-1.4-1.2-1.7-1.8c0-0.1-0.2-0.1-0.2,0l-4.1,2.5c0,0,0.1,0.3,0.4,0.6
		c1,1.1,2.7,2.1,4.6,2.4c1.8,0.3,4.1,0.2,6.6-1c0.1-0.1,0.4-0.2,0.5-0.2c0,0,0.1,0,0,0c-0.2,0.4-1.3,3.3-1.7,4
		c-0.3,0.6-0.5,1-1.4,0.7c-0.6-0.2-1.1-0.2-1.5-0.1c-0.9,0.2-1.6,0.9-1.6,1.7c0,1.1,1,1.7,2.2,1.7c2.3,0.1,3.2-1.2,3.9-2.9
		c0.4-0.9,2.6-6.3,2.7-6.5c0-0.1,0.1-0.1,0.1-0.2c2.2-1.4,6.2-2,9.6,1.6c0.2,0.3,0.6,0.5,0.6,0.5c0.1,0.1,0.1,0.1,0.2,0.1h7.2
		c0,0-3.5-5.1-5.5-8.2c-1.2-1.8-2.6-4-3.5-5.4c-0.5-0.7-0.5-0.9-0.7-1.3c-0.1-0.1,0-0.2,0.1-0.2c0.6,0,2.4-0.1,3.8-0.1
		c4.3,0,6.2,0.8,6.8,2.7c0.5,1.6-0.6,3.4-1.8,4.7c-0.1,0.1,0,0.2,0,0.2l4.5,2.7c0.3-0.3,0.9-1.2,1.1-1.7c1-2.1,0.9-4.4,0.1-6.1
		c-0.9-1.9-2.8-3.2-5-3.7C51.1,13,49.7,13,46.3,13c-3.5,0-7.1,0-7.1,0C39,13,38.9,13,38.8,13.2z M42.7,25.5
		C42.8,25.5,42.7,25.6,42.7,25.5c-0.2,0-0.5-0.1-0.6-0.1c-1.8-0.6-4.1-0.6-5.6-0.2c-0.2,0.1-0.4,0.1-0.5,0.1c0,0-0.1,0,0,0
		c0.2-0.5,1.9-4.6,2.2-5.3c0.1-0.2,0.2-0.4,0.3-0.6c0-0.1,0.1-0.1,0.2-0.1C38.7,19.5,42.3,24.8,42.7,25.5z M35.6,32
		c-0.2,0.3-0.4,0.8-0.5,1.1C35,33.4,31.5,42,31,43c-0.2,0.3-0.3,0.7-0.4,0.9c0,0.1-0.2,0.1-0.2,0.1c-1.4-1.4-2.6-2.8-4.6-5.2
		c-1.7-2.1-6.4-7.8-6.4-7.8S19.3,31,19,31.8c-0.7,1.7-4.8,11.7-4.8,11.8c0,0,0,0-0.1,0L14,43.4c-1.8-1.7-3.8-2.2-6-1.5
		c-1.6,0.5-3.2,2.4-3.1,4.8c0.1,2.2,1.4,3.9,3.6,4.6c1.4,0.5,3.1,0,4-0.5c0.7-0.5,1.5-1.2,1.9-2c0,0,0.1,0,0.1,0l0,0
		c2.7,4.4,5,7,8.2,8.6c3.3,1.6,6.9,2.1,10.8,0.7c2.3-0.8,3.5-2,3.4-3.5c-0.1-1.2-1.1-2-2.1-2c-1.3,0-2.2,0.9-2.2,2.2
		c0,0.5,0.3,1.2,0.7,1.6c0.3,0.3,0.3,0.3-0.4,0.5c-0.9,0.2-1.4,0.3-2.4,0.3c-5.4,0.1-8.4-3.8-12.1-8.8c-0.6-0.8-1.4-1.8-1.7-2.2
		c-0.2-0.2-0.5-0.7-0.6-0.8c0,0,0-0.1,0-0.1c0.2-0.6,2.1-5.1,2.4-5.7l0.1-0.2c0-0.1,0.1-0.1,0.1,0c0,0,3.7,4.2,5.1,5.8
		c1.4,1.6,5.8,6.9,5.8,6.9s0.2-0.4,0.5-1.1c1.6-3.9,7-16.6,7.2-17c0.2-0.5,0.6-0.6,1.3-0.4c1.3,0.4,2.5,0,2.9-1
		c0.4-1.1-0.9-2.8-3.2-2.2C37.1,30.3,36.2,30.9,35.6,32z M10.6,44.4c0.4,0.1,1,0.4,1.8,1.2c0.3,0.3,0.5,0.5,0.5,0.6c0,0,0,0.1,0,0.1
		c-0.1,0.1-0.2,0.3-0.4,0.6c-0.4,0.6-1,1.2-1.4,1.4c-1,0.6-2.1,0.5-2.9-0.3c-0.8-0.8-0.8-1.9-0.5-2.5C8.4,44.6,9.5,44.1,10.6,44.4z
		 M53.9,32.8c-0.6,1.4-1.2,2.3-2.1,3.1c-0.1,0.1-0.2,0.2-0.3,0.2c0,0-0.1,0-0.1,0c-0.1-0.1-0.3-0.2-0.5-0.3c-1.8-1.2-4-1.6-6-1.3
		c-2.1,0.4-4,1.3-5.6,2.9c-1.9,1.8-3,4-3.3,6.5c-0.3,2.1,0.1,4.1,1,5.7c0.5,0.9,1.5,2,2.3,2.6c2.1,1.5,5,1.8,7.6,0.9
		c1.7-0.6,3.4-1.7,4.6-3.1c1.5-1.8,2.5-3.9,2.8-6.2c0.2-1.5-0.1-3.2-0.6-4.4c-0.1-0.1-0.1-0.3-0.1-0.3c0,0,0-0.1,0-0.1
		c0.1,0,0.3-0.1,0.4-0.2c1.5-0.7,2.8-1.9,3.9-3.3c0.4-0.6,0.9-1.5,0.9-1.5s-4.2-1.5-4.6-1.6c-0.1,0-0.1,0-0.2,0.1
		C54,32.4,53.9,32.7,53.9,32.8z M45.7,37c0,0.6,0.4,1.2,0.8,1.6c0.5,0.5,1.6,0.8,2.5,0.9l0.4,0c0,0,0.1,0,0.1,0.1l0.1,0.4
		c0.5,1.9,0.3,4.3-0.5,6.3c-0.8,2-2.2,3.7-3.7,4.4c-2.2,1.1-4.4,0.2-5.4-2.3c-1.3-3.2-0.2-7.8,2.3-10.3c0.7-0.7,1.7-1.4,2.6-1.6
		c0.3-0.1,0.4-0.1,0.6-0.1c0.1,0,0.1,0.1,0.1,0.1C45.7,36.8,45.7,36.9,45.7,37z"/>
	<g>
		<path class="st0" d="M109.1,30.7c0.1,2.4,0.5,3.5,2.1,3.7c1.8,0.3,2.6,0.5,2.6,1c0,0.3-1.5,1.2-2.7,1.2c-1.2,0-2.1-0.2-4.9-0.2
			c-3.4,0-4.3,0.2-5.9,0.2c-0.4,0-1.2-0.9-0.6-1.3c0.3-0.2,0.6-0.4,1.2-0.7c1.1-0.6,1.4-1.2,1.7-4.1c0.4-4.3,0.3-9.8,0-14
			c-0.3-4-2-5.7-5.6-5.7c-3.7,0-7.5,2.7-7.7,6.2c-0.2,3.2-0.4,7.9,0,13.6c0.2,2.5,0.3,3.6,2,3.8c2.2,0.4,2.6,0.3,2.6,0.8
			c0,0.4-1.8,1.2-2.5,1.2c-1.1,0-2.4-0.2-5.1-0.2c-3.4,0-4.8,0.2-6.9,0.2c-0.4,0-1.1-0.8-0.6-1.2c0.4-0.3,1.3-0.5,1.9-0.8
			c1.2-0.5,1.8-1.2,2-4c0.4-6.1,0.4-10.5,0-17.5c-0.1-1-0.4-1.6-1.7-1.8c-1.6-0.3-2.2-0.3-2.2-0.7c0-0.8,1.2-1.5,2.2-1.5
			c3.7,0,5.6-0.6,6.3-1c1.1-0.6,1.2-0.8,1.7-1c0.6-0.2,1.3,0,1.3,0.9c0,0.5-0.4,1-0.7,3.1c-0.1,0.6,0.1,0.7,0.6,0.4
			c3.9-2.5,6.1-4.1,9.7-4.4c2.7-0.2,4.3,0.5,6.3,1.6c2.2,1.3,2.6,3.2,2.6,5.4C108.8,20.9,108.8,25.3,109.1,30.7z"/>
		<path class="st0" d="M185.8,30.7c0.1,2.4,0.5,3.5,2.1,3.7c1.8,0.3,2.6,0.5,2.6,1c0,0.3-1.5,1.2-2.7,1.2c-1.2,0-2.1-0.2-4.9-0.2
			c-3.4,0-4.3,0.2-5.9,0.2c-0.4,0-1.2-0.9-0.6-1.3c0.3-0.2,0.6-0.4,1.2-0.7c1.1-0.6,1.4-1.2,1.7-4.1c0.4-4.3,0.3-9.8,0-14
			c-0.3-4-2-5.7-5.6-5.7c-3.7,0-7.5,2.7-7.7,6.2c-0.2,3.2-0.4,7.9,0,13.6c0.2,2.5,0.3,3.6,2,3.8c2.2,0.4,2.6,0.3,2.6,0.8
			c0,0.4-1.8,1.2-2.5,1.2c-1.1,0-2.4-0.2-5.1-0.2c-3.4,0-4.8,0.2-6.9,0.2c-0.4,0-1.1-0.8-0.6-1.2c0.4-0.3,1.3-0.5,2-0.8
			c1.2-0.5,1.8-1.2,2-4c0.4-6.1,0.4-10.5,0-17.5c-0.1-1-0.4-1.6-1.7-1.8c-1.6-0.3-2.2-0.3-2.2-0.7c0-0.8,1.2-1.5,2.2-1.5
			c3.7,0,5.6-0.6,6.3-1c1.1-0.6,1.2-0.8,1.7-1c0.6-0.2,1.3,0,1.3,0.9c0,0.5-0.4,1-0.7,3.1c-0.1,0.6,0.1,0.7,0.6,0.4
			c3.9-2.5,6.1-4.1,9.7-4.4c2.7-0.2,4.3,0.5,6.3,1.6c2.2,1.3,2.6,3.2,2.6,5.4C185.5,20.9,185.5,25.3,185.8,30.7z"/>
		<path class="st0" d="M145.2,29.5c0,3.1,1.9,3.6,3.6,3.8c0.7,0,1.9-0.2,1.9,0.1c0,1-0.1,1.2-2.7,2.4c-0.7,0.3-2.7,1.4-3.9,1.4
			c-2.9,0-4.7-2.8-4.9-4.8c0-0.2-0.2-0.3-0.4-0.2c-3.2,1.9-6.4,5-9.9,5c-4.2,0-9.9-3.3-9.9-7.2c0-2.7,1-4.7,2.7-6.2
			c3.4-3.1,9.6-4.2,16.3-4.9c0.7-0.1,0.8-0.1,0.8-1v-2.6c0-4-2.5-5.6-6.3-5.6c-3.6,0-6.5,1.8-9.4,5.2c-0.3,0.4-1.2,0.8-1.8,0.8
			c-0.4,0-0.4-0.4-0.3-0.9c0.3-1.3,1.2-2.6,1.6-6.6c0-0.5,0.6-1.1,1.2-1.1c0.5,0,1.4,0.6,3.8,0.6c3.7,0,5.6-0.6,8.5-0.6
			c2.7-0.1,3.9,0.2,5.5,1.1c3.3,1.8,3.6,3.1,3.6,5.7V29.5z M138.8,21.5c0-0.6-0.2-0.8-0.9-0.7c-6,1.3-12,2.2-12,8.4
			c0,2.4,2.2,4.2,5.1,4.2c5.3,0,7.8-5.1,7.8-8V21.5z"/>
		<path class="st0" d="M198,14.1c3-3.1,8.6-6.9,14.6-6.9c9,0,13.2,6.4,13.2,13.6c0,4.9-0.5,6.5-3.3,9.4c-3,3.1-8.6,6.9-14.6,6.9
			c-9,0-13.2-6.4-13.2-13.6C194.7,18.6,195.2,17,198,14.1z M211.3,33.3c5.4,0,8.2-3.1,8.2-9.7c0-7.6-3.5-12.6-10.3-12.6
			c-5.4,0-8.2,3.1-8.2,9.7C201,28.3,204.5,33.3,211.3,33.3z"/>
	</g>
	<g>
		<g>
			<polygon class="st0" points="137.6,53.8 139.4,53.8 143.4,46.5 141.9,46.5 138.5,52.5 135.1,46.5 133.7,46.5 			"/>
			<path class="st0" d="M80.8,46.5v3.6c0,0.5,0.1,1,0.3,1.5c0.2,0.5,0.5,0.9,0.9,1.2c0.4,0.4,0.8,0.6,1.4,0.8c1.1,0.4,2.6,0.4,3.7,0
				c0.5-0.2,1-0.5,1.4-0.8c0.4-0.3,0.7-0.8,0.9-1.2c0.2-0.5,0.3-1,0.3-1.5v-3.6h-1.3V50c0,0.4-0.1,0.7-0.2,1.1
				c-0.1,0.3-0.3,0.7-0.6,0.9c-0.3,0.3-0.6,0.5-1,0.6c-0.8,0.3-1.9,0.3-2.7,0c-0.4-0.2-0.7-0.4-1-0.6c-0.3-0.3-0.4-0.6-0.6-0.9
				c-0.1-0.3-0.2-0.7-0.2-1.1v-3.5H80.8z"/>
			<polygon class="st0" points="108.4,53.8 109.9,53.8 109.9,46.5 108.6,46.5 108.6,52.2 102.4,46.5 100.9,46.5 100.9,53.8 
				102.2,53.8 102.2,48 			"/>
			<rect x="121.4" y="46.5" class="st0" width="1.3" height="7.3"/>
			<polygon class="st0" points="154.3,53.8 163.5,53.8 163.5,52.6 155.6,52.6 155.6,50.6 162.3,50.6 162.3,49.5 155.6,49.5 
				155.6,47.6 163.2,47.6 163.2,46.5 154.3,46.5 			"/>
			<polygon class="st0" points="214.5,53.8 223.6,53.8 223.6,52.6 215.8,52.6 215.8,50.6 222.4,50.6 222.4,49.5 215.8,49.5 
				215.8,47.6 223.3,47.6 223.3,46.5 214.5,46.5 			"/>
			<path class="st0" d="M181.9,53.8h1.4L182,51l0.3-0.1c0.2-0.1,0.3-0.2,0.5-0.3c0.2-0.1,0.3-0.2,0.4-0.4c0.1-0.2,0.2-0.4,0.3-0.6
				c0.1-0.2,0.1-0.5,0.1-0.8c0-0.5-0.1-0.8-0.2-1.1c-0.2-0.3-0.4-0.5-0.6-0.7c-0.2-0.2-0.5-0.3-0.7-0.4c-0.3-0.1-0.5-0.1-0.7-0.1
				h-6.8v7.3h1.3v-2.7h4.7L181.9,53.8z M181.1,50H176v-2.4h5.2c0.1,0,0.2,0,0.3,0c0.1,0,0.3,0.1,0.4,0.2c0.1,0.1,0.3,0.2,0.4,0.4
				c0.1,0.2,0.1,0.4,0.1,0.6c0,0.2-0.1,0.5-0.2,0.6c-0.1,0.2-0.2,0.3-0.4,0.4c-0.1,0.1-0.3,0.1-0.4,0.2C181.3,50,181.2,50,181.1,50z
				"/>
			<g>
				<path class="st0" d="M194.7,53.3c0.4,0.2,0.7,0.3,1.1,0.4c0.5,0.1,0.9,0.2,1.3,0.3c1.4,0.2,2.7,0.1,3.6-0.1
					c0.6-0.1,1.1-0.3,1.5-0.6c0.4-0.2,0.7-0.5,0.9-0.8c0.2-0.3,0.3-0.6,0.3-0.9c0-0.3-0.1-0.5-0.2-0.8c-0.1-0.2-0.3-0.4-0.5-0.5
					c-0.8-0.6-2.1-0.6-3.8-0.7c-1.2,0-2.4,0-2.9-0.3c-0.3-0.2-0.4-0.4-0.4-0.7c0-0.2,0.1-0.4,0.4-0.7c0.2-0.1,0.5-0.3,0.8-0.4
					c0.3-0.1,0.7-0.2,1.1-0.2c0.7-0.1,1.4-0.1,2.3,0c0.3,0,0.7,0.1,1,0.2c0.3,0.1,0.7,0.2,1,0.2c0.2,0.1,0.3,0.1,0.5,0.2l0.4-1
					c-0.4-0.1-0.7-0.3-1.1-0.4c-0.5-0.1-0.9-0.2-1.3-0.3c-1.2-0.2-2.4-0.1-3.4,0.1c-0.6,0.1-1.1,0.3-1.5,0.5
					c-0.4,0.2-0.7,0.5-0.9,0.7c-0.2,0.3-0.3,0.5-0.3,0.8c0,0.3,0.1,0.6,0.2,0.8c0.3,0.5,0.9,0.9,1.4,1c0.9,0.2,2.5,0.2,3.1,0.3
					c1.1,0,2.3,0,2.7,0.3c0.3,0.2,0.4,0.4,0.4,0.7c0,0.5-0.3,0.9-1,1.1c-0.6,0.2-1.5,0.3-2.6,0.3c-0.4,0-0.8,0-1.2-0.1
					c-0.4-0.1-0.7-0.1-1.2-0.3c-0.3-0.1-0.7-0.2-1-0.4L194.7,53.3z"/>
			</g>
		</g>
	</g>
</g>
</svg>
