<?xml version="1.0" encoding="utf-8"?>
<!-- Generator: Adobe Illustrator 27.5.0, SVG Export Plug-In . SVG Version: 6.00 Build 0)  -->
<svg version="1.1" id="レイヤー_1" xmlns="http://www.w3.org/2000/svg" xmlns:xlink="http://www.w3.org/1999/xlink" x="0px"
	 y="0px" viewBox="0 0 153 24.1" style="enable-background:new 0 0 153 24.1;" xml:space="preserve">
<style type="text/css">
	.st0{fill:#FFFFFF;}
</style>
<g>
	<path class="st0" d="M61.2,0.4c-6.4,0-11.7,5.2-11.7,11.7c0,6.5,5.2,11.7,11.7,11.7c6.5,0,11.7-5.2,11.7-11.7
		C72.9,5.6,67.7,0.4,61.2,0.4z M61.2,20.6c-4.7,0-8.5-3.8-8.5-8.5c0-4.7,3.8-8.5,8.5-8.5c4.7,0,8.5,3.8,8.5,8.5
		C69.7,16.8,65.9,20.6,61.2,20.6z"/>
	<path class="st0" d="M91.8,0.4c-6.4,0-11.7,5.2-11.7,11.7s5.2,11.7,11.7,11.7c6.5,0,11.7-5.2,11.7-11.7S98.2,0.4,91.8,0.4z
		 M91.8,20.6c-4.7,0-8.5-3.8-8.5-8.5s3.8-8.5,8.5-8.5c4.7,0,8.5,3.8,8.5,8.5S96.5,20.6,91.8,20.6z"/>
	<polygon class="st0" points="24.7,3.5 36.4,3.5 36.4,23.8 39.5,23.8 39.5,3.5 42.8,3.5 42.8,0.4 24.7,0.4 	"/>
	<polygon class="st0" points="116.7,0.4 113.5,0.4 113.5,20.6 110.2,20.6 110.2,23.7 128.3,23.7 128.3,20.6 116.7,20.6 	"/>
	<path class="st0" d="M9.4,10.5c-6.3,0-6.3-2.4-6.3-3.6c0-2.4,2.1-3.8,5.9-3.8c5,0,7.2,1.6,8.7,3.3l0.1-0.1V2.3C15.9,1,13.2,0,9,0
		C2.4,0,0,3.7,0,6.9c0,4.5,3.2,6.7,9.4,6.7c6.3,0,6.3,2.4,6.3,3.6c0,2.4-2.1,3.8-5.9,3.8c-5,0-7.2-1.6-8.7-3.3L1,17.7v4.1
		c1.9,1.3,4.5,2.3,8.8,2.3c6.6,0,9-3.7,9-6.9C18.8,12.8,15.7,10.5,9.4,10.5z"/>
	<path class="st0" d="M143.6,10.5c-6.3,0-6.3-2.4-6.3-3.6c0-2.4,2.1-3.8,5.9-3.8c5,0,7.2,1.6,8.7,3.3l0.1-0.1V2.3
		C150.1,1,147.4,0,143.2,0c-6.6,0-9,3.7-9,6.9c0,4.5,3.2,6.7,9.4,6.7c6.3,0,6.3,2.4,6.3,3.6c0,2.4-2.1,3.8-5.9,3.8
		c-5,0-7.2-1.6-8.7-3.3l-0.1,0.1v4.1c1.9,1.3,4.5,2.3,8.8,2.3c6.6,0,9-3.7,9-6.9C153,12.8,149.8,10.5,143.6,10.5z"/>
</g>
</svg>
