<svg xmlns="http://www.w3.org/2000/svg" width="275.293" height="25" viewBox="0 0 275.293 25">
  <path id="logo" d="M.96-7.071C.927-2.416,3.759.872,9.228.872c5.664,0,8.04-3.613,8.04-7.487,0-3.418-2.051-5.176-5.729-6.771C7.47-15.079,6.168-15.534,6.2-17.325a2.805,2.805,0,0,1,2.962-2.734c2.376,0,2.8,1.855,2.995,2.962h4.785c-.2-5.339-4.427-7.031-7.617-7.031-3.906,0-7.975,2.507-7.975,7.129,0,4.557,4.2,6.055,6.022,6.706,3.353,1.335,5.078,1.855,5.078,3.906A3.259,3.259,0,0,1,9.163-3.2c-1.042,0-3.223-.618-3.385-3.874Zm22.656-16.6V.416h4.85V-7.852h2.962c3.516,0,5.143-.586,6.771-1.921a8.163,8.163,0,0,0,2.539-6.087A7.965,7.965,0,0,0,38-22.012c-1.4-1.074-3.027-1.66-7.1-1.66Zm4.85,4.264h2.669a6.833,6.833,0,0,1,3.288.618,3.128,3.128,0,0,1,1.66,2.995,3.312,3.312,0,0,1-1.6,3.06,6.537,6.537,0,0,1-3.158.618H28.467ZM46.663.416H60.172V-3.848H51.513V-9.675h8.5v-4.264h-8.5v-5.469h8.659v-4.264H46.663ZM85.53-7.657a7.594,7.594,0,0,1-6.706,4.264c-4.59,0-7.747-3.874-7.747-8.268,0-4.264,3.027-8.2,7.715-8.2a7.489,7.489,0,0,1,6.738,4.395h5.111a12.273,12.273,0,0,0-11.816-8.659,12.408,12.408,0,0,0-12.6,12.467A12.475,12.475,0,0,0,78.857.872,12.1,12.1,0,0,0,90.641-7.657ZM97.217.416h4.85V-23.672h-4.85ZM114.827-4.3h9.505L126.09.416H131.4l-9.538-24.089h-4.264L107.828.416H113.1Zm8.2-3.874H116.1l3.418-9.766ZM137.288.416h12.76V-3.848h-7.91V-23.672h-4.85Zm30.241-7.487C167.5-2.416,170.328.872,175.8.872c5.664,0,8.04-3.613,8.04-7.487,0-3.418-2.051-5.176-5.729-6.771-4.069-1.693-5.371-2.148-5.339-3.939a2.805,2.805,0,0,1,2.962-2.734c2.376,0,2.8,1.855,2.995,2.962h4.785c-.2-5.339-4.427-7.031-7.617-7.031-3.906,0-7.975,2.507-7.975,7.129,0,4.557,4.2,6.055,6.022,6.706,3.353,1.335,5.078,1.855,5.078,3.906a3.259,3.259,0,0,1-3.288,3.19c-1.042,0-3.223-.618-3.385-3.874ZM193.506.416h4.85V-19.408h5.176v-4.264H188.3v4.264h5.208ZM207.015-11.4A12.374,12.374,0,0,0,219.612.872a12.425,12.425,0,0,0,12.7-12.5,12.437,12.437,0,0,0-12.663-12.5,12.39,12.39,0,0,0-12.63,12.7Zm4.85-.26c0-4.232,2.995-8.2,7.813-8.2,4.915,0,7.78,4.232,7.78,8.268,0,3.971-2.865,8.2-7.747,8.2-4.687,0-7.845-3.841-7.845-8.236ZM238.948.416h4.85V-19.408h2.832a6.412,6.412,0,0,1,3.418.749,4.136,4.136,0,0,1,1.79,3.483,4.509,4.509,0,0,1-1.53,3.516c-1.009.781-2.734.879-4.329.879h-.944l6.478,11.2h5.078L251.22-8.5a6.3,6.3,0,0,0,3.971-2.6,7.874,7.874,0,0,0,1.3-4.492,7.917,7.917,0,0,0-3.06-6.543c-1.3-.944-3.451-1.53-7.194-1.53h-7.292Zm23.8,0h13.509V-3.848h-8.659V-9.675h8.5v-4.264h-8.5v-5.469h8.659v-4.264H262.744Z" transform="translate(-0.96 24.128)" fill="#fff"/>
</svg>
