<?xml version="1.0" encoding="utf-8"?>
<!-- Generator: Adobe Illustrator 25.2.3, SVG Export Plug-In . SVG Version: 6.00 Build 0)  -->
<svg version="1.1" id="レイヤー_1" xmlns="http://www.w3.org/2000/svg" xmlns:xlink="http://www.w3.org/1999/xlink" x="0px"
	 y="0px" viewBox="0 0 227 77.4" style="enable-background:new 0 0 227 77.4;" xml:space="preserve">
<g>
	<path d="M24.4,60.6H29c1.7,0,3.1,0.4,4,1.2s1.4,1.8,1.4,3.2s-0.5,2.4-1.4,3.3c-1,0.8-2.3,1.2-4.1,1.2h-3.2v7.7h-1.3V60.6z
		 M25.6,61.7v6.7h3.1c1.4,0,2.4-0.3,3.1-0.9c0.7-0.6,1.1-1.4,1.1-2.5c0-1-0.3-1.8-1-2.4c-0.7-0.6-1.7-0.9-3-0.9
		C28.9,61.7,25.6,61.7,25.6,61.7z"/>
	<path d="M49,60.6h1.3v9c0,2.5-0.7,4.4-2,5.7c-1.3,1.4-3,2-5,2s-3.7-0.7-5-2s-1.9-3.2-1.9-5.5v-9.3h1.3v9.3c0,2,0.5,3.5,1.6,4.6
		s2.4,1.7,4.1,1.7c1.7,0,3-0.6,4.1-1.7c1-1.1,1.6-2.7,1.6-4.8L49,60.6L49,60.6z"/>
	<path d="M53.7,60.6H58c1.8,0,3.1,0.4,4.1,1.2c0.9,0.8,1.4,1.8,1.4,3.1c0,1.9-1.1,3.3-3.2,4c0.5,0.3,1.3,1.1,2.2,2.5l3.7,5.7h-1.5
		l-2.9-4.5c-0.9-1.5-1.7-2.5-2.2-2.8c-0.6-0.4-1.3-0.6-2.4-0.6H55v7.9h-1.3V60.6z M55,61.7v6.5h2.8c1.4,0,2.5-0.3,3.2-0.8
		c0.7-0.6,1.1-1.4,1.1-2.4s-0.4-1.8-1.1-2.4c-0.8-0.6-1.8-0.9-3.2-0.9L55,61.7L55,61.7z"/>
	<path d="M74.2,60.5l7.7,16.7h-1.3L78,71.5h-8.1l-2.6,5.7H66l7.7-16.7C73.7,60.5,74.2,60.5,74.2,60.5z M77.4,70.4l-3.6-7.8l-3.6,7.8
		H77.4z"/>
	<path d="M90.6,60.6h4.3c1.8,0,3.1,0.4,4.1,1.2c0.9,0.8,1.4,1.8,1.4,3.1c0,1.9-1.1,3.3-3.2,4c0.6,0.3,1.3,1.1,2.2,2.5l3.8,5.7h-1.5
		l-2.9-4.5c-1-1.5-1.7-2.5-2.2-2.8c-0.5-0.4-1.3-0.6-2.4-0.6H92v7.9h-1.3V60.6H90.6z M91.9,61.7v6.5h2.7c1.4,0,2.5-0.3,3.2-0.8
		c0.7-0.6,1.1-1.4,1.1-2.4s-0.4-1.8-1.1-2.4c-0.7-0.6-1.8-0.9-3.2-0.9L91.9,61.7L91.9,61.7z"/>
	<rect x="104.5" y="60.6" width="1.3" height="16.6"/>
	<polygon points="124.5,60.6 124.5,77.2 123.4,77.2 110.8,62.7 110.8,77.2 109.5,77.2 109.5,60.6 110.6,60.6 123.2,75.1 123.2,60.6 
			"/>
	<path d="M134.8,60.5l7.7,16.7h-1.3l-2.6-5.7h-8.1l-2.6,5.7h-1.3l7.6-16.7C134.2,60.5,134.8,60.5,134.8,60.5z M138.1,70.4l-3.6-7.8
		l-3.6,7.8H138.1z"/>
	<path d="M152.3,61.4v1.4c-1.4-0.9-2.7-1.3-3.7-1.3s-1.8,0.3-2.5,0.9c-0.7,0.6-1,1.3-1,2.2c0,0.6,0.2,1.2,0.6,1.7
		c0.4,0.5,1.2,1,2.5,1.5c1.2,0.5,2.1,0.9,2.7,1.2c0.6,0.3,1.1,0.8,1.5,1.4s0.6,1.4,0.6,2.3c0,1.3-0.5,2.3-1.4,3.2
		c-0.9,0.9-2.1,1.3-3.4,1.3c-1.4,0-2.8-0.5-4.3-1.5v-1.5c1.6,1.2,3,1.8,4.2,1.8c1,0,1.8-0.3,2.5-0.9s1-1.4,1-2.4
		c0-0.7-0.2-1.3-0.6-1.9c-0.4-0.6-1.3-1.1-2.5-1.6c-1.3-0.5-2.2-0.9-2.8-1.2c-0.6-0.3-1-0.7-1.4-1.3c-0.4-0.6-0.6-1.3-0.6-2.2
		c0-1.2,0.5-2.3,1.4-3.1c0.9-0.9,2.1-1.3,3.4-1.3C149.8,60.4,151,60.7,152.3,61.4"/>
	<path d="M169.7,61.8v1.4c-2-1.1-4-1.6-5.9-1.6c-2.1,0-3.8,0.7-5.2,2.1s-2.1,3.1-2.1,5.2s0.7,3.9,2.1,5.2c1.4,1.4,3.2,2,5.3,2
		c1.8,0,3.8-0.5,5.9-1.7v1.3c-2,1-3.9,1.6-5.9,1.6c-2.5,0-4.6-0.8-6.3-2.4s-2.5-3.6-2.5-6s0.9-4.5,2.6-6.1c1.7-1.6,3.8-2.4,6.1-2.4
		C165.7,60.4,167.7,60.8,169.7,61.8"/>
	<rect x="172.3" y="60.6" width="1.3" height="16.6"/>
	<polygon points="189.3,60.6 189.3,61.7 183.1,61.7 183.1,77.2 181.8,77.2 181.8,61.7 175.6,61.7 175.6,60.6 	"/>
	<path d="M195.4,60.5l7.7,16.7h-1.3l-2.6-5.7H191l-2.6,5.7h-1.3l7.6-16.7C194.7,60.5,195.4,60.5,195.4,60.5z M198.6,70.4l-3.6-7.8
		l-3.6,7.8H198.6z"/>
	<path d="M22.5,41.2c-0.2,0-0.7-0.1-1.4-0.1C20.7,41,20,41,19.2,40.9l-2-0.1l-2,0.1c-1.3,0-2.1,0-2.5,0.1c-0.5,0.1-0.8,0.1-1,0.1
		c-0.8,0-0.8-0.5-0.8-0.7c0-0.4,0.2-0.8,1.1-0.9c1.4-0.2,2.2-0.6,2.6-1.2c0.4-0.6,0.5-1.9,0.5-3.9v-1.2v-8.6c0-1.2-0.1-2.1-0.2-2.7
		c-0.1-0.6-0.5-1.4-1.1-2.4L5.6,5c-0.5-0.9-1.2-1.6-2-2.1C2.7,2.3,1.8,2,1,2C0.1,2,0,1.5,0,1.3C0,1,0.1,0.4,1,0.4
		c0.4,0,0.9,0,1.3,0.1c1.1,0.1,2.3,0.2,3.5,0.2c2.5,0,4.1,0,4.8-0.1c1-0.1,1.3-0.1,1.4-0.1c0.9,0,1,0.6,1,0.8c0,0.3-0.1,0.7-0.8,0.9
		c-1,0.4-1.6,0.9-1.6,1.7c0,0.3,0.2,1,1.1,2.7L12.4,8l5.9,10c0.1,0.2,0.2,0.3,0.3,0.3c0.1,0,0.3-0.2,0.3-0.3l4-6.8L24.1,9
		c1.2-2.1,1.8-3.5,1.8-4.2c0-1.2-1-2-3.1-2.6C22.1,2.1,22,1.6,22,1.3c0-0.5,0.3-0.7,0.8-0.7c0.3,0,0.7,0,1.4,0.2
		c0.5,0.1,1.7,0.1,3.6,0.1c1.7,0,2.9,0,3.3-0.1c0.7-0.1,1.1-0.1,1.4-0.1c0.6-0.1,1,0.2,1,0.8c0,0.3-0.1,0.7-0.8,0.9
		C31.2,2.9,30,3.9,29,5.5l-8.5,14.3c-0.6,1-0.9,1.9-0.9,2.7v12.1c0,2.7,0.2,3.7,0.5,4c0.2,0.3,0.8,0.7,2.6,0.9c0.9,0.1,1,0.6,1,0.8
		C23.6,40.6,23.5,41.2,22.5,41.2"/>
	<path d="M49.4,41.4c-5.5,0-10-1.9-13.4-5.7s-5.1-8.8-5.1-15c0-2.7,0.5-5.4,1.3-8c0.9-2.6,2.1-4.9,3.6-6.6c1.6-1.9,3.7-3.4,6.1-4.5
		C44.4,0.6,47,0,49.6,0c5.3,0,9.8,1.9,13.2,5.7c3.4,3.8,5.2,8.6,5.2,14.5c0,6.2-1.7,11.3-5.2,15.3C59.3,39.4,54.8,41.4,49.4,41.4
		 M47.9,2.4c-3.8,0-6.9,1.5-9.2,4.4c-2.3,3-3.4,7-3.4,12c0,5.7,1.5,10.7,4.4,14.6s6.5,5.9,10.7,5.9c3.8,0,7.1-1.6,9.6-4.8
		s3.8-7.3,3.8-12.2c0-5.7-1.5-10.5-4.6-14.2C56.2,4.3,52.4,2.4,47.9,2.4"/>
	<path d="M86.3,41.7c-2.5,0-4.8-0.5-7-1.6s-3.9-2.6-5.1-4.4c-1.8-2.9-2.8-7-2.8-12.3V9.1c0-2.4-0.2-4-0.4-4.8
		c-0.3-0.8-0.9-1.4-1.9-1.9c-0.5-0.3-0.7-0.6-0.7-0.9c0-0.5,0.3-0.8,0.7-0.8c0.2,0,0.5,0,1.1,0.1C70.7,0.9,71.9,1,73.7,1
		c0.9,0,1.6-0.1,2.2-0.2c0.7-0.1,1.3-0.2,1.6-0.2l0,0c0.3,0,0.7,0.1,0.7,0.8c0,0.3-0.1,0.8-0.9,0.9C76.1,2.4,75.1,3,74.5,4
		s-0.9,2.8-0.9,5.1v15c0,5,1,8.7,2.9,11.2c1.9,2.4,4.9,3.7,8.8,3.7c4.3,0,7.5-1.5,9.3-4.4c1.3-2.1,2-5.6,2-10.5V9.5V7.6
		c0-1.8-0.2-3.1-0.5-3.8s-0.9-1.1-1.8-1.3c-0.8-0.2-1-0.6-1-0.9c0-0.2,0.1-0.7,0.8-0.7c0.2,0,0.7,0,1.3,0.1c0.9,0,1.4,0.1,1.6,0.1
		h3.8c0.3,0,0.9,0,1.7-0.1c0.7,0,1.3-0.1,1.7-0.1c1,0,1.2,0.6,1.2,0.9s-0.1,0.7-0.9,0.8c-0.2,0-0.5,0.1-0.7,0.1
		c-1.2,0.2-2.7,0.4-3.1,1c-0.2,0.4-0.1,1.1,0,2c0.1,0.7,0.2,1.5,0.2,2.4l0.1,1.8v14.7c0,4-0.6,7.4-1.8,9.9c-1.1,2.2-2.8,4-5.1,5.3
		S89.1,41.7,86.3,41.7"/>
	<path d="M96.7,8.1c0-1.8-0.2-3.2-0.7-4.1c-0.3-0.6-0.7-1-1-1.2c-0.4-0.2-1-0.4-2-0.5c-0.7-0.1-0.8-0.5-0.8-0.7c0-0.3,0-0.5,0.2-0.6
		c0.2-0.2,0.5-0.3,1-0.3c0.2,0,0.7,0,1.6,0.1c1.5,0.2,4,0.3,7.5,0.3c3.1,0,5.2,0,6.1-0.1l3.5-0.2c1.5-0.1,2.5-0.2,2.9-0.3
		c0.3-0.1,0.6-0.1,0.9-0.1c0.5,0,0.8,0.3,0.8,0.9c0,0.3,0,0.6-0.1,1c-0.3,1.2-0.4,2.9-0.4,5c0,1.3-0.5,1.6-0.9,1.6
		c-0.3,0-0.6-0.2-0.7-0.9c0-0.6-0.1-1.2-0.3-1.8c-0.2-1.1-0.5-1.6-0.7-1.8c-0.2-0.2-0.7-0.4-2-0.5l-3-0.3c-0.9-0.1-2.1-0.1-3.5-0.1
		c-2.3,0-3.1,0.2-3.4,0.4c-0.4,0.2-0.6,0.9-0.6,1.9v12.7c0,0.1,0.1,0.5,1.2,0.5l2.2,0.1h0.8l3-0.1c1.5,0,2.6-0.2,3.2-0.7
		s1.1-1.3,1.2-2.6c0.1-0.8,0.5-0.9,0.8-0.9c0.2,0,0.3,0.1,0.5,0.2c0.2,0.2,0.2,0.5,0.2,1l-0.1,2.9c0,0.4,0,1,0,1.7
		c0,2.2,0,3.7,0.1,4.3c0,0.4,0,0.7,0,0.8c0,0.8-0.5,0.9-0.7,0.9c-0.6,0-0.9-0.9-1-1.6c-0.2-1-0.4-1.7-0.6-2s-0.5-0.5-1-0.7
		c-1.1-0.3-2.7-0.5-4.9-0.5c-2,0-3.3,0-3.9,0.1c-0.5,0.1-0.7,0.2-0.8,0.5c-0.1,0.4-0.1,0.9-0.1,1.7h-0.5c0-0.8,0-1.4,0.1-1.8"/>
	<path d="M113.4,15.1C113.4,15.1,113.4,15.1,113.4,15.1"/>
	<path d="M131.8,41c-0.3,0-0.6,0-1-0.1c-0.5-0.1-1.4-0.1-2.7-0.1l-3.7-0.1l-3,0.2c-0.5,0.1-0.9,0.1-1.2,0.1c-0.9,0-0.9-0.6-0.9-0.8
		c0-0.3,0.2-0.7,1-0.9c1.2-0.2,2-0.7,2.3-1.4c0.4-0.7,0.5-2.3,0.5-4.7V8.5c0-2.3-0.2-3.9-0.7-4.7s-1.5-1.3-3-1.6
		c-0.8-0.2-1-0.6-1-0.9s0-0.5,0.2-0.6c0.2-0.3,0.7-0.3,1.3-0.2c1.2,0.2,2.9,0.3,5,0.3c1.2,0,2.4,0,3.3-0.1l1.7-0.2
		c0.3,0,0.6,0,0.7,0c0.8,0,0.9,0.5,0.9,0.8s-0.2,0.7-0.8,1l-1.3,0.6c-0.8,0.3-1.8,1.8-1.8,6.7v21.7c0,2.7,0.1,4.4,0.4,5.3
		c0.3,0.9,0.7,1.6,1.2,2s1.2,0.7,2.3,0.8c0.4,0.1,1.5,0.2,1.5,0.9C132.9,40.7,132.5,41,131.8,41"/>
	<path d="M164.5,41.3c-1.6,0-3-0.5-4.3-1.5c-1.2-1-2.5-2.6-3.8-4.7l-6.8-11.6c-0.4-0.7-1-1.1-1.8-1.1h-3.4l-0.5,0.1
		c-0.1,0.1-0.2,0.3-0.2,0.7v10.2c0,1.6,0.1,2.8,0.2,3.4c0.1,0.6,0.5,1.1,1,1.5c0.7,0.6,1.8,1,3.3,1.2c0.9,0.1,1.2,0.5,1.2,0.9
		c0,0.3-0.1,0.4-0.2,0.5c-0.2,0.2-0.5,0.3-0.9,0.3c-0.3,0-0.8,0-1.5-0.1S145,41,143.5,41H141h-1.3c-0.6,0-1.3,0.1-2.1,0.1
		c-0.7,0.1-1.2,0.1-1.4,0.1c-0.6,0-0.9-0.3-0.9-0.8c0-0.3,0.1-0.7,0.8-0.8c1.3-0.3,2.1-0.9,2.5-1.9c0.4-1.1,0.6-3.3,0.6-6.5V10.3v-3
		c0-2.9-0.9-4.5-2.6-4.8l-1.2-0.2c-0.9-0.2-1-0.6-1-0.9s0.1-0.8,1.1-0.8c0.2,0,0.8,0,1.8,0.1c0.6,0.1,1.4,0.1,2.3,0.1
		c0.8,0,2.1-0.1,4-0.2c1.4-0.1,2.6-0.1,3.7-0.1c4,0,7.1,0.9,9.1,2.6c2.1,1.7,3.1,4.3,3.1,7.6c0,4.3-2.1,7.8-6.3,10.2l7.8,12.9
		c2.2,3.5,4.1,5.4,5.9,5.5l0.8,0.1c0.2,0,0.4,0.1,0.5,0.2c0.1,0.1,0.2,0.2,0.1,0.5c0,0.5-0.8,0.8-1.3,1
		C166.3,41.1,165.4,41.3,164.5,41.3 M146.1,2.9c-0.9,0-1.6,0.2-1.9,0.5c-0.3,0.3-0.5,1-0.5,1.9v0.9V18c0,1.1,0.2,1.5,0.3,1.6
		s0.4,0.3,1.3,0.3h2.9c2.2,0,3.9-0.7,5.1-2c1.2-1.3,1.9-3.2,1.9-5.5c0-2.7-0.9-5-2.6-6.7C151,3.7,148.8,2.9,146.1,2.9"/>
	<path d="M179.4,41.4c-1.4,0-3-0.2-4.7-0.6c-1.7-0.4-3-0.9-3.8-1.5c-0.4-0.3-0.6-0.5-0.7-0.8c-0.1-0.3-0.3-0.9-0.5-2
		c0-0.1-0.3-1-0.7-2.6c-0.5-1.7-0.7-3-0.7-3.8c0-0.9,0.5-1.1,0.8-1.1c0.5,0,0.9,0.5,1.2,1.6c0.6,2.3,2,4.3,4.1,5.9
		c2,1.6,4.3,2.4,6.7,2.4s4.5-0.8,6.2-2.3s2.5-3.4,2.5-5.5s-0.8-3.8-2.3-5.2c-0.8-0.7-3.1-1.8-7-3.2c-4-1.5-7-3.1-8.7-4.9
		s-2.6-4.1-2.6-7c0-3.2,1.1-5.8,3.4-7.8c2.2-2,5.1-3,8.6-3c2,0,3.7,0.3,5,0.9l1.9,0.8c0.3,0.1,0.6,0.1,0.9-0.1l0.4-0.3
		c0.1-0.1,0.2-0.2,0.5-0.2c0.6,0,0.9,0.6,0.9,1.7c0,0.2,0.1,0.9,0.4,2.9l0.4,3c0.1,0.4,0.1,1,0.1,1.2c0,1-0.5,1.1-0.8,1.1
		c-0.4,0-0.8-0.5-1.1-1.6c-0.6-2-1.9-3.7-3.9-5s-4.2-2-6.6-2c-1.9,0-3.5,0.6-4.7,1.8c-1.3,1.2-1.9,2.6-1.9,4.4c0,1.6,0.4,2.9,1.2,4
		c0.7,1,1.5,1.7,2.4,2.1c0.9,0.5,3,1.3,6.5,2.5c6.8,2.4,10.3,6.3,10.3,11.7c0,3.7-1.3,6.7-3.8,9C186.6,40.3,183.4,41.4,179.4,41.4"
		/>
	<path d="M216.2,41.1c-0.2,0-0.7-0.1-1.3-0.2c-0.3-0.1-1.1-0.1-2.3-0.1h-1.9h-2c-0.7,0-1.3,0-1.8,0.1c-1.3,0.2-1.6,0.2-1.8,0.2
		c-0.9,0-1-0.6-1-0.9c0-0.4,0.4-0.7,1.1-0.8c1.2-0.2,2.1-0.6,2.5-1.1c0.4-0.6,0.7-1.7,0.7-3.2V5.7c0-0.9-0.1-1.1-0.2-1.2
		c-0.1-0.1-0.3-0.2-1.1-0.2h-6.8c-1.3,0-2.3,0.3-2.9,0.9c-0.6,0.6-1.1,1.7-1.4,3.4c-0.1,0.3-0.3,1.3-0.9,1.3c-0.3,0-0.7-0.2-0.7-1
		c0-0.4,0.1-1.2,0.3-2.3c0.3-1.4,0.4-2.5,0.4-3.4s0.1-1.6,0.3-1.9c0.2-0.4,0.7-0.5,1.4-0.5h27.8c1.1,0,1.6,0.1,1.9,0.4
		c0.2,0.2,0.4,0.6,0.4,2.2c0,1.1,0,1.9,0.1,2.4c0.1,0.7,0.1,1.2,0.2,1.4c0,1-0.5,1.2-0.8,1.2l0,0c-0.5,0-0.8-0.4-0.9-1.1
		c-0.2-1.3-0.5-2.1-1-2.5c-0.4-0.4-1.4-0.6-2.8-0.6h-7.2c-0.9,0-1.2,0.2-1.2,0.3c-0.1,0.1-0.2,0.4-0.2,1.5v29.5
		c0.1,2.1,1.1,3.4,3.2,3.8c0.7,0.1,1.1,0.4,1.1,0.9C217.2,40.8,216.8,41.1,216.2,41.1"/>
	<path d="M115.9,14.8C115.9,14.8,115.9,14.8,115.9,14.8"/>
</g>
</svg>
