<?xml version="1.0" encoding="utf-8"?>
<!-- Generator: Adobe Illustrator 22.1.0, SVG Export Plug-In . SVG Version: 6.00 Build 0)  -->
<svg version="1.1" id="レイヤー_1" xmlns="http://www.w3.org/2000/svg" xmlns:xlink="http://www.w3.org/1999/xlink" x="0px"
	 y="0px" viewBox="0 0 109.9 43.5" style="enable-background:new 0 0 109.9 43.5;" xml:space="preserve">
<style type="text/css">
	.st0{fill:#FFFFFF;}
</style>
<g>
	<path class="st0" d="M0,22.1h1.9c1.1,0,1.8,0,2.2,0.1c0.5,0.1,1,0.4,1.3,0.8C5.8,23.5,6,24,6,24.6c0,0.6-0.2,1.2-0.5,1.6
		c-0.3,0.4-0.8,0.7-1.4,0.8c-0.4,0.1-1.2,0.2-2.4,0.2H1v4.4H0V22.1z M1,23v3.2l1.6,0c0.7,0,1.1-0.1,1.4-0.2c0.3-0.1,0.5-0.3,0.7-0.6
		C4.9,25.2,5,24.9,5,24.6c0-0.3-0.1-0.6-0.3-0.9c-0.2-0.3-0.4-0.5-0.7-0.6C3.7,23.1,3.3,23,2.6,23H1z"/>
	<polygon class="st0" points="8.5,22.1 14,22.1 14,23 9.5,23 9.5,26 14,26 14,26.9 9.5,26.9 9.5,30.7 14,30.7 14,31.6 8.5,31.6 	"/>
	<polygon class="st0" points="16.9,22.1 17.8,22.1 17.8,30.7 21.5,30.7 21.5,31.6 16.9,31.6 	"/>
	<polygon class="st0" points="24.1,22.1 25,22.1 25,30.7 28.7,30.7 28.7,31.6 24.1,31.6 	"/>
	<polygon class="st0" points="31.1,22.1 36.6,22.1 36.6,23 32.1,23 32.1,26 36.6,26 36.6,26.9 32.1,26.9 32.1,30.7 36.6,30.7 
		36.6,31.6 31.1,31.6 	"/>
	<polygon class="st0" points="43.4,31.6 44.7,22.1 44.9,22.1 48.8,29.9 52.6,22.1 52.8,22.1 54.1,31.6 53.2,31.6 52.3,24.8 
		48.9,31.6 48.6,31.6 45.2,24.7 44.3,31.6 	"/>
	<path class="st0" d="M60.9,21.8c1.4,0,2.7,0.5,3.6,1.4c1,1,1.5,2.2,1.5,3.6c0,1.4-0.5,2.6-1.5,3.6c-1,1-2.2,1.5-3.6,1.5
		c-1.4,0-2.6-0.5-3.6-1.5c-1-1-1.5-2.1-1.5-3.5c0-0.9,0.2-1.8,0.7-2.5c0.4-0.8,1-1.4,1.8-1.8C59.2,22.1,60,21.8,60.9,21.8 M61,22.8
		c-0.7,0-1.4,0.2-2,0.6c-0.6,0.4-1.1,0.9-1.5,1.5c-0.4,0.6-0.5,1.3-0.5,2.1c0,1.1,0.4,2.1,1.2,2.9c0.8,0.8,1.7,1.2,2.8,1.2
		c0.7,0,1.4-0.2,2.1-0.5c0.6-0.4,1.1-0.9,1.5-1.5c0.4-0.6,0.5-1.3,0.5-2.1c0-0.8-0.2-1.4-0.5-2.1c-0.4-0.6-0.8-1.1-1.5-1.5
		C62.4,22.9,61.7,22.8,61,22.8"/>
	<path class="st0" d="M68.8,22.1h1.9c1.1,0,1.8,0,2.2,0.1c0.6,0.1,1,0.4,1.4,0.8c0.4,0.4,0.5,1,0.5,1.6c0,0.5-0.1,1-0.4,1.4
		c-0.2,0.4-0.6,0.7-1,0.9c-0.5,0.2-1.1,0.3-1.9,0.3l3.4,4.4h-1.2l-3.4-4.4h-0.5v4.4h-1V22.1z M69.7,23v3.2l1.6,0
		c0.6,0,1.1-0.1,1.4-0.2c0.3-0.1,0.5-0.3,0.7-0.6c0.2-0.3,0.3-0.6,0.3-0.9c0-0.3-0.1-0.6-0.3-0.9c-0.2-0.3-0.4-0.4-0.7-0.6
		c-0.3-0.1-0.7-0.2-1.4-0.2H69.7z"/>
	<path class="st0" d="M77.9,22.1h1.9c0.8,0,1.3,0.1,1.7,0.3c0.4,0.2,0.7,0.5,1,0.8c0.2,0.4,0.4,0.8,0.4,1.2c0,0.4-0.1,0.8-0.3,1.2
		c-0.2,0.3-0.5,0.6-0.9,0.8c0.5,0.2,0.9,0.4,1.1,0.6c0.3,0.2,0.5,0.5,0.6,0.8c0.2,0.3,0.2,0.7,0.2,1c0,0.8-0.3,1.4-0.8,1.9
		c-0.6,0.5-1.3,0.8-2.3,0.8h-2.6V22.1z M78.8,23v3.1h0.5c0.7,0,1.2-0.1,1.5-0.2c0.3-0.1,0.6-0.3,0.7-0.6c0.2-0.3,0.3-0.6,0.3-0.9
		c0-0.4-0.2-0.8-0.5-1c-0.3-0.3-0.8-0.4-1.5-0.4H78.8z M78.8,27v3.7H80c0.7,0,1.2-0.1,1.5-0.2c0.3-0.1,0.6-0.3,0.8-0.6
		c0.2-0.3,0.3-0.6,0.3-0.9c0-0.4-0.1-0.8-0.4-1.1c-0.3-0.3-0.7-0.5-1.1-0.6c-0.3-0.1-0.9-0.1-1.7-0.1H78.8z"/>
	<rect x="86.7" y="22.1" class="st0" width="1" height="9.5"/>
	<path class="st0" d="M91.3,31.6v-9.5h2c1.4,0,2.5,0.1,3.1,0.3c0.9,0.3,1.7,0.9,2.2,1.7c0.5,0.8,0.8,1.8,0.8,2.9
		c0,1-0.2,1.8-0.6,2.5c-0.4,0.7-0.9,1.3-1.6,1.6c-0.7,0.3-1.6,0.5-2.8,0.5H91.3z M92.3,30.7h1.1c1.3,0,2.2-0.1,2.7-0.2
		c0.7-0.2,1.3-0.7,1.7-1.3c0.4-0.6,0.6-1.3,0.6-2.2c0-0.9-0.2-1.7-0.7-2.4c-0.4-0.7-1.1-1.1-1.9-1.3c-0.6-0.2-1.6-0.3-3-0.3h-0.7
		V30.7z"/>
	<path class="st0" d="M105.5,22.1l4.5,9.5h-1l-1.5-3.1h-4.1l-1.5,3.1h-1.1l4.5-9.5H105.5z M105.4,24.1l-1.6,3.5h3.3L105.4,24.1z"/>
	<path class="st0" d="M0.1,22.1H2c1.1,0,1.8,0,2.2,0.1c0.5,0.1,1,0.4,1.3,0.8C5.9,23.5,6,24,6,24.6c0,0.6-0.2,1.2-0.5,1.6
		c-0.3,0.4-0.8,0.7-1.4,0.8c-0.4,0.1-1.2,0.2-2.4,0.2H1v4.4h-1V22.1z M1,23v3.2l1.6,0c0.7,0,1.1-0.1,1.4-0.2
		c0.3-0.1,0.5-0.3,0.7-0.6C5,25.2,5,25,5,24.6C5,24.3,5,24,4.8,23.7c-0.2-0.3-0.4-0.5-0.7-0.6C3.8,23.1,3.4,23,2.7,23H1z"/>
	<polygon class="st0" points="8.6,22.1 14.1,22.1 14.1,23 9.5,23 9.5,26 14,26 14,26.9 9.5,26.9 9.5,30.7 14,30.7 14,31.6 8.6,31.6 
			"/>
	<polygon class="st0" points="16.9,22.1 17.9,22.1 17.9,30.7 21.5,30.7 21.5,31.6 16.9,31.6 	"/>
	<polygon class="st0" points="24.1,22.1 25.1,22.1 25.1,30.7 28.7,30.7 28.7,31.6 24.1,31.6 	"/>
	<polygon class="st0" points="31.2,22.1 36.6,22.1 36.6,23 32.1,23 32.1,26 36.6,26 36.6,26.9 32.1,26.9 32.1,30.7 36.6,30.7 
		36.6,31.6 31.2,31.6 	"/>
	<polygon class="st0" points="43.4,31.6 44.7,22.1 44.9,22.1 48.8,29.9 52.6,22.1 52.8,22.1 54.1,31.6 53.2,31.6 52.3,24.8 
		48.9,31.6 48.6,31.6 45.2,24.7 44.3,31.6 	"/>
	<path class="st0" d="M60.9,21.8c1.4,0,2.7,0.5,3.6,1.4c1,1,1.5,2.1,1.5,3.6c0,1.4-0.5,2.6-1.5,3.6c-1,1-2.2,1.5-3.5,1.5
		c-1.4,0-2.6-0.5-3.6-1.5c-1-1-1.5-2.1-1.5-3.5c0-0.9,0.2-1.8,0.7-2.5c0.4-0.8,1-1.4,1.8-1.8C59.2,22.1,60,21.8,60.9,21.8
		 M60.9,22.8c-0.7,0-1.4,0.2-2,0.6c-0.6,0.4-1.1,0.9-1.5,1.5c-0.4,0.6-0.5,1.3-0.5,2.1c0,1.1,0.4,2.1,1.2,2.9
		c0.8,0.8,1.7,1.2,2.8,1.2c0.7,0,1.4-0.2,2.1-0.5c0.6-0.4,1.1-0.8,1.5-1.5c0.4-0.6,0.5-1.3,0.5-2.1c0-0.8-0.2-1.4-0.5-2.1
		c-0.4-0.6-0.8-1.1-1.5-1.5C62.3,23,61.7,22.8,60.9,22.8"/>
	<path class="st0" d="M68.7,22.1h1.9c1.1,0,1.8,0,2.2,0.1c0.6,0.1,1,0.4,1.4,0.8c0.4,0.4,0.5,1,0.5,1.6c0,0.5-0.1,1-0.4,1.4
		c-0.2,0.4-0.6,0.7-1,0.9c-0.5,0.2-1.1,0.3-1.9,0.3l3.4,4.4h-1.2l-3.4-4.4h-0.5v4.4h-1V22.1z M69.7,23v3.2l1.6,0
		c0.6,0,1.1-0.1,1.4-0.2c0.3-0.1,0.5-0.3,0.7-0.6c0.2-0.3,0.3-0.6,0.3-0.9c0-0.3-0.1-0.6-0.3-0.9c-0.2-0.3-0.4-0.4-0.7-0.6
		C72.5,23.1,72,23,71.4,23H69.7z"/>
	<path class="st0" d="M77.8,22.1h1.9c0.8,0,1.3,0.1,1.7,0.3c0.4,0.2,0.7,0.5,1,0.8c0.2,0.4,0.4,0.8,0.4,1.2c0,0.4-0.1,0.8-0.3,1.2
		c-0.2,0.3-0.5,0.6-0.9,0.8c0.5,0.2,0.9,0.4,1.1,0.6c0.3,0.2,0.5,0.5,0.6,0.8c0.1,0.3,0.2,0.7,0.2,1c0,0.8-0.3,1.4-0.8,1.9
		c-0.6,0.5-1.3,0.8-2.3,0.8h-2.6V22.1z M78.8,23v3.1h0.5c0.7,0,1.1-0.1,1.5-0.2c0.3-0.1,0.6-0.3,0.7-0.6c0.2-0.3,0.3-0.6,0.3-0.9
		c0-0.4-0.2-0.8-0.5-1C81,23.1,80.5,23,79.9,23H78.8z M78.8,27v3.7H80c0.7,0,1.2-0.1,1.5-0.2c0.3-0.1,0.6-0.3,0.8-0.6
		c0.2-0.3,0.3-0.6,0.3-0.9c0-0.4-0.1-0.8-0.4-1.1c-0.3-0.3-0.7-0.5-1.1-0.6c-0.3-0.1-0.9-0.1-1.7-0.1H78.8z"/>
	<rect x="86.6" y="22.1" class="st0" width="1" height="9.5"/>
	<path class="st0" d="M91.3,31.6v-9.5h2c1.4,0,2.5,0.1,3.1,0.3c0.9,0.3,1.6,0.9,2.2,1.7c0.5,0.8,0.8,1.8,0.8,2.9
		c0,1-0.2,1.8-0.6,2.5c-0.4,0.7-0.9,1.3-1.6,1.6c-0.7,0.3-1.6,0.5-2.8,0.5H91.3z M92.2,30.7h1.1c1.3,0,2.2-0.1,2.7-0.2
		c0.7-0.2,1.3-0.7,1.7-1.3c0.4-0.6,0.6-1.3,0.6-2.2c0-0.9-0.2-1.7-0.7-2.4c-0.4-0.7-1.1-1.1-1.9-1.3c-0.6-0.2-1.6-0.3-2.9-0.3h-0.7
		V30.7z"/>
	<path class="st0" d="M105.4,22.1l4.4,9.5h-1l-1.5-3.1h-4.1l-1.5,3.1h-1.1l4.5-9.5H105.4z M105.3,24.1l-1.6,3.5h3.3L105.3,24.1z"/>
	<path class="st0" d="M46,42.1l0.4,0.2c-0.1,0.3-0.3,0.5-0.5,0.7c-0.2,0.2-0.4,0.3-0.6,0.4c-0.2,0.1-0.5,0.1-0.8,0.1
		c-0.6,0-1.1-0.2-1.5-0.6c-0.4-0.4-0.5-0.9-0.5-1.4c0-0.5,0.2-0.9,0.5-1.3c0.4-0.5,0.9-0.7,1.5-0.7c0.7,0,1.2,0.3,1.6,0.8
		c0.3,0.4,0.4,0.8,0.4,1.3h-3.5c0,0.4,0.2,0.8,0.4,1.1c0.3,0.3,0.6,0.4,1,0.4c0.2,0,0.4,0,0.6-0.1c0.2-0.1,0.3-0.2,0.5-0.3
		C45.7,42.5,45.9,42.3,46,42.1 M46,41c-0.1-0.3-0.2-0.5-0.3-0.6c-0.1-0.2-0.3-0.3-0.5-0.4c-0.2-0.1-0.4-0.1-0.7-0.1
		c-0.4,0-0.7,0.1-1,0.4c-0.2,0.2-0.3,0.4-0.5,0.8H46z"/>
	<path class="st0" d="M49.7,39.9l-0.3,0.3c-0.3-0.3-0.5-0.4-0.8-0.4c-0.2,0-0.3,0.1-0.4,0.2c-0.1,0.1-0.2,0.2-0.2,0.4
		c0,0.1,0,0.2,0.1,0.4c0.1,0.1,0.3,0.2,0.6,0.4c0.4,0.2,0.6,0.4,0.8,0.6c0.1,0.2,0.2,0.4,0.2,0.6c0,0.3-0.1,0.6-0.3,0.8
		c-0.2,0.2-0.5,0.3-0.8,0.3c-0.2,0-0.4-0.1-0.6-0.1c-0.2-0.1-0.4-0.2-0.5-0.4l0.3-0.4c0.3,0.3,0.5,0.4,0.8,0.4
		c0.2,0,0.4-0.1,0.5-0.2c0.1-0.1,0.2-0.3,0.2-0.5c0-0.1,0-0.3-0.1-0.4c-0.1-0.1-0.3-0.2-0.6-0.4c-0.3-0.2-0.6-0.4-0.7-0.5
		c-0.1-0.2-0.2-0.4-0.2-0.6c0-0.3,0.1-0.5,0.3-0.7c0.2-0.2,0.5-0.3,0.8-0.3C49,39.4,49.4,39.6,49.7,39.9"/>
	<polygon class="st0" points="51.5,38.1 52,38.1 52,39.5 52.8,39.5 52.8,39.9 52,39.9 52,43.4 51.5,43.4 51.5,39.9 50.9,39.9 
		50.9,39.5 51.5,39.5 	"/>
	<path class="st0" d="M54.6,42.7c-0.1,0.1-0.1,0.2-0.1,0.3c0,0.1,0,0.2,0.1,0.3c0.1,0.1,0.2,0.1,0.3,0.1c0.1,0,0.2,0,0.3-0.1
		c0.1-0.1,0.1-0.2,0.1-0.3c0-0.1,0-0.2-0.1-0.3c-0.1-0.1-0.2-0.1-0.3-0.1C54.8,42.6,54.7,42.6,54.6,42.7"/>
	<path class="st0" d="M59.9,38.6h-3v0.6h2.2C59,39.3,57,43.3,57,43.3l0.5,0.2L59.9,38.6L59.9,38.6z"/>
	<polygon class="st0" points="62.4,38.6 61.4,38.6 61.1,39.2 61.8,39.2 61.8,43.4 62.4,43.4 62.4,38.6 	"/>
	<path class="st0" d="M67.2,38.6h-2.1l-0.5,2.5l0.1,0c0.4-0.2,0.7-0.2,1-0.2c0.3,0,0.6,0.1,0.8,0.3c0.2,0.2,0.3,0.4,0.3,0.7
		c0,0.3-0.1,0.6-0.3,0.8c-0.2,0.2-0.5,0.3-0.7,0.3c-0.1,0-0.3,0-0.4-0.1c-0.1-0.1-0.2-0.1-0.3-0.3c-0.1-0.1-0.1-0.2-0.2-0.4l0,0
		h-0.6l0,0.1c0.1,0.4,0.2,0.7,0.5,0.9c0.3,0.2,0.6,0.4,1,0.4c0.3,0,0.6-0.1,0.9-0.2c0.2-0.1,0.5-0.3,0.6-0.6
		c0.1-0.3,0.2-0.6,0.2-0.9c0-0.5-0.1-0.8-0.4-1.1c-0.3-0.3-0.7-0.4-1.1-0.4c-0.1,0-0.3,0-0.5,0.1c0-0.2,0.2-1,0.2-1.1h1.7L67.2,38.6
		L67.2,38.6z"/>
	<path class="st0" d="M46,42.1l0.4,0.2c-0.1,0.3-0.3,0.5-0.5,0.7c-0.2,0.2-0.4,0.3-0.6,0.4c-0.2,0.1-0.5,0.1-0.8,0.1
		c-0.6,0-1.1-0.2-1.5-0.6c-0.4-0.4-0.5-0.9-0.5-1.4c0-0.5,0.2-0.9,0.4-1.3c0.4-0.5,0.9-0.7,1.5-0.7c0.7,0,1.2,0.3,1.6,0.8
		c0.3,0.4,0.4,0.8,0.4,1.3h-3.5c0,0.4,0.2,0.8,0.4,1.1c0.3,0.3,0.6,0.4,1,0.4c0.2,0,0.4,0,0.6-0.1c0.2-0.1,0.3-0.2,0.5-0.3
		C45.8,42.5,45.9,42.3,46,42.1 M46,41c-0.1-0.3-0.2-0.5-0.3-0.6c-0.1-0.2-0.3-0.3-0.5-0.4c-0.2-0.1-0.4-0.1-0.7-0.1
		c-0.4,0-0.7,0.1-1,0.4c-0.2,0.2-0.3,0.4-0.5,0.8H46z"/>
	<path class="st0" d="M49.7,39.9l-0.3,0.3c-0.3-0.3-0.5-0.4-0.8-0.4c-0.2,0-0.3,0.1-0.4,0.2c-0.1,0.1-0.2,0.2-0.2,0.4
		c0,0.1,0,0.2,0.1,0.4c0.1,0.1,0.3,0.2,0.6,0.4c0.4,0.2,0.6,0.4,0.8,0.6c0.1,0.2,0.2,0.4,0.2,0.6c0,0.3-0.1,0.6-0.3,0.8
		c-0.2,0.2-0.5,0.3-0.8,0.3c-0.2,0-0.4-0.1-0.6-0.1c-0.2-0.1-0.4-0.2-0.5-0.4l0.3-0.4c0.3,0.3,0.5,0.4,0.8,0.4
		c0.2,0,0.4-0.1,0.5-0.2c0.1-0.1,0.2-0.3,0.2-0.5c0-0.1,0-0.3-0.1-0.4c-0.1-0.1-0.3-0.2-0.6-0.4c-0.3-0.2-0.6-0.4-0.7-0.5
		c-0.1-0.2-0.2-0.4-0.2-0.6c0-0.3,0.1-0.5,0.3-0.7c0.2-0.2,0.5-0.3,0.8-0.3C49,39.4,49.4,39.6,49.7,39.9"/>
	<polygon class="st0" points="51.6,38.1 52,38.1 52,39.5 52.8,39.5 52.8,39.9 52,39.9 52,43.3 51.6,43.3 51.6,39.9 50.9,39.9 
		50.9,39.5 51.6,39.5 	"/>
	<path class="st0" d="M54.6,42.7c-0.1,0.1-0.1,0.2-0.1,0.3c0,0.1,0,0.2,0.1,0.3c0.1,0.1,0.2,0.1,0.3,0.1c0.1,0,0.2,0,0.3-0.1
		c0.1-0.1,0.1-0.2,0.1-0.3c0-0.1,0-0.2-0.1-0.3c-0.1-0.1-0.2-0.1-0.3-0.1C54.8,42.5,54.7,42.6,54.6,42.7"/>
	<path class="st0" d="M59.9,38.6h-3v0.6h2.2C59,39.3,57,43.2,57,43.2l0.5,0.2L59.9,38.6L59.9,38.6z"/>
	<polygon class="st0" points="62.3,38.6 61.4,38.6 61,39.2 61.8,39.2 61.8,43.3 62.4,43.3 62.4,38.6 	"/>
	<path class="st0" d="M67.1,38.6h-2.1l-0.5,2.5l0.1,0c0.4-0.2,0.7-0.2,1-0.2c0.3,0,0.6,0.1,0.8,0.3c0.2,0.2,0.3,0.4,0.3,0.7
		c0,0.3-0.1,0.6-0.3,0.8c-0.2,0.2-0.5,0.3-0.7,0.3c-0.1,0-0.3,0-0.4-0.1c-0.1-0.1-0.2-0.1-0.3-0.3c-0.1-0.1-0.1-0.2-0.2-0.4l0,0
		h-0.6l0,0.1c0.1,0.4,0.2,0.7,0.5,0.9c0.3,0.2,0.6,0.4,1,0.4c0.3,0,0.6-0.1,0.9-0.2c0.2-0.1,0.5-0.3,0.6-0.6
		c0.1-0.3,0.2-0.6,0.2-0.9c0-0.5-0.1-0.8-0.4-1.1c-0.3-0.3-0.6-0.4-1.1-0.4c-0.1,0-0.3,0-0.5,0.1c0-0.1,0.2-1,0.2-1.1h1.7L67.1,38.6
		L67.1,38.6z"/>
	<path class="st0" d="M76,13.6C75.9,13.6,75.9,13.6,76,13.6l-13.5,0l-23,0c0,0-0.6,0-0.7,0c-0.1,0-0.3,0-0.5-0.2
		c-0.2-0.1-0.5-0.4-0.9-0.7c-0.8-0.6-2.8-1.8-3.9-2.5c-0.5-0.3-0.7-0.4-0.7-0.4c-0.1-0.1-0.1-0.1,0-0.1c0-0.1,0.1-0.1,0.1-0.1
		c0,0,6,0.1,6.4,0.1c0.9-0.9,2.3-2.2,2.4-2.4c-0.1-0.3-0.1-0.6-0.1-0.9c0-0.4,0.2-0.5,0.2-0.5c0.1-0.1,0.6-0.7,0.8-0.8
		C42.6,5,42.8,5,42.8,5l0.7,0c0.1-0.2,1.4-1.6,1.5-1.7c0.1-0.1,0.2-0.1,0.3-0.1c0,0,0.4,0,0.5,0c0.1-0.1,0.3-0.5,0.4-0.6
		c0.1-0.1,0.1-0.1,0.2-0.1c0,0,0.5,0,0.7,0c0.1-0.1,0.3-0.7,0.4-0.8c0.1-0.1,0.2-0.1,0.2-0.1l0.3,0c0-0.1,0.2-0.5,0.3-0.6
		c0.1-0.1,0.1-0.1,0.1-0.1c0,0,0.4,0,0.5,0c0.2-0.3,0.6-0.7,0.6-0.8C49.6,0,49.6,0,49.7,0c0,0,0,0,0,0.1c0,0-0.4,1.5-0.7,2.5
		c0.4,0,3.8,0,4,0c0.2,0,0.2,0.1,0.2,0.2c0,0,0,0.4,0,0.5c0.2,0,0.8,0,0.9,0c0.1,0,0.2,0,0.2,0.1c0,0,0.1,0.5,0.1,0.6
		c0.3,0,2.1,0,2.2,0l0,0c0.1,0,0.1,0,0.1,0c0,0,0,0.1,0,0.1c0,0,0,0.2,0,0.3l4,0c0.1-0.6,0.4-1,0.7-1.4c0.4-0.5,0.8-0.5,1.3-0.5
		c0,0,0,0,0,0c0.6,0,0.9,0.2,1.1,0.4l0.1,0c0.2,0.1,1.3,1,1.4,1.1c0.2,0,3.7,0,3.9,0c0,0,0.1,0,0.1,0c0.1,0,0.1,0.1,0.1,0.1
		c0,0,0,0.2,0,0.3c0.3,0,2.1,0,2.3,0c0.1,0,0.1,0,0.2,0.1c0,0,0.5,0.5,0.5,0.6c0,0.1,0,0.1,0,0.1c0,0,0,0-0.1,0c0,0-0.7,0-1,0
		l0.4,0.3l1.2,0c0.1,0,0.2,0,0.2,0.1c0,0,0.4,0.6,0.5,0.7c0.1,0,0.3,0,0.4,0c0.1,0,0.1,0,0.1,0.1c0,0,0.2,0.4,0.3,0.5h0.2
		c0.1,0,0.1,0,0.1,0c0,0,0.1,0,0.1,0.1c0,0,0,0.1,0,0.1L75.4,8c0.1,0,0.2,0,0.2,0c0.1,0,0.1,0,0.1,0.1c0,0,0.1,0.4,0.2,0.7H76
		c0,0,0.1,0,0.1,0c0,0,0,0,0,0l0.3,0.8h0.1c0.1,0,0.1,0.1,0.1,0.1l0,0.4H77c0.1,0,0.1,0,0.1,0.1c0,0,0,0,0,0.1v0.6h0.1
		c0.1,0,0.1,0,0.1,0.1c0,0,0,0.1,0,0.2c0,0.3,0,0.9,0,1c0,0.1-0.1,0.2-0.2,0.4l0,0.1c0,0-0.1,0.1-0.1,0.2c-0.2,0.3-0.4,0.6-0.5,0.7
		C76.3,13.5,76.1,13.6,76,13.6z M75.9,13.5c0,0,0.3,0,0.4-0.1c0.1-0.1,0.3-0.4,0.5-0.7c0.1-0.1,0.1-0.1,0.1-0.2l0-0.1
		c0.1-0.1,0.2-0.3,0.2-0.3c0-0.1,0-0.7,0-1c0-0.1,0-0.2,0-0.2c0,0,0,0,0,0H77v-0.7c0,0,0,0,0,0c0,0,0,0-0.1,0h-0.4l0-0.4
		c0,0,0,0,0,0h-0.1l0,0l-0.3-0.8c0,0,0,0,0,0c0,0,0,0,0,0h-0.2l0,0c-0.1-0.2-0.2-0.7-0.2-0.7c0,0,0,0-0.1,0c0,0-0.2,0-0.2,0l0,0
		l-0.4-1.1c0,0,0,0,0-0.1c0,0,0,0,0,0c0,0-0.1,0-0.1,0h-0.2l0,0c-0.1-0.2-0.2-0.4-0.3-0.5c0,0,0,0-0.1-0.1c-0.1,0-0.4,0-0.4,0l0,0
		l0,0c0,0-0.5-0.7-0.5-0.7c0,0,0,0-0.1,0l-1.2,0L71.3,5h0.1c0.4,0,1.1,0,1.1,0c0,0,0,0,0,0c0,0,0,0,0,0c0-0.1-0.5-0.6-0.5-0.6
		c0,0,0,0-0.1,0c-0.1,0-2.3,0-2.3,0h0l0,0c0,0,0-0.3,0-0.3c0,0,0,0,0,0c0,0-0.1,0-0.1,0c-0.3,0-3.9,0-4,0h0l0,0c0,0-1.2-1-1.4-1.1
		l-0.1,0c-0.2-0.2-0.6-0.3-1.1-0.3c0,0,0,0,0,0c-0.5,0-0.9,0.1-1.3,0.5c-0.3,0.4-0.6,0.7-0.7,1.3l0,0h0l-4.1,0l0,0c0,0,0-0.3,0-0.3
		l0,0c0,0,0-0.1,0-0.1c0,0,0,0-0.1,0h0c-0.1,0-2.2,0-2.2,0l0,0l0,0c0-0.2-0.1-0.6-0.1-0.6c0,0,0-0.1-0.1-0.1c-0.1,0-0.9,0-0.9,0l0,0
		l0,0c0-0.2,0-0.5,0-0.5c0,0,0-0.1-0.2-0.1c0,0,0,0,0,0c-0.2,0-4,0-4,0l0,0l0,0c0.3-0.9,0.6-2.3,0.7-2.5c0,0-0.1,0-0.1,0.1
		c-0.1,0.1-0.4,0.5-0.7,0.8l0,0l0,0c-0.1,0-0.5,0-0.6,0c0,0,0,0-0.1,0.1c0,0.1-0.3,0.6-0.3,0.6l0,0l-0.4,0c0,0-0.1,0-0.1,0.1
		c0,0.1-0.4,0.8-0.4,0.8l0,0l0,0c0,0-0.7,0-0.7,0c0,0-0.1,0-0.1,0c0,0-0.3,0.4-0.4,0.6l0,0l0,0c0,0-0.5,0-0.5,0
		c-0.1,0-0.2,0-0.2,0.1c-0.1,0.1-1.5,1.7-1.5,1.7l0,0l-0.7,0c0,0-0.1,0-0.3,0.1c-0.1,0.1-0.7,0.8-0.8,0.8l0,0c0,0-0.1,0.1-0.2,0.5
		c0,0.2,0,0.5,0.1,0.8l0,0c0,0.1-1.8,1.9-2.5,2.5l0,0l0,0c-0.3,0-6.4-0.1-6.4-0.1c-0.1,0-0.1,0-0.1,0c0,0,0,0,0,0.1
		c0,0,0.3,0.2,0.7,0.4c1.1,0.7,3.1,1.9,3.9,2.5c0.4,0.3,0.7,0.6,0.9,0.7c0.2,0.1,0.3,0.1,0.5,0.1c0.1,0,0.7,0,0.7,0l23,0L75.9,13.5z
		"/>
	<path class="st0" d="M43.8,11.1c-0.1,0-0.2,0-0.3,0c-0.2,0-0.3-0.1-0.3-0.1l0,0c-0.1,0-0.4-0.3-0.6-0.6c-0.1-0.1-0.1-0.2-0.1-0.2
		c0-0.1,0.1-0.1,0.3-0.1h3.2c0.1,0,0.1,0,0.1,0.1v0.7c0,0.1-0.1,0.2-0.1,0.2c0,0-1.9,0-2,0C44,11.1,43.9,11.1,43.8,11.1z M42.7,10.2
		c-0.2,0-0.2,0-0.2,0.1c0,0,0,0.1,0.1,0.1c0.2,0.2,0.6,0.5,0.6,0.5l0,0c0,0,0.1,0.1,0.3,0.1c0.2,0,0.5,0,0.5,0h0c0,0,1.9,0,2,0
		c0,0,0.1,0,0.1-0.1v-0.7c0,0,0-0.1-0.1-0.1H42.7z"/>
	<path class="st0" d="M47.2,11.1c-0.4,0-0.7,0-0.7,0c0,0-0.1,0-0.1,0c0,0,0-0.1,0-0.1l0-0.7c0-0.1,0.1-0.1,0.1-0.1
		c0.1,0,2.3,0,2.4,0c0.1,0,0.1,0.1,0.1,0.1l0,0.1c0,0.3,0,0.6,0,0.6c0,0.1-0.1,0.1-0.1,0.1C48.9,11.1,47.9,11.1,47.2,11.1z
		 M48.4,10.2c-0.7,0-1.9,0-1.9,0c0,0,0,0,0,0.1v0.7c0,0,0,0,0,0.1c0,0,0,0,0,0c0.1,0,2.4,0,2.4,0c0,0,0.1,0,0.1-0.1
		c0-0.1,0-0.5,0-0.6l0-0.1c0-0.1,0-0.1,0-0.1C48.9,10.2,48.7,10.2,48.4,10.2z"/>
	<rect x="46.4" y="10.6" class="st0" width="2.6" height="0.1"/>
	<path class="st0" d="M50.2,11.1c-0.4,0-0.7,0-0.7,0c0,0-0.1,0-0.1,0c0,0,0-0.1,0-0.1l0-0.7c0-0.1,0.1-0.1,0.1-0.1c0,0,2.4,0,2.4,0
		c0.1,0,0.1,0.1,0.1,0.1l0,0c0,0.3,0,0.6,0,0.7c0,0.1-0.1,0.1-0.1,0.1C51.9,11.1,50.9,11.1,50.2,11.1z M51.9,10.2
		c-0.1,0-2.4,0-2.4,0c0,0,0,0,0,0.1v0.7c0,0,0,0.1,0,0.1c0,0,0,0,0,0c0.1,0,2.4,0,2.4,0c0,0,0,0,0.1-0.1c0,0,0-0.3,0-0.7L51.9,10.2
		C51.9,10.2,51.9,10.2,51.9,10.2z"/>
	<path class="st0" d="M57.7,11c-2.6,0-5.2,0-5.3,0c-0.1,0-0.1,0-0.1-0.1c0,0,0-0.6,0-0.6c0-0.1,0.1-0.1,0.1-0.1c0.4,0,10.8,0,10.8,0
		c0.1,0,0.1,0,0.1,0.1c0,0,0,0,0,0.1c0,0.2,0,0.4,0,0.5c0,0.1-0.1,0.1-0.1,0.1C63.2,11,60.4,11,57.7,11z M62.2,10.2
		c-2.7,0-9.8,0-9.8,0c0,0,0,0,0,0.1v0c0,0.2,0,0.6,0,0.6v0c0,0,0,0.1,0.1,0.1c0.1,0,10.7,0,10.8,0c0,0,0,0,0.1-0.1c0,0,0-0.3,0-0.5
		c0-0.1,0-0.1,0-0.1c0-0.1,0-0.1,0-0.1C63.2,10.2,62.8,10.2,62.2,10.2z"/>
	<rect x="49.4" y="10.6" class="st0" width="2.6" height="0.1"/>
	<path class="st0" d="M64.6,11c-0.4,0-0.7,0-0.7,0c0,0-0.1,0-0.1,0c0,0,0-0.1,0-0.1l0-0.6c0,0,0-0.1,0-0.1c0,0,0.1,0,0.1,0
		c0,0,0.4,0,0.9,0c0.7,0,1.4,0,1.5,0c0,0,0.1,0,0.1,0c0,0,0,0.1,0,0.1c0,0,0,0.5,0,0.6c0,0.1-0.1,0.1-0.1,0.1
		C66.3,11,65.3,11,64.6,11z M63.9,10.2C63.9,10.2,63.9,10.2,63.9,10.2C63.9,10.2,63.9,10.2,63.9,10.2l0,0.6c0,0,0,0,0,0.1
		c0,0,0,0,0,0c0.1,0,2.3,0,2.3,0c0,0,0,0,0-0.1c0-0.1,0-0.5,0-0.6c0,0,0,0,0-0.1c0,0,0,0,0,0c0,0-0.8,0-1.5,0
		C64.1,10.2,63.9,10.2,63.9,10.2C63.9,10.2,63.9,10.2,63.9,10.2z"/>
	<rect x="63.8" y="10.5" class="st0" width="2.5" height="0.1"/>
	<path class="st0" d="M67.6,11c-0.4,0-0.6,0-0.7,0c0,0-0.1,0-0.1,0c0,0,0-0.1,0-0.1l0-0.6c0,0,0-0.1,0-0.1c0,0,0.1,0,0.1,0
		c0,0,0.2,0,0.5,0c0.9,0,1.8,0,1.8,0c0.1,0,0.1,0.1,0.1,0.1l0,0l0,0c0,0.2,0,0.5,0,0.6c0,0.1-0.1,0.1-0.1,0.1
		C69.3,11,68.3,11,67.6,11z M66.9,10.2C66.9,10.2,66.9,10.2,66.9,10.2C66.9,10.2,66.9,10.2,66.9,10.2l0,0.6c0,0,0,0,0,0.1
		c0,0,0,0,0,0c0.1,0,2.3,0,2.3,0c0,0,0,0,0-0.1c0,0,0-0.2,0-0.6l0,0l0,0c0,0,0,0,0,0c0,0-1.2,0-1.8,0C67,10.2,66.9,10.2,66.9,10.2z"
		/>
	<rect x="66.8" y="10.5" class="st0" width="2.5" height="0.1"/>
	<rect x="53.3" y="10.1" class="st0" width="0.1" height="0.8"/>
	<polygon class="st0" points="69.9,11 69.9,10.1 69.9,10.1 76.6,10.1 76.6,10.2 69.9,10.2 69.9,10.9 77,10.9 77,10.9 	"/>
	<rect x="39.2" y="9.6" class="st0" width="37.2" height="0.1"/>
	<rect x="40.1" y="8.7" class="st0" width="35.7" height="0.1"/>
	<rect x="41" y="8" class="st0" width="34.4" height="0.1"/>
	<polygon class="st0" points="63.2,7.3 63.2,7.3 41.6,7.3 41.6,7.2 63.1,7.2 63.1,6.8 41.5,6.8 41.5,6.8 63.2,6.7 	"/>
	<g>
		<rect x="54.7" y="10.1" class="st0" width="0.6" height="0.8"/>
		<g>
			<path class="st0" d="M43.4,9.3h-0.5c0,0-0.1,0-0.1-0.1V9.1c0,0,0-0.1,0.1-0.1h0.5c0,0,0.1,0,0.1,0.1L43.4,9.3
				C43.5,9.3,43.4,9.3,43.4,9.3"/>
			<path class="st0" d="M42.3,9.3h-0.5c0,0-0.1,0-0.1-0.1V9.1c0,0,0-0.1,0.1-0.1h0.5c0,0,0.1,0,0.1,0.1L42.3,9.3
				C42.4,9.3,42.3,9.3,42.3,9.3"/>
			<path class="st0" d="M41.2,9.3h-0.5c0,0-0.1,0-0.1-0.1V9.1c0,0,0-0.1,0.1-0.1h0.5c0,0,0.1,0,0.1,0.1L41.2,9.3
				C41.3,9.3,41.2,9.3,41.2,9.3"/>
			<path class="st0" d="M44.5,9.3H44c0,0-0.1,0-0.1-0.1V9.1C44,9,44,9,44,9h0.5c0,0,0.1,0,0.1,0.1L44.5,9.3
				C44.6,9.3,44.6,9.3,44.5,9.3"/>
			<path class="st0" d="M45.7,9.3h-0.5c0,0-0.1,0-0.1-0.1V9.1c0,0,0-0.1,0.1-0.1h0.5c0,0,0.1,0,0.1,0.1L45.7,9.3
				C45.8,9.3,45.7,9.3,45.7,9.3"/>
			<path class="st0" d="M46.8,9.3h-0.5c0,0-0.1,0-0.1-0.1V9.1c0,0,0-0.1,0.1-0.1h0.5c0,0,0.1,0,0.1,0.1L46.8,9.3
				C46.9,9.3,46.9,9.3,46.8,9.3"/>
			<path class="st0" d="M48,9.3h-0.5c0,0-0.1,0-0.1-0.1V9.1c0,0,0-0.1,0.1-0.1H48c0,0,0.1,0,0.1,0.1L48,9.3C48.1,9.3,48,9.3,48,9.3"
				/>
			<path class="st0" d="M49.1,9.3h-0.5c0,0-0.1,0-0.1-0.1V9.1c0,0,0-0.1,0.1-0.1h0.5c0,0,0.1,0,0.1,0.1L49.1,9.3
				C49.2,9.3,49.2,9.3,49.1,9.3"/>
			<path class="st0" d="M50.3,9.3h-0.5c0,0-0.1,0-0.1-0.1V9.1c0,0,0-0.1,0.1-0.1h0.5c0,0,0.1,0,0.1,0.1L50.3,9.3
				C50.4,9.3,50.3,9.3,50.3,9.3"/>
			<path class="st0" d="M51.5,9.3H51c0,0-0.1,0-0.1-0.1V9.1c0,0,0-0.1,0.1-0.1h0.5c0,0,0.1,0,0.1,0.1L51.5,9.3
				C51.5,9.3,51.5,9.3,51.5,9.3"/>
			<path class="st0" d="M52.6,9.3h-0.5c0,0-0.1,0-0.1-0.1V9.1c0,0,0-0.1,0.1-0.1h0.5c0,0,0.1,0,0.1,0.1L52.6,9.3
				C52.7,9.3,52.7,9.3,52.6,9.3"/>
			<path class="st0" d="M53.8,9.3h-0.5c0,0-0.1,0-0.1-0.1V9.1c0,0,0-0.1,0.1-0.1h0.5c0,0,0.1,0,0.1,0.1L53.8,9.3
				C53.8,9.3,53.8,9.3,53.8,9.3"/>
			<path class="st0" d="M54.9,9.3h-0.5c0,0-0.1,0-0.1-0.1V9.1c0,0,0-0.1,0.1-0.1h0.5C55,9,55,9,55,9.1L54.9,9.3
				C55,9.3,55,9.3,54.9,9.3"/>
			<path class="st0" d="M56.1,9.3h-0.5c0,0-0.1,0-0.1-0.1V9.1c0,0,0-0.1,0.1-0.1h0.5c0,0,0.1,0,0.1,0.1L56.1,9.3
				C56.1,9.3,56.1,9.3,56.1,9.3"/>
			<path class="st0" d="M57.2,9.3h-0.5c0,0-0.1,0-0.1-0.1V9.1c0,0,0-0.1,0.1-0.1h0.5c0,0,0.1,0,0.1,0.1L57.2,9.3
				C57.3,9.3,57.3,9.3,57.2,9.3"/>
			<path class="st0" d="M58.4,9.3h-0.5c0,0-0.1,0-0.1-0.1V9.1c0,0,0-0.1,0.1-0.1h0.5c0,0,0.1,0,0.1,0.1L58.4,9.3
				C58.4,9.3,58.4,9.3,58.4,9.3"/>
			<path class="st0" d="M59.5,9.3H59c0,0-0.1,0-0.1-0.1V9.1c0,0,0-0.1,0.1-0.1h0.5c0,0,0.1,0,0.1,0.1L59.5,9.3
				C59.6,9.3,59.5,9.3,59.5,9.3"/>
			<path class="st0" d="M60.6,9.3H60c0,0-0.1,0-0.1-0.1V9.1C60,9,60,9,60,9h0.5c0,0,0.1,0,0.1,0.1L60.6,9.3
				C60.6,9.3,60.6,9.3,60.6,9.3"/>
			<path class="st0" d="M61.7,9.3h-0.5c0,0-0.1,0-0.1-0.1V9.1c0,0,0-0.1,0.1-0.1h0.5c0,0,0.1,0,0.1,0.1L61.7,9.3
				C61.8,9.3,61.7,9.3,61.7,9.3"/>
			<path class="st0" d="M62.9,9.3h-0.5c0,0-0.1,0-0.1-0.1V9.1c0,0,0-0.1,0.1-0.1h0.5c0,0,0.1,0,0.1,0.1L62.9,9.3
				C62.9,9.3,62.9,9.3,62.9,9.3"/>
			<path class="st0" d="M64,9.3h-0.5c0,0-0.1,0-0.1-0.1V9.1c0,0,0-0.1,0.1-0.1H64c0,0,0.1,0,0.1,0.1L64,9.3
				C64.1,9.3,64.1,9.3,64,9.3"/>
			<path class="st0" d="M65.2,9.3h-0.5c0,0-0.1,0-0.1-0.1V9.1c0,0,0-0.1,0.1-0.1h0.5c0,0,0.1,0,0.1,0.1L65.2,9.3
				C65.2,9.3,65.2,9.3,65.2,9.3"/>
			<path class="st0" d="M66.3,9.3h-0.5c0,0-0.1,0-0.1-0.1V9.1c0,0,0-0.1,0.1-0.1h0.5c0,0,0.1,0,0.1,0.1L66.3,9.3
				C66.4,9.3,66.4,9.3,66.3,9.3"/>
			<path class="st0" d="M67.5,9.3H67c0,0-0.1,0-0.1-0.1V9.1c0,0,0-0.1,0.1-0.1h0.5c0,0,0.1,0,0.1,0.1L67.5,9.3
				C67.5,9.3,67.5,9.3,67.5,9.3"/>
			<path class="st0" d="M68.6,9.3h-0.5c0,0-0.1,0-0.1-0.1V9.1c0,0,0-0.1,0.1-0.1h0.5c0,0,0.1,0,0.1,0.1L68.6,9.3
				C68.7,9.3,68.7,9.3,68.6,9.3"/>
			<path class="st0" d="M69.8,9.3h-0.5c0,0-0.1,0-0.1-0.1V9.1c0,0,0-0.1,0.1-0.1h0.5c0,0,0.1,0,0.1,0.1L69.8,9.3
				C69.9,9.3,69.8,9.3,69.8,9.3"/>
			<path class="st0" d="M70.9,9.3h-0.5c0,0-0.1,0-0.1-0.1V9.1c0,0,0-0.1,0.1-0.1h0.5C71,9,71,9,71,9.1L70.9,9.3
				C71,9.3,71,9.3,70.9,9.3"/>
			<path class="st0" d="M72.1,9.3h-0.5c0,0-0.1,0-0.1-0.1V9.1c0,0,0-0.1,0.1-0.1h0.5c0,0,0.1,0,0.1,0.1L72.1,9.3
				C72.2,9.3,72.1,9.3,72.1,9.3"/>
			<path class="st0" d="M73.2,9.3h-0.5c0,0-0.1,0-0.1-0.1V9.1c0,0,0-0.1,0.1-0.1h0.5c0,0,0.1,0,0.1,0.1L73.2,9.3
				C73.3,9.3,73.3,9.3,73.2,9.3"/>
			<path class="st0" d="M74.4,9.3h-0.5c0,0-0.1,0-0.1-0.1V9.1c0,0,0-0.1,0.1-0.1h0.5c0,0,0.1,0,0.1,0.1L74.4,9.3
				C74.5,9.3,74.4,9.3,74.4,9.3"/>
			<g>
				<path class="st0" d="M43.4,8.5h-0.5c0,0-0.1,0-0.1-0.1V8.3c0,0,0-0.1,0.1-0.1h0.5c0,0,0.1,0,0.1,0.1L43.4,8.5
					C43.5,8.5,43.4,8.5,43.4,8.5"/>
				<path class="st0" d="M42.3,8.5h-0.5c0,0-0.1,0-0.1-0.1V8.3c0,0,0-0.1,0.1-0.1h0.5c0,0,0.1,0,0.1,0.1L42.3,8.5
					C42.4,8.5,42.3,8.5,42.3,8.5"/>
				<path class="st0" d="M44.5,8.5H44c0,0-0.1,0-0.1-0.1V8.3c0,0,0-0.1,0.1-0.1h0.5c0,0,0.1,0,0.1,0.1L44.5,8.5
					C44.6,8.5,44.6,8.5,44.5,8.5"/>
				<path class="st0" d="M45.7,8.5h-0.5c0,0-0.1,0-0.1-0.1V8.3c0,0,0-0.1,0.1-0.1h0.5c0,0,0.1,0,0.1,0.1L45.7,8.5
					C45.8,8.5,45.7,8.5,45.7,8.5"/>
				<path class="st0" d="M46.8,8.5h-0.5c0,0-0.1,0-0.1-0.1V8.3c0,0,0-0.1,0.1-0.1h0.5c0,0,0.1,0,0.1,0.1L46.8,8.5
					C46.9,8.5,46.9,8.5,46.8,8.5"/>
				<path class="st0" d="M48,8.5h-0.5c0,0-0.1,0-0.1-0.1V8.3c0,0,0-0.1,0.1-0.1H48c0,0,0.1,0,0.1,0.1L48,8.5C48.1,8.5,48,8.5,48,8.5
					"/>
				<path class="st0" d="M49.1,8.5h-0.5c0,0-0.1,0-0.1-0.1V8.3c0,0,0-0.1,0.1-0.1h0.5c0,0,0.1,0,0.1,0.1L49.1,8.5
					C49.2,8.5,49.2,8.5,49.1,8.5"/>
				<path class="st0" d="M50.3,8.5h-0.5c0,0-0.1,0-0.1-0.1V8.3c0,0,0-0.1,0.1-0.1h0.5c0,0,0.1,0,0.1,0.1L50.3,8.5
					C50.4,8.5,50.3,8.5,50.3,8.5"/>
				<path class="st0" d="M51.5,8.5H51c0,0-0.1,0-0.1-0.1V8.3c0,0,0-0.1,0.1-0.1h0.5c0,0,0.1,0,0.1,0.1L51.5,8.5
					C51.5,8.5,51.5,8.5,51.5,8.5"/>
				<path class="st0" d="M52.6,8.5h-0.5c0,0-0.1,0-0.1-0.1V8.3c0,0,0-0.1,0.1-0.1h0.5c0,0,0.1,0,0.1,0.1L52.6,8.5
					C52.7,8.5,52.7,8.5,52.6,8.5"/>
				<path class="st0" d="M53.8,8.5h-0.5c0,0-0.1,0-0.1-0.1V8.3c0,0,0-0.1,0.1-0.1h0.5c0,0,0.1,0,0.1,0.1L53.8,8.5
					C53.8,8.5,53.8,8.5,53.8,8.5"/>
				<path class="st0" d="M54.9,8.5h-0.5c0,0-0.1,0-0.1-0.1V8.3c0,0,0-0.1,0.1-0.1h0.5c0,0,0.1,0,0.1,0.1L54.9,8.5
					C55,8.5,55,8.5,54.9,8.5"/>
				<path class="st0" d="M56.1,8.5h-0.5c0,0-0.1,0-0.1-0.1V8.3c0,0,0-0.1,0.1-0.1h0.5c0,0,0.1,0,0.1,0.1L56.1,8.5
					C56.1,8.5,56.1,8.5,56.1,8.5"/>
				<path class="st0" d="M57.2,8.5h-0.5c0,0-0.1,0-0.1-0.1V8.3c0,0,0-0.1,0.1-0.1h0.5c0,0,0.1,0,0.1,0.1L57.2,8.5
					C57.3,8.5,57.3,8.5,57.2,8.5"/>
				<path class="st0" d="M58.4,8.5h-0.5c0,0-0.1,0-0.1-0.1V8.3c0,0,0-0.1,0.1-0.1h0.5c0,0,0.1,0,0.1,0.1L58.4,8.5
					C58.4,8.5,58.4,8.5,58.4,8.5"/>
				<path class="st0" d="M59.5,8.5H59c0,0-0.1,0-0.1-0.1V8.3c0,0,0-0.1,0.1-0.1h0.5c0,0,0.1,0,0.1,0.1L59.5,8.5
					C59.6,8.5,59.5,8.5,59.5,8.5"/>
				<path class="st0" d="M60.6,8.5H60c0,0-0.1,0-0.1-0.1V8.3c0,0,0-0.1,0.1-0.1h0.5c0,0,0.1,0,0.1,0.1L60.6,8.5
					C60.6,8.5,60.6,8.5,60.6,8.5"/>
				<path class="st0" d="M61.7,8.5h-0.5c0,0-0.1,0-0.1-0.1V8.3c0,0,0-0.1,0.1-0.1h0.5c0,0,0.1,0,0.1,0.1L61.7,8.5
					C61.8,8.5,61.7,8.5,61.7,8.5"/>
				<path class="st0" d="M62.9,8.5h-0.5c0,0-0.1,0-0.1-0.1V8.3c0,0,0-0.1,0.1-0.1h0.5c0,0,0.1,0,0.1,0.1L62.9,8.5
					C62.9,8.5,62.9,8.5,62.9,8.5"/>
				<path class="st0" d="M64,8.5h-0.5c0,0-0.1,0-0.1-0.1V8.3c0,0,0-0.1,0.1-0.1H64c0,0,0.1,0,0.1,0.1L64,8.5
					C64.1,8.5,64.1,8.5,64,8.5"/>
				<path class="st0" d="M65.2,8.5h-0.5c0,0-0.1,0-0.1-0.1V8.3c0,0,0-0.1,0.1-0.1h0.5c0,0,0.1,0,0.1,0.1L65.2,8.5
					C65.2,8.5,65.2,8.5,65.2,8.5"/>
				<path class="st0" d="M66.3,8.5h-0.5c0,0-0.1,0-0.1-0.1V8.3c0,0,0-0.1,0.1-0.1h0.5c0,0,0.1,0,0.1,0.1L66.3,8.5
					C66.4,8.5,66.4,8.5,66.3,8.5"/>
				<path class="st0" d="M67.5,8.5H67c0,0-0.1,0-0.1-0.1V8.3c0,0,0-0.1,0.1-0.1h0.5c0,0,0.1,0,0.1,0.1L67.5,8.5
					C67.5,8.5,67.5,8.5,67.5,8.5"/>
				<path class="st0" d="M68.6,8.5h-0.5c0,0-0.1,0-0.1-0.1V8.3c0,0,0-0.1,0.1-0.1h0.5c0,0,0.1,0,0.1,0.1L68.6,8.5
					C68.7,8.5,68.7,8.5,68.6,8.5"/>
				<path class="st0" d="M69.8,8.5h-0.5c0,0-0.1,0-0.1-0.1V8.3c0,0,0-0.1,0.1-0.1h0.5c0,0,0.1,0,0.1,0.1L69.8,8.5
					C69.9,8.5,69.8,8.5,69.8,8.5"/>
				<path class="st0" d="M70.9,8.5h-0.5c0,0-0.1,0-0.1-0.1V8.3c0,0,0-0.1,0.1-0.1h0.5c0,0,0.1,0,0.1,0.1L70.9,8.5
					C71,8.5,71,8.5,70.9,8.5"/>
				<path class="st0" d="M72.1,8.5h-0.5c0,0-0.1,0-0.1-0.1V8.3c0,0,0-0.1,0.1-0.1h0.5c0,0,0.1,0,0.1,0.1L72.1,8.5
					C72.2,8.5,72.1,8.5,72.1,8.5"/>
				<path class="st0" d="M73.2,8.5h-0.5c0,0-0.1,0-0.1-0.1V8.3c0,0,0-0.1,0.1-0.1h0.5c0,0,0.1,0,0.1,0.1L73.2,8.5
					C73.3,8.5,73.3,8.5,73.2,8.5"/>
				<path class="st0" d="M74.4,8.5h-0.5c0,0-0.1,0-0.1-0.1V8.3c0,0,0-0.1,0.1-0.1h0.5c0,0,0.1,0,0.1,0.1L74.4,8.5
					C74.5,8.5,74.4,8.5,74.4,8.5"/>
				<g>
					<path class="st0" d="M74.5,6.8h-10l0-0.5l9.2,0h0.4c0,0,0.1,0,0.2,0.1C74.3,6.3,74.5,6.8,74.5,6.8"/>
					<path class="st0" d="M43.4,7.8h-0.5c0,0-0.1,0-0.1-0.1V7.6c0,0,0-0.1,0.1-0.1h0.5c0,0,0.1,0,0.1,0.1L43.4,7.8
						C43.5,7.7,43.4,7.8,43.4,7.8"/>
					<path class="st0" d="M44.5,7.8H44c0,0-0.1,0-0.1-0.1V7.6c0,0,0-0.1,0.1-0.1h0.5c0,0,0.1,0,0.1,0.1L44.5,7.8
						C44.6,7.7,44.6,7.8,44.5,7.8"/>
					<path class="st0" d="M45.7,7.8h-0.5c0,0-0.1,0-0.1-0.1V7.6c0,0,0-0.1,0.1-0.1h0.5c0,0,0.1,0,0.1,0.1L45.7,7.8
						C45.8,7.7,45.7,7.8,45.7,7.8"/>
					<path class="st0" d="M46.8,7.8h-0.5c0,0-0.1,0-0.1-0.1V7.6c0,0,0-0.1,0.1-0.1h0.5c0,0,0.1,0,0.1,0.1L46.8,7.8
						C46.9,7.7,46.9,7.8,46.8,7.8"/>
					<path class="st0" d="M48,7.8h-0.5c0,0-0.1,0-0.1-0.1V7.6c0,0,0-0.1,0.1-0.1H48c0,0,0.1,0,0.1,0.1L48,7.8
						C48.1,7.7,48,7.8,48,7.8"/>
					<path class="st0" d="M49.1,7.8h-0.5c0,0-0.1,0-0.1-0.1V7.6c0,0,0-0.1,0.1-0.1h0.5c0,0,0.1,0,0.1,0.1L49.1,7.8
						C49.2,7.7,49.2,7.8,49.1,7.8"/>
					<path class="st0" d="M50.3,7.8h-0.5c0,0-0.1,0-0.1-0.1V7.6c0,0,0-0.1,0.1-0.1h0.5c0,0,0.1,0,0.1,0.1L50.3,7.8
						C50.4,7.7,50.3,7.8,50.3,7.8"/>
					<path class="st0" d="M51.5,7.8H51c0,0-0.1,0-0.1-0.1V7.6c0,0,0-0.1,0.1-0.1h0.5c0,0,0.1,0,0.1,0.1L51.5,7.8
						C51.5,7.7,51.5,7.8,51.5,7.8"/>
					<path class="st0" d="M52.6,7.8h-0.5c0,0-0.1,0-0.1-0.1V7.6c0,0,0-0.1,0.1-0.1h0.5c0,0,0.1,0,0.1,0.1L52.6,7.8
						C52.7,7.7,52.7,7.8,52.6,7.8"/>
					<path class="st0" d="M53.8,7.8h-0.5c0,0-0.1,0-0.1-0.1V7.6c0,0,0-0.1,0.1-0.1h0.5c0,0,0.1,0,0.1,0.1L53.8,7.8
						C53.8,7.7,53.8,7.8,53.8,7.8"/>
					<path class="st0" d="M54.9,7.8h-0.5c0,0-0.1,0-0.1-0.1V7.6c0,0,0-0.1,0.1-0.1h0.5c0,0,0.1,0,0.1,0.1L54.9,7.8
						C55,7.7,55,7.8,54.9,7.8"/>
					<path class="st0" d="M56.1,7.8h-0.5c0,0-0.1,0-0.1-0.1V7.6c0,0,0-0.1,0.1-0.1h0.5c0,0,0.1,0,0.1,0.1L56.1,7.8
						C56.1,7.7,56.1,7.8,56.1,7.8"/>
					<path class="st0" d="M57.2,7.8h-0.5c0,0-0.1,0-0.1-0.1V7.6c0,0,0-0.1,0.1-0.1h0.5c0,0,0.1,0,0.1,0.1L57.2,7.8
						C57.3,7.7,57.3,7.8,57.2,7.8"/>
					<path class="st0" d="M58.4,7.8h-0.5c0,0-0.1,0-0.1-0.1V7.6c0,0,0-0.1,0.1-0.1h0.5c0,0,0.1,0,0.1,0.1L58.4,7.8
						C58.4,7.7,58.4,7.8,58.4,7.8"/>
					<path class="st0" d="M59.5,7.8H59c0,0-0.1,0-0.1-0.1V7.6c0,0,0-0.1,0.1-0.1h0.5c0,0,0.1,0,0.1,0.1L59.5,7.8
						C59.6,7.7,59.5,7.8,59.5,7.8"/>
					<path class="st0" d="M60.6,7.8H60c0,0-0.1,0-0.1-0.1V7.6c0,0,0-0.1,0.1-0.1h0.5c0,0,0.1,0,0.1,0.1L60.6,7.8
						C60.6,7.7,60.6,7.8,60.6,7.8"/>
					<path class="st0" d="M61.7,7.8h-0.5c0,0-0.1,0-0.1-0.1V7.6c0,0,0-0.1,0.1-0.1h0.5c0,0,0.1,0,0.1,0.1L61.7,7.8
						C61.8,7.7,61.7,7.8,61.7,7.8"/>
					<path class="st0" d="M62.9,7.8h-0.5c0,0-0.1,0-0.1-0.1V7.6c0,0,0-0.1,0.1-0.1h0.5c0,0,0.1,0,0.1,0.1L62.9,7.8
						C62.9,7.7,62.9,7.8,62.9,7.8"/>
					<path class="st0" d="M64,7.8h-0.5c0,0-0.1,0-0.1-0.1V7.6c0,0,0-0.1,0.1-0.1H64c0,0,0.1,0,0.1,0.1L64,7.8
						C64.1,7.7,64.1,7.8,64,7.8"/>
					<path class="st0" d="M65.2,7.8h-0.5c0,0-0.1,0-0.1-0.1V7.6c0,0,0-0.1,0.1-0.1h0.5c0,0,0.1,0,0.1,0.1L65.2,7.8
						C65.2,7.7,65.2,7.8,65.2,7.8"/>
					<path class="st0" d="M66.3,7.8h-0.5c0,0-0.1,0-0.1-0.1V7.6c0,0,0-0.1,0.1-0.1h0.5c0,0,0.1,0,0.1,0.1L66.3,7.8
						C66.4,7.7,66.4,7.8,66.3,7.8"/>
					<path class="st0" d="M67.5,7.8H67c0,0-0.1,0-0.1-0.1V7.6c0,0,0-0.1,0.1-0.1h0.5c0,0,0.1,0,0.1,0.1L67.5,7.8
						C67.5,7.7,67.5,7.8,67.5,7.8"/>
					<path class="st0" d="M68.6,7.8h-0.5c0,0-0.1,0-0.1-0.1V7.6c0,0,0-0.1,0.1-0.1h0.5c0,0,0.1,0,0.1,0.1L68.6,7.8
						C68.7,7.7,68.7,7.8,68.6,7.8"/>
					<path class="st0" d="M69.8,7.8h-0.5c0,0-0.1,0-0.1-0.1V7.6c0,0,0-0.1,0.1-0.1h0.5c0,0,0.1,0,0.1,0.1L69.8,7.8
						C69.9,7.7,69.8,7.8,69.8,7.8"/>
					<path class="st0" d="M70.9,7.8h-0.5c0,0-0.1,0-0.1-0.1V7.6c0,0,0-0.1,0.1-0.1h0.5c0,0,0.1,0,0.1,0.1L70.9,7.8
						C71,7.7,71,7.8,70.9,7.8"/>
					<path class="st0" d="M72.1,7.8h-0.5c0,0-0.1,0-0.1-0.1V7.6c0,0,0-0.1,0.1-0.1h0.5c0,0,0.1,0,0.1,0.1L72.1,7.8
						C72.2,7.7,72.1,7.8,72.1,7.8"/>
					<path class="st0" d="M73.2,7.8h-0.5c0,0-0.1,0-0.1-0.1V7.6c0,0,0-0.1,0.1-0.1h0.5c0,0,0.1,0,0.1,0.1L73.2,7.8
						C73.3,7.7,73.3,7.8,73.2,7.8"/>
					<path class="st0" d="M74.4,7.8h-0.5c0,0-0.1,0-0.1-0.1V7.6c0,0,0-0.1,0.1-0.1h0.5c0,0,0.1,0,0.1,0.1L74.4,7.8
						C74.5,7.7,74.4,7.8,74.4,7.8"/>
					<path class="st0" d="M41.7,6h28.2l-0.5-0.8l-26-0.1l-0.7,0c0,0-0.2,0-0.3,0.1C42.3,5.3,41.7,6,41.7,6"/>
					<polygon class="st0" points="44.1,4.3 49.1,4.3 49.4,3.9 44.5,3.9 					"/>
					<path class="st0" d="M44.8,3.5l5.9,0L51,3.2l-5.4,0c0,0-0.2,0-0.4,0c-0.1,0-0.2,0-0.2,0.1C44.9,3.3,44.8,3.5,44.8,3.5"/>
					<path class="st0" d="M47.4,1.9h1.9l0.1-0.2h-1.4l-0.3,0c0,0-0.1,0-0.2,0.1C47.4,1.9,47.4,1.9,47.4,1.9"/>
					<path class="st0" d="M60.9,3.9h1.3c0,0,0.1,0,0.2-0.1c0.1-0.1,0.4-0.6,0.4-0.6c0,0,0-0.1-0.1-0.1c-0.1,0-1.3,0-1.3,0
						s-0.1,0.1-0.2,0.3C61.1,3.6,61,3.7,60.9,3.9"/>
				</g>
			</g>
		</g>
	</g>
</g>
</svg>
