<?xml version="1.0" encoding="UTF-8"?>
<svg id="_レイヤー_2" data-name="レイヤー 2" xmlns="http://www.w3.org/2000/svg" viewBox="0 0 1597.72 303.8">
  <defs>
    <style>
      .cls-1 {
        fill: #fff;
      }
    </style>
  </defs>
  <g id="layout">
    <path class="cls-1" d="M160.09,96.12c.21-2.36.37-4.66.48-6.91.11-2.25.16-4.23.16-5.95,0-14.15-3.59-24.48-10.77-31.02-7.18-6.54-16.24-9.81-27.17-9.81s-21.38,2.84-32.63,8.52c-11.25,5.68-21.49,13.56-30.7,23.63-9.22,10.07-16.83,22.02-22.83,35.84-6,13.82-9,28.77-9,44.85,0,10.08,1.29,18.76,3.86,26.04,2.57,7.29,6,13.29,10.29,18,4.29,4.72,9.16,8.2,14.63,10.45,5.46,2.25,11.09,3.38,16.88,3.38,13.93,0,26.57-3.64,37.94-10.93,4.93-16.72,7.39-27.65,7.39-32.79,0-2.57-.96-4.66-2.89-6.27-1.93-1.61-5.36-2.41-10.29-2.41-1.72,0-5.79.32-12.22.96l1.29-7.72c4.29-.86,9-1.29,14.15-1.29,1.29,0,3,.06,5.14.16,2.14.11,4.28.16,6.43.16,2.36,0,4.61.06,6.75.16,2.14.11,3.86.16,5.14.16s3.05-.11,5.31-.32c2.25-.21,4.77-.37,7.55-.48,2.78-.1,5.52-.27,8.2-.48,2.68-.21,4.98-.32,6.91-.32l-1.93,8.04c-2.57-.21-4.77-.16-6.59.16-1.83.32-3.38,1.24-4.66,2.73-1.29,1.5-2.41,3.7-3.37,6.59-.96,2.89-2.09,6.91-3.38,12.05-5.79,24.43-11.84,44.53-18.16,60.28-6.32,15.75-13.02,28.24-20.09,37.45-7.07,9.21-14.74,15.64-22.98,19.29-8.25,3.64-17.31,5.46-27.17,5.46-5.15,0-9.92-.7-14.31-2.09-4.4-1.39-8.09-3.11-11.09-5.14-3-2.04-5.36-4.39-7.07-7.07-1.72-2.68-2.57-5.3-2.57-7.87,0-2.79,1.01-5.2,3.06-7.23,2.03-2.04,4.34-3.06,6.91-3.06,3.64,0,7.72,2.57,12.22,7.72,5.14,5.57,9.11,9.21,11.9,10.94,2.78,1.71,5.89,2.57,9.32,2.57,9.43,0,17.84-6.06,25.24-18.16,7.39-12.11,14.84-32.1,22.34-59.96-13.93,7.5-28.19,11.25-42.76,11.25-10.93,0-20.41-1.72-28.45-5.14-8.04-3.43-14.79-8.2-20.25-14.31-5.46-6.11-9.54-13.39-12.22-21.86-2.68-8.46-4.02-17.63-4.02-27.49,0-21.43,5.35-41.36,16.07-59.79,10.71-18.43,25.72-33.76,45.01-45.97,19.07-12,37.18-18,54.33-18,4.07,0,9.05.43,14.95,1.29,5.89.86,11.79,1.88,17.68,3.05,5.89,1.18,11.46,2.2,16.72,3.06,5.25.86,9.37,1.29,12.38,1.29-5.79,19.93-8.68,38.04-8.68,54.33h-8.36ZM263.93,188.71c-25.72,24.43-47.69,36.65-65.9,36.65-7.51,0-13.18-2.52-17.04-7.56-3.86-5.03-5.79-13.12-5.79-24.27,0-22.29,6.75-44.58,20.25-66.87,15-25.29,33.22-37.93,54.65-37.93,7.5,0,13.23,1.88,17.2,5.62,3.96,3.75,5.95,8.84,5.95,15.27,0,5.36-.96,10.18-2.89,14.47-1.93,4.29-5.46,8.68-10.61,13.18-5.14,4.5-12.38,9.27-21.7,14.3-9.32,5.04-21.38,10.88-36.17,17.52-.43,2.79-.75,5.52-.96,8.2-.22,2.68-.32,5.3-.32,7.87,0,7.51,1.17,12.7,3.54,15.59,2.36,2.89,5.79,4.34,10.29,4.34,2.57,0,5.25-.37,8.04-1.13,2.78-.75,5.89-2.04,9.32-3.86,3.43-1.82,7.34-4.23,11.73-7.23,4.39-3,9.48-6.75,15.27-11.25l5.14,7.07ZM203.82,159.13c14.14-6.21,25.45-12.96,33.92-20.25,8.46-7.28,12.7-14.68,12.7-22.18,0-4.5-1.18-8.09-3.54-10.77-2.36-2.68-5.46-4.02-9.32-4.02-4.5,0-8.63,1.88-12.38,5.63-3.75,3.75-7.07,8.47-9.97,14.14-2.89,5.68-5.31,11.84-7.23,18.49-1.93,6.64-3.33,12.97-4.18,18.97ZM285.15,120.55c6.64-6.43,12.59-11.68,17.84-15.75,5.25-4.07,9.97-7.34,14.14-9.81,4.18-2.46,7.93-4.12,11.25-4.98,3.32-.86,6.37-1.29,9.16-1.29,2.14,0,3.86.48,5.14,1.45,1.29.96,1.93,2.09,1.93,3.38,0,.43-.05,1.07-.16,1.93-.11.86-.27,1.82-.48,2.89l-7.07,31.5c3.43-3.86,7.77-8.14,13.02-12.86,5.25-4.71,10.77-9.16,16.56-13.34,5.79-4.18,11.52-7.72,17.2-10.61,5.67-2.89,10.55-4.34,14.63-4.34,8.57,0,12.86,5.14,12.86,15.43,0,3.65-.43,7.29-1.29,10.93-.43,1.29-1.24,4.08-2.41,8.36-1.18,4.29-2.68,9.43-4.5,15.43-1.82,6-3.7,12.37-5.63,19.13-1.93,6.75-3.7,13.13-5.3,19.13-1.61,6-2.95,11.25-4.02,15.75-1.07,4.5-1.61,7.5-1.61,9,0,4.29,1.29,6.43,3.86,6.43,1.29,0,2.94-.69,4.98-2.09,2.04-1.39,4.34-3.1,6.91-5.14,2.57-2.04,5.25-4.23,8.04-6.59,2.78-2.36,5.46-4.61,8.04-6.75l3.86,5.79c-3.65,4.07-7.61,8.04-11.89,11.89-4.29,3.86-8.52,7.29-12.7,10.29-4.18,3-8.15,5.41-11.89,7.23-3.75,1.82-7.02,2.73-9.81,2.73-3.86,0-6.91-1.45-9.16-4.34-2.25-2.9-3.37-7.56-3.37-13.99,0-9.43,5.79-32.68,17.36-69.76,3.64-13.5,5.46-21.22,5.46-23.15,0-3.21-1.93-4.82-5.79-4.82-4.29,0-9.64,2.25-16.07,6.75-4.29,2.79-8.2,5.58-11.73,8.36-3.54,2.79-6.81,6-9.81,9.65-3,3.65-5.62,8.04-7.87,13.18-2.25,5.14-4.23,11.36-5.95,18.64l-12.54,54.97h-23.47c4.07-15.64,7.92-30.75,11.57-45.33l13.82-59.47c.21-1.07.37-2.09.48-3.05.1-.96.16-1.66.16-2.09,0-2.78-.96-4.18-2.89-4.18-1.29,0-3,.59-5.14,1.77-2.14,1.18-4.39,2.68-6.75,4.5-2.36,1.82-4.72,3.86-7.07,6.11-2.36,2.25-4.5,4.45-6.43,6.59l-5.47-5.46ZM502.47,55.29l-11.25,44.04h32.47l-2.57,11.25h-32.47l-13.82,52.4c-4.29,16.07-6.43,27.11-6.43,33.11,0,2.79.64,4.82,1.93,6.11,1.29,1.29,2.89,1.93,4.82,1.93s4.5-.69,7.72-2.09c3.21-1.39,6.7-3.21,10.45-5.46,3.75-2.25,7.56-4.77,11.41-7.56,3.86-2.78,7.39-5.46,10.61-8.04l5.79,7.07c-11.79,9-21.27,16.03-28.45,21.06-7.18,5.04-13.02,8.79-17.52,11.25-4.5,2.46-8.09,3.96-10.77,4.5-2.68.53-5.3.8-7.87.8-3.86,0-6.91-1.45-9.16-4.34-2.25-2.9-3.37-7.45-3.37-13.66,0-8.14,2.03-19.72,6.11-34.72l16.07-62.37h-25.4l2.89-11.25h25.07l9-34.4,24.76-9.64ZM623.98,188.71c-25.72,24.43-47.69,36.65-65.9,36.65-7.51,0-13.18-2.52-17.04-7.56-3.86-5.03-5.79-13.12-5.79-24.27,0-22.29,6.75-44.58,20.25-66.87,15-25.29,33.22-37.93,54.65-37.93,7.5,0,13.23,1.88,17.2,5.62,3.96,3.75,5.95,8.84,5.95,15.27,0,5.36-.96,10.18-2.89,14.47-1.93,4.29-5.46,8.68-10.61,13.18-5.14,4.5-12.38,9.27-21.7,14.3-9.32,5.04-21.38,10.88-36.17,17.52-.43,2.79-.75,5.52-.96,8.2-.22,2.68-.32,5.3-.32,7.87,0,7.51,1.17,12.7,3.54,15.59,2.36,2.89,5.79,4.34,10.29,4.34,2.57,0,5.25-.37,8.04-1.13,2.78-.75,5.89-2.04,9.32-3.86,3.43-1.82,7.34-4.23,11.73-7.23,4.39-3,9.48-6.75,15.27-11.25l5.14,7.07ZM563.87,159.13c14.14-6.21,25.45-12.96,33.92-20.25,8.46-7.28,12.7-14.68,12.7-22.18,0-4.5-1.18-8.09-3.54-10.77-2.36-2.68-5.46-4.02-9.32-4.02-4.5,0-8.63,1.88-12.38,5.63-3.75,3.75-7.07,8.47-9.97,14.14-2.89,5.68-5.31,11.84-7.23,18.49-1.93,6.64-3.33,12.97-4.18,18.97ZM840.32,194.5c-8.15,6.86-15.01,12.37-20.58,16.55-5.57,4.18-10.4,7.39-14.47,9.64-4.07,2.25-7.56,3.75-10.45,4.5-2.89.75-5.62,1.12-8.2,1.12s-4.61-.75-6.11-2.25c-1.5-1.5-2.25-3.1-2.25-4.82,0-1.07.53-3.96,1.61-8.68l5.46-19.29c-12.43,13.5-22.88,22.66-31.34,27.49-8.47,4.82-16.03,7.23-22.66,7.23-5.58,0-10.24-2.36-13.99-7.07-3.75-4.71-5.63-11.89-5.63-21.54,0-14.79,5.03-31.93,15.11-51.44,10.29-19.29,21.64-33.54,34.08-42.76,12.43-9.21,23.89-13.82,34.4-13.82,2.14,0,5.67.32,10.61.96,4.71-19.72,9.43-34.51,14.14-44.36,3.43-7.28,7.66-13.77,12.7-19.45,5.03-5.67,10.55-10.5,16.56-14.47,6-3.96,12.27-6.96,18.81-9,6.53-2.04,13.02-3.06,19.44-3.06,4.07,0,7.4,1.13,9.97,3.38,2.57,2.25,3.86,5.09,3.86,8.52,0,3.22-1.18,5.84-3.53,7.88-2.36,2.04-5.47,3.06-9.33,3.06-1.07,0-3-.16-5.79-.48-2.79-.32-5.74-.69-8.84-1.12-3.11-.43-6.11-.81-9-1.13-2.9-.32-4.78-.48-5.63-.48-3,0-5.52.27-7.56.8-2.04.54-4.02,2.73-5.95,6.59-1.93,3.86-4.08,10.07-6.43,18.64-2.36,8.57-5.47,20.9-9.33,36.97l-22.18,94.83c-2.57,11.36-3.86,18.76-3.86,22.18,0,4.07,1.5,6.11,4.5,6.11,2.14,0,5.03-1.13,8.68-3.38,3.64-2.25,9.86-6.8,18.65-13.66l4.5,5.79ZM784.7,104.8c-3.43,0-6.86.59-10.29,1.77-3.43,1.18-6.8,3.32-10.12,6.43-3.33,3.11-6.59,7.23-9.81,12.37-3.21,5.14-6.43,11.68-9.64,19.61-6.22,16.07-9.32,29.9-9.32,41.47,0,5.36,1.45,9.7,4.34,13.02,2.89,3.33,6.16,4.98,9.81,4.98,3,0,6.11-.81,9.32-2.41,3.21-1.61,6.32-3.7,9.32-6.27,3-2.57,5.84-5.47,8.52-8.68,2.68-3.21,4.98-6.32,6.91-9.32,2.78-5.35,6.64-18.21,11.57-38.58l7.07-31.51c-8.36-1.93-14.26-2.89-17.68-2.89ZM854.46,120.23c10.5-11.57,20.04-19.77,28.62-24.59,8.57-4.82,15.96-7.23,22.18-7.23,6.86,0,10.29,2.68,10.29,8.04,0,2.57-3.43,15.43-10.29,38.58-10.93,37.29-16.39,59.69-16.39,67.19,0,1.5.32,2.79.96,3.86.64,1.07,1.39,1.61,2.25,1.61,3.43,0,12-6.54,25.72-19.61l6.11,6.11c-7.08,6.86-13.08,12.32-18.01,16.39-4.93,4.07-9.21,7.23-12.86,9.48-3.65,2.25-6.75,3.75-9.32,4.5-2.57.75-5.04,1.12-7.4,1.12-3.65,0-6.54-1.18-8.68-3.54-2.15-2.36-3.21-5.57-3.21-9.64,0-12.64,7.92-44.57,23.79-95.8.64-2.14.96-4.29.96-6.43s-.96-3.21-2.89-3.21c-1.29,0-2.42.11-3.38.32-.97.22-2.25.91-3.86,2.09-1.61,1.18-3.75,3.05-6.43,5.62-2.68,2.57-6.38,6.11-11.09,10.61l-7.07-5.46ZM923.26,21.54c3.21,0,5.89,1.07,8.03,3.21,2.14,2.14,3.21,4.93,3.21,8.36,0,4.72-1.6,8.79-4.82,12.22-3.21,3.43-6.87,5.14-10.93,5.14-3.01,0-5.58-1.07-7.72-3.21-2.14-2.14-3.21-5.03-3.21-8.68,0-4.71,1.5-8.73,4.5-12.06,3-3.32,6.64-4.98,10.94-4.98ZM1114.22,58.83c-3.43,33.65-8.73,61.62-15.91,83.91-7.18,22.29-15.32,40.02-24.43,53.2-9.11,13.18-18.64,22.5-28.61,27.97-9.97,5.46-19.45,8.2-28.45,8.2-5.79,0-10.24-1.18-13.34-3.54-3.11-2.36-4.66-5.14-4.66-8.36,0-3,1.12-5.52,3.38-7.56,2.25-2.03,5.09-3.05,8.52-3.05,1.07,0,2.57.16,4.5.48,1.93.32,3.91.75,5.94,1.29,2.04.54,4.07.96,6.11,1.29,2.04.32,3.7.48,4.98.48,4.71,0,9.86-1.82,15.43-5.46,5.14-3.64,10.72-10.02,16.72-19.13,6-9.11,11.73-20.57,17.2-34.4,5.46-13.82,10.29-29.9,14.46-48.22,4.18-18.33,7.02-38.42,8.52-60.28-10.07,0-19.66,1.24-28.77,3.7-9.11,2.47-17.15,5.9-24.11,10.29-6.97,4.39-12.53,9.59-16.72,15.59-4.18,6-6.27,12.54-6.27,19.61,0,1.72.69,3.86,2.09,6.43,1.39,2.57,2.9,5.26,4.5,8.04,1.61,2.79,3.11,5.36,4.51,7.72,1.39,2.36,2.09,4.29,2.09,5.79,0,2.79-.86,5.09-2.57,6.91-1.72,1.82-3.86,2.73-6.43,2.73s-4.88-.91-6.91-2.73c-2.04-1.82-3.81-4.12-5.31-6.91-1.5-2.78-2.68-5.89-3.53-9.32-.86-3.42-1.29-6.75-1.29-9.97,0-9.21,2.25-18,6.75-26.36,4.5-8.36,10.93-15.7,19.29-22.02,8.36-6.32,18.43-11.25,30.22-14.79,11.78-3.54,24.75-5.19,38.89-4.98,9.86,0,18.01-.86,24.44-2.57-.22,4.72-.32,8.36-.32,10.93v6.43c0,1.08.11,2.47.32,4.18l9.32,119.27c10.5-18.43,21.16-35.79,31.99-52.08,10.82-16.28,21.38-30.91,31.67-43.88,10.29-12.96,20.09-24.11,29.41-33.43,9.33-9.32,17.85-16.12,25.56-20.41-3.65,10.07-7.4,21.65-11.25,34.72-3.86,13.08-7.93,27.76-12.22,44.04l-18.97,75.23c-.43,2.15-1.02,4.72-1.77,7.72-.75,3-1.55,6.54-2.41,10.61l-3.86,17.04c4.07.86,7.88,1.5,11.41,1.93,3.54.43,7.02.64,10.45.64,2.78,0,5.57-.16,8.36-.48,2.78-.32,5.67-.69,8.68-1.12l-1.93,9c-4.94.86-9.11,1.29-12.54,1.29-1.72,0-4.13-.11-7.23-.32-3.11-.22-6.38-.48-9.81-.8-3.43-.32-6.86-.64-10.29-.96-3.43-.32-6.32-.48-8.68-.48-6,0-12.22,1.07-18.65,3.21,3-7.5,5.95-16.29,8.84-26.36,2.89-10.07,5.95-21.54,9.16-34.4l12.22-48.22c5.14-20.57,9.64-34.72,13.5-42.44-7.72,8.36-19.18,23.42-34.4,45.17-15.22,21.75-32.47,50.1-51.76,85.03l-13.5,24.11-12.54-169.1ZM1386.83,84.23l-11.57,39.86c-1.5,4.93-3.21,11.09-5.14,18.49-1.93,7.39-3.81,14.9-5.62,22.51-1.82,7.61-3.33,14.68-4.5,21.22-1.18,6.54-1.77,11.2-1.77,13.99,0,3.21,1.39,4.82,4.18,4.82,1.29,0,3-.53,5.14-1.61,2.14-1.07,4.5-2.52,7.07-4.34,2.57-1.82,5.14-3.75,7.72-5.79,2.57-2.04,4.82-4.02,6.75-5.95l4.82,6.11c-7.08,6.64-13.08,12.05-18.01,16.23-4.93,4.18-9.32,7.45-13.18,9.81-3.86,2.36-7.56,3.96-11.09,4.82-3.54.86-7.35,1.29-11.41,1.29-5.36,0-8.04-2.47-8.04-7.39,0-1.71.42-3.86,1.29-6.43l6.11-21.22c-3.21,3.86-7.07,7.88-11.58,12.06-4.5,4.18-9.16,7.99-13.98,11.41-4.82,3.43-9.59,6.22-14.31,8.36-4.71,2.14-9.11,3.21-13.18,3.21-7.51,0-12.81-2.95-15.92-8.84-3.11-5.89-4.66-12.7-4.66-20.41-.21-7.93,1.45-16.88,4.99-26.84,3.53-9.97,8.3-19.66,14.31-29.09,5.99-9.43,12.91-18,20.74-25.72,7.82-7.72,15.8-13.29,23.94-16.72,8.36-4.07,19.29-6.11,32.79-6.11,1.71,0,3.38.06,4.98.16,1.61.11,3.26.27,4.98.48l3.86-6.11,10.29-2.25ZM1342.79,108.66c-9.44,0-17.63,2.63-24.59,7.88-6.97,5.25-13.56,14.63-19.77,28.13-6,12.86-9,26.25-9,40.18,0,7.07,1.23,12.17,3.7,15.27,2.47,3.11,5.63,4.66,9.49,4.66,3.64,0,7.5-.96,11.57-2.89,4.07-1.93,7.98-4.82,11.73-8.68,3.75-3.86,7.23-8.63,10.45-14.31,3.21-5.68,5.79-12.16,7.72-19.45l12.86-48.87c-5.58-1.29-10.29-1.93-14.14-1.93ZM1410.3,221.18l10.93-42.11c2.78-10.5,5.31-20.62,7.55-30.38,2.25-9.75,4.34-19.34,6.27-28.77,1.07-4.93,1.6-7.82,1.6-8.68,0-2.57-1.18-3.86-3.53-3.86-.64,0-1.56.22-2.73.64-1.18.43-2.68,1.34-4.5,2.73-1.82,1.39-4.18,3.37-7.07,5.95-2.9,2.57-6.38,5.9-10.45,9.97l-4.82-5.46c9.86-10.71,19.82-18.81,29.9-24.27,10.07-5.46,17.79-8.2,23.15-8.2,1.72,0,3.16.48,4.34,1.45,1.17.96,1.77,2.09,1.77,3.38,0,1.5-.75,5.14-2.25,10.93l-6.75,27.97c3.43-5.35,7.44-11.09,12.05-17.2,4.61-6.11,9.33-11.62,14.14-16.56,4.82-4.93,9.49-9.05,13.99-12.38,4.5-3.32,8.36-4.98,11.57-4.98s5.89,1.02,8.03,3.05c2.14,2.04,3.21,4.45,3.21,7.23s-1.02,5.14-3.05,7.07c-2.04,1.93-7.23,4.29-15.59,7.07-3.86,1.29-7.28,2.68-10.29,4.18-3,1.5-5.84,3.21-8.52,5.14-2.68,1.93-5.3,4.29-7.87,7.07-2.57,2.79-5.26,6.11-8.04,9.97-3.21,4.29-5.79,7.77-7.72,10.45-1.93,2.68-3.59,5.79-4.98,9.32-1.4,3.54-2.79,8.25-4.18,14.15-1.4,5.9-3.38,14.09-5.95,24.59l-7.07,30.54h-23.15ZM1588.4,188.71c-25.72,24.43-47.69,36.65-65.9,36.65-7.51,0-13.18-2.52-17.04-7.56-3.86-5.03-5.79-13.12-5.79-24.27,0-22.29,6.75-44.58,20.25-66.87,15-25.29,33.21-37.93,54.65-37.93,7.5,0,13.23,1.88,17.2,5.62,3.96,3.75,5.94,8.84,5.94,15.27,0,5.36-.96,10.18-2.89,14.47-1.93,4.29-5.47,8.68-10.61,13.18-5.14,4.5-12.38,9.27-21.7,14.3-9.33,5.04-21.38,10.88-36.17,17.52-.44,2.79-.75,5.52-.97,8.2-.21,2.68-.32,5.3-.32,7.87,0,7.51,1.17,12.7,3.53,15.59,2.36,2.89,5.79,4.34,10.29,4.34,2.57,0,5.25-.37,8.04-1.13,2.78-.75,5.89-2.04,9.32-3.86,3.43-1.82,7.34-4.23,11.73-7.23,4.39-3,9.49-6.75,15.27-11.25l5.14,7.07ZM1528.28,159.13c14.14-6.21,25.44-12.96,33.91-20.25,8.46-7.28,12.7-14.68,12.7-22.18,0-4.5-1.19-8.09-3.54-10.77-2.36-2.68-5.46-4.02-9.32-4.02-4.51,0-8.63,1.88-12.38,5.63-3.76,3.75-7.07,8.47-9.97,14.14-2.89,5.68-5.31,11.84-7.23,18.49-1.93,6.64-3.33,12.97-4.18,18.97Z"/>
  </g>
</svg>