<svg xmlns="http://www.w3.org/2000/svg" viewBox="164 545 252 30"><defs><style>.a{fill:#454765;}.b{fill:#72738a;}</style></defs><g transform="translate(-430 500)"><g transform="translate(594 45)"><path class="a" d="M0,.3H12.4C16.3.3,24,.9,24,7.8c0,4.9-3.9,5.9-5.9,6.4v.1c3.9.8,7.4,2.9,7.4,7.6,0,1.7-.9,7.8-10.7,7.8H0v-.8c3.7-.1,4.3-.8,4.3-4V5.1c0-3.3-.6-3.8-4.3-4ZM8.8,13.4H13c1.2,0,6.5-.1,6.5-5.4s-4.6-6.1-7.8-6.1h-2c-.9,0-1,.6-1,1.3V13.4Zm0,12.8c0,1.6.8,1.8,3.4,1.8,2.9,0,8.3-.4,8.3-6.3,0-3.6-2.2-5.1-4.5-5.8a24.1,24.1,0,0,0-7.2-.7Z"/><path class="a" d="M29.6,27.7a2.351,2.351,0,1,1,4.7,0A2.389,2.389,0,0,1,31.9,30,2.308,2.308,0,0,1,29.6,27.7Z"/><path class="a" d="M66,29.6H58.9L49.7,16l-2.5.1v8.7c0,3,.4,3.8,4,4v.8H38.9v-.8c3.6-.2,3.8-1.2,3.8-4.5V5.1c0-3.3-.7-3.7-3.8-4V.3H51.1c3.9,0,12.6.9,12.6,7.8,0,5.9-7.1,7-9.3,7.5l7.7,11.2A4.94,4.94,0,0,0,66,28.9v.7ZM47.2,14.4c3.7,0,11.7-.1,11.7-6.5,0-5.9-7.1-6-9-6-2.4,0-2.8.3-2.8,1.6V14.4Z"/><path class="a" d="M70.3,27.7a2.351,2.351,0,1,1,4.7,0A2.389,2.389,0,0,1,72.6,30,2.308,2.308,0,0,1,70.3,27.7Z"/></g><g transform="translate(594 45)"><path class="b" d="M84.6,3.8a14.537,14.537,0,0,1,19.6,0c2.9,2.8,4.3,6.4,4.3,11,0,4.7-1.5,8.4-4.4,11.1a13.61,13.61,0,0,1-9.6,3.7,13.417,13.417,0,0,1-10-4.1,14.875,14.875,0,0,1-4.1-10.7A14.544,14.544,0,0,1,84.6,3.8Zm3.3,21.1a8.134,8.134,0,0,0,6.6,3.2,8.382,8.382,0,0,0,6.5-3.2c1.8-2.1,2.7-5.5,2.7-10.1q0-7.05-2.7-10.2a8.275,8.275,0,0,0-6.5-3.1A8.1,8.1,0,0,0,88,4.7c-1.8,2.2-2.7,5.5-2.7,10C85.2,19.4,86.1,22.7,87.9,24.9Z"/><path class="b" d="M111.4,28.3c1.8-.2,2.9-.6,3.4-1.2s.8-2.1.8-4.3V3.8l-.6-.7a6.032,6.032,0,0,0-1.6-1.4,4.918,4.918,0,0,0-2-.3V.6h7.3l16.6,20.6V6.9c0-2.3-.3-3.9-1-4.6a4.928,4.928,0,0,0-3.1-.9V.6h10.1v.8A5.7,5.7,0,0,0,138,2.6c-.5.6-.8,2.1-.8,4.3V29.5h-.7L117.5,6V22.7c0,2.3.3,3.9,1,4.6q.6.75,3,.9V29H111.4Z"/><path class="b" d="M145.9,28.3a6.978,6.978,0,0,0,3.1-.8c.5-.4.7-1.4.7-3V5.3c0-1.5-.2-2.5-.7-3a4.928,4.928,0,0,0-3.1-.9V.6H158v.8a5.652,5.652,0,0,0-3.2.8A3.727,3.727,0,0,0,154,5V25.7a2.676,2.676,0,0,0,.2,1.1c.2.3.5.4,1.1.5.3,0,.7.1,1,.1h2q5.7,0,7.8-.9c1.4-.6,2.6-2.2,3.9-4.8h1.1L169,29.2H145.9Z"/><path class="b" d="M174.1,28.3a6.893,6.893,0,0,0,3.4-.8c.5-.4.8-1.4.8-3.1V5.3a4.439,4.439,0,0,0-.8-3.1c-.5-.5-1.7-.7-3.4-.8V.6h12.7v.8a6.893,6.893,0,0,0-3.4.8,4.439,4.439,0,0,0-.8,3.1V24.4c0,1.7.3,2.7.8,3.1a6.893,6.893,0,0,0,3.4.8v.8H174.1Z"/><path class="b" d="M192.5,28.3c1.8-.2,2.9-.6,3.4-1.2s.8-2.1.8-4.3V3.8l-.6-.7a6.032,6.032,0,0,0-1.6-1.4,4.918,4.918,0,0,0-2-.3V.6h7.3l16.6,20.6V6.9c0-2.3-.3-3.9-1-4.6a4.928,4.928,0,0,0-3.1-.9V.6h10.1v.8a5.7,5.7,0,0,0-3.3,1.2c-.5.6-.8,2.1-.8,4.3V29.5h-.7L198.6,6V22.7c0,2.3.3,3.9,1,4.6q.6.75,3,.9V29H192.5Z"/><path class="b" d="M227,28.3a6.978,6.978,0,0,0,3.1-.8c.5-.4.7-1.4.7-3V5.3c0-1.5-.2-2.5-.7-3a4.928,4.928,0,0,0-3.1-.9V.6h22.8l.1,6.2h-1.1c-.4-1.9-.9-3.1-1.6-3.7s-2.4-.8-4.9-.8h-5.9a1.737,1.737,0,0,0-1.2.3,2.676,2.676,0,0,0-.2,1.1v9.6h6.6c1.8,0,3-.3,3.5-.8a6.645,6.645,0,0,0,1.2-3.3h1v9.9h-1a6.645,6.645,0,0,0-1.2-3.3c-.5-.5-1.7-.8-3.5-.8H235V25.6c0,.9.3,1.4.8,1.5a24,24,0,0,0,4.8.2c2.9,0,5.1-.3,6.5-1,1.4-.6,2.6-2.2,3.7-4.6H252L250,29H227Z"/></g></g></svg>