<?xml version="1.0" encoding="utf-8"?>
<!-- Generator: Adobe Illustrator 26.0.0, SVG Export Plug-In . SVG Version: 6.00 Build 0)  -->
<svg version="1.1" id="Livello_2_xA0_Image_1_" xmlns="http://www.w3.org/2000/svg" xmlns:xlink="http://www.w3.org/1999/xlink"
	 x="0px" y="0px" viewBox="0 0 1416.2 294.2" style="enable-background:new 0 0 1416.2 294.2;" xml:space="preserve">
<style type="text/css">
	.st0{fill-rule:evenodd;clip-rule:evenodd;fill:#FFFFFF;}
</style>
<g>
	<path class="st0" d="M538.7,200.6c-2.1-1.2-4-0.5-5.8,0.9c-0.2,0.1-0.4,0.2-0.6,0.4c-2.6,2.4-5.3,4.6-9,5c-1.7,0.2-3.5,0.6-5.2,0.5
		c-2.8-0.2-5.5-2.9-5.6-5.7c-0.1-4,0-8,0.1-12c0-1.1,0.5-1.8,1.8-1.6c5.4,0.7,9.5-1.9,13.3-5.3c2.1-1.8,3.9-4,4.7-6.8
		c1.1-3.7,0.2-7.1-1.4-10.4c-3.5-7.3-9.1-10.4-16.6-9.5c-2.9,0.4-5.6,1.4-8.1,2.9c-6.9,4.2-12.8,9.7-18.6,15.1
		c-8.6,8-16.8,16.5-25.3,24.6c-4.4,4.2-9.9,5.9-15.9,6.3c-3.7,0.2-6.3-1.5-8.1-4.6c-2-3.4-2.9-7.1-3.4-10.9
		c-0.6-4.6-0.5-9.1-0.1-13.7c0.3-3.7,1.2-7.1,3-10.3c4.7-8.4,9.5-16.8,14.4-25.1c7.9-13.5,15.9-26.9,22.5-41.1
		c3.5-7.6,6.3-15.5,7.3-23.9c0.6-5.1,0.1-9.9-1.6-14.8c-4-11.1-15.4-12.2-22.3-9.7c-3.6,1.3-6.4,3.8-8.8,6.8
		c-6.3,7.8-10.4,16.8-13.1,26.4c-2.4,8.7-4.1,17.5-5.9,26.4c-2.2,11.4-4.2,22.8-6.4,34.2c-1.3,6.6-3.6,12.9-8,18
		c-4.2,4.8-8.6,9.5-13.1,14c-8.4,8.4-17.5,16.1-27.3,22.9c-4.6,3.2-9.7,5.2-15.4,5.4c-3.7,0.2-6.2-1.5-8.1-4.5
		c-1.9-3.1-2.9-6.5-3.5-10.1c-1-6.1-0.9-12.2,0.1-18.2c0.3-2.1,0.6-4.2,1.6-6c4.7-8.2,9.4-16.4,14.3-24.6
		c8.1-13.5,16.1-26.9,22.8-41.2c3.3-7,6.2-14.2,7.4-21.9c1-6.4,1.2-12.7-1.6-18.8c-3.7-8.3-13.5-12.2-21.9-8.7
		c-4.4,1.8-7.6,4.9-10.3,8.7c-5.6,7.8-9.5,16.5-12,25.7c-1.9,7.1-3.4,14.3-4.8,21.5c-2.2,11.6-4.2,23.2-6.4,34.7
		c-0.7,3.5-1.7,7-2.8,10.4c-2.1,6.3-5.8,11.5-10.5,16.1c-7.9,7.7-15.7,15.3-23.5,23c-0.5,0.5-1,1.2-1.6,1.4c-2,0.6-3.2,2.2-4.6,3.6
		c-2.4,2.4-4.7,4.9-7.2,7.1c-1.7,1.4-3.5,2.8-5.4,3.9c-3.3,1.8-6.8,2.2-10.4,0.8c-1.9-0.8-3.3-2-3.8-4.2c-1-3.8-0.8-7.7-0.8-11.5
		c0-2.3,0.4-2.7,2.7-2.5c2.1,0.2,4.1-0.1,6.1-0.9c3.9-1.6,7.1-4.2,9.6-7.6c1.8-2.5,3-5.2,2.6-8.3c-0.4-3.6-1.8-6.9-3.8-10
		c-2.3-3.5-5.6-5.4-9.6-6.6c-1.9-0.5-3.7-0.7-5.6,0c-0.8,0.3-1.5,0.6-2.3,0.8c-3.5,0.9-6.6,2.6-9.3,4.9c-2.7,2.2-5.9,3.8-7.5,7.2
		c-0.3,0.5-0.8,0.9-1.2,1.2c-6.4,5.1-12,11-17.8,16.7c-5.7,5.5-11.4,11-17.2,16.4c-1.1,1.1-2.4,2-3.8,2.8c-2,1.2-3.3,0.8-4.8-1
		c-0.3-0.4-0.5-0.8-0.8-1.2c-5.7-8.4-10.6-17.1-15.5-25.9c-1.6-2.9-3.5-5.7-5.6-8.3c-2.3-2.8-5.6-3.6-8.9-2.1
		c-2.6,1.1-5.1,2.6-7.3,4.4c-8.5,6.7-16.9,13.6-25.2,20.4c-5.3,4.4-10.8,8.4-17.4,10.8c-7.1,2.6-14.2,2.7-21.3,0
		c-8-2.9-14.6-8-20.5-13.9c-2.8-2.8-3.8-6.3-0.8-9.9c1.2-1.4,2.1-3,3.2-4.5c8.3-11.8,14.3-24.7,18.4-38.5c3-9.9,4.8-20.2,5.4-30.6
		c1.1-18.7-1.4-36.8-8.5-54.2c-3.5-8.6-8-16.7-13.7-24C77.9,16.5,67,7.7,53.7,2c-1.5-0.6-2.9-1.3-4.3-2c-0.4,0-0.7,0-1.1,0.1
		c-1.2,0.7-2.5,1.1-3.6,1.9c-2.4,1.6-3.6,4.1-4.2,6.8c-1,4.1-1.8,8.2-2.6,12.4c-1.4,6.9-2.7,13.8-4.1,20.7
		c-1.4,6.9-2.8,13.8-4.2,20.7c-1.4,6.9-2.7,13.9-4.1,20.9c-1.4,7-2.8,13.9-4.2,20.9c-1.4,6.9-2.7,13.8-4.1,20.7
		c-1.8,9-3.7,18-5.5,27C9.9,161,8.2,170,6.4,178.9c-1.7,8.9-3.6,17.9-5.4,26.8c-0.5,2.5-1.1,5-1.5,7.5c-0.7,4.3,1,8,6.7,7.8
		c6.4-0.2,12.6-0.9,18.8-2.3c9.2-2.2,17.8-5.8,25.8-10.7c4.3-2.7,8.4-5.6,12.6-8.4c0.8-0.6,1.7-1.1,2.7-1.5c2.2-0.8,4,0.1,5.8,1.3
		c6.5,4.5,13,9,19.6,13.3c5.6,3.6,11.6,6.2,18.1,7.5c4.4,0.9,8.9,0.9,13.3-0.2c5.5-1.4,10.5-3.9,15-7.3c8.6-6.6,17-13.5,25.5-20.3
		c3.1-2.5,6.1-5.4,9.2-8c2.2-1.9,3.5-1.7,4.9,0.8c4.4,7.6,8.6,15.3,13,22.9c2.3,4.1,5.1,7.7,9,10.5c2.4,1.8,5.1,2.6,8.1,2.1
		s5.8-1.6,8.5-3.1c6.1-3.5,11.1-8.3,16-13.3c4.7-4.8,9.4-9.8,14.2-14.6c2-2.1,4.2-3.9,6.4-5.8c0.4-0.4,1.2-0.5,1.7-0.4
		c0.2,0,0.3,0.9,0.4,1.4c0.1,0.3-0.1,0.6-0.1,0.9c-0.2,4.2-0.7,8.5-0.5,12.7c0.2,4.8,1.1,9.5,3.4,13.8c1.7,3.3,4,5.9,7.6,7.3
		c4,1.5,8.3,1.5,12.5,1.4c3.2-0.1,6.2-1.1,9.1-2.6c4.8-2.5,8.8-6.1,12.7-9.8c3.6-3.3,6.9-6.9,10.4-10.3c0.4-0.4,0.9-0.7,1.4-1
		c0.2,0.1,0.3,0.3,0.5,0.4c-0.3,0.6-0.6,1.2-0.9,1.8c-1.6,2.6-3.3,5.2-4.9,7.9c-1.6,2.8-3.3,5.5-4.8,8.3c-1.4,2.7-3.3,5.1-4.6,7.9
		c-3.2,7.1-7,14-10.4,21c-3.8,7.8-5.9,16.2-6.2,24.9c-0.2,5.7,1.4,10.9,4.6,15.6c4,5.8,13.9,7.2,19.9,4.6c3.8-1.7,6.8-4.4,9.3-7.7
		c6.4-8.6,10.5-18.2,13.2-28.5c1.6-6.1,2.8-12.3,4-18.5c2.1-11.2,4.5-22.4,5.6-33.8c0-0.7,0.3-1.3,0.5-1.9c0.2,0,0.4,0,0.6,0
		c0.2,0.7,0.5,1.5,0.7,2.2c0.6,2.1,0.9,4.3,2.3,6c1.7,2,3.3,4.1,5.3,5.8c5.3,4.5,11.4,5.9,18.2,4.2c4.8-1.2,9.1-3.2,13-6
		c5.3-3.7,10.4-7.6,15.6-11.5c0.6-0.5,1.1-1.2,2.2-0.4c-0.6,1.2-1.3,2.2-1.9,3.3c-6.6,12.2-13.3,24.3-19.8,36.6
		c-4.3,8.4-7.4,17.2-8.4,26.6c-0.6,5.8,0.3,11.2,2.8,16.5c4.1,8.7,15.1,9.8,21.3,7.3c3.5-1.4,6.2-3.8,8.6-6.7c3.5-4.2,6-9,8.4-13.9
		c4.3-9,6.5-18.7,8.5-28.4c1-5,1.9-10.1,2.8-15.1c1.5-8.3,2.9-16.5,4.4-24.8c0.1-0.5,0.4-1.1,0.6-1.6c0.2,0,0.4,0,0.6,0
		c0.3,0.8,0.8,1.5,1,2.3c1.4,4.7,4.4,8.4,8.1,11.6c4.9,4.2,10.6,5.8,17,4.6c5.3-1,10.1-3.2,14.4-6.3c6-4.3,11.9-8.7,17.8-13.1
		c0.9-0.8,1.7-1.7,2.6-2.5c4.5-4.3,8.9-8.7,13.4-13c0.6-0.6,1.3-1.3,2.7-0.9c0,0.8,0.1,1.7,0.1,2.5c-0.1,3.9-0.4,7.8-0.4,11.7
		c0.1,4.9,0.7,9.7,2.9,14.2c1.9,4,4.7,7.1,9.1,8.3c3.3,0.9,6.6,1.4,10.1,0.8c4.8-0.8,9.3-2.1,13.4-4.8c1.4-0.9,2.7-2,3.9-3.2
		c1.5-1.5,2.2-3.3,2.3-5.4C541.3,203.9,540.9,201.8,538.7,200.6z M518.5,167.9c1.9,0,3.4,1.5,3.4,3.3c0.1,2.3-2.1,4.4-4.5,4.4
		c-2,0-3.6-1.5-3.6-3.4C513.9,170,516.2,167.9,518.5,167.9z M437.5,138.7c0.5-4,1-8.1,1.8-12.1c1.4-6.7,2.8-13.4,4.5-20.1
		c2.5-9.9,5.2-19.7,9.6-29c1.7-3.5,3.5-6.9,6-9.8c1.3-1.5,2.8-2.9,4.8-3.5c2-0.6,4,0.1,4.9,2c0.5,1.1,1,2.4,0.9,3.6
		c-0.3,3.1-0.7,6.2-1.5,9.2c-3.2,11.4-8.2,22.1-13.5,32.7c-4.5,9-9.4,17.9-14.8,26.5c-0.6,0.9-1.3,1.7-1.9,2.5
		C437,140.2,437.3,139.4,437.5,138.7z M350.3,138.4c1.3-9.3,3-18.6,5.4-27.7c1.6-6.4,3.3-12.9,5.2-19.2c2.3-7.5,5.1-14.9,9.6-21.5
		c1.2-1.7,2.6-3.4,4.3-4.7c2.8-2.2,6-1.6,7.3,1.2c0.4,0.9,0.5,2,0.6,3c0.2,3.9-0.8,7.6-1.9,11.3c-4.3,13.6-10.4,26.3-17.1,38.7
		c-3.6,6.7-7.5,13.2-11.3,19.7c-0.3,0.6-1,1.1-1.5,1.6c-0.2-0.1-0.5-0.2-0.7-0.3C350.2,139.8,350.1,139.1,350.3,138.4z M270.2,170.7
		c1.8-1.8,4.3-1.9,5.9-0.1c0.7,0.7,0.9,1.6,0.4,2.4c-0.9,1.6-2.2,2.6-4.2,2.8c-1.1,0.1-2.4-0.7-2.9-1.6
		C268.9,173.1,269.3,171.6,270.2,170.7z M68,173c-6.7,9-14.7,16.7-24.5,22.3c-7.5,4.2-15.5,6.8-24.2,6.9c-0.4,0-0.9,0-1.4,0
		c-1.4-0.2-1.7-0.7-1.4-2.1c0.9-3.9,1.9-7.8,2.7-11.7c1.9-9,3.8-17.9,5.6-26.8c1.1-5.1,2-10.1,3-15.1c0.9-5.1,1.8-10.1,2.9-15.1
		c1.3-6.2,2.8-12.5,4.2-18.7c1.4-6.2,2.8-12.5,4.2-18.7c1.4-6.3,2.7-12.7,4.1-19c1.5-6.8,2.9-13.6,4.4-20.4
		c1.3-6.4,2.7-12.8,4.1-19.2c1-4.9,2-9.9,3-14.8c0.5-2.3,0.9-2.6,3-1.6c8.9,4.4,15.7,11.1,21.1,19.4c6.2,9.5,9.9,19.9,12.2,31
		c1.7,8.1,2.4,16.2,2.4,24.5c0,12.1-1.7,23.9-4.8,35.7C84.4,145.3,77.8,159.9,68,173z M322.9,216.9c-0.9,4.6-1.9,9.2-3,13.8
		c-1.3,5.3-2.7,10.5-4.3,15.7c-1.5,4.9-3.3,9.8-5.2,14.6c-1.8,4.5-3.9,8.8-7.2,12.4c-1.1,1.3-2.6,2.4-4.1,3.2
		c-2.2,1.2-4.7,0.1-5.6-2.3c-0.4-1.2-0.5-2.5-0.9-4.1c0.8-3.7,1.4-7.7,2.6-11.4c6.4-19.1,15.8-36.8,26-54c0.7-1.2,1.5-2.4,2.3-3.6
		c0.3-0.4,0.9-0.5,1.3-0.8c0.2,0.5,0.7,1,0.6,1.4C324.6,206.8,323.9,211.9,322.9,216.9z M410.2,202.3c-0.5,3.9-1,7.9-1.8,11.8
		c-1.3,6.7-2.7,13.3-4.4,19.9c-2.7,10.7-5.7,21.4-10.7,31.4c-1.6,3.2-3.3,6.4-6,8.9c-1,1-2.2,1.8-3.5,2.4c-2,0.9-4.1,0.2-5.1-1.8
		c-0.5-1-0.8-2.2-0.9-3.4c-0.3-3.4,0.6-6.7,1.5-9.9c3.2-11.3,8.2-21.9,13.4-32.4c4.5-9.1,9.4-18,14.8-26.5c0.5-0.9,1-2,2.5-2.5
		C410.1,201,410.3,201.7,410.2,202.3z"/>
	<path class="st0" d="M589.6,269.2c-0.4,0-0.9,0-1.4,0c-1.9,0.1-2.3,0.4-2.9,2.2c-1.5,4.4-3,8.9-4.6,13.3c-0.1,0.4-0.5,0.8-1.1,1.5
		c-0.5-1.3-0.9-2.1-1.2-3c-1.3-3.5-2.5-6.9-3.7-10.4c-1.3-3.7-1.3-3.7-5.2-3.7c-0.2,0-0.5,0-0.7,0c-1.1,0-1.7,0.5-1.7,1.6
		c0,1.2,0,2.3,0,3.4c0.1,6.7,0.1,13.4,0.2,20.1c1.4,0,2.9,0,4.3,0c0.7-5.4-0.1-10.8-0.3-16.4c1.3,0.2,1.6,0.8,1.9,1.6
		c1.6,4.7,3.3,9.4,5,14.1c0.1,0.2,0.1,0.5,0.1,0.7c1,0,1.9,0,2.9,0c1.1-3,2.1-6,3.2-9c0.7-1.9,1.3-3.9,2-5.8
		c0.2-0.6,0.6-1.1,0.9-1.7c0.2,0,0.4,0.1,0.6,0.1c0.1,0.6,0.2,1.1,0.2,1.7c-0.1,3.9-0.3,7.8-0.4,11.7c0,1,0.1,2.1,0.2,3.1
		c1.4,0,2.9,0,4.3,0c0.1-1.2,0.3-2.4,0.3-3.6c0-6.2,0-12.3,0-18.5C592.5,269.2,592.5,269.2,589.6,269.2z"/>
	<path class="st0" d="M793.3,269.7c-1.1-0.3-2.4-0.4-3.5-0.2c-0.4,0.1-0.8,1.3-0.8,2c0,3.5,0.1,7,0.1,10.5c0,0.7-0.1,1.3-0.1,2
		c-0.1,0.1-0.3,0.1-0.5,0.2c-0.5-0.5-1.1-1-1.5-1.6c-0.9-1.5-1.7-3.1-2.6-4.6c-1.6-2.6-3.1-5.2-4.8-7.7c-0.7-1.1-3.2-1.6-4.6-1
		c-1.2,0.5-0.9,1.7-0.9,2.7c0,6.2-0.1,12.3,0,18.5c0,1.2,0.3,2.5,0.5,3.7c1.3,0,2.6,0,3.8,0.1c0.1-1.3,0.4-2.7,0.4-4
		c0-3.5-0.1-7-0.2-10.5c0-0.3,0.2-0.6,0.4-1.3c0.7,0.6,1.4,0.9,1.7,1.4c2.8,4.5,5.4,9,8.1,13.5c0.1,0.3,0.1,0.6,0.2,0.9
		c1.4,0,2.9,0,4.3,0c0.2-1.5,0.5-3,0.5-4.5c0-6,0-12.1,0-18.2C793.8,271,793.6,269.8,793.3,269.7z"/>
	<path class="st0" d="M840.1,268.8c-4-0.1-7.1,1.6-9,5.2c-1.7,3.3-1.9,6.8-1.4,10.3c0.5,3.9,2.3,7.1,6.1,8.8
		c0.3,0.2,0.5,0.7,0.8,1.1c2.2,0,4.4,0,6.7,0c0.4-0.5,0.8-1.2,1.3-1.5c1.5-0.9,2.9-2,3.7-3.6c2.5-4.8,2.5-9.8,0.5-14.6
		C847.3,270.8,844.1,268.9,840.1,268.8z M844.5,286.4c-0.7,2.1-2.9,3.7-4.9,3.6c-2.1-0.1-4.2-1.8-4.8-4.1c-0.3-1.5-0.4-3.1-0.7-5.3
		c0.4-1.4,0.7-3.4,1.5-5.2c0.8-1.8,2.5-2.7,4.5-2.5c2.2,0.2,3.8,1.6,4.4,3.6C845.5,279.8,845.5,283.1,844.5,286.4z"/>
	<path class="st0" d="M735.1,280.5c-1.2-3.2-2.4-6.4-3.6-9.6c-0.5-1.3-1.5-1.7-2.8-1.7c-2,0-2.4,0.2-3,1.7c-0.9,2.1-1.6,4.2-2.4,6.3
		c-1.7,4.5-3.3,9.1-5.1,13.6c-0.5,1.1-0.7,2.2-0.7,3.4c1.5,0,2.9,0,4.4,0c0.6-1.3,1.1-2.6,1.6-3.9c0.4-1.1,1.2-1.8,2.5-1.8
		c1.6,0,3.2,0,4.8,0c1.9,0.1,2.5,0.5,3.2,2.3c0.4,1.2,0.9,2.3,1.4,3.5c1.4,0,2.9,0,4.3,0c-0.2-1-0.3-2.1-0.6-3
		C737.8,287.7,736.4,284.1,735.1,280.5z M730.2,284.6c-1.2,0.1-2.3,0.1-3.4,0c-0.8,0-1.2-0.6-1-1.3c0.7-2.2,1.6-4.4,2.4-6.5
		c0-0.1,0.3-0.1,0.6-0.2c0.1,0.2,0.4,0.5,0.6,0.9c0.7,1.8,1.3,3.6,1.9,5.4C731.7,284,731.5,284.5,730.2,284.6z"/>
	<path class="st0" d="M684,289.6c-2,0-4.1,0-6.2,0c-2,0-2.3-0.4-2.3-2.4c0-5,0-9.9,0-14.9c0-0.6,0-1.3-0.1-1.9
		c-0.1-0.4-0.3-0.9-0.7-1.1c-2-1.1-4,0.1-4,2.4c0,6.1,0,12.1,0,18.2c0,1.5,0.2,2.9,0.3,4.3c4.9,0,9.9,0,14.9,0
		c0.1-0.7,0.2-1.4,0.3-2.1C686.4,290.1,685.9,289.6,684,289.6z"/>
	<path class="st0" d="M632.1,269.1c-2.4-0.1-2.8,0.3-2.8,2.9c0,6.1,0,12.1,0,18.2c0,1.3,0.2,2.7,0.4,4c1.3,0,2.5,0,3.9-0.1
		c0.2-0.8,0.6-1.7,0.6-2.5c0-6.7,0-13.5,0-20.3C634.2,269.6,633.8,269.2,632.1,269.1z"/>
	<path class="st0" d="M782.2,135.2c0.3,0.3,0.6,0.6,0.9,0.8c1.9,1.7,4.3,2.3,7.3,2.4c0.7-0.1,1.9-0.2,3.1-0.6
		c2.7-1.1,4.4-3.3,4.4-5.8c0-0.6-0.1-1.2-0.3-1.7c-0.9-2.7-3.2-5.5-7.7-6c-3.5-0.3-7.1,1.6-8.6,4.6c-0.8,1.6-0.8,3.6,0.1,5.2
		C781.7,134.5,781.9,134.9,782.2,135.2z"/>
	<path class="st0" d="M1414.3,210.5c-0.8-1-1.8-1.8-2.8-2.6c-3.1-2.4-5.2-5.5-6.6-9.2c-1.3-3.4-2.3-6.9-4-10
		c-6.5-12.1-16.5-19.5-30.4-20.9c-11.4-1.1-21.5,2.1-30.3,9.5c-0.3,0.2-0.6,0.5-1,0.7c-0.2,0.1-0.5,0.3-0.7,0.4
		c-0.2-0.2-0.5-0.3-0.3-1.2c0.3-1.1,0.7-2.2,0.9-3.3c0.8-3.9,1.7-7.8,2.4-11.7c0.4-2.4,1.1-4.7,1.9-6.9c1.5-4,3.6-7.7,6-11.3
		c4.6-6.7,9.1-13.5,13.6-20.3c4.7-7.2,8.7-14.9,12.5-22.6c3.1-6.2,6.2-12.3,8.2-18.9c0.6-1.9,1.2-3.8,1.7-5.8c1.6-7,2-14.1,0.5-21.2
		c-0.7-3.3-2.4-6.1-5.3-8c-4.6-2.9-9.6-3.4-14.7-1.7c-5.9,1.9-10.3,5.9-13.3,11.4c-1.6,2.9-2.7,6.1-4,9.2c-0.4,0.9-0.7,1.9-1.1,2.8
		c-0.1,0.2-0.2,0.5-0.3,0.7c-0.3,0.8-0.6,1.6-0.9,2.4c-1.9,5.1-3.5,10.4-4.7,15.7c-2.3,10.4-4.2,20.9-6.2,31.3
		c-1.6,8.1-3.1,16.2-4.9,24.2c-0.2,1.1-0.5,2.2-0.9,3.3c-1.1,3.1-2.8,5.9-5.1,8.4c-1,1-1.9,2-2.8,3c-10.8,11.2-23.6,19.8-37,27.5
		c-12.9,7.4-26.4,13.5-40.1,19c-5.5,2.1-11,2.9-16.7,1.3c-7.1-1.9-12.3-7-11.1-15.2c0.2-1.3,0.5-2.6,0.9-3.7c2.5-5.9,8-9,15.2-7.6
		c2.4,0.5,4.7,1.7,6.9,2.7c1.8,0.8,3.7,1.1,5.6,0.8c1.5-0.3,2.6-1.1,3.4-2.4c0.3-0.5,0.5-1,0.7-1.5c1.1-2.5,0.5-4.8-1.2-6.9
		c-2.6-3.5-6.5-4.8-10.5-5.6c-7.8-1.6-15.7-2-23.6-1.9c-9.9,0.2-19.8,1.1-29.5,3.2c-6.7,1.4-13.3,3.1-19.6,5.6
		c-4.9,1.9-9.8,4-14.6,6.1c-1.1,0.5-2,0.4-2.7-0.7c-0.3-0.4-0.6-0.9-0.9-1.4c-1.7-3-3.9-5.5-6.8-7.3c-7-4.4-14.4-4.9-22.2-2.9
		c-6.7,1.8-12.5,5.4-17.9,9.5c-6.8,5.2-13.5,10.5-20.4,15.6c-4,3-8.2,5.8-12.5,8.4c-5.1,3-10.7,4.6-16.7,4.5c-3.3,0-5.8-1.5-7.7-4.1
		c-1.7-2.5-2.8-5.2-3.5-8.1c-1.4-5.5-1.6-11.1-1.1-16.7c0.4-4.1,1.1-8.2,2.5-12.1c0.4-1.1,0.9-2.2,1.5-3.2
		c3.3-6.2,6.8-12.3,10.3-18.3c8.4-14.1,17-28.1,24.2-42.9c1.4-2.9,2.8-5.9,4.1-8.9c2.1-5,3.9-10.2,4.7-15.7c1-6.6,1.1-13-1.7-19.3
		c-3.7-8.5-13.1-10.3-19.5-8.6c-5,1.4-8.6,4.7-11.6,8.8c-4.3,5.8-7.6,12.2-10,19c-0.9,2.3-1.6,4.7-2.2,7c-2.4,9.3-4.2,18.7-6.1,28.1
		c-2.1,10.3-4,20.6-5.9,30.9c-0.4,2-0.9,4-1.6,5.9c-2,5.4-5,10.2-9.1,14.5c-6.8,7.3-13.8,14.3-21.5,20.6c-6.5,5.3-13,10.7-20.7,14.2
		c-9.1,4.1-18.1,4.8-27.4,0.9c-5.4-2.3-10.4-5.1-15.4-8.2c-3-1.9-6.2-3.7-9.4-5.3c-5.3-2.7-11.1-3-16.9-2.7
		c-9.3,0.5-17.5,3.6-24.3,10c-1.7,1.7-3.4,3.4-5.1,5.1c-3.1,3-6.1,6.1-9.2,9.1c-0.6,0.6-1.3,1.5-2.2,0.8c-0.5-0.4-0.6-1.4-0.7-2.1
		c-0.1-1-0.1-2.1,0-3.1c0.2-3.1,0.5-6.2,0.7-9.3c0.3-5.1,0.6-10.2,0.8-15.3c0.1-1.3,0-2.6-0.3-3.8c-0.6-2.6-2.1-4.6-4.7-5.3
		c-2.9-0.8-6-1.1-8.7,0.4c-2.6,1.3-5.2,2.8-7.4,4.7c-5.5,4.9-10.8,10-16.1,15.1c-5.6,5.2-11.1,10.6-16.7,15.8
		c-1,0.9-2.2,1.7-3.5,2.4c-1.8,0.9-2.7,0.6-4-0.9c-0.3-0.4-0.7-0.8-1-1.3c-4.1-6.8-8.2-13.5-12.3-20.3c-2.3-3.9-4.4-8-7-11.7
		c-3.4-5-7.9-5.7-13.1-2.4c-1.5,0.9-2.9,1.9-4.3,3c-8.4,6.8-16.7,13.6-25.1,20.4c-5.6,4.6-11.5,8.7-18.5,10.8
		c-5.7,1.7-11.5,1.7-17.2-0.1c-5.7-1.8-10.7-4.8-15.2-8.5c-9.7-7.9-19.3-16-28.9-24.1c-3.7-3.1-7.4-6.3-11-9.6
		c-2.1-1.9-2.8-3.6-2.2-5.5c0.3-0.7,0.8-1.4,1.5-2.2c0.4-0.4,0.8-0.8,1.1-1.2c3.2-3.5,6.4-6.9,9.6-10.4
		c18.1-20.3,36.3-40.5,54.4-60.8c5.1-5.7,10.1-11.4,15-17.2c0.5-0.6,0.8-1.3,1.1-2c1.4-2.9,0-6.6-3.3-7.6c-2.5-0.8-5.1-0.7-7.5,0.5
		c-2.3,1.2-4,3-5.7,4.8c-24.5,26.8-48.9,53.7-73.4,80.5c-1.1,1.2-2.3,2.4-3.5,3.6c-0.6,0.5-1.4,1.2-2.1,0.5
		c-0.4-0.3-0.4-1.2-0.4-1.9c0-0.5,0.2-0.9,0.3-1.4c0.7-3.2,1.3-6.4,2-9.6c1.3-6,2.7-11.9,4-17.8c1.4-6.4,2.9-12.8,4.3-19.2
		c1.4-6.3,2.7-12.7,4.1-19c1.4-6.6,2.9-13.3,4.3-19.9c1.4-6.6,2.8-13.1,4.2-19.7c1.3-6.2,2.5-12.4,3.7-18.6c0.5-2.7,0.2-5.4-0.7-8
		c-1.2-3.3-3.7-5-7.2-4.7c-2.7,0.2-4.6,1.6-5.6,3.7c-0.2,0.3-0.3,0.6-0.5,1c-1,2.5-1.8,5.1-2.4,7.8c-1.5,6.9-2.8,13.8-4.1,20.7
		c-1.5,7.3-2.9,14.6-4.4,21.9c-1.4,6.7-2.7,13.5-4,20.2c-1.4,7.2-2.9,14.4-4.4,21.6c-1.3,6.7-2.7,13.5-4,20.2
		c-1.5,7.3-2.9,14.6-4.4,21.9c-1.4,6.7-2.7,13.5-4,20.2c-1.4,7.1-2.9,14.3-4.3,21.4c-1,5.2-2.1,10.3-3.1,15.5
		c-0.8,3.9-1.5,7.9-2.1,11.8c-0.2,1.6,0,3.3,0.1,5c0.2,1.5,1.2,2.4,2.6,2.8c2.1,0.6,4.2,0.5,5.8-1.2c0.9-1,1.8-2,2.5-3.2
		c0.4-0.6,0.7-1.2,1-1.8c2-3.8,3-7.9,3.9-12.1c1.8-7.7,3.4-15.5,5.2-23.2c0.5-2.4,1.2-4.8,2-7.1c0.1-0.2,0.1-0.3,0.2-0.4
		c0.9-1.5,2.4-2,4.2-1.7c0.8,0.2,1.7,0.6,2.4,1.1c1.6,1.1,3.1,2.3,4.6,3.5c8.3,6.7,16.6,13.6,25,20.3c8.7,7,17.7,13.8,27.4,19.3
		c5.2,2.9,10.6,5.4,16.4,6.4c9.6,1.7,18.2-1,26-6.6c10-7.1,19.5-14.8,28.7-22.9c2.3-2.1,4.6-4.2,7.1-6.1c1.9-1.5,3.1-1.2,4.3,0.9
		c3.7,6.5,7.3,13.1,11,19.6c2.4,4.3,5.1,8.3,8.6,11.7c3.4,3.2,7.3,4.5,11.9,3.3c1.5-0.4,3-1,4.5-1.6c5.4-2.5,10-6.4,14.2-10.6
		c5-5,9.8-10.1,14.7-15.1c2.7-2.7,5.6-5.3,8.4-7.9c0.6-0.5,1.4-0.9,2.1-1.3c0.7,1.8,0.7,1.8,0.5,4.5c-0.4,6.8-0.9,13.6-0.3,20.4
		c0.2,2,0.7,4.1,1.2,6.1c0.9,3.1,3.1,4.8,6.1,5.5c2.2,0.5,4.4,0.4,6.6-0.3c4-1.2,7-3.8,9.8-6.7c2.9-3,5.7-6.1,8.6-9
		c2.7-2.7,5.7-5.1,9.1-6.9c7-3.7,14.2-4.9,21.5-0.9c4.6,2.5,9.2,5.2,13.6,8c5.2,3.2,10.3,6.4,16.2,8.1c12.1,3.6,23.7,2.2,34.9-3.5
		c8.6-4.3,16.3-10.2,23.5-16.4c5.6-4.8,11-9.8,16.5-14.7c0.4-0.4,1.1-0.4,1.6-0.6c0.1,0.5,0.3,1,0.3,1.5c0,3.8-0.3,7.5-0.1,11.3
		c0.2,4.4,1,8.7,2.6,12.9c2.1,5.4,5.9,9.6,10.6,13c4,2.9,8.5,4.3,13.4,4.4c5.6,0.1,10.9-1.6,15.9-4c7.5-3.6,14.2-8.6,21.1-13.3
		c3.4-2.3,6.8-4.7,10.4-6.9c2.2-1.4,3.8-0.8,4.9,1.5c0.5,1.1,1,2.4,1.3,3.6c0.8,3.2,1.9,6.3,3.7,9.1c3.8,5.9,9.1,9.6,16.2,10.3
		c4.7,0.5,9-1,13.1-3.1c6.9-3.7,12.3-9,16.1-16c4.2-7.7,10.3-13.3,18.8-16.1c6.9-2.3,13.9-4.2,21.1-5.3c4.1-0.7,8.3-0.9,12.4-1.3
		c0.8-0.1,1.7,0.1,2.9,0.2c-0.6,1.2-1,1.9-1.3,2.7c-0.7,1.5-1.6,3-2,4.6c-3,10.5,0.7,21.6,9.2,28.4c7.2,5.7,15.5,7,24.3,5.7
		c8.4-1.2,16.5-3.9,24.2-7.4c12.8-5.7,24.9-12.7,36.4-20.7c9.3-6.5,18.4-13.3,27.6-19.9c0.7-0.5,1.5-0.9,2.7-1.6
		c0,1.1,0.1,1.7,0,2.3c-0.6,3.1-1.3,6.1-2,9.1c-2.3,10.5-4.6,20.9-6.9,31.4c-0.2,1.1-0.4,2.2-0.3,3.3c0.2,4,4.3,6,7.6,4
		c1.8-1.1,3-2.8,4-4.7c0.4-0.7,0.7-1.3,1.1-2c1.9-3.5,3.8-7,5.7-10.4c1-1.7,1.9-3.4,2.9-5.1c3.1-5.3,7.1-10,12.5-13.4
		c5.9-3.7,12.2-5.3,19-3.7c9.1,2.1,15.3,8,19,16.5c1.7,3.9,3.1,7.9,4.9,11.7c1.8,3.7,4.3,6.9,7.9,9.2c2.7,1.7,5.5,2.2,8.7,1
		c1.4-0.5,2.3-1.4,2.9-2.5C1416,214.8,1415.8,212.3,1414.3,210.5z M1344.9,129.3c0.9-5.2,1.8-10.4,3-15.5c1.3-6.1,2.8-12.1,4.4-18.1
		c2.1-7.8,4.1-15.6,7.2-23c1.2-2.9,3-5.6,4.7-8.3c1.3-2,3.3-3.3,5.6-3.9c2.2-0.6,3.8,0.1,4.5,2.3c0.3,1.1,0.5,2.4,0.3,3.5
		c-0.7,3.6-1.4,7.2-2.5,10.7c-4.8,14.7-11.6,28.6-18.7,42.3c-2,3.7-4.1,7.4-6.3,11c-0.4,0.6-0.9,1.2-1.4,1.8
		c-0.3-0.1-0.6-0.2-0.8-0.3C1344.9,131,1344.8,130.1,1344.9,129.3z M1041.4,133.4c1.4-7.5,2.7-15.1,4.3-22.6
		c1.2-5.5,2.6-10.9,4.1-16.3c2.6-9.3,5.5-18.5,10.7-26.8c1.3-2,2.9-3.7,4.6-5.5c0.7-0.7,1.7-1.1,2.7-1.4c2.1-0.6,4.4,0.5,4.9,2.7
		c0.4,1.7,0.5,3.5,0.4,5.2c-0.3,4.6-1.8,8.9-3.3,13.2c-3.6,10-8,19.6-13,29c-4.2,7.9-8.7,15.6-13.2,23.3c-0.4,0.6-1,1.1-1.5,1.7
		c-0.2-0.1-0.5-0.2-0.7-0.3C1041.4,134.9,1041.3,134.1,1041.4,133.4z M1125.9,206.7c-1,0.2-2.1,0.2-3.1,0.2c-5.6-0.2-9-3.5-9.4-9.1
		c0-0.6,0-1.1,0-1.7c0.2-6.6,2.9-11.9,8.7-15.2c0,0,0,0,0,0c2.4-1.4,5-2,7.5-1.9c1.5,0.1,3.1,0.4,4.7,1c0,0,0,0,0,0
		c2.9,1.2,4.5,3.5,5.1,6.5c0,0,0,0,0,0C1141,194.7,1135.1,205.2,1125.9,206.7z"/>
	<path class="st0" d="M175.4,135.8c0.5,0.3,1.1,0.6,1.6,0.8c1.4,0.7,2.9,1.1,4.4,1.2c1.8,0,3.4-0.4,4.7-1.2c0.6-0.3,1.2-0.8,1.8-1.3
		c1.7-1.6,2.2-3.5,1.5-5.7c-1-3.2-3.3-5.2-6.6-5.9c-0.9-0.2-1.7-0.2-2.6-0.2c-2.5,0.1-4.6,1.2-6.3,3.3
		C171.3,130,172,133.5,175.4,135.8z"/>
</g>
</svg>
