<?xml version="1.0" encoding="utf-8"?>
<!-- Generator: Adobe Illustrator 24.3.0, SVG Export Plug-In . SVG Version: 6.00 Build 0)  -->
<svg version="1.1" id="Livello_1" xmlns="http://www.w3.org/2000/svg" xmlns:xlink="http://www.w3.org/1999/xlink" x="0px" y="0px"
	 viewBox="0 0 270.5 100.2" style="enable-background:new 0 0 270.5 100.2;" xml:space="preserve">
<style type="text/css">
	.st0{display:none;}
	.st1{display:inline;}
	.st2{display:inline;clip-path:url(#SVGID_2_);fill:#CFB56E;}
	.st3{display:none;fill:#CFB56E;}
	.st4{display:inline;clip-path:url(#SVGID_4_);fill:#CFB56E;}
	.st5{display:inline;clip-path:url(#SVGID_6_);fill:#CFB56E;}
	.st6{display:inline;clip-path:url(#SVGID_8_);fill:#CFB56E;}
	.st7{fill:#D1B165;}
	.st8{fill:#CFB56E;}
</style>
<g class="st0">
	<defs>
		<rect id="SVGID_1_" x="-631.3" y="-1004.1" width="1533" height="2142.2"/>
	</defs>
	<clipPath id="SVGID_2_" class="st1">
		<use xlink:href="#SVGID_1_"  style="overflow:visible;"/>
	</clipPath>
	<path class="st2" d="M40.4,0.3l-8.3,25.1L23.6,0.3l-11,0L-0.4,67.6h14.1L21.1,25c3,10,5,24.1,6,42.2l10.5,0
		c0.6-17.5,1.9-32.4,5.5-42.2l7.4,42.2H64l-13.1-67L40.4,0.3z"/>
	<path class="st2" d="M86,67c-15.5-8.9-13.7-37.4,0-44.3C99.7,30,100.6,58.8,86,67 M74.8,22.8c-10.6,7.2-12,35.1,0,44.4l22.5,0.2
		c10.7-12.2,10.6-33.3-0.2-44.6L74.8,22.8z"/>
	<path class="st2" d="M128.4,67.3c-15.5-8.9-13.8-37.6-0.1-44.5C142,30,143,59,128.4,67.3 M117.2,22.8c-10.6,7.2-12,35.1,0,44.4
		l22.5,0.2c10.7-12.2,10.6-33.3-0.2-44.6L117.2,22.8z"/>
</g>
<rect x="155.4" y="-0.1" class="st3" width="12.7" height="68"/>
<g class="st0">
	<defs>
		<rect id="SVGID_3_" x="-631.3" y="-1004.1" width="1533" height="2142.2"/>
	</defs>
	<clipPath id="SVGID_4_" class="st1">
		<use xlink:href="#SVGID_3_"  style="overflow:visible;"/>
	</clipPath>
	<path class="st4" d="M184,0l-15.8-0.1l0,0c11.9,5.5,11.7,27.2,0,34.5l8.2,33l13-0.2l-7.8-29.4C189.6,30.8,193.3,10,184,0"/>
</g>
<rect x="199.2" y="-0.1" class="st3" width="12.7" height="68"/>
<polygon class="st3" points="224.8,26.5 212,33.6 224.8,40.5 "/>
<g class="st0">
	<defs>
		<rect id="SVGID_5_" x="-631.3" y="-1004.1" width="1533" height="2142.2"/>
	</defs>
	<clipPath id="SVGID_6_" class="st1">
		<use xlink:href="#SVGID_5_"  style="overflow:visible;"/>
	</clipPath>
	<path class="st5" d="M212.1-0.1c3.9,1.1,7.7,5.1,11,11.5l5.3-11.5H212.1L212.1-0.1z"/>
	<path class="st5" d="M212.1,67.9L212.1,67.9h16.3l-5.3-11.5C219.8,62.9,216,66.8,212.1,67.9"/>
</g>
<rect x="236.7" y="-0.1" class="st3" width="12.7" height="68"/>
<g class="st0">
	<defs>
		<rect id="SVGID_7_" x="-631.3" y="-1004.1" width="1533" height="2142.2"/>
	</defs>
	<clipPath id="SVGID_8_" class="st1">
		<use xlink:href="#SVGID_7_"  style="overflow:visible;"/>
	</clipPath>
	<path class="st6" d="M265.4,0l-15.8-0.1l0,0c11.9,5.5,11.7,27.2,0,34.5l8.2,33l13-0.2l-7.8-29.4C270.9,30.8,274.7,10,265.4,0"/>
</g>
<g>
	<g>
		<path class="st7" d="M92.1,85.1h2l4.5,12.1h0l4.7-12.1h1.9l-5.8,14.7h-1.7L92.1,85.1z"/>
		<path class="st7" d="M106.8,85.1h9.3v1.6h-7.5v4.6h7V93h-7v5.2h7.9v1.6h-9.6V85.1z"/>
		<path class="st7" d="M119.1,85.1h3.8c0.7,0,1.4,0,2.1,0.1c0.7,0.1,1.3,0.3,1.9,0.5c0.6,0.3,1,0.7,1.4,1.2c0.3,0.5,0.5,1.3,0.5,2.2
			c0,1.1-0.3,2-1,2.6c-0.7,0.7-1.6,1.1-2.7,1.3l4.2,6.8h-2.1l-4-6.6h-2.2v6.6h-1.7V85.1z M120.9,91.6h1.6c0.5,0,1,0,1.5,0
			c0.5,0,1-0.1,1.4-0.3c0.4-0.2,0.8-0.4,1.1-0.7c0.3-0.3,0.4-0.8,0.4-1.4c0-0.5-0.1-1-0.3-1.3c-0.2-0.3-0.5-0.6-0.8-0.7
			c-0.3-0.2-0.7-0.3-1.1-0.3c-0.4-0.1-0.8-0.1-1.3-0.1h-2.5V91.6z"/>
		<path class="st7" d="M138.7,100.2c-1.1,0-2.2-0.2-3.1-0.6c-0.9-0.4-1.7-0.9-2.4-1.6c-0.7-0.7-1.2-1.5-1.6-2.5
			c-0.4-0.9-0.6-2-0.6-3.1c0-1.1,0.2-2.1,0.6-3.1c0.4-0.9,0.9-1.8,1.6-2.5c0.7-0.7,1.5-1.2,2.4-1.6c0.9-0.4,2-0.6,3.1-0.6
			c1.1,0,2.2,0.2,3.1,0.6c0.9,0.4,1.7,0.9,2.4,1.6c0.7,0.7,1.2,1.5,1.6,2.5c0.4,1,0.6,2,0.6,3.1c0,1.1-0.2,2.1-0.6,3.1
			c-0.4,1-0.9,1.8-1.6,2.5c-0.7,0.7-1.5,1.2-2.4,1.6C140.8,100,139.8,100.2,138.7,100.2z M138.7,98.6c0.9,0,1.6-0.2,2.4-0.5
			c0.7-0.3,1.3-0.8,1.8-1.3c0.5-0.6,0.9-1.2,1.2-1.9c0.3-0.7,0.4-1.5,0.4-2.4c0-0.8-0.1-1.6-0.4-2.4c-0.3-0.7-0.7-1.4-1.2-1.9
			c-0.5-0.6-1.1-1-1.8-1.3c-0.7-0.3-1.5-0.5-2.4-0.5c-0.9,0-1.6,0.2-2.4,0.5c-0.7,0.3-1.3,0.8-1.8,1.3c-0.5,0.6-0.9,1.2-1.2,1.9
			c-0.3,0.7-0.4,1.5-0.4,2.4c0,0.8,0.1,1.6,0.4,2.4c0.3,0.7,0.7,1.4,1.2,1.9c0.5,0.6,1.1,1,1.8,1.3C137,98.4,137.8,98.6,138.7,98.6z
			"/>
		<path class="st7" d="M149.2,85.1h2.2l8.5,12.2h0V85.1h1.7v14.7h-2.2L151,87.6h0v12.2h-1.7V85.1z"/>
		<path class="st7" d="M170.2,85.1h1.6l6.3,14.7h-2l-1.5-3.6h-7.4l-1.5,3.6h-2L170.2,85.1z M170.9,87.4L170.9,87.4l-3.1,7.2h6
			L170.9,87.4z"/>
	</g>
	<path class="st8" d="M262.5,37.8c8-7.1,11.7-27.8,2.5-37.8h-15.7l0,0.9c11.9,5.5,11.7,26.2,0,33.5l8.1,33.4h13L262.5,37.8z
		 M86.1,23.9c13.6,7.2,14.5,34.1,0,42.4C70.7,57.3,72.5,30.7,86.1,23.9 M75,67.8h22.4c10.6-12.2,10.5-33.7-0.2-45.1H75
		C64.4,29.9,63,58.6,75,67.8 M128.3,23.9c13.6,7.2,14.5,34.1,0,42.4C112.9,57.3,114.7,30.7,128.3,23.9 M117.2,67.8h22.4
		c10.6-12.2,10.5-33.7-0.2-45.1h-22.2C106.7,29.9,105.3,58.6,117.2,67.8 M27.4,67.8h10.5c0.6-17.4,1.9-32.9,5.5-42.7l7.4,42.7h13.4
		L51.1,0H40.7l-8.3,25.4L23.9,0h-11L0,67.8h14.1l7.3-42.7C24.4,35.1,26.4,49.8,27.4,67.8 M249.1,0h-12.7v67.8h12.7V0z M222.9,56.4
		c-3.3,6.4-7.1,9.2-11,10.3h-0.2V1.2h0.2c3.9,1.1,7.6,3.9,11,10.3L228.1,0H199v67.8h29.2L222.9,56.4z M168.2,34.4l8.1,33.4h13
		l-7.9-30c8-7.1,11.7-27.8,2.5-37.8h-15.7l0,0.9C180,6.4,179.8,27.1,168.2,34.4 M224.5,40.5v-14l-12.7,7.1L224.5,40.5z M168,0h-12.7
		v67.8H168V0z"/>
</g>
</svg>
