<?xml version="1.0" encoding="UTF-8"?>
<svg id="_レイヤー_2" data-name="レイヤー_2" xmlns="http://www.w3.org/2000/svg" viewBox="0 0 252 24.37">
  <defs>
    <style>
      .cls-1 {
        fill: #231815;
      }
    </style>
  </defs>
  <g id="_レイヤー_1-2" data-name="レイヤー_1">
    <g>
      <path class="cls-1" d="M4.95,19.48h13.13v4.3H0V.45h16.97v4.3H4.95v5.24h10.62v4.53H4.95v4.95Z"/>
      <path class="cls-1" d="M41.53,16.91c.52,3.06,3.25,3.48,5.15,3.48,1.79,0,4.52-.51,4.52-2.9,0-4.94-13.84-1.75-13.84-10.46,0-4.79,4.49-7.03,8.69-7.03,4.85,0,9.32,2.12,9.32,7.48l-4.95-.71c-.62-2.71-3-2.81-4.6-2.81s-3.51.68-3.51,2.64c0,1.73,1.11,2.12,6.94,3.52,1.73.43,6.91,1.5,6.91,6.78,0,4.27-3.32,7.46-9.68,7.46-5.21,0-9.9-2.54-9.9-8.28l4.96.82Z"/>
      <path class="cls-1" d="M78.94,16.91c.52,3.06,3.26,3.48,5.15,3.48s4.52-.51,4.52-2.9c0-4.94-13.84-1.75-13.84-10.46,0-4.79,4.49-7.03,8.7-7.03,4.86,0,9.31,2.12,9.31,7.48l-4.95-.71c-.62-2.71-3-2.81-4.59-2.81s-3.51.68-3.51,2.64c0,1.73,1.1,2.12,6.94,3.52,1.72.43,6.91,1.5,6.91,6.78,0,4.27-3.32,7.46-9.68,7.46-5.22,0-9.9-2.54-9.9-8.28l4.95.82Z"/>
      <path class="cls-1" d="M117.23,19.48h13.13v4.3h-18.08V.45h16.97v4.3h-12.02v5.24h10.63v4.53h-10.63v4.95Z"/>
      <path class="cls-1" d="M154.33,7.74v16.1h-4.47V.49h5.87l10.39,14.53V.49h4.33v23.35h-4.33l-11.79-16.1Z"/>
      <path class="cls-1" d="M189.24,19.78l12.48-14.92h-11.5V.56h18.31v4.03l-12.48,14.92h12.8v4.3h-19.61v-4.03Z"/>
      <path class="cls-1" d="M225.91,23.81L236.46.59h5.15l10.39,23.22h-4.95l-2.28-5.15h-11.76l-2.45,5.15h-4.66ZM239.1,4.94l-3.91,9h7.73l-3.78-9h-.04Z"/>
    </g>
  </g>
</svg>