<?xml version="1.0" encoding="utf-8"?>
<!-- Generator: Adobe Illustrator 22.1.0, SVG Export Plug-In . SVG Version: 6.00 Build 0)  -->
<svg version="1.1" id="レイヤー_1" xmlns="http://www.w3.org/2000/svg" xmlns:xlink="http://www.w3.org/1999/xlink" x="0px"
	 y="0px" viewBox="0 0 881.4 478.5" style="enable-background:new 0 0 881.4 478.5;" xml:space="preserve">
<style type="text/css">
	.st0{fill:#FFFFFF;}
</style>
<title>logo</title>
<path class="st0" d="M378.9,131.6c11.4-8,22.3-14.8,34.2-20c12.6-5.5,25.8-8.7,39.7-8.5c18.8,0.2,31.4,9.2,37.6,27
	c3.6,10.5,4.7,21.4,4.8,32.4c0.2,25.5,0.2,51,0.5,76.5c0.1,6.5,0.2,13,1.5,19.4c2,9.5,5.9,13.4,15.5,14.9c3.1,0.6,6.3,0.8,9.4,0.8
	c3-0.1,4.3,0.4,4.3,4c0,4.1-2.5,3.1-4.6,3.1c-17.7,0-35.3-0.1-53,0.1c-3.7,0-4.2-1.1-4.1-4.5c1.5-37.5-0.2-75-1.5-112.4
	c-0.3-5.5-1.3-10.9-3-16.1c-4.9-15.8-16.3-24.2-32.9-25.1c-17.4-0.9-32.3,4.8-45.7,15.4c-2.2,1.5-3.4,4-3.3,6.7
	c0.1,33.1-0.1,66.3,0,99.5c0.1,21.4,5.5,27.3,27.1,29.4c3,0.3,4.4,0.9,4.2,4.3c-0.1,2.6-1,2.8-3.3,2.8c-29.5-0.1-59-0.1-88.4,0
	c-2,0-3.2-0.1-3-2.5c0.2-2-0.7-4.4,2.9-4.5c4.3-0.1,8.6-0.7,12.8-1.9c10-2.7,14.5-7.9,15.5-18.2c0.6-5.8,0.9-11.6,0.9-17.4
	c0.1-29.8,0-59.6,0-89.5c0.1-4.8-0.2-9.7-0.9-14.4c-1.2-7.3-4.7-10.4-12.1-10.6c-5.7-0.2-11.3,0.5-16.8,2c-3.5,1-3.5-1.3-4.4-3.6
	c-1.2-3.2,0.8-3.2,2.7-3.6c19.9-4.8,39.7-9.7,59.5-14.6c2.6-0.7,3.8-0.5,3.7,2.8C378.7,113.5,378.9,122,378.9,131.6z"/>
<path class="st0" d="M53.9,140.8c16-17.6,36.1-28.2,58-35.9c2.3-0.8,4-1.4,4.8,1.8c0.6,2.5,2.2,4.4-1.8,6
	c-35.1,13.7-52.9,40.6-58.8,76.8c-2.8,17-3.2,34.1-2.9,51.3c0.2,10.9,4.8,18.8,15.2,22.9c4.2,1.6,8.3,3.4,12.5,5
	c1.5,0.6,2.5,1.2,2.5,3.1s-1,2.5-2.5,3.1c-16.9,6.8-33.8,13.8-50.8,20.6c-4,1.6-6.2-0.3-5.9-5.2c2.1-40.3,1-80.6,1.3-121
	c0-0.8-0.1-1.7,0-2.5c1.6-16.7-5.2-29.2-18.7-38.8c-9.1-6.5-9.9-7.1,1.8-11.6c12.6-4.8,25-9.8,37.6-14.7c6.1-2.4,7.7-1.1,7.7,5.3
	C53.9,118,53.9,129.2,53.9,140.8z"/>
<path class="st0" d="M232.1,179.1c0,23.5-0.3,47,0.1,70.4c0.3,15.8,5.1,20.9,20.6,23.7c2.3,0.6,4.6,0.9,6.9,0.9
	c3.5-0.1,3.4,1.8,3.6,4.4c0.2,3.5-2,2.6-3.9,2.6c-28.8,0-57.6,0-86.4,0c-2.2,0-3.9,0.3-3.7-2.8c0.2-2.3,0-4.1,3.3-4.1
	c4.7-0.1,9.3-0.8,13.8-2.1c8-2.3,12.6-7.5,14-15.8c1.3-7.5,1.1-14.9,1.1-22.4c0.1-23.5-0.4-47,0.1-70.4c0.3-14.2-4.9-25.1-16.2-33.5
	c-2.5-1.9-5-3.9-7.4-6c-2.6-2.2-2.7-4.1,0.8-5.4c15.9-5.9,31.7-11.8,47.6-17.6c4.2-1.5,5.9,0,5.9,4.7c0,24.5,0,49,0,73.4
	L232.1,179.1L232.1,179.1z"/>
<path class="st0" d="M214.4,39.4c-12-0.2-19.5-7.8-19.4-19.8c0.1-11.4,8.7-19.7,20.1-19.5s19.5,8.7,19.3,20.3
	C234.1,31.5,225.7,39.5,214.4,39.4z"/>
<path class="st0" d="M879.6,118c-2.4-1.4-2.5,1.3-3.1,2.3c-20,34.4-43.1,66.5-71.1,94.9c-23.8,24.1-50.2,44.8-81.2,58.8
	c-7.9,3.5-15.9,6.8-25.2,8.8L818.1,74.1c-12.6,1.4-24.2,2.8-35.8,3.9c-2.7,0.2-4,1.4-5.2,3.7c-6.2,11.4-12.5,22.7-18.8,34
	c-0.6,1-0.7,2.8-2.8,2.3c-0.6-5.3-1.7-10.5-3.4-15.6c-5.9-17.6-19.2-26.5-37.7-25.4c-10.1,0.8-20.1,3.4-29.3,7.6
	c-29.4,13-53.4,33.2-74,57.3c-24.5,28.7-42.6,60.7-47.4,98.9c-1.8,14.3-1,28.3,7.2,40.9c7.2,11.1,17,17,30.7,15.6
	c11.8-1.2,22.6-5.3,32.8-11.1c22.9-13.1,41-31.7,57.8-51.7c1.1-1.3,1.7-3.3,5.2-3.4c-3.7,5.9-7.1,11.2-10.3,16.6
	c-17.3,29.9-34.2,60.1-51.9,89.8c-19.2,32.4-40,63.8-67,90.4c-23.5,23.2-50.6,39.3-84.1,42.9c-16.6,1.8-32.6,0.4-47-9.2
	c-22.5-14.9-31.9-46.4-22-73.9c5.1-14,13.9-24.2,29.2-27c4-0.5,8-0.7,12-0.4c2.3,0.1,2.8-0.9,3-2.9c0.3-2.2-0.5-2.9-2.6-3.2
	c-4.9-0.7-9.9-1-14.9-1c-25.5,0-46.7,14-55.4,36.7c-9,23.2-2.6,51,15.4,67.4c15.6,14.2,34.6,19.5,54.9,20.7
	c34.6,2.1,67-6.3,97.4-22.5c33.5-17.9,60.4-43.5,83.8-73c21.7-27.4,39.4-57.2,54.5-88.6c1.1-2.3,2.2-4.1,5.1-4.9
	c32.2-8.6,60.3-25.3,85.8-46.3c40.5-33.5,71.2-74.9,97.3-120C882,120.5,881.5,119.1,879.6,118z M652.2,268.6
	c-7.5,6.4-15.9,11.5-25.6,14c-13.4,3.4-22.9-1.9-26.7-15.3c-4.3-15.6-2.3-31.2,2.3-46.2c15.1-49.8,42-92,82-125.5
	c6.1-5.2,13.2-9.1,20.8-11.6c14-4.6,25.3,1.4,29.4,15.5c1.8,6.1,2,12.5,2.3,19.2c-0.7,23.2-8.1,45-18.3,65.9
	C702.4,217.4,680,245.1,652.2,268.6z"/>
</svg>
