<?xml version="1.0" encoding="UTF-8"?>
<svg id="_レイヤー_2" data-name="レイヤー 2" xmlns="http://www.w3.org/2000/svg" viewBox="0 0 123.45 24.2">
  <defs>
    <style>
      .cls-1 {
        fill: #fff;
        fill-rule: evenodd;
        stroke-width: 0px;
      }
    </style>
  </defs>
  <g id="_レイヤー_1-2" data-name="レイヤー 1">
    <g>
      <path class="cls-1" d="M70.26,21.76c1.76.13,5.09.17,7.19-1.1,1.21-.73,1.58-1.21,2.41-3,.21-.46.57-.69.95-.58.29.09.58.42.44.79-.23.64-1.42,4.67-1.89,5.87-.14.37-.4.44-.73.45h-8.38v-2.43h0ZM70.26.03h.44c.43,0,.75.29.75.73,0,.41-.33.62-.6.73-.16.07-.36.14-.59.2V.03h0ZM112,10.61c.62-.83,4.87-8.02,4.89-8.05.23-.47.06-.69-.41-.86l-.41-.15c-.14-.05-.25-.1-.35-.15-.22-.12-.41-.32-.41-.64,0-.37.2-.58.46-.67.11-.04.22-.05.31-.05h.25s6.42,0,6.42,0c.29,0,.71.24.71.64,0,.38-.29.58-.56.7-.13.06-.3.12-.49.17-.18.06-.39.11-.64.18-.39.11-.99.5-1.48,1.17-.3.49-5.56,9.1-6.63,11.07-.09.16-.1.29-.1.38v6.17c0,.86.22,1.28.44,1.51.11.12.23.19.35.25.14.07.27.11.36.15.42.17.77.28,1.01.39.13.06.26.13.36.22.11.1.2.25.2.43,0,.47-.37.73-.77.71h-8.6c-.42,0-.76-.28-.76-.73,0-.39.34-.57.56-.67.24-.11.59-.21,1.01-.38.1-.04.22-.08.36-.15.12-.06.25-.14.36-.26.22-.23.44-.65.44-1.48v-6.16c0-.06-.02-.25-.09-.38-1-1.9-6.52-11.13-6.52-11.13-.46-.67-.88-1-1.31-1.12-.52-.14-.94-.21-1.23-.3-.31-.1-.67-.29-.67-.75,0-.43.43-.65.74-.65h8.26c.14,0,.37,0,.57.1.24.11.42.33.42.66,0,.35-.2.54-.45.64-.1.04-.22.07-.36.1-.12.03-.26.06-.42.1-.35.09-.71.3-.42.84,0,0,4.13,7.35,4.59,8.12h0ZM91.65,7.7c-.09.16-2.4,5.19-2.76,6.16h5.46c-.46-1.05-2.44-5.58-2.7-6.16h0ZM85.6,21.94l-.02.11c-.05.12-.02.2.15.31.19.12.46.2.68.26.45.12.8.21,1.03.32.26.13.45.32.45.64,0,.57-.5.61-.76.61h-6.39c-.33,0-.76-.14-.76-.66,0-.42.33-.59.58-.69.24-.09.58-.18.99-.35.55-.23,1.04-1.39,1.06-1.44,1.13-2.6,8.72-20.01,8.99-20.63.24-.57,1.37-.53,1.61-.05.38.77,9.34,20.66,9.34,20.66.1.18.23.49.41.8.19.3.4.54.65.65.41.17.75.26.99.36.25.1.58.27.58.69,0,.52-.44.67-.77.66h-8.31c-.31,0-.72-.09-.72-.62,0-.37.22-.58.51-.71.12-.05.27-.1.46-.16.17-.05.37-.1.6-.16.1-.03.22-.05.33-.09.11-.03.21-.07.29-.12.13-.08.22-.18.25-.36l-.06-.14-.23-.54-.7-1.65c-.51-1.2-1.06-2.45-1.15-2.63-.06-.12-.12-.22-.19-.29-.06-.06-.11-.08-.16-.08h-7.34c-.09,0-.14,0-.16.02l-.15.28c-.11.19-.63,1.43-1.13,2.66-.25.61-.49,1.21-.66,1.66l-.21.55-.06.15v-.03h0Z"/>
      <path class="cls-1" d="M70.26,24.19h-8.26c-.42,0-.75-.26-.75-.71,0-.39.28-.6.55-.74.13-.06.29-.12.47-.18l.57-.18c.37-.12,1.15-.55,1.15-1.54V3.36c0-.99-.77-1.4-1.15-1.52l-.56-.18c-.18-.06-.34-.12-.47-.18-.27-.13-.55-.34-.55-.73,0-.44.33-.74.76-.73h8.24v1.67c-.15.04-.31.09-.47.14-.35.11-1.08.53-1.12,1.46v18.06c0,.09.18.28.42.28.02,0,.48.07,1.18.12v2.43h0ZM31.36,12.51v9.01c.06.11.18.15.3.15.04,0,6.85.13,9.08-.67,1.23-.54,1.58-1.26,2.47-3.29.37-.84,1.62-.65,1.38.26-.17.66-1.4,4.57-1.87,5.77-.15.37-.4.44-.73.45h-17.21c-.43.02-.75-.28-.75-.72,0-.39.28-.6.55-.73.13-.06.29-.12.47-.18l.56-.18c.35-.11,1.07-.51,1.07-1.52V3.16c0-.84-.76-1.2-1.42-1.37-.45-.11-.84-.21-1.11-.33-.14-.06-.29-.13-.4-.23-.12-.1-.22-.25-.22-.45,0-.43.33-.77.77-.75h16.36c.09,0,.21,0,.33,0,.13,0,.29.01.44.04.31.07.68.28.68.8,0,.22.1,1.19.21,2.12l.14,1.28.04.43v.13c.02.07.01.11.01.12-.11.77-.97.31-1.05.18-.25-.42-.46-.82-.73-1.2-.25-.36-.54-.68-.97-.97-.3-.2-.95-.46-1.92-.47h-6.34c-.06,0-.11,0-.16,0v.12s0,7.43,0,7.43l.18.06h5.23c.88,0,1.69-.49,2.22-2.55l.1-.39c.03-.13.06-.25.1-.34.09-.22.26-.45.6-.45.21,0,.72.2.72.58v7.95c0,.44-.3.9-.84.9-.18,0-.31-.09-.4-.19-.08-.09-.13-.21-.17-.3-.03-.09-.06-.2-.08-.31l-.05-.29c-.33-2.02-1.32-2.23-2.13-2.23h-5.47ZM51.09,10.85c.1.05.23.09.38.12,1.62.29,5.84.4,5.9-4.08.06-3.64-3.66-5.06-5.53-4.38-.38.14-.6.33-.69.51l-.03.15c-.02.1-.03.22-.03.34v7.34h0ZM51.09,13.37v7.57c.03.95.72,1.34,1.07,1.44l.56.18c.18.06.34.12.47.18.27.13.55.34.55.73,0,.44-.33.74-.76.73h-8.47c-.4,0-.78-.27-.78-.73,0-.4.3-.61.57-.73.13-.06.29-.12.47-.18l.57-.18c.34-.11,1.02-.49,1.07-1.42V3.24c-.06-.9-.77-1.29-1.12-1.4l-.56-.18c-.18-.06-.34-.12-.47-.18-.27-.13-.55-.34-.55-.73,0-.44.33-.74.76-.73h10.98c2.15,0,6.95,1.32,6.95,6.75,0,6.76-7.31,7.16-11.29,6.59h0ZM7.36,11.08c.08.1.13.13.18.14.19.03,1.84.22,3.41-.28,1.54-.49,2.99-1.63,2.93-4.29-.06-2.67-1.53-3.7-3.03-4.09-1.54-.4-3.1-.1-3.17-.08-.1.03-.21.09-.28.14l-.06,8.45h0ZM7.36,13.46v7.57c.06.89.72,1.26,1.06,1.36l.56.18c.18.06.34.12.47.18.27.13.55.34.55.73,0,.44-.33.74-.76.73H.75c-.43,0-.75-.29-.75-.73,0-.39.28-.6.55-.73.13-.06.29-.12.47-.18l.56-.18c.35-.11,1.07-.52,1.07-1.52V3.36c0-1-.71-1.41-1.06-1.52l-.56-.18c-.18-.06-.34-.12-.47-.18C.29,1.36,0,1.15,0,.76,0,.32.33.02.77.03h11.22c2.26,0,7.26,1.78,7.07,7.08-.08,2.34-1.28,3.83-2.9,4.77-.46.29-.91.51-1.29.69l-.5.23c-.1.05-.17.08-.23.12.64.91,5.16,7.18,5.16,7.18.74.98,1.55,2,2.86,2.48.48.18.83.27,1.06.37.24.1.51.25.54.61.02.24-.08.44-.28.55-.16.09-.35.1-.49.09h-5.34c-.36,0-.59-.24-.7-.39-4.26-5.77-6.41-8.57-7.71-10.25-.14-.18-1.64-.15-1.87-.09h0Z"/>
    </g>
  </g>
</svg>