<?xml version="1.0" encoding="utf-8"?>
<!-- Generator: Adobe Illustrator 16.2.1, SVG Export Plug-In . SVG Version: 6.00 Build 0)  -->
<!DOCTYPE svg PUBLIC "-//W3C//DTD SVG 1.1//EN" "http://www.w3.org/Graphics/SVG/1.1/DTD/svg11.dtd">
<svg version="1.1" id="レイヤー_1" xmlns="http://www.w3.org/2000/svg" xmlns:xlink="http://www.w3.org/1999/xlink" x="0px"
	 y="0px" width="1597.717px" height="522.365px" viewBox="0 0 1597.717 522.365" enable-background="new 0 0 1597.717 522.365"
	 xml:space="preserve">
<g>
	<g>
		<g>
			<path id="SVGID_1_" fill="#FFFFFF" d="M108.155,205.833c-10.984-17.853-23.926-39.574-39.795-65.46
				C59.083,125.496,54.2,111.808,54.2,99.609c0-13.092,5.613-24.399,17.09-33.325c23.926-18.746,52.246-28.267,84.717-28.267
				c11.963,0,21.729,1.19,29.541,4.463c6.104,2.38,11.229,7.438,15.381,13.389c3.906,7.142,6.104,15.175,6.104,24.102
				c0,5.653-0.732,11.307-2.688,17.258c-0.73,2.38-1.465,3.57-1.953,4.166c-0.488,1.19-0.73,1.19-0.977,0
				c-0.244-1.488,0.977-8.331,0.977-14.877c0-10.116-2.439-18.745-6.836-25.589c-4.148-6.249-9.766-10.712-16.846-13.092
				c-8.301-2.975-18.312-4.166-29.297-4.166c-29.785,0-54.443,8.926-74.221,26.482c-9.521,8.629-14.646,18.746-14.646,30.35
				c0,9.521,4.149,21.721,11.963,36.003c9.521,14.282,24.414,37.193,43.945,68.733c5.613,0,13.672,0,23.682-0.298
				c1.953,0,2.688,0.298,2.688,1.19c0,1.19-2.932,1.487-8.789,1.785c-8.546,0.297-13.186,0.595-14.895,0.893
				c4.639,9.521,6.836,19.043,6.836,28.564c0,19.936-8.789,34.218-26.123,43.144c-14.893,7.438-30.762,11.604-47.605,11.604
				c-12.451,0-23.438-2.083-32.229-5.951C6.592,280.519,0,271.294,0,258.797c0-11.604,7.08-21.126,21.482-28.862
				C44.19,218.033,73.243,209.404,108.155,205.833z M72.51,217.438c-19.043,4.761-34.912,11.009-47.607,19.043
				c-13.672,8.331-20.752,17.258-20.752,26.184c0,4.463,2.197,8.629,6.35,13.092c3.174,3.273,6.592,5.356,10.01,6.545
				c9.521,2.978,18.799,4.166,28.809,4.166c17.092,0,32.959-4.76,47.363-13.389c14.404-8.926,21.729-21.126,21.729-36.003
				c0-9.521-2.688-18.746-8.303-27.077C94.239,212.379,81.543,215.058,72.51,217.438z M348.52,218.285
				c2.686,1.007,5.127,3.525,5.127,6.042c-0.244,1.763-0.977,3.777-2.686,6.042c-5.127,15.862-12.451,39.024-22.461,68.983
				c24.9-4.53,48.584-6.797,70.557-6.797c8.057,0,14.16,0.504,18.555,1.258c7.324,1.512,15.869,10.07,15.869,18.631
				c0,2.016-0.488,4.029-1.221,5.539c-2.197,4.281-7.568,9.818-15.869,16.617c-1.709,1.512-2.688,2.015-3.662,2.015
				c-0.244,0-0.488,0-0.488-0.251c0-1.008,0.732-2.016,2.441-3.273c9.766-9.314,14.404-17.624,14.404-24.925
				c0-6.043-3.906-9.315-11.965-10.071c-4.639-0.252-10.496-0.504-18.064-0.504c-29.297,0-53.467,1.764-72.268,6.043
				c-48.095,141.244-105.955,214.257-174.56,218.537c-23.191,1.51-44.678-5.791-64.453-21.904
				c-19.529-15.859-29.541-33.734-29.541-53.627c0-6.545,1.467-12.84,3.906-18.883c12.451-30.212,51.514-58.41,116.943-85.098
				c44.922-18.379,91.553-32.227,140.137-41.794c3.662-8.562,8.057-22.155,13.184-41.038c1.709-5.791,2.688-10.574,3.906-14.603
				c-5.371,5.287-15.625,12.84-30.029,23.416c-18.311,13.342-31.98,21.903-41.504,26.185c-1.221,0.503-2.93,0.755-4.639,0.755
				c-5.859,0-8.789-3.021-8.789-9.062c0-2.519,0.732-5.035,2.197-7.806c7.812-16.364,21.24-30.464,40.039-42.801
				c19.043-12.337,36.863-18.379,53.467-18.127C347.543,217.781,348.276,218.033,348.52,218.285z M65.073,450.669
				c0,17.623,8.547,33.484,25.637,47.08c17.82,14.1,38.33,20.896,61.035,19.891c39.551-1.512,76.902-31.975,112.305-91.141
				c21.729-36.255,40.039-76.791,54.197-121.857c-58.35,12.588-109.861,28.953-154.295,50.104
				c-53.225,25.177-85.205,51.863-95.947,79.812C66.049,439.843,65.073,445.13,65.073,450.669z M224.753,271.66
				c-1.953,12.084,3.662,10.071,8.301,8.812c2.197-0.755,22.705-15.356,24.658-16.617c5.127-3.522,5.615,0.252,1.709,4.28
				c-3.418,3.525-25.146,19.134-29.297,20.646c-4.15,1.259-12.207-6.042-12.207-12.589c0-13.092,6.836-28.197,11.475-39.527
				c1.953-5.036,0-10.071-5.857-4.028c-15.869,16.113-53.711,53.88-63.967,57.403c-8.789,3.021-14.893-4.532-14.402-12.84
				c1.709-23.666,32.471-68.481,44.678-83.335c3.418-4.028,12.695-3.273,6.592,4.532c-14.646,18.883-35.156,51.865-40.039,69.74
				c-3.904,13.597,1.223,17.371,9.277,12.589c25.635-15.86,58.104-57.151,77.881-75.026c6.104-5.791,9.277,6.294,7.08,9.567
				C241.599,229.363,226.95,258.064,224.753,271.66z M338.997,230.37c0-0.251-0.242-0.251-0.242-0.503s0-0.755,0.242-1.007
				c0-3.021-0.486-4.532-1.709-4.783c-1.465-0.504-5.369-0.252-11.229,1.259c-11.719,2.77-23.682,8.812-35.398,18.127
				c-12.451,10.071-20.266,20.142-23.684,30.716c-0.244,1.512-0.488,2.52-0.488,4.028c0,5.287,1.709,8.056,5.859,8.056
				c3.418,0,13.672-6.294,30.029-18.379c13.184-9.819,22.947-17.875,29.783-23.666C336.069,240.692,338.51,236.412,338.997,230.37z
				 M367.951,288.78c-4.148,0-6.104-2.771-6.104-8.812c0-11.833,9.033-27.191,27.1-45.822c16.604-16.869,31.25-27.695,43.945-32.73
				c2.93-1.259,6.348-2.014,10.01-2.014c3.906,0,7.812,1.007,11.719,2.266c2.441,0.252,3.906,0.503,4.641,0.252
				c2.686-0.504,4.883-1.511,6.348-3.273c0.244-0.252,0.979-0.504,1.465-0.504c1.223,0,2.441,2.266,2.197,3.021
				c-9.277,14.854-18.799,29.709-27.588,44.563c-13.672,23.667-26.855,64.201-29.785,83.586c-0.244,1.764-0.244,3.271-0.244,4.783
				c0,11.329,7.324,16.868,19.043,16.868c5.615,0,11.719-1.008,17.334-3.021c8.789-3.021,20.021-10.321,33.691-21.651
				c13.184-11.078,23.926-23.414,31.738-33.737c1.465-1.762,2.195-2.518,2.93-2.518c0.244,0.252,0.244,0.504,0.244,0.756
				c0,0.755-0.244,1.51-0.979,2.77c-7.322,11.33-18.064,24.675-32.471,37.264c-13.428,11.329-24.414,18.883-33.447,22.154
				c-4.395,1.512-9.032,2.519-14.16,2.519c-7.812,0-14.402-3.271-19.529-6.546c-6.104-4.028-8.303-11.077-8.059-19.639
				c0.488-14.101,11.23-50.103,20.021-69.991c5.371-12.085,10.742-22.659,16.355-31.219c1.223-2.014,1.223-2.77-0.243-2.77
				c-0.243,0-0.487,0.251-0.731,0.503c-7.812,9.567-18.799,20.394-32.959,32.982c-14.16,12.337-26.367,21.654-36.865,27.947
				C371.615,288.024,369.906,288.78,367.951,288.78z M376.496,271.157c0,4.279,1.467,6.042,4.396,6.042
				c0.977,0,2.441-0.503,3.662-1.259c18.064-11.834,38.33-31.977,61.277-60.173c0.488-0.503,0.732-1.007,0.732-1.762
				c0-3.777-4.639-7.553-11.229-7.553c-1.953,0-3.662,0.252-5.615,0.755c-7.812,2.014-17.578,9.819-29.055,22.911
				c-10.984,12.588-18.555,24.421-23.191,35.248C376.74,267.38,376.496,269.394,376.496,271.157z M598.977,225.586
				c0,0.504-0.488,1.007-1.221,1.259c-2.441,0.755-5.127,1.51-8.059,1.51c-2.686,15.106-10.254,28.954-22.461,41.542
				c-11.963,12.336-24.9,19.134-38.33,20.393c-3.174,0.252-8.789-3.775-11.229-10.826c-0.244-0.755-0.488-2.518-0.488-4.279
				c0-13.597,1.953-26.938,6.104-39.527c0.486-1.259,0.242-1.762-0.488-2.014c-0.979-0.503-1.709,0-2.441,1.007
				c-15.869,22.407-29.053,38.269-39.795,47.333c-5.127,4.531-9.766,6.798-13.184,6.293c-1.953,0-6.592-4.53-6.35-6.797
				c1.223-7.806,7.812-20.143,19.287-37.767c11.477-17.372,17.334-27.694,18.066-30.716c0.244-1.259,1.221-1.762,3.174-1.762
				c2.441,0,3.662,1.007,3.662,3.021c0,0.755-0.244,1.763-0.732,2.77c-0.73,1.763-6.348,11.078-16.846,27.946
				c-7.566,12.337-12.695,22.156-14.893,28.954c-0.244,0.757-0.488,1.765-0.488,2.519c0,2.519,0.732,3.523,2.686,3.523
				c0.732,0,1.953-0.251,2.688-1.007c7.08-5.287,16.602-15.608,29.053-30.716c10.498-13.092,17.578-22.66,21.729-29.457
				c1.465-3.525,3.904-7.553,7.08-12.84c1.221-1.259,5.371-1.763,7.812-1.763c1.465,0.252,1.953,0.503,1.709,1.511
				c-3.418,5.539-6.592,14.099-10.01,25.932c-3.906,13.596-5.859,25.177-5.859,35.5c0,2.52,0,4.532,0.244,6.546
				c0.732,8.31,4.396,11.833,10.498,10.322c8.789-2.017,17.822-9.313,26.367-20.646c8.545-11.583,13.184-23.667,13.916-36.505
				c-4.15-1.007-7.324-5.539-6.836-7.302c0.244-2.266,3.906-5.287,6.836-5.287c2.686,0,5.371,3.021,8.057,9.315
				c1.953,0.755,5.127,1.007,9.521,1.007C598.488,224.579,598.977,225.083,598.977,225.586z M603.804,288.78
				c-4.15,0-6.104-2.771-6.104-8.812c0-11.833,9.033-27.191,27.102-45.822c16.602-16.869,31.25-27.695,43.943-32.73
				c2.932-1.259,6.35-2.014,10.012-2.014c3.904,0,7.812,1.007,11.719,2.266c2.439,0.252,3.906,0.503,4.639,0.252
				c2.688-0.504,4.883-1.511,6.35-3.273c0.242-0.252,0.977-0.504,1.465-0.504c1.221,0,2.439,2.266,2.197,3.021
				c-9.277,14.854-18.801,29.709-27.59,44.563c-13.672,23.667-26.854,64.201-29.783,83.586c-0.244,1.764-0.244,3.272-0.244,4.783
				c0,11.329,7.322,16.868,19.043,16.868c5.615,0,11.719-1.007,17.334-3.021c8.789-3.021,20.02-10.321,33.689-21.651
				c13.186-11.078,23.926-23.414,31.738-33.737c1.465-1.762,2.197-2.518,2.93-2.518c0.244,0.252,0.244,0.504,0.244,0.756
				c0,0.755-0.244,1.512-0.977,2.77c-7.324,11.33-18.066,24.675-32.471,37.264c-13.429,11.329-24.413,18.883-33.446,22.154
				c-4.396,1.512-9.033,2.519-14.16,2.519c-7.812,0-14.404-3.271-19.531-6.546c-6.104-4.028-8.301-11.077-8.057-19.639
				c0.487-14.101,11.229-50.103,20.02-69.991c5.371-12.085,10.742-22.659,16.357-31.219c1.221-2.014,1.221-2.77-0.244-2.77
				c-0.244,0-0.488,0.251-0.732,0.503c-7.812,9.567-18.799,20.394-32.959,32.982c-14.158,12.337-26.365,21.654-36.863,27.947
				C607.466,288.024,605.757,288.78,603.804,288.78z M612.349,271.157c0,4.279,1.465,6.042,4.395,6.042
				c0.979,0,2.441-0.503,3.662-1.259c18.066-11.834,38.33-31.977,61.279-60.173c0.488-0.503,0.731-1.007,0.731-1.762
				c0-3.777-4.64-7.553-11.229-7.553c-1.953,0-3.662,0.252-5.615,0.755c-7.812,2.014-17.578,9.819-29.053,22.911
				c-10.986,12.588-18.555,24.421-23.193,35.248C612.593,267.38,612.349,269.394,612.349,271.157z M691.273,293.312
				c-0.244-0.756-0.244-1.511,0.244-2.518c15.869-25.177,26.611-44.563,32.227-58.159c0.979-2.518,1.467-4.532,1.467-6.294
				c0-0.503-0.244-1.259-0.732-2.77c-0.244-0.755-0.244-1.259,0-1.762c1.953-0.755,8.057-4.28,18.311-10.574
				c0.244-0.503,0.732-0.503,0.979-0.503c0.977,0,1.709,0.503,1.953,1.259c0.487,0.755,0.487,2.014-0.244,2.77
				c-10.498,14.604-17.822,25.68-21.484,32.981c-0.486,1.007-0.73,1.763-0.73,2.518c0,0.755,0.73,1.007,2.686,0.251
				c1.222-0.503,2.441-1.259,2.931-2.014c6.104-7.553,14.403-15.861,24.657-24.421c10.498-8.812,18.557-14.351,24.414-16.869
				c5.127-0.252,8.789,0.251,11.23,1.51c0.244,0.252,0.244,0.252,0.244,0.504c0,2.266-5.127,7.805-7.08,6.546
				c-3.418-1.511-7.568-0.755-13.186,2.266c-23.926,13.595-45.41,36.255-64.453,68.481c0,0.252-0.486,1.006-1.952,1.762
				c-2.44,1.008-5.858,2.519-10.011,5.035C692.006,294.319,691.518,294.319,691.273,293.312z M779.622,288.78
				c-4.148,0-6.104-2.771-6.104-8.812c0-11.833,9.033-27.191,27.1-45.822c16.604-16.869,31.25-27.695,43.945-32.73
				c2.93-1.259,6.348-2.014,10.01-2.014c3.906,0,7.812,1.007,11.72,2.266c2.44,0.252,3.905,0.503,4.64,0.252
				c2.686-0.504,4.883-1.511,6.348-3.273c0.244-0.252,0.979-0.504,1.465-0.504c1.223,0,2.441,2.266,2.197,3.021
				c-9.276,14.854-18.799,29.709-27.588,44.563c-13.672,23.667-26.854,64.202-29.785,83.586c-0.244,1.764-0.244,3.272-0.244,4.785
				c0,11.327,7.324,16.866,19.043,16.866c5.615,0,11.721-1.007,17.334-3.021c8.789-3.021,20.021-10.321,33.691-21.651
				c13.184-11.077,23.926-23.414,31.738-33.735c1.465-1.764,2.195-2.52,2.93-2.52c0.244,0.252,0.244,0.504,0.244,0.756
				c0,0.755-0.244,1.512-0.979,2.77c-7.322,11.33-18.064,24.675-32.471,37.264c-13.428,11.33-24.414,18.883-33.447,22.154
				c-4.395,1.512-9.033,2.52-14.16,2.52c-7.812,0-14.402-3.271-19.529-6.546c-6.104-4.028-8.303-11.078-8.059-19.64
				c0.488-14.1,11.23-50.103,20.021-69.991c5.371-12.085,10.742-22.659,16.355-31.219c1.223-2.014,1.223-2.77-0.242-2.77
				c-0.244,0-0.488,0.251-0.732,0.503c-7.812,9.567-18.799,20.394-32.959,32.982c-14.16,12.337-26.367,21.653-36.865,27.946
				C783.284,288.024,781.575,288.78,779.622,288.78z M788.169,271.157c0,4.279,1.465,6.042,4.395,6.042
				c0.979,0,2.441-0.503,3.662-1.259c18.065-11.834,38.33-31.977,61.279-60.173c0.486-0.503,0.73-1.007,0.73-1.762
				c0-3.777-4.639-7.553-11.229-7.553c-1.953,0-3.662,0.252-5.615,0.755c-7.812,2.014-17.578,9.819-29.053,22.911
				c-10.986,12.588-18.557,24.421-23.193,35.248C788.411,267.38,788.169,269.394,788.169,271.157z M936.881,241.951
				c3.662-2.77,6.104-4.532,8.545-5.036c1.709-0.251,3.662-0.503,5.371-0.503c8.301,0,20.264,3.021,35.645,9.819
				c1.953,0.755,12.695,6.042,32.471,15.609c9.768-26.939,18.066-47.584,24.414-62.439c15.381-36.003,29.297-60.676,41.748-74.02
				c3.418-3.777,8.301-7.553,15.381-11.582c8.789-5.036,16.357-7.302,22.705-7.553c19.287-0.503,36.133,15.358,44.922,43.305
				c0.244,1.007,0.732,1.762,0.732,2.518c0,1.511-0.732,2.266-1.465,2.266c-0.733,0-1.709-0.755-2.441-2.77
				c-3.906-10.826-10.254-19.89-18.311-27.947c-7.812-7.805-15.869-12.337-23.926-13.092c-10.012-1.007-20.996,5.036-32.717,18.631
				c-12.693,14.603-26.854,39.78-42.479,75.027c-4.396,10.071-12.451,29.961-24.17,60.172c12.938,7.05,25.879,14.604,38.818,21.902
				c23.926,13.094,45.652,23.667,65.186,31.473c27.1,11.078,50.293,16.617,69.336,17.121c14.648,0.252,27.1-3.524,37.354-11.582
				c8.547-6.797,16.604-23.414,17.822-39.275c0.488-2.77,0.979-4.28,1.709-4.28c0.732,0,1.465,1.511,1.465,4.532
				c0,7.805-1.953,16.113-5.371,24.925c-3.66,8.812-7.566,14.854-12.449,18.631c-2.932,1.763-7.812,4.028-15.139,6.044
				c-8.545,2.519-16.846,3.523-24.9,3.775c-37.354,1.007-96.438-20.646-177.246-64.201c-2.441,7.553-6.592,13.848-12.695,19.387
				c-5.857,5.287-11.719,8.31-17.821,8.562c-12.206,0.252-24.657-6.042-38.087-18.884c-12.206-12.084-19.285-22.406-20.02-31.722
				C931.021,248.246,932.975,245.224,936.881,241.951z M1015.25,271.408c-29.785-14.854-52.246-23.415-67.141-25.681
				c-6.104-0.755-9.275,0.755-9.275,5.539c0,1.762,0.486,3.525,1.221,5.539c4.639,11.078,11.963,20.645,22.461,29.205
				c9.766,7.806,18.799,11.834,27.1,12.086C1001.576,298.347,1010.121,289.536,1015.25,271.408z M1116.755,414.917
				c-8.546-9.818-10.012-22.156-10.012-36.506c0-23.918,9.521-57.907,28.076-101.715c16.357-38.772,33.203-69.992,49.807-94.667
				c2.195-2.518,2.93-4.784,2.93-7.553c0-3.021-1.221-5.288-4.396-7.05c-6.104-2.518-8.058-5.287-6.837-7.805
				c0.979-2.014,10.012-3.021,25.393-3.021c1.221,0-0.732-1.259,0-2.266c15.381-24.925,37.107-49.851,59.326-76.539
				c1.221-1.51,5.857-3.525,13.672-6.546c7.812-2.77,10.01-4.28,13.916-4.28c1.953,0,2.686,1.007,2.686,2.266
				c0,1.007-0.73,1.259-2.439,1.762c-15.381,3.273-40.527,29.709-75.929,79.812c-2.44,3.525-1.952,5.791,1.709,5.791h35.399
				c19.043,0,29.541,0.252,32.229,0.252c1.709,0,2.439,0.251,2.93,0.755c0,0.503-1.953,4.784-4.883,5.035
				c-18.557,0.755-42.48,2.518-72.754,4.028c-2.688,0.503-4.885,2.014-6.104,4.028c-17.09,26.184-32.471,50.857-46.875,81.07
				c-22.705,47.584-35.646,87.112-38.33,118.081c-0.244,4.279-0.244,8.058-0.244,12.086c0,29.205,10.012,43.808,30.029,43.808
				c5.615,0,11.719-0.756,19.043-3.273c20.264-6.545,40.283-21.147,61.279-44.059c20.996-22.912,32.715-43.306,35.398-61.181
				c0-15.609-5.613-22.66-16.355-20.896c-4.884,0.755-8.545,4.027-10.254,4.027c-1.466,0-2.197-1.006-1.953-2.267
				c1.465-2.77,3.662-4.278,12.207-7.806c0.977-0.251,1.953-0.251,2.93-0.251c5.371,0,10.011,3.271,14.895,10.826
				c4.639,7.301,7.323,13.344,6.836,17.118c-2.931,22.156-18.799,46.326-46.631,72.26c-28.076,26.183-52.734,39.778-74.464,39.778
				C1136.041,430.022,1125.3,424.483,1116.755,414.917z M1327.697,173.218c-2.439-0.251-5.127-0.503-7.323-1.259
				c-4.396-0.503-8.788-6.546-8.788-11.833c0-2.014,0.73-3.273,1.709-4.28c8.057-9.063,20.02-15.106,35.889-18.631h0.488
				c9.275-14.351,17.578-26.436,24.9-36.003c37.109-49.095,74.707-80.314,113.037-94.162C1500.549,2.518,1513,0,1525.449,0
				c20.996,0,38.33,6.294,52.246,18.127c13.186,11.582,20.021,25.681,20.021,42.046c0,12.336-4.15,24.17-12.451,35.248
				c-9.033,12.085-22.461,22.66-40.283,31.22c-65.186,31.471-129.395,47.333-192.139,47.333c-6.104,0-11.72,0-17.09-0.251
				c-7.08,12.84-14.404,25.932-21.484,40.283c-15.381,30.716-22.949,54.634-22.705,72.509c0,0.756,0.488,1.512,1.465,2.771
				c1.221,0.252,2.441,0.504,4.15,0.756c0.731,0.251,0.977,0.755,0.488,2.016c-0.488,0.756-0.979,1.51-1.953,1.762
				c-1.709,1.008-3.662,0.504-5.371-1.51c-1.709-2.771-2.931-6.8-2.931-11.582c0-9.819,4.64-27.191,14.159-53.125
				c0.979-3.021,0.732-4.28-1.221-4.28c-0.488,0-0.977,0.251-1.465,1.007c-8.545,10.826-19.531,22.911-33.691,36.003
				c-16.355,15.104-29.784,25.177-40.038,29.457c-0.731,0.252-1.466,0.503-2.44,0.503c-6.104,0-9.033-2.77-9.033-8.561
				c0-11.33,9.521-26.185,28.809-45.066c17.334-16.869,31.982-27.947,44.189-32.73c2.93-1.259,6.348-2.014,10.01-2.014
				c3.418,0,8.059,1.007,13.428,2.518C1316.223,193.359,1322.082,182.785,1327.697,173.218z M1228.088,273.674
				c0,3.524,1.465,5.539,4.148,5.539c1.223,0,2.688-0.504,3.906-1.259c21.24-14.352,41.992-32.73,61.768-56.396
				c1.953-2.518,2.932-4.532,2.932-6.546c0-3.776-2.932-5.791-8.789-5.791c-1.953,0-4.15,0.251-6.348,0.755
				c-8.547,2.014-18.557,9.819-31.25,22.659c-12.695,13.092-20.752,24.925-25.146,35.5
				C1228.574,270.149,1228.088,271.66,1228.088,273.674z M1330.139,169.441c6.592-10.574,12.451-20.645,18.066-29.709
				c-14.16,4.028-24.172,10.575-31.008,18.883c-1.221,1.259-1.709,3.021-1.709,4.532c0,2.77,1.709,4.532,5.371,5.036
				C1323.547,168.686,1326.721,169.189,1330.139,169.441z M1337.949,170.197c4.396,0.252,9.033,0.252,14.404,0.252
				c67.871,0,130.859-17.373,189.209-52.368c33.938-20.142,50.781-41.542,50.781-63.95c0-14.351-6.836-26.436-20.508-36.255
				c-13.674-9.819-29.541-15.106-47.854-15.106c-11.963,0-23.926,2.518-34.912,7.301
				C1436.34,33.234,1386.047,86.357,1337.949,170.197z"/>
		</g>
	</g>
</g>
</svg>
