<svg xmlns="http://www.w3.org/2000/svg" viewBox="0 0 252 73"><defs><style>.a{fill:#72738a;}.b,.c{fill:#454765;}.c{font-size:14px;font-family:TimesNewRomanPS-ItalicMT, Times New Roman;font-style:italic;letter-spacing:0.02em;}</style></defs><g transform="translate(-37.509 23.512)"><g transform="translate(37.509 -23.512)"><path class="a" d="M111.9,34.142c2.111-.253,3.547-.676,4.138-1.436s.929-2.534.929-5.236V6.358c0-1.858-.253-3.125-.929-3.631a7.425,7.425,0,0,0-4.054-1.013V.7H122.2L134.11,26.542,145.764.7h10.3v.929c-1.942.169-3.209.507-3.716,1.013-.591.591-.844,1.773-.844,3.631l.061,23.192c0,1.858.253,3.125.844,3.631s1.773.844,3.716,1.013v.929H141.6V34.11c2.111-.169,3.378-.507,3.885-1.1s.76-1.942.76-4.138l-.061-23.361L132.844,35.071h-.676L119.247,6.7v20.69q0,4.307,1.267,5.574c.507.591,1.773.929,3.631,1.182v.929H111.984v-.929Z" transform="translate(-19.257 -0.513)"/><path class="a" d="M171.7,34.494v-.917a4.342,4.342,0,0,0,3-1.5,45.845,45.845,0,0,0,3.416-6.915L188.78,0h1l12.748,29.078a13.221,13.221,0,0,0,2,3.583,5.1,5.1,0,0,0,2.583.917v.917h-13v-.917a14.816,14.816,0,0,0,2.916-.5c.417-.167.667-.667.667-1.416a6.65,6.65,0,0,0-.25-1.333,18.751,18.751,0,0,0-.667-2L194.7,23.413H181.115c-1.333,3.333-2.166,5.416-2.416,6.166a6.365,6.365,0,0,0-.417,1.75,1.847,1.847,0,0,0,1.083,1.833,9.139,9.139,0,0,0,2.416.417v.917ZM193.78,21.33,187.947,7.249,182.032,21.33Z" transform="translate(-28.641)"/><path class="a" d="M222.1,34.3c1.952-.17,3.139-.509,3.733-1.018s.848-1.7.848-3.648V6.385c0-1.867-.255-3.055-.848-3.648S224.051,1.8,222.1,1.718V.7h14.764v.933c-1.951.085-3.224.424-3.818.933-.679.509-1.018,1.7-1.018,3.394v25.03a2.974,2.974,0,0,0,.255,1.358c.17.339.594.509,1.273.594a6.01,6.01,0,0,0,1.273.085h2.461c4.667,0,7.806-.424,9.418-1.188s3.224-2.715,4.751-5.854h1.358l-2.545,9.079H222.185V34.3Z" transform="translate(-37.225 -0.537)"/><path class="a" d="M265.8,34.3c1.952-.17,3.139-.509,3.733-1.018s.848-1.7.848-3.648V6.385c0-1.867-.254-3.055-.848-3.648S267.752,1.8,265.8,1.718V.7h14.763v.933c-1.951.085-3.224.424-3.818.933-.679.509-1.018,1.7-1.018,3.394v25.03a2.974,2.974,0,0,0,.254,1.358c.17.339.594.509,1.273.594a6.009,6.009,0,0,0,1.273.085h2.461c4.667,0,7.806-.424,9.418-1.188s3.224-2.715,4.751-5.854h1.358l-2.546,9.079H265.885V34.3Z" transform="translate(-44.515 -0.537)"/><path class="b" d="M0,.4H14.486c4.522,0,13.565.754,13.565,8.792,0,5.778-4.522,6.866-6.866,7.452v.084c4.522.921,8.708,3.433,8.708,8.876,0,2.01-1,9.127-12.56,9.127H0v-1c4.354-.084,4.94-1,4.94-4.689V6.01c0-3.852-.754-4.438-4.94-4.689ZM10.3,15.807l4.94-.084c1.423,0,7.62-.084,7.62-6.28s-5.359-7.2-9.043-7.2c-1.089,0-1.842.084-2.345.084-1,0-1.172.754-1.172,1.507Zm0,14.9c0,1.926.921,2.093,3.936,2.093,3.433,0,9.713-.5,9.713-7.452,0-4.27-2.512-5.945-5.275-6.783-1.758-.5-3.433-.754-8.374-.754Z" transform="translate(0 -0.237)"/><path class="b" d="M41.3,38.133A2.708,2.708,0,1,1,43.966,40.8,2.658,2.658,0,0,1,41.3,38.133Z" transform="translate(-6.889 -5.888)"/><path class="b" d="M85.952,34.731H77.578L66.944,18.738l-2.931.084V29.037c0,3.433.5,4.438,4.689,4.689v1H54.3v-1c4.187-.251,4.438-1.34,4.438-5.275V6.01c0-3.852-.754-4.27-4.438-4.689V.4H68.619c4.605,0,14.737,1.089,14.737,9.043,0,6.95-8.29,8.206-10.886,8.708L81.514,31.3a5.607,5.607,0,0,0,4.522,2.428v1ZM64.013,16.98c4.354-.084,13.649-.167,13.649-7.536,0-6.866-8.374-7.034-10.467-7.034-2.763,0-3.182.335-3.182,1.842Z" transform="translate(-9.058 -0.237)"/><path class="b" d="M98.1,38.133a2.708,2.708,0,1,1,2.666,2.666A2.718,2.718,0,0,1,98.1,38.133Z" transform="translate(-16.364 -5.888)"/></g><text class="c" transform="translate(164.093 45.488)"><tspan x="-105.918" y="0">Fashion &amp; Life Style Shopping Mall</tspan></text></g></svg>