<?xml version="1.0" encoding="utf-8"?>
<!-- Generator: Adobe Illustrator 22.1.0, SVG Export Plug-In . SVG Version: 6.00 Build 0)  -->
<svg version="1.1" id="レイヤー_1" xmlns="http://www.w3.org/2000/svg" xmlns:xlink="http://www.w3.org/1999/xlink" x="0px"
	 y="0px" viewBox="0 0 250 43.4" style="enable-background:new 0 0 250 43.4;" xml:space="preserve">
<style type="text/css">
	.st0{fill:#FFFFFF;}
</style>
<g>
	<polygon class="st0" points="21.3,28.5 24.4,28.5 24.4,14.3 29.8,14.3 29.8,11.7 15.9,11.7 15.9,14.3 21.3,14.3 	"/>
	<polygon class="st0" points="35.3,21.2 43.1,21.2 43.1,28.5 46.2,28.5 46.2,11.7 43.1,11.7 43.1,18.6 35.3,18.6 35.3,11.7 
		32.2,11.7 32.2,28.5 35.3,28.5 	"/>
	<polygon class="st0" points="61.6,25.9 53.3,25.9 53.3,21.2 60,21.2 60,18.6 53.3,18.6 53.3,14.3 61.1,14.3 61.1,11.7 50.2,11.7 
		50.2,28.5 61.6,28.5 	"/>
	<path class="st0" d="M74.6,28.8c1,0,2-0.1,2.9-0.3c0.9-0.2,1.6-0.5,2.2-1c0.6-0.4,1.1-1,1.4-1.6c0.3-0.7,0.5-1.4,0.5-2.4
		c0-0.9-0.1-1.6-0.4-2.2c-0.3-0.6-0.7-1-1.2-1.4c-0.5-0.4-1.1-0.6-1.7-0.8c-0.7-0.2-1.3-0.4-2-0.5c-0.5-0.1-0.9-0.2-1.3-0.3
		c-0.4-0.1-0.8-0.3-1.1-0.4c-0.3-0.2-0.6-0.4-0.7-0.7c-0.2-0.3-0.3-0.6-0.3-1.1c0-0.7,0.3-1.3,0.8-1.7C74.2,14.2,75,14,76,14
		c0.7,0,1.5,0.1,2.3,0.2c0.8,0.2,1.6,0.4,2.5,0.7v-2.6c-0.7-0.3-1.4-0.5-2.3-0.7c-0.9-0.2-1.8-0.3-2.7-0.3c-0.9,0-1.7,0.1-2.4,0.3
		c-0.7,0.2-1.3,0.5-1.9,1c-0.5,0.4-1,1-1.3,1.6c-0.3,0.7-0.5,1.4-0.5,2.3c0,0.8,0.1,1.5,0.4,2c0.3,0.5,0.6,1,1.1,1.3
		c0.5,0.3,1,0.6,1.6,0.8c0.6,0.2,1.2,0.4,1.9,0.5c0.5,0.1,1,0.2,1.4,0.3c0.4,0.1,0.9,0.2,1.2,0.4c0.4,0.2,0.6,0.4,0.9,0.6
		c0.2,0.3,0.3,0.6,0.3,1c0,0.5-0.1,0.9-0.3,1.2c-0.2,0.3-0.5,0.6-0.9,0.8c-0.4,0.2-0.8,0.3-1.3,0.4c-0.5,0.1-0.9,0.1-1.4,0.1
		c-0.8,0-1.7-0.1-2.4-0.2c-0.8-0.2-1.6-0.4-2.4-0.8v2.6c0.6,0.3,1.3,0.6,2.2,0.8C72.7,28.8,73.6,28.8,74.6,28.8z"/>
	<polygon class="st0" points="88.9,28.5 91.9,28.5 91.9,14.3 97.4,14.3 97.4,11.7 83.4,11.7 83.4,14.3 88.9,14.3 	"/>
	<path class="st0" d="M101.2,26.4c0.7,0.8,1.6,1.4,2.6,1.8c1,0.4,2.2,0.6,3.5,0.6c1.3,0,2.5-0.2,3.5-0.6c1-0.4,1.9-1,2.6-1.8
		c0.7-0.8,1.2-1.7,1.6-2.8c0.4-1.1,0.5-2.2,0.5-3.5c0-1.3-0.2-2.5-0.5-3.5c-0.4-1.1-0.9-2-1.6-2.8c-0.7-0.8-1.6-1.4-2.6-1.8
		c-1-0.4-2.2-0.6-3.5-0.6c-1.3,0-2.5,0.2-3.5,0.6c-1,0.4-1.9,1-2.6,1.8c-0.7,0.8-1.2,1.7-1.6,2.8c-0.4,1.1-0.5,2.2-0.5,3.5
		c0,1.3,0.2,2.5,0.5,3.5C99.9,24.7,100.5,25.6,101.2,26.4z M102.6,17.4c0.3-0.8,0.6-1.4,1-1.9c0.4-0.5,1-0.9,1.6-1.1
		c0.6-0.3,1.3-0.4,2-0.4c0.7,0,1.4,0.1,2,0.4c0.6,0.3,1.1,0.6,1.6,1.1c0.4,0.5,0.8,1.2,1,1.9c0.3,0.8,0.4,1.7,0.4,2.7
		s-0.1,1.9-0.4,2.7c-0.3,0.8-0.6,1.4-1,1.9c-0.4,0.5-1,0.9-1.6,1.1c-0.6,0.3-1.3,0.4-2,0.4c-0.7,0-1.4-0.1-2-0.4
		c-0.6-0.3-1.1-0.6-1.6-1.1c-0.4-0.5-0.8-1.1-1-1.9c-0.3-0.8-0.4-1.7-0.4-2.7S102.3,18.2,102.6,17.4z"/>
	<path class="st0" d="M121.8,22h2.1l4.6,6.5h3.7l-5-6.9v-0.1c1.4-0.4,2.4-1,3-1.8c0.7-0.8,1-1.8,1-3c0-1.1-0.3-2.1-0.8-2.8
		c-0.5-0.7-1.3-1.3-2.3-1.7c-0.5-0.2-1.1-0.3-1.9-0.4c-0.7-0.1-1.5-0.1-2.4-0.1h-5.1v16.8h3.1V22z M121.8,14.3h2.2
		c0.7,0,1.2,0,1.6,0.1c0.4,0.1,0.8,0.2,1.1,0.3c0.5,0.2,0.8,0.5,1,0.8c0.2,0.3,0.3,0.7,0.3,1.2c0,0.5-0.1,1-0.4,1.4
		c-0.2,0.4-0.7,0.7-1.3,1c-0.3,0.1-0.7,0.2-1.2,0.3c-0.5,0.1-1.1,0.1-1.8,0.1h-1.5V14.3z"/>
	<polygon class="st0" points="146.3,25.9 138,25.9 138,21.2 144.7,21.2 144.7,18.6 138,18.6 138,14.3 145.8,14.3 145.8,11.7 
		134.9,11.7 134.9,28.5 146.3,28.5 	"/>
	<path class="st0" d="M155.7,27.7L155.7,27.7c0.1,0.1,0.2,0.2,0.3,0.3c0.1,0.1,0.3,0.2,0.4,0.3c0.2,0.1,0.4,0.2,0.6,0.3
		c0.2,0.1,0.5,0.1,0.8,0.1c0.4,0,0.8-0.1,1.3-0.3c0.4-0.2,0.8-0.4,1.1-0.8c0.3-0.4,0.6-0.8,0.8-1.3c0.2-0.5,0.3-1.2,0.3-1.9
		c0-0.7-0.1-1.3-0.3-1.8c-0.2-0.5-0.4-0.9-0.8-1.3c-0.3-0.3-0.7-0.6-1.1-0.7c-0.4-0.2-0.8-0.2-1.3-0.2c-0.2,0-0.4,0-0.6,0.1
		c-0.2,0-0.4,0.1-0.6,0.2c-0.2,0.1-0.3,0.1-0.5,0.2c-0.1,0.1-0.3,0.2-0.4,0.3h0c0-0.1,0-0.3,0-0.5c0-0.2,0-0.4,0-0.6v-3.3H154v9.9
		c0,0.3,0,0.6,0,1c0,0.3,0,0.6,0,0.9h1.6L155.7,27.7z M155.9,22.6c0.2-0.2,0.5-0.3,0.8-0.5c0.3-0.1,0.6-0.2,0.9-0.2
		c0.2,0,0.4,0,0.6,0.1c0.2,0.1,0.4,0.2,0.6,0.4c0.2,0.2,0.3,0.5,0.5,0.8c0.1,0.4,0.2,0.8,0.2,1.3c0,0.4,0,0.8-0.1,1.1
		c-0.1,0.3-0.2,0.6-0.4,0.8c-0.2,0.2-0.4,0.4-0.6,0.5c-0.2,0.1-0.5,0.2-0.8,0.2c-0.2,0-0.4,0-0.5-0.1c-0.2-0.1-0.3-0.1-0.4-0.2
		c-0.1-0.1-0.3-0.2-0.4-0.3c-0.1-0.1-0.2-0.2-0.3-0.3V22.6z"/>
	<path class="st0" d="M163.5,32.3h1.9l5.1-11.6h-2.1l-1.2,3c-0.4,1.1-0.7,1.8-0.9,2.2h0c-0.2-0.5-0.5-1.3-0.9-2.4l-1.2-2.8h-2.1
		l3.2,7.4L163.5,32.3z"/>
	<path class="st0" d="M177,23.1c0.1-0.2,0.3-0.3,0.4-0.4c0.2-0.1,0.3-0.2,0.5-0.3c0.2-0.1,0.4-0.2,0.5-0.2c0.2,0,0.4-0.1,0.5-0.1
		c0.3,0,0.6,0.1,0.7,0.2c0.2,0.1,0.3,0.3,0.3,0.6c0,0.1,0,0.2,0.1,0.4c0,0.1,0,0.3,0,0.5v4.8h1.9v-5.4c0.1-0.2,0.3-0.3,0.4-0.4
		c0.2-0.1,0.3-0.2,0.5-0.3c0.2-0.1,0.4-0.2,0.5-0.2c0.2,0,0.3-0.1,0.5-0.1c0.3,0,0.6,0.1,0.7,0.2c0.2,0.1,0.3,0.3,0.3,0.6
		c0,0.1,0,0.2,0.1,0.4c0,0.1,0,0.3,0,0.5v4.8h1.9v-4.9c0-0.2,0-0.4,0-0.6c0-0.2,0-0.4-0.1-0.5c0-0.2-0.1-0.3-0.1-0.4
		c0-0.1-0.1-0.2-0.1-0.3c-0.2-0.4-0.5-0.7-0.9-0.9c-0.4-0.2-0.8-0.3-1.4-0.4c-0.3,0-0.6,0-0.8,0.1c-0.3,0.1-0.5,0.2-0.7,0.3
		c-0.2,0.1-0.4,0.3-0.6,0.4c-0.2,0.2-0.4,0.4-0.5,0.6h0c-0.2-0.5-0.5-0.8-0.9-1.1c-0.4-0.2-0.9-0.3-1.4-0.3c-0.3,0-0.6,0-0.8,0.1
		c-0.3,0.1-0.5,0.2-0.7,0.3c-0.2,0.1-0.4,0.3-0.6,0.4c-0.2,0.2-0.3,0.3-0.4,0.5h0l-0.2-1.1H175v7.8h1.9V23.1z"/>
	<path class="st0" d="M189.5,28.1c0.2,0.2,0.5,0.4,0.8,0.5c0.3,0.1,0.7,0.2,1,0.2c0.3,0,0.5,0,0.8-0.1c0.2-0.1,0.5-0.1,0.6-0.3
		c0.2-0.1,0.4-0.2,0.5-0.3c0.2-0.1,0.3-0.2,0.4-0.3h0l0.1,0.8h1.7c0-0.3,0-0.6,0-1c0-0.4,0-0.8,0-1.3v-3c0-0.4-0.1-0.8-0.2-1.1
		c-0.1-0.3-0.4-0.6-0.6-0.9c-0.3-0.2-0.6-0.4-1.1-0.6c-0.4-0.1-0.9-0.2-1.5-0.2c-0.5,0-0.9,0.1-1.4,0.1c-0.4,0.1-0.9,0.2-1.3,0.4
		v1.5c0.5-0.2,0.9-0.3,1.3-0.4c0.4-0.1,0.8-0.1,1.2-0.1c0.3,0,0.6,0,0.8,0.1c0.2,0.1,0.4,0.2,0.5,0.3c0.1,0.1,0.2,0.3,0.3,0.5
		c0.1,0.2,0.1,0.3,0.1,0.5v0.3c-0.2-0.1-0.5-0.1-0.8-0.2c-0.3,0-0.6-0.1-0.9-0.1c-0.5,0-0.9,0.1-1.3,0.2c-0.4,0.1-0.7,0.3-1,0.5
		c-0.3,0.2-0.5,0.5-0.6,0.8c-0.2,0.3-0.2,0.7-0.2,1.1c0,0.4,0.1,0.7,0.2,1C189.1,27.6,189.3,27.8,189.5,28.1z M191.2,25.3
		c0.3-0.2,0.6-0.3,1.1-0.3c0.2,0,0.5,0,0.7,0.1c0.2,0,0.4,0.1,0.6,0.1v1.2c-0.1,0.1-0.2,0.2-0.3,0.3c-0.1,0.1-0.2,0.2-0.4,0.3
		c-0.1,0.1-0.3,0.1-0.5,0.2c-0.2,0.1-0.4,0.1-0.6,0.1c-0.2,0-0.3,0-0.4-0.1c-0.1,0-0.3-0.1-0.4-0.2c-0.1-0.1-0.2-0.2-0.3-0.3
		c-0.1-0.1-0.1-0.3-0.1-0.5C190.7,25.8,190.9,25.5,191.2,25.3z"/>
	<rect x="197.7" y="16.8" class="st0" width="2" height="2.1"/>
	<rect x="197.7" y="20.7" class="st0" width="1.9" height="7.8"/>
	<path class="st0" d="M202.4,27.8c0.3,0.3,0.7,0.5,1.1,0.7c0.4,0.2,0.8,0.2,1.2,0.2c0.3,0,0.5,0,0.7-0.1c0.2-0.1,0.4-0.1,0.6-0.2
		c0.2-0.1,0.4-0.2,0.5-0.3c0.2-0.1,0.3-0.3,0.4-0.4h0l0.1,0.8h1.7c0-0.3,0-0.6,0-1c0-0.4,0-0.8,0-1.3v-9.4h-1.9v3.3
		c0,0.2,0,0.4,0,0.6c0,0.2,0,0.3,0,0.5h0c-0.1-0.1-0.3-0.2-0.4-0.3c-0.1-0.1-0.3-0.2-0.5-0.2c-0.2-0.1-0.3-0.1-0.5-0.2
		c-0.2,0-0.4-0.1-0.6-0.1c-0.5,0-0.9,0.1-1.3,0.3c-0.4,0.2-0.8,0.5-1.1,0.8c-0.3,0.4-0.6,0.8-0.8,1.4c-0.2,0.5-0.3,1.1-0.3,1.8
		c0,0.7,0.1,1.3,0.3,1.8C201.9,27.1,202.1,27.5,202.4,27.8z M203.6,23.4c0.1-0.3,0.3-0.6,0.5-0.8c0.2-0.2,0.4-0.3,0.6-0.4
		c0.2-0.1,0.4-0.1,0.6-0.1c0.3,0,0.6,0.1,0.9,0.2c0.3,0.1,0.5,0.3,0.8,0.5v3.7c-0.1,0.1-0.2,0.2-0.3,0.3c-0.1,0.1-0.2,0.2-0.4,0.3
		c-0.2,0.1-0.3,0.1-0.5,0.2c-0.2,0-0.3,0.1-0.5,0.1c-0.6,0-1-0.2-1.3-0.7c-0.3-0.4-0.5-1.1-0.5-1.8
		C203.4,24.1,203.4,23.7,203.6,23.4z"/>
	<path class="st0" d="M211.9,27.8c0.4,0.3,0.8,0.5,1.3,0.7c0.5,0.1,1,0.2,1.6,0.2c0.6,0,1.1,0,1.6-0.1c0.5-0.1,0.9-0.2,1.1-0.3v-1.5
		c-0.4,0.1-0.8,0.2-1.2,0.3c-0.4,0.1-0.8,0.1-1.2,0.1c-0.3,0-0.7,0-0.9-0.1c-0.3-0.1-0.5-0.2-0.8-0.3c-0.2-0.2-0.4-0.4-0.5-0.6
		c-0.1-0.3-0.2-0.6-0.2-0.9h5.1c0-0.2,0-0.4,0-0.7c0-0.7-0.1-1.3-0.3-1.8c-0.2-0.5-0.4-0.9-0.7-1.3c-0.3-0.3-0.7-0.6-1.1-0.7
		c-0.4-0.2-0.9-0.2-1.4-0.2c-0.5,0-0.9,0.1-1.4,0.3c-0.4,0.2-0.8,0.4-1.2,0.8c-0.3,0.4-0.6,0.8-0.8,1.3c-0.2,0.5-0.3,1.2-0.3,1.9
		c0,0.7,0.1,1.3,0.3,1.8C211.2,27.1,211.5,27.5,211.9,27.8z M212.9,23c0.1-0.2,0.2-0.4,0.3-0.5c0.1-0.2,0.3-0.3,0.5-0.4
		c0.2-0.1,0.4-0.1,0.6-0.1c0.2,0,0.5,0,0.6,0.1c0.2,0.1,0.3,0.2,0.5,0.4c0.1,0.2,0.2,0.3,0.3,0.5c0.1,0.2,0.1,0.4,0.1,0.7h-3.1
		C212.7,23.4,212.8,23.2,212.9,23z"/>
	<path class="st0" d="M221.5,23.1c0.3-0.3,0.6-0.6,0.9-0.8c0.3-0.2,0.7-0.3,1.1-0.3c0.3,0,0.5,0.1,0.7,0.2c0.2,0.1,0.3,0.3,0.4,0.5
		c0,0.1,0.1,0.2,0.1,0.4c0,0.2,0,0.3,0,0.5v4.8h1.9v-5.1c0-0.3,0-0.5,0-0.7c0-0.2-0.1-0.4-0.1-0.5c-0.1-0.3-0.2-0.6-0.4-0.8
		c-0.2-0.2-0.4-0.4-0.6-0.5c-0.2-0.1-0.5-0.2-0.7-0.3c-0.3-0.1-0.5-0.1-0.8-0.1c-0.3,0-0.6,0-0.9,0.1c-0.3,0.1-0.5,0.2-0.7,0.3
		c-0.2,0.1-0.4,0.3-0.6,0.4c-0.2,0.2-0.3,0.3-0.4,0.5h0l-0.2-1.1h-1.6v7.8h1.9V23.1z"/>
	<path class="st0" d="M230.7,28.7c0.5,0,1-0.1,1.4-0.2c0.4-0.1,0.8-0.3,1.1-0.5c0.3-0.2,0.5-0.5,0.7-0.8c0.2-0.3,0.2-0.7,0.2-1.2
		c0-0.4-0.1-0.7-0.2-1c-0.1-0.3-0.3-0.5-0.5-0.6c-0.2-0.2-0.5-0.3-0.7-0.4c-0.3-0.1-0.5-0.2-0.8-0.2c-0.2,0-0.3-0.1-0.5-0.1
		s-0.4-0.1-0.5-0.2c-0.2-0.1-0.3-0.2-0.4-0.3c-0.1-0.1-0.1-0.3-0.1-0.4c0-0.1,0-0.2,0.1-0.3c0-0.1,0.1-0.2,0.2-0.3
		c0.1-0.1,0.2-0.1,0.4-0.2c0.2,0,0.3-0.1,0.6-0.1c0.2,0,0.4,0,0.6,0c0.2,0,0.4,0.1,0.6,0.1c0.2,0,0.4,0.1,0.6,0.1
		c0.2,0.1,0.4,0.1,0.6,0.2v-1.6c-0.3-0.1-0.7-0.2-1.1-0.3c-0.4-0.1-0.9-0.1-1.4-0.1c-0.4,0-0.8,0.1-1.1,0.2
		c-0.4,0.1-0.7,0.3-0.9,0.5c-0.3,0.2-0.5,0.5-0.6,0.8c-0.2,0.3-0.2,0.7-0.2,1.1c0,0.4,0.1,0.7,0.2,0.9c0.1,0.2,0.3,0.4,0.5,0.6
		c0.2,0.2,0.4,0.3,0.7,0.4c0.3,0.1,0.5,0.2,0.8,0.3c0.2,0.1,0.4,0.1,0.6,0.2c0.2,0.1,0.4,0.1,0.5,0.2c0.2,0.1,0.3,0.2,0.4,0.3
		c0.1,0.1,0.1,0.2,0.1,0.4c0,0.2,0,0.3-0.1,0.4c-0.1,0.1-0.2,0.2-0.4,0.3c-0.1,0.1-0.3,0.1-0.5,0.2c-0.2,0-0.4,0.1-0.7,0.1
		c-0.3,0-0.6,0-1-0.1c-0.4-0.1-0.7-0.2-1.2-0.3v1.5c0.3,0.1,0.6,0.2,1,0.3C229.8,28.7,230.2,28.7,230.7,28.7z"/>
	<path class="st0" d="M0,0v43.4h250V0H0z M249,42.4H1V1h248V42.4z"/>
</g>
</svg>
