<?xml version="1.0" encoding="utf-8"?>
<!-- Generator: Adobe Illustrator 22.1.0, SVG Export Plug-In . SVG Version: 6.00 Build 0)  -->
<svg version="1.1" id="レイヤー_1" xmlns="http://www.w3.org/2000/svg" xmlns:xlink="http://www.w3.org/1999/xlink" x="0px"
	 y="0px" viewBox="0 0 462.9 41.3" style="enable-background:new 0 0 462.9 41.3;" xml:space="preserve">
<style type="text/css">
	.st0{display:none;opacity:0.3;}
	.st1{display:inline;}
	.st2{fill:#040000;}
	.st3{display:inline;fill:#040000;}
	.st4{fill:#FFFFFF;}
</style>
<g class="st0">
	<g class="st1">
		<g>
			<path class="st2" d="M-132.2-118.4v-1.1h15.7v1.1H-132.2z M-135.9-91.5h-6v-53.6h29.4v1.1h-23.4V-91.5z"/>
			<path class="st2" d="M-36.8-118.4c0-15.6-8.6-26.8-21.6-26.8S-80-134-80-118.4c0,11.2,4.5,20.1,11.9,24.2l-0.4,1.9
				c-10.4-3.7-17.9-13.8-17.9-26.1c0-15.6,12.7-27.9,28.3-27.9s28.3,11.9,28.3,27.9s-12.7,27.9-28.3,27.9c-2.2,0-4.1-0.4-6.3-0.7
				l0.4-1.1c1.9,0.4,3.7,0.7,6,0.7C-45.4-91.5-36.8-102.7-36.8-118.4z"/>
			<path class="st2" d="M35.1-91.5h-1.9L4.5-115v23.5h-6v-53.6h14.2c10.1,0,18.6,4.5,18.6,14.5s-8.6,14.5-18.6,14.5h-1.5l-1.5-1.1
				h1.1c10.1,0,14.2-4.5,14.2-13.4S20.5-144,10.8-144h-6v27.6L35.1-91.5z"/>
			<path class="st2" d="M71.6-91.5l0.7-1.1h24.2v1.1H71.6z M67.5-91.5h-6.3L88.8-144H64.5v-1.1h31.3L67.5-91.5z"/>
			<polygon class="st2" points="130.1,-109.4 147.6,-109.4 147.9,-108.3 129.7,-108.3 123,-91.5 121.9,-91.5 143.5,-146.3 
				164.7,-91.5 158.4,-91.5 140.9,-137 			"/>
		</g>
		<g>
			<path class="st2" d="M240.3-141.1c0,0-4.5-3.4-10.4-3.4c-5.6,0-10.4,3.4-10.4,8.6c0,4.8,3.7,7.5,10.8,12.3
				c8.2,5.6,15.3,10.4,15.3,18.6c0,10.4-9.7,14.2-17.5,14.2c-8.6,0-14.5-4.8-14.5-4.8v-2.6c0,0,6,6.3,14.5,6.3
				c7.1,0,11.9-4.1,11.9-10.4c0-5.2-3.4-8.9-11.2-14.5c-8.2-6-14.2-10.1-14.2-16.8c0-8.2,7.8-11.9,15.3-11.9
				c5.6,0,10.1,2.2,10.1,2.2L240.3-141.1z"/>
			<polygon class="st2" points="308.5,-144.1 292.1,-144.1 292.1,-91.5 286.1,-91.5 286.1,-144.1 269.8,-144.1 269.8,-145.2 
				308.5,-145.2 			"/>
			<path class="st2" d="M360.3-119.5l-0.7-1.1l14.2-24.6h1.5L360.3-119.5z M351.3-115.7l-17.5-29.4h6.7l16.8,28.3v25h-6V-115.7
				L351.3-115.7z"/>
			<path class="st2" d="M410.6-91.5v-1.1h16.8v1.1H410.6z M400.9-145.2h6v53.6h-6V-145.2z"/>
			<path class="st2" d="M465.3-91.5v-1.1H485v1.1H465.3z M465.3-118.4v-1.1h15.6v1.1H465.3z M461.6-91.5h-6v-53.6H485v1.1h-23.5
				L461.6-91.5L461.6-91.5z"/>
		</g>
	</g>
</g>
<g class="st0">
	<path class="st3" d="M546.9-88.2H735v-59.2H546.9V-88.2z M737.3-85.9H544.7v-63.7h192.6L737.3-85.9L737.3-85.9z"/>
	<path class="st3" d="M577.8-102.7c-0.7-0.4-0.7-0.4-0.7-1.5c0-2.2,0-4.5,0.4-5.2c0-0.7,0-1.1,0.4-1.1s0.4,0.4,0.4,0.7
		c0,0.4,0,1.5,0.4,1.9c0.7,3,3.4,4.1,5.6,4.1c3.4,0,5.2-2.2,5.2-4.5c0-1.9-0.4-3.7-3.7-6.3l-1.9-1.5c-4.5-3.4-6-6-6-9.3
		c0-4.5,3.7-7.5,8.9-7.5c2.6,0,4.1,0.4,5.2,0.7c0.4,0,0.4,0.4,0.4,0.4c0,0.4,0,1.5,0,4.8c0,0.7,0,1.1-0.4,1.1s-0.4-0.4-0.4-0.7
		s-0.4-1.5-1.1-2.6c-0.7-0.7-1.9-1.9-4.1-1.9c-3,0-4.5,1.5-4.5,4.1c0,1.9,0.7,3.4,4.1,5.6l1.1,0.7c4.8,3.4,6.3,6.3,6.3,10.1
		c0,2.2-0.7,4.8-3.7,6.7c-1.9,1.1-4.1,1.5-6.3,1.5C581.6-101.6,579.7-102,577.8-102.7z"/>
	<path class="st3" d="M626.6-119.1C627-119.1,627-119.5,626.6-119.1l0.4-1.1c0-6,0-7.1,0-8.2c0-1.5-0.4-1.9-1.5-2.2
		c-0.4,0-1.1,0-1.5,0s-0.7,0-0.7-0.4s0.4-0.4,0.7-0.4c2.2,0,4.5,0,5.6,0c0.7,0,3.4,0,4.8,0c0.4,0,0.7,0,0.7,0.4s-0.4,0.4-0.7,0.4
		c-0.4,0-0.7,0-1.1,0c-1.1,0.4-1.5,0.7-1.5,2.2c0,1.1,0,2.2,0,8.2v6.7c0,3.7,0,6.7,0.4,8.2c0,1.1,0.4,1.9,1.5,2.2
		c0.4,0,1.5,0.4,1.9,0.4s0.7,0,0.7,0.4s-0.4,0.4-0.7,0.4c-2.6,0-4.8,0-6,0c-0.7,0-3.4,0-4.8,0c-0.4,0-0.7,0-0.7-0.4s0-0.4,0.7-0.4
		s1.1,0,1.5-0.4c0.7,0,1.1-1.1,1.1-2.2c0.4-1.5,0.4-4.8,0.4-8.2v-3.4c0,0,0-0.4-0.4-0.4h-14.9c0,0-0.4,0-0.4,0.4v3.4
		c0,3.7,0,6.7,0.4,8.2c0,1.1,0.4,1.9,1.5,2.2c0.4,0,1.5,0.4,1.9,0.4s0.7,0,0.7,0.4s-0.4,0.4-0.7,0.4c-2.6,0-4.8,0-6,0
		c-0.7,0-3.4,0-4.8,0c-0.4,0-0.7,0-0.7-0.4s0.4-0.4,0.7-0.4c0.7,0,1.1,0,1.5-0.4c0.7,0,1.1-1.1,1.1-2.2c0.4-1.5,0.4-4.8,0.4-8.2
		v-6.7c0-6,0-7.1,0-8.2c0-1.5-0.4-1.9-1.5-2.2c-0.4,0-1.1,0-1.5,0s-0.7,0-0.7-0.4s0.4-0.4,0.7-0.4c2.2,0,4.5,0,5.6,0
		c0.7,0,3.4,0,4.8,0c0.4,0,0.7,0,0.7,0.4s-0.4,0.4-0.7,0.4c-0.4,0-0.7,0-1.1,0c-1.1,0.4-1.5,0.7-1.5,2.2c0,1.1,0,2.2,0,8.2v0.7
		c0,0.4,0,0.4,0.4,0.4H626.6L626.6-119.1z"/>
	<path class="st3" d="M669.8-116.1c0-8.6-5.2-14.2-11.5-14.2c-4.5,0-9.7,2.6-9.7,12.3c0,8.2,4.5,14.5,11.9,14.5
		C663.5-103.5,669.8-104.9,669.8-116.1z M643.4-116.9c0-6.7,4.5-15.3,16-15.3c9.7,0,15.6,5.6,15.6,14.5s-6.3,16-16,16
		C647.9-101.6,643.4-110.2,643.4-116.9z"/>
	<path class="st3" d="M687-120.2c0-6,0-7.1,0-8.2c0-1.5-0.4-1.9-1.9-2.2c-0.4,0-1.1,0-1.5,0s-0.7,0-0.7-0.4s0.4-0.4,0.7-0.4
		c2.2,0,4.5,0,5.6,0c1.5,0,3.7,0,5.6,0c4.8,0,6.7,1.5,7.5,2.2c0.7,0.7,1.9,2.6,1.9,4.5c0,5.6-4.1,9.3-9.7,9.3c-0.4,0-0.7,0-0.7,0
		s-0.4,0-0.4-0.4s0.4-0.4,1.1-0.4c2.2,0,5.2-2.6,5.2-6.3c0-1.5,0-4.1-2.2-6c-1.5-1.1-3-1.5-3.7-1.5s-1.1,0-1.5,0.4
		c-0.4,0-0.4,0.4-0.4,0.7v15.6c0,3.7,0,6.7,0.4,8.2c0,1.1,0.4,1.9,1.5,2.2c0.4,0,1.5,0.4,1.9,0.4s0.7,0,0.7,0.4s-0.4,0.4-0.7,0.4
		c-2.6,0-5.2,0-6,0c-0.7,0-3.4,0-4.8,0c-0.4,0-0.7,0-0.7-0.4s0.4-0.4,0.7-0.4c0.7,0,1.1,0,1.5-0.4c0.7,0,1.1-1.1,1.1-2.2
		c0.4-1.5,0.4-4.8,0.4-8.2L687-120.2L687-120.2z"/>
</g>
<g>
	<g>
		<path class="st4" d="M197,21.8c-0.9-0.7-1.8-1.2-2.8-1.6c-0.9-0.5-1.8-0.7-2.4-1.1l-6-2.3c-0.9-0.4-1.8-0.7-2.4-1.1
			c-0.9-0.4-1.6-0.9-2.3-1.4c-0.7-0.5-1.2-1.2-1.6-2.2c-0.4-0.9-0.9-2.2-0.9-3.9c0-1.4,0.5-2.8,1.1-3.9c0.5-0.9,1.2-1.8,2.2-2.3
			c0.9-0.5,1.8-1.1,2.7-1.2c0.9-0.1,1.8-0.4,2.7-0.4c1.4,0,2.7,0.4,3.7,0.9c1.1,0.5,1.9,1.4,2.8,2.3c0.7,0.9,1.4,2.2,1.8,3.4
			c0.5,1.2,0.9,2.4,1.1,3.9h0.5v-10h-0.7C196.4,1.4,196,1.8,196,2c-0.1,0.1-0.4,0.1-0.9,0.1s-0.9-0.1-1.4-0.4
			c-0.6-0.2-0.9-0.5-1.6-0.7c-0.5-0.4-1.2-0.5-1.9-0.7c-0.7-0.2-1.8-0.4-2.8-0.4c-1.6,0-3.4,0.1-4.6,0.9c-1.4,0.5-2.4,1.4-3.4,2.4
			c-0.9,1-1.8,2.3-2.3,3.7c-0.5,1.4-0.7,3-0.7,4.6c0,2.4,0.9,4.1,2.3,5.7s3.4,2.8,6,3.7l5.7,2.3c0.7,0.1,1.9,0.9,2.2,0.9
			c0.7,0.4,1.6,0.9,2.3,1.6c0.7,0.7,1.2,1.4,1.6,2.3s0.7,1.8,0.7,3c0,0.9-0.1,2.3-0.4,3.4c-0.2,1.1-0.9,2.2-1.6,3
			c-0.7,0.9-1.6,1.6-2.7,2.3c-1.1,0.5-2.4,0.9-4.2,0.9c-0.7,0-1.2,0-1.9,0c-0.7,0-1.4-0.1-2.3-0.4c-0.7-0.1-1.6-0.5-2.3-1.1
			c-0.7-0.5-1.4-1.2-2.2-2.2c-0.7-0.9-1.4-1.9-1.9-3.4c-0.5-1.4-1.1-3-1.4-5.1h-0.8v12h0.7c0.1-0.4,0.4-0.7,0.5-0.9
			c0.1-0.1,0.5-0.4,1.1-0.4c0.5,0,1.2,0.1,1.9,0.5c0.7,0.4,1.4,0.5,2.2,0.7c0.5,0.1,1.1,0.4,1.6,0.4c0.5,0.1,0.9,0.1,1.4,0.1
			c0.6,0,0.9,0.1,1.4,0.1s1.1,0,1.8,0c1.9,0,3.7-0.4,5.3-1.1c1.6-0.7,2.8-1.8,3.9-2.8c1.1-1.2,1.9-2.7,2.4-4.2
			c0.5-1.5,0.9-3,0.9-4.6c0-1.9-0.4-3.4-0.9-4.1C198.6,23.1,198,22.5,197,21.8z"/>
		<path class="st4" d="M206.2,16.2h0.5c0.5-1.9,1.1-3.4,1.8-4.6c0.7-1.2,1.4-1.9,2.2-2.4c0.7-0.5,1.6-0.9,2.3-0.9
			c0.7-0.1,1.4-0.1,1.9-0.1h2.7v32.5h-5v0.7h14.5v-0.7h-5V8.3h2.7c0.5,0,1.2,0,1.9,0.1c0.7,0.1,1.6,0.4,2.3,0.9
			c0.7,0.5,1.4,1.2,2.2,2.4c0.7,1.1,1.2,2.7,1.8,4.6h0.5V7.7h-27.4v8.5H206.2L206.2,16.2z"/>
		<polygon class="st4" points="261.3,8.2 265.8,8.2 257.2,24.8 248.3,8.2 252.8,8.2 252.8,7.5 239.1,7.5 239.1,8.2 243.1,8.2 
			253.2,27 253.2,40.8 248.3,40.8 248.3,41.3 262.8,41.3 262.8,40.8 257.8,40.8 257.8,25.5 266.4,8.2 270.9,8.2 270.9,7.5 
			261.3,7.5 		"/>
		<path class="st4" d="M300.6,38.1c-1.4,1.8-3.5,2.7-6.2,2.7h-8V8.3h5V7.6h-14.5v0.7h5v32.5h-5v0.7h27.4V31.1h-0.5
			C303,33.9,301.9,36.3,300.6,38.1z"/>
		<path class="st4" d="M336.8,30.9c-0.1,0.7-0.4,1.6-0.7,2.8c-0.4,1.1-0.9,2.2-1.6,3.2c-0.7,1.1-1.6,1.9-2.7,2.7
			c-1.1,0.7-2.4,1.1-4.1,1.1h-8.5V24.3h8.5v2.4h0.9V21h-0.9v2.2h-8.5v-15h7.4c1.2,0,2.3,0.1,3.2,0.5c0.9,0.4,1.6,0.9,2.3,1.4
			c0.7,0.7,1.2,1.4,1.6,2.3c0.5,0.9,0.9,1.9,1.2,3.2h0.5V7.5h-25.6v0.7h5v32.5h-5v0.7h27.4V31L336.8,30.9L336.8,30.9z"/>
	</g>
	<g>
		<path class="st4" d="M126.2,35.5c-0.7,1.2-1.2,2.3-1.9,2.8c-0.5,0.7-1.2,1.2-2.2,1.6c-0.7,0.5-1.9,0.7-3.4,0.7h-9.5l18.2-32.7
			h-20.7v8.2h0.5c0.5-2.3,1.6-4.2,2.8-5.5c1.2-1.2,3.2-1.9,5.5-1.9h6.7l-18,32.7H128V31.1h-0.5C127.4,32.7,126.9,34.2,126.2,35.5z"
			/>
		<path class="st4" d="M150.4,7.2h-1.1l-11.7,33.6h-3.4v0.5h8.9v-0.7h-4.7l4.6-13.1h10l4.6,13.1h-4.7v0.7h12.9v-0.7h-3.5L150.4,7.2z
			 M143.1,27l4.7-13.6l4.7,13.6H143.1z"/>
		<path class="st4" d="M0,3.1h5.3v37.5H0v0.7h15.4v-0.7h-5.3V20.4h9.2v2.2h0.9v-5.1h-0.9v2.2h-9.2V3.2h8c1.2,0,2.4,0.1,3.4,0.5
			c0.9,0.4,1.8,0.9,2.3,1.6C24.5,6,25,6.9,25.6,8s0.9,2.3,1.4,3.7h0.5V2.2H0.3v1.1L0,3.1L0,3.1z"/>
		<path class="st4" d="M88.5,24.8c6.4-0.5,6.7-6.7,6.7-8.5l0,0v-0.4l0,0c0-1.8-0.4-7-6.5-7.8h-0.4C86.1,8,76.1,8,75.7,8h-7.8v0.7
			h4.2v32h-4.2v0.5h12.9v-0.7h-4.2V24.8h8.1l6.4,15.7H87v0.7h11.8v-0.7h-4.1L88.5,24.8z M83.2,24.3h-6.4V8.6h6.4h2.2h0.1
			c0,0,4.7,0.7,4.7,6v1.9v1.8c0.4,3.5-2.3,5.5-3.7,6c-0.5,0.1-1.1,0.1-1.8,0.1L83.2,24.3L83.2,24.3z"/>
		<path class="st4" d="M58.3,11.9c-1.4-1.6-3.2-2.8-5.1-3.7C51.3,7.3,49.3,7,47.4,7c-1.9,0-3.7,0.4-5.7,1.2
			c-1.9,0.9-3.5,2.2-5.1,3.7c-1.4,1.6-2.7,3.4-3.7,5.5c-0.9,2.2-1.4,4.5-1.4,6.9c0,2.3,0.4,4.5,1.2,6.5c0.7,2.2,1.9,3.9,3.4,5.5
			c1.4,1.6,3,2.8,5,3.9c1.9,0.9,4.1,1.4,6.4,1.4s4.2-0.5,6.2-1.4c1.9-1.1,3.5-2.3,5-3.9c1.4-1.6,2.4-3.5,3.4-5.5
			c0.9-1.9,1.2-4.2,1.2-6.4c0-2.4-0.5-4.7-1.4-6.9C60.9,15.3,59.9,13.3,58.3,11.9z M57.4,31.6c-0.4,2.2-0.9,3.9-1.8,5.1
			c-0.9,1.4-1.9,2.4-3.4,3.2c-1.4,0.7-3,1.1-5,1.1c-1.9,0-3.7-0.4-5-1.1c-1.4-0.7-2.4-1.8-3.4-3.2c-0.9-1.4-1.4-3.2-1.8-5.1
			c-0.4-2.2-0.5-4.5-0.5-7.2c0-2.2,0.1-4.2,0.4-6.2c0.4-1.9,0.9-3.7,1.6-5.3s1.8-2.8,3.2-3.7c1.4-0.9,3.2-1.4,5.5-1.4
			s4.1,0.5,5.5,1.4s2.4,2.2,3.2,3.7c0.7,1.6,1.2,3.4,1.6,5.3s0.4,4.1,0.4,6.2C58.1,27,57.9,29.4,57.4,31.6z"/>
	</g>
</g>
<g>
	<g>
		<path class="st4" d="M378.5,32.4c-0.3-0.1-0.4-0.3-0.4-0.6c0-1.1,0.1-2.4,0.1-2.7c0-0.3,0.1-0.4,0.3-0.4c0.1,0,0.1,0.1,0.1,0.3
			c0,0.3,0.1,0.6,0.1,1.1c0.4,1.6,1.7,2,3,2c1.9,0,2.8-1.3,2.8-2.4c0-1-0.3-2-2-3.3l-1-0.8c-2.4-1.7-3.1-3.3-3.1-4.9
			c0-2.4,1.9-4,4.9-4c1.4,0,2.2,0.1,2.8,0.3c0.1,0,0.3,0.1,0.3,0.3c0,0.3-0.1,1-0.1,2.5c0,0.4,0,0.6-0.1,0.6s-0.1-0.1-0.1-0.3
			s-0.1-0.8-0.4-1.4c-0.3-0.4-1-1-2.2-1c-1.6,0-2.5,1-2.5,2.2c0,1,0.4,1.7,2.2,3l0.6,0.4c2.5,1.9,3.4,3.3,3.4,5.4
			c0,1.3-0.4,2.7-1.9,3.6c-1.1,0.6-2.2,0.8-3.3,0.8C380.4,33,379.4,32.8,378.5,32.4z"/>
		<path class="st4" d="M404.4,23.6C404.4,23.6,404.6,23.6,404.4,23.6l0.1-0.6c0-3.1,0-3.8,0-4.4s-0.1-1.1-1-1.3c-0.1,0-0.4,0-0.8,0
			c-0.1,0-0.3,0-0.3-0.1c0-0.1,0.1-0.1,0.4-0.1c1.1,0,2.4,0,3,0c0.4,0,1.7,0,2.7,0c0.3,0,0.4,0,0.4,0.1c0,0.1-0.1,0.1-0.3,0.1
			c-0.1,0-0.3,0-0.6,0c-0.6,0.1-0.8,0.4-0.8,1.3c0,0.6,0,1.3,0,4.4v3.6c0,1.9,0,3.6,0.1,4.4c0,0.6,0.1,1.1,0.8,1.1
			c0.3,0,0.8,0.1,1.1,0.1c0.1,0,0.3,0,0.3,0.1s-0.1,0.1-0.4,0.1c-1.4,0-2.7,0-3.3,0c-0.4,0-1.7,0-2.7,0c-0.3,0-0.4,0-0.4-0.1
			s0.1-0.1,0.3-0.1c0.3,0,0.6,0,0.8-0.1c0.4-0.1,0.4-0.4,0.6-1.1c0.1-1,0.1-2.5,0.1-4.4v-1.9c0-0.1,0-0.1-0.1-0.1h-7.9
			c0,0-0.1,0-0.1,0.1v1.9c0,1.9,0,3.6,0.1,4.4c0,0.6,0.1,1.1,0.8,1.1c0.3,0,0.8,0.1,1.1,0.1c0.1,0,0.3,0,0.3,0.1s-0.1,0.1-0.4,0.1
			c-1.4,0-2.7,0-3.3,0c-0.4,0-1.7,0-2.7,0c-0.3,0-0.4,0-0.4-0.1s0.1-0.1,0.3-0.1c0.3,0,0.6,0,0.8-0.1c0.4-0.1,0.4-0.4,0.6-1.1
			c0.1-1,0.1-2.5,0.1-4.4v-3.6c0-3.1,0-3.8,0-4.4s-0.1-1.1-1-1.3c-0.1,0-0.4,0-0.8,0c-0.1,0-0.3,0-0.3-0.1c0-0.1,0.1-0.1,0.4-0.1
			c1.1,0,2.4,0,3,0c0.4,0,1.7,0,2.7,0c0.3,0,0.4,0,0.4,0.1c0,0.1-0.1,0.1-0.3,0.1c-0.1,0-0.3,0-0.6,0c-0.6,0.1-0.8,0.4-0.8,1.3
			c0,0.6,0,1.3,0,4.4v0.4c0,0.1,0,0.1,0.1,0.1L404.4,23.6L404.4,23.6z"/>
		<path class="st4" d="M413.4,24.8c0-3.6,2.4-8.2,8.6-8.2c5.2,0,8.4,3,8.4,7.7s-3.3,8.5-8.6,8.5C415.7,33,413.4,28.4,413.4,24.8z
			 M427.4,25.3c0-4.7-2.7-7.5-6.1-7.5c-2.4,0-5,1.3-5,6.4c0,4.2,2.4,7.7,6.4,7.7C424,31.9,427.4,31.3,427.4,25.3z"/>
		<path class="st4" d="M436.5,22.9c0-3.1,0-3.8,0-4.4s-0.1-1.1-1-1.3c-0.1,0-0.4,0-0.8,0c-0.1,0-0.3,0-0.3-0.1
			c0-0.1,0.1-0.1,0.4-0.1c1.1,0,2.4,0,3,0c0.8,0,2,0,3,0c2.7,0,3.4,1,4,1.3c0.4,0.4,1.1,1.4,1.1,2.5c0,3-2.2,5-5,5
			c-0.1,0-0.3,0-0.4,0s-0.3,0-0.3-0.1c0-0.1,0.1-0.1,0.6-0.1c1.1,0,2.8-1.3,2.8-3.4c0-0.6,0-2-1.3-3.1c-0.8-0.6-1.6-0.8-2-0.8
			c-0.3,0-0.6,0-0.8,0.1c-0.1,0-0.1,0.1-0.1,0.4v8.4c0,1.9,0,3.6,0.1,4.4c0,0.6,0.1,1.1,0.8,1.1c0.3,0,0.8,0.1,1.1,0.1
			c0.1,0,0.3,0,0.3,0.1c0,0.1-0.1,0.1-0.4,0.1c-1.4,0-2.7,0-3.1,0s-1.7,0-2.7,0c-0.3,0-0.4,0-0.4-0.1c0-0.1,0.1-0.1,0.3-0.1
			c0.3,0,0.6,0,0.8-0.1c0.4-0.1,0.4-0.4,0.6-1.1c0.1-1,0.1-2.5,0.1-4.4V23h-0.3V22.9z"/>
	</g>
	<path class="st4" d="M462.9,41.3H360.4V7.5h102.5V41.3z M361.7,40.2h100.1V8.8H361.7V40.2z"/>
</g>
</svg>
