<svg xmlns="http://www.w3.org/2000/svg" viewBox="0 0 28 32"><defs><style>.a{fill:#707070;}</style></defs><path class="a" d="M26.7,7.2A35.405,35.405,0,0,0,24,4a23.828,23.828,0,0,0-3.1-2.7C19.2.1,18.4,0,18,0H2.5A2.476,2.476,0,0,0,0,2.5v27A2.476,2.476,0,0,0,2.5,32h23A2.476,2.476,0,0,0,28,29.5V10C28,9.6,27.9,8.8,26.7,7.2ZM22.5,5.5c1,1,1.7,1.8,2.3,2.5H20V3.2A16.4,16.4,0,0,1,22.5,5.5Zm3.5,24a.472.472,0,0,1-.5.5H2.5a.472.472,0,0,1-.5-.5V2.5A.472.472,0,0,1,2.5,2H18V9a.945.945,0,0,0,1,1h7Z"/><path class="a" d="M21,26H7a1,1,0,0,1,0-2H21a1,1,0,0,1,0,2Z"/><path class="a" d="M21,22H7a1,1,0,0,1,0-2H21a1,1,0,0,1,0,2Z"/><path class="a" d="M21,18H7a1,1,0,0,1,0-2H21a1,1,0,0,1,0,2Z"/></svg>