<?xml version="1.0" encoding="utf-8"?>
<!-- Generator: Adobe Illustrator 22.1.0, SVG Export Plug-In . SVG Version: 6.00 Build 0)  -->
<svg version="1.1" xmlns="http://www.w3.org/2000/svg" xmlns:xlink="http://www.w3.org/1999/xlink" x="0px" y="0px"
	 viewBox="0 0 233.9 32.1" style="enable-background:new 0 0 233.9 32.1;" xml:space="preserve">
<style type="text/css">
	.st0{fill:#FFFFFF;}
</style>
<g>
	<path class="st0" d="M26.6,31.7c-0.4-0.1-0.8-0.1-1.1-0.1c-0.4,0-0.7,0-1.1,0c-0.4,0-0.8,0-1.1,0c-0.4,0-0.7,0-1.1,0.1
		c-0.2-0.6-0.5-1.4-0.8-2.3c-0.3-0.9-0.7-1.9-1.1-2.9c-0.4-1-0.8-2-1.2-3c-0.4-1-0.8-2-1.2-2.9c-0.9,0-1.8,0-2.7-0.1
		c-0.9,0-1.8,0-2.8,0c-0.9,0-1.7,0-2.6,0c-0.8,0-1.7,0-2.6,0.1c-0.9,2.2-1.7,4.3-2.4,6.2c-0.7,2-1.3,3.6-1.6,4.9
		c-0.5-0.1-1-0.1-1.6-0.1c-0.6,0-1.1,0-1.6,0.1c2.3-4.9,4.5-9.8,6.6-14.6c2.2-4.8,4.3-9.8,6.5-14.8H14c0.7,1.6,1.4,3.4,2.2,5.3
		c0.8,1.9,1.6,3.8,2.4,5.7c0.8,1.9,1.6,3.9,2.4,5.8c0.8,1.9,1.6,3.7,2.3,5.3c0.7,1.6,1.4,3.1,1.9,4.4C25.8,30.1,26.3,31,26.6,31.7z
		 M8,18.6c0.7,0,1.5,0,2.3,0c0.8,0,1.5,0,2.3,0c0.8,0,1.6,0,2.4,0c0.8,0,1.6,0,2.4-0.1L12.6,7.9L8,18.6z"/>
	<path class="st0" d="M31.6,9c0-1.1,0-2.2-0.1-3.3c0-1.1-0.1-2.1-0.1-3.1c0-1-0.1-1.8-0.1-2.5c0.8,0.1,1.4,0.2,1.9,0.2
		c0.5,0,1.1-0.1,1.9-0.2C35,0.7,35,1.5,34.9,2.5c0,1-0.1,2-0.1,3.1c0,1.1,0,2.2-0.1,3.3c0,1.1,0,2.2,0,3.1v7.6c0,1,0,2,0,3.1
		c0,1.1,0,2.2,0.1,3.3c0,1.1,0.1,2.1,0.1,3.1c0,1,0.1,1.8,0.1,2.4c-0.6-0.1-1.3-0.1-1.9-0.1c-0.6,0-1.2,0-1.9,0.1
		c0.1-0.6,0.1-1.5,0.1-2.4c0-1,0.1-2,0.1-3.1c0-1.1,0-2.2,0.1-3.3c0-1.1,0-2.2,0-3.1v-7.6C31.6,11.2,31.6,10.1,31.6,9z"/>
	<path class="st0" d="M46,6.1c-0.1,1.1-0.1,2.1-0.2,3.1c0,1-0.1,2.1-0.1,3.1c0.3,0,0.9,0,1.7,0c0.8,0,1.8,0,2.7-0.1
		c0,0.1,0,0.2,0,0.5v0.4v0.5c0,0.2,0,0.3,0,0.4c-0.4,0-0.7,0-1.1-0.1c-0.4,0-0.8,0-1.3,0h-2.1c0,0.1-0.1,0.6-0.1,1.3
		c0,0.8-0.1,1.7-0.1,2.8c0,1.1,0,2.2-0.1,3.4c0,1.2,0,2.2,0,3.2c0,0.8,0,1.6,0.1,2.3c0,0.8,0.2,1.4,0.4,2c0.2,0.6,0.6,1.1,1,1.5
		c0.4,0.4,1.1,0.5,1.9,0.5c0.2,0,0.5,0,0.9-0.1c0.4-0.1,0.7-0.1,1-0.2v1c-0.5,0.1-1,0.2-1.6,0.3c-0.6,0.1-1.1,0.2-1.7,0.2
		c-1.8,0-3.1-0.4-3.9-1.3c-0.8-0.9-1.3-2.1-1.3-3.8c0-0.8,0-1.6,0-2.5c0-0.9,0.1-1.8,0.1-2.9c0-1.1,0.1-2.2,0.1-3.5
		c0-1.3,0-2.7,0-4.3h-1.3c-0.2,0-0.5,0-0.7,0c-0.3,0-0.5,0-0.8,0.1c0-0.2,0-0.3,0.1-0.5c0-0.2,0-0.3,0-0.5c0-0.1,0-0.3,0-0.4
		c0-0.1,0-0.3-0.1-0.4c1.3,0.1,2.2,0.1,2.8,0.1c0-0.6,0-1.3-0.1-2.1c0-0.8,0-1.7-0.1-2.6l3.5-1.5H46z"/>
	<path class="st0" d="M52.2,21.8c0-1.9,0.3-3.5,0.9-4.9c0.6-1.3,1.4-2.4,2.4-3.2c1-0.8,2.1-1.4,3.3-1.8c1.2-0.4,2.4-0.6,3.6-0.6
		c1.2,0,2.5,0.2,3.7,0.6c1.2,0.4,2.3,1,3.3,1.8c1,0.8,1.8,1.9,2.4,3.2c0.6,1.3,0.9,3,0.9,4.9c0,1.9-0.3,3.5-0.9,4.9
		c-0.6,1.3-1.4,2.4-2.4,3.2c-1,0.8-2.1,1.4-3.3,1.7c-1.2,0.3-2.4,0.5-3.7,0.5c-1.2,0-2.4-0.2-3.6-0.5c-1.2-0.3-2.3-0.9-3.3-1.7
		c-1-0.8-1.8-1.9-2.4-3.2C52.5,25.3,52.2,23.7,52.2,21.8z M55.9,21.8c0,1.2,0.1,2.3,0.3,3.4c0.2,1.1,0.6,2.1,1.1,2.9
		c0.5,0.9,1.2,1.5,2,2c0.8,0.5,1.9,0.8,3.1,0.8c1.2,0,2.3-0.3,3.1-0.8c0.8-0.5,1.5-1.2,2-2c0.5-0.9,0.9-1.8,1.1-2.9
		c0.2-1.1,0.3-2.2,0.3-3.4c0-1.2-0.1-2.3-0.3-3.4c-0.2-1.1-0.6-2.1-1.1-2.9c-0.5-0.9-1.2-1.5-2-2c-0.8-0.5-1.9-0.8-3.1-0.8
		c-1.2,0-2.3,0.3-3.1,0.8c-0.8,0.5-1.5,1.2-2,2c-0.5,0.9-0.9,1.8-1.1,2.9C56,19.5,55.9,20.6,55.9,21.8z"/>
	<path class="st0" d="M87.3,22.4c0-3.4,0.8-6.2,2.5-8.1c1.6-2,4-2.9,7.2-2.9c1.5,0,2.8,0.2,3.8,0.7c1.1,0.5,2,1.1,2.7,1.9
		c0.7,0.8,1.3,1.7,1.6,2.7c0.4,1,0.5,2.1,0.5,3.3c0,0.3,0,0.6,0,0.8c0,0.3,0,0.5-0.1,0.8c-1.5,0-3-0.1-4.5-0.1c-1.5,0-3,0-4.5,0
		c-0.9,0-1.8,0-2.8,0c-0.9,0-1.8,0.1-2.8,0.1c0,0.1,0,0.4,0,0.6v0.5c0,1.1,0.2,2.1,0.5,3.1c0.3,1,0.8,1.8,1.4,2.5
		c0.6,0.7,1.4,1.2,2.3,1.6c0.9,0.4,1.9,0.6,3.1,0.6c0.6,0,1.1-0.1,1.7-0.2c0.6-0.2,1.2-0.4,1.7-0.6c0.6-0.3,1.1-0.6,1.6-0.9
		c0.5-0.4,0.9-0.8,1.3-1.2l0.2,0.1l-0.3,2.1c-0.8,0.7-1.9,1.2-3.1,1.7c-1.2,0.5-2.5,0.7-3.9,0.7c-1.5,0-2.9-0.2-4.1-0.7
		c-1.2-0.5-2.3-1.1-3.2-2c-0.9-0.9-1.6-1.9-2.1-3.1C87.5,25.1,87.3,23.8,87.3,22.4z M97,12.7c-1,0-1.9,0.2-2.6,0.7
		c-0.7,0.5-1.3,1.1-1.8,1.8c-0.5,0.7-0.8,1.5-1.1,2.4c-0.2,0.9-0.4,1.7-0.4,2.4c0.9,0,1.8,0.1,2.7,0.1c0.9,0,1.9,0,2.8,0
		c0.9,0,1.9,0,2.8,0c1,0,1.9-0.1,2.8-0.1c0-0.8-0.1-1.6-0.2-2.4c-0.1-0.8-0.4-1.6-0.8-2.4c-0.4-0.7-0.9-1.3-1.6-1.8
		C99,12.9,98.1,12.7,97,12.7z"/>
	<path class="st0" d="M122.6,13.7c0-1.9,0-3.7-0.1-5.4c-0.1-1.8-0.1-3.6-0.2-5.4c1.1,0.1,2.1,0.1,3.2,0.1c1.1,0,2.1,0.1,3.2,0.1
		c1.1,0,2.1,0,3.2-0.1c1.1-0.1,2.1-0.1,3.2-0.1c2.5,0,4.6,0.3,6.3,1c1.8,0.6,3.2,1.6,4.3,2.8c1.1,1.2,1.9,2.6,2.5,4.4
		c0.5,1.7,0.8,3.7,0.8,5.8c0,2.8-0.5,5.2-1.5,7.1c-1,1.9-2.2,3.5-3.7,4.6c-1.5,1.2-3.2,2-5,2.5c-1.8,0.5-3.5,0.7-5.2,0.7
		c-1,0-1.9,0-2.8,0c-0.9,0-1.9,0-2.8,0c-1,0-1.9,0-2.8,0c-0.9,0-1.9,0-2.8,0.1c0.1-1.7,0.2-3.5,0.2-5.3c0.1-1.8,0.1-3.6,0.1-5.5
		V13.7z M126.1,20.9c0,3,0.1,6,0.3,8.9c0.6,0.1,1.4,0.2,2.4,0.3c1,0.1,2,0.1,3.1,0.1c1.5,0,3.1-0.2,4.6-0.5c1.5-0.4,2.9-1.1,4.1-2.1
		c1.2-1,2.2-2.4,3-4.1c0.8-1.8,1.2-4,1.2-6.8c0-2.4-0.3-4.4-0.9-6c-0.6-1.6-1.4-2.8-2.5-3.7c-1.1-0.9-2.3-1.5-3.8-1.9
		c-1.5-0.4-3.1-0.5-4.8-0.5c-1.3,0-2.4,0-3.5,0.1c-1.1,0.1-2.1,0.2-2.9,0.3c-0.1,1.3-0.1,2.8-0.2,4.2c0,1.5-0.1,3-0.1,4.5V20.9z"/>
	<path class="st0" d="M154.9,4.4c0-0.6,0.2-1.1,0.6-1.5c0.4-0.4,0.9-0.6,1.5-0.6c0.6,0,1.1,0.2,1.5,0.6c0.4,0.4,0.6,0.9,0.6,1.5
		c0,0.6-0.2,1.1-0.6,1.5c-0.4,0.4-0.9,0.6-1.5,0.6c-0.6,0-1.1-0.2-1.5-0.6C155.1,5.5,154.9,5,154.9,4.4z M155.5,19.6
		c0-1.3,0-2.6-0.1-4c0-1.4-0.1-2.7-0.3-3.9c0.8,0.1,1.4,0.2,1.9,0.2c0.5,0,1.1-0.1,1.9-0.2c-0.1,1.2-0.2,2.5-0.3,3.9s-0.1,2.7-0.1,4
		V24c0,1.3,0,2.6,0.1,4c0,1.4,0.1,2.6,0.3,3.8c-0.6-0.1-1.3-0.1-1.9-0.1c-0.6,0-1.2,0-1.9,0.1c0.1-1.1,0.2-2.4,0.3-3.8
		c0-1.4,0.1-2.7,0.1-4V19.6z"/>
	<path class="st0" d="M174.9,14.7c-0.4-0.1-0.8-0.2-1.2-0.2c-0.7,0-1.3,0.2-1.8,0.5c-0.5,0.3-1,0.7-1.3,1.2
		c-0.4,0.5-0.6,1.1-0.8,1.9c-0.2,0.7-0.3,1.5-0.3,2.3V25c0,1.9,0,3.3,0,4.3c0,1,0.1,1.8,0.1,2.4c-0.6-0.1-1.1-0.1-1.7-0.1
		c-0.6,0-1.2,0-1.8,0.1c0.1-1,0.1-2.3,0.1-3.9c0-1.6,0-3.7,0-6v-1.3c0-1.1,0-2.4,0-3.8c0-1.4-0.1-3.1-0.1-4.9
		c0.3,0.1,0.6,0.1,0.9,0.1c0.3,0,0.6,0.1,0.9,0.1c0.3,0,0.5,0,0.8-0.1c0.3,0,0.6-0.1,0.9-0.1c-0.1,1-0.2,1.8-0.2,2.4
		c0,0.6,0,1.2,0,1.7l0.1,0c1.7-3,3.5-4.5,5.6-4.5c0.3,0,0.5,0,0.7,0c0.2,0,0.4,0.1,0.7,0.2c-0.1,0.3-0.2,0.8-0.3,1.5
		c0,0.7,0,1.3,0,1.9l-0.3,0.2C175.6,15,175.3,14.9,174.9,14.7z"/>
	<path class="st0" d="M180.6,4.4c0-0.6,0.2-1.1,0.6-1.5c0.4-0.4,0.9-0.6,1.5-0.6c0.6,0,1.1,0.2,1.5,0.6c0.4,0.4,0.6,0.9,0.6,1.5
		c0,0.6-0.2,1.1-0.6,1.5c-0.4,0.4-0.9,0.6-1.5,0.6c-0.6,0-1.1-0.2-1.5-0.6C180.8,5.5,180.6,5,180.6,4.4z M181.2,19.6
		c0-1.3,0-2.6-0.1-4c0-1.4-0.1-2.7-0.3-3.9c0.8,0.1,1.4,0.2,1.9,0.2c0.5,0,1.1-0.1,1.9-0.2c-0.1,1.2-0.2,2.5-0.3,3.9
		c0,1.4-0.1,2.7-0.1,4V24c0,1.3,0,2.6,0.1,4c0,1.4,0.1,2.6,0.3,3.8c-0.6-0.1-1.3-0.1-1.9-0.1c-0.6,0-1.2,0-1.9,0.1
		c0.1-1.1,0.2-2.4,0.3-3.8c0-1.4,0.1-2.7,0.1-4V19.6z"/>
	<path class="st0" d="M195.6,6.1c-0.1,1.1-0.1,2.1-0.2,3.1c0,1-0.1,2.1-0.1,3.1c0.3,0,0.9,0,1.7,0c0.8,0,1.8,0,2.7-0.1
		c0,0.1,0,0.2,0,0.5v0.4v0.5c0,0.2,0,0.3,0,0.4c-0.4,0-0.7,0-1.1-0.1c-0.4,0-0.8,0-1.3,0h-2.1c0,0.1-0.1,0.6-0.1,1.3
		c0,0.8-0.1,1.7-0.1,2.8c0,1.1,0,2.2-0.1,3.4c0,1.2,0,2.2,0,3.2c0,0.8,0,1.6,0.1,2.3c0,0.8,0.2,1.4,0.4,2c0.2,0.6,0.6,1.1,1,1.5
		c0.4,0.4,1.1,0.5,1.9,0.5c0.2,0,0.5,0,0.9-0.1c0.4-0.1,0.7-0.1,1-0.2v1c-0.5,0.1-1,0.2-1.6,0.3c-0.6,0.1-1.1,0.2-1.7,0.2
		c-1.8,0-3.1-0.4-3.9-1.3c-0.8-0.9-1.3-2.1-1.3-3.8c0-0.8,0-1.6,0-2.5c0-0.9,0.1-1.8,0.1-2.9c0-1.1,0.1-2.2,0.1-3.5
		c0-1.3,0-2.7,0-4.3h-1.3c-0.2,0-0.5,0-0.7,0c-0.3,0-0.5,0-0.8,0.1c0-0.2,0-0.3,0.1-0.5c0-0.2,0-0.3,0-0.5c0-0.1,0-0.3,0-0.4
		c0-0.1,0-0.3-0.1-0.4c1.3,0.1,2.2,0.1,2.8,0.1c0-0.6,0-1.3-0.1-2.1c0-0.8,0-1.7-0.1-2.6l3.5-1.5H195.6z"/>
	<path class="st0" d="M207.3,6.1c-0.1,1.1-0.1,2.1-0.2,3.1c0,1-0.1,2.1-0.1,3.1c0.3,0,0.9,0,1.7,0c0.8,0,1.8,0,2.7-0.1
		c0,0.1,0,0.2,0,0.5v0.4v0.5c0,0.2,0,0.3,0,0.4c-0.4,0-0.7,0-1.1-0.1c-0.4,0-0.8,0-1.3,0H207c0,0.1-0.1,0.6-0.1,1.3
		c0,0.8-0.1,1.7-0.1,2.8s0,2.2-0.1,3.4c0,1.2,0,2.2,0,3.2c0,0.8,0,1.6,0.1,2.3c0,0.8,0.2,1.4,0.4,2c0.2,0.6,0.6,1.1,1,1.5
		c0.4,0.4,1.1,0.5,1.9,0.5c0.2,0,0.5,0,0.9-0.1c0.4-0.1,0.7-0.1,1-0.2v1c-0.5,0.1-1,0.2-1.6,0.3c-0.6,0.1-1.1,0.2-1.7,0.2
		c-1.8,0-3.1-0.4-3.9-1.3c-0.8-0.9-1.3-2.1-1.3-3.8c0-0.8,0-1.6,0-2.5c0-0.9,0.1-1.8,0.1-2.9c0-1.1,0.1-2.2,0.1-3.5
		c0-1.3,0-2.7,0-4.3h-1.3c-0.2,0-0.5,0-0.7,0c-0.3,0-0.5,0-0.8,0.1c0-0.2,0-0.3,0.1-0.5c0-0.2,0-0.3,0-0.5c0-0.1,0-0.3,0-0.4
		c0-0.1,0-0.3-0.1-0.4c1.3,0.1,2.2,0.1,2.8,0.1c0-0.6,0-1.3-0.1-2.1c0-0.8,0-1.7-0.1-2.6l3.5-1.5H207.3z"/>
	<path class="st0" d="M213.5,21.8c0-1.9,0.3-3.5,0.9-4.9c0.6-1.3,1.4-2.4,2.4-3.2c1-0.8,2.1-1.4,3.3-1.8c1.2-0.4,2.4-0.6,3.6-0.6
		c1.2,0,2.5,0.2,3.7,0.6c1.2,0.4,2.3,1,3.3,1.8c1,0.8,1.8,1.9,2.4,3.2c0.6,1.3,0.9,3,0.9,4.9c0,1.9-0.3,3.5-0.9,4.9
		c-0.6,1.3-1.4,2.4-2.4,3.2c-1,0.8-2.1,1.4-3.3,1.7c-1.2,0.3-2.4,0.5-3.7,0.5c-1.2,0-2.4-0.2-3.6-0.5c-1.2-0.3-2.3-0.9-3.3-1.7
		c-1-0.8-1.8-1.9-2.4-3.2C213.8,25.3,213.5,23.7,213.5,21.8z M217.2,21.8c0,1.2,0.1,2.3,0.3,3.4c0.2,1.1,0.6,2.1,1.1,2.9
		c0.5,0.9,1.2,1.5,2,2c0.8,0.5,1.9,0.8,3.1,0.8c1.2,0,2.3-0.3,3.1-0.8c0.8-0.5,1.5-1.2,2-2c0.5-0.9,0.9-1.8,1.1-2.9
		c0.2-1.1,0.3-2.2,0.3-3.4c0-1.2-0.1-2.3-0.3-3.4c-0.2-1.1-0.6-2.1-1.1-2.9c-0.5-0.9-1.2-1.5-2-2c-0.8-0.5-1.9-0.8-3.1-0.8
		c-1.2,0-2.3,0.3-3.1,0.8c-0.8,0.5-1.5,1.2-2,2c-0.5,0.9-0.9,1.8-1.1,2.9C217.3,19.5,217.2,20.6,217.2,21.8z"/>
</g>
</svg>
