<?xml version="1.0" encoding="utf-8"?>
<!-- Generator: Adobe Illustrator 23.0.2, SVG Export Plug-In . SVG Version: 6.00 Build 0)  -->
<svg version="1.1" id="レイヤー_1" xmlns="http://www.w3.org/2000/svg" xmlns:xlink="http://www.w3.org/1999/xlink" x="0px"
	 y="0px" viewBox="0 0 425.2 283.46" style="enable-background:new 0 0 425.2 283.46;" xml:space="preserve">
<style type="text/css">
	.st0{fill:#FFFFFF;}
</style>
<g>
	<path class="st0" d="M266.47,115.69L266.47,115.69l-10.36-10.37V50.35c0-2.42-1.96-4.38-4.38-4.38c-1.21,0-2.3,0.49-3.1,1.28
		l-25.27,25.3L188.44,37.6c-0.8-0.79-1.89-1.29-3.1-1.29c-2.42,0-4.37,1.97-4.37,4.38v18.04l-11.47-11.49
		c-0.79-0.79-1.89-1.28-3.1-1.28c-2.41,0-4.37,1.96-4.37,4.38v85.41c0,2.42,1.96,4.38,4.37,4.38c1.2,0,2.3-0.49,3.1-1.28
		l11.47-11.47v8.38c0,2.42,1.95,4.38,4.37,4.38c2.42,0,4.36-1.96,4.36-4.38v-17.14l19.37-19.37l39.57,39.61
		c0.8,0.79,1.89,1.28,3.1,1.28c2.42,0,4.38-1.96,4.38-4.38V117.7l4.18,4.18c1.71,1.7,4.48,1.7,6.18,0
		C268.17,120.17,268.17,117.41,266.47,115.69 M247.37,96.57l-17.81-17.82l17.81-17.83V96.57z M189.69,79.87l13.18,13.18
		l-13.18,13.18V79.87z M189.69,51.26l27.48,27.49l-8.1,8.11l-19.37-19.37V51.26z M170.77,125.19V60.92l10.19,10.2v43.87
		L170.77,125.19z M247.37,125.19l-32.11-32.14l8.11-8.11l24,24.01V125.19z"/>
	<polygon class="st0" points="38.64,244.74 38.64,182.48 48.76,182.48 48.76,235.67 76.37,235.67 76.37,244.74 	"/>
	<path class="st0" d="M135.43,244.73l-7.05-16.03h-24.66l-7.22,16.03H85.86l30.15-64.72l30.1,64.72H135.43z M107.46,220.29h17.35
		l-6.38-14.2c-0.37-0.9-0.75-1.95-1.14-3.13c-0.4-1.17-0.8-2.48-1.19-3.93c-0.35,1.36-0.71,2.63-1.1,3.8
		c-0.37,1.18-0.76,2.26-1.17,3.25L107.46,220.29z"/>
	<path class="st0" d="M153.49,244.74v-64.72l39.53,38.06c1.07,1.06,2.16,2.22,3.27,3.43c1.11,1.22,2.27,2.6,3.48,4.13v-43.16h9.35
		v64.68l-40.35-38.73c-1.08-1.06-2.12-2.15-3.12-3.31c-1.01-1.18-1.97-2.38-2.87-3.66v43.29H153.49z"/>
	<polygon class="st0" points="220.21,244.74 251.93,191.07 225.53,191.07 225.53,182.48 267.48,182.48 236.06,235.67 267.87,235.67 
		267.87,244.74 	"/>
	<polygon class="st0" points="274.02,244.74 305.74,191.07 279.33,191.07 279.33,182.48 321.3,182.48 289.88,235.67 321.68,235.67 
		321.68,244.74 	"/>
	<path class="st0" d="M391.13,213.74c0,4.42-0.84,8.6-2.5,12.53c-1.65,3.94-4.06,7.46-7.25,10.55c-3.19,3.09-6.81,5.45-10.83,7.1
		c-4.03,1.64-8.24,2.47-12.66,2.47c-4.49,0-8.76-0.83-12.82-2.49c-4.07-1.66-7.67-4.02-10.79-7.08c-3.17-3.09-5.58-6.6-7.22-10.5
		c-1.65-3.92-2.48-8.11-2.48-12.58c0-4.46,0.83-8.65,2.48-12.59c1.64-3.95,4.05-7.47,7.22-10.59c3.19-3.09,6.78-5.44,10.8-7.05
		c4.03-1.62,8.3-2.43,12.81-2.43c4.47,0,8.71,0.81,12.73,2.43c4.01,1.61,7.6,3.96,10.77,7.05c3.19,3.15,5.6,6.69,7.25,10.65
		C390.3,205.17,391.13,209.34,391.13,213.74 M380.58,213.74c0-3.15-0.57-6.14-1.71-8.98c-1.15-2.83-2.8-5.36-4.95-7.56
		c-2.1-2.18-4.52-3.86-7.29-5.05c-2.77-1.17-5.68-1.76-8.74-1.76c-3.06,0-5.98,0.57-8.75,1.74c-2.76,1.17-5.22,2.85-7.38,5.07
		c-2.16,2.18-3.8,4.69-4.93,7.52c-1.13,2.84-1.69,5.85-1.69,9.02c0,3.14,0.56,6.12,1.69,8.92c1.13,2.81,2.78,5.32,4.93,7.53
		c2.16,2.22,4.61,3.89,7.35,5.05c2.76,1.16,5.67,1.75,8.77,1.75c3.03,0,5.91-0.59,8.65-1.75c2.74-1.16,5.19-2.84,7.38-5.05
		c2.16-2.21,3.8-4.73,4.95-7.55C380.01,219.82,380.58,216.86,380.58,213.74"/>
</g>
</svg>
