<?xml version="1.0" encoding="utf-8"?>
<!-- Generator: Adobe Illustrator 25.2.3, SVG Export Plug-In . SVG Version: 6.00 Build 0)  -->
<svg version="1.1" id="レイヤー_1" xmlns="http://www.w3.org/2000/svg" xmlns:xlink="http://www.w3.org/1999/xlink" x="0px"
	 y="0px" viewBox="0 0 237.1 316" style="enable-background:new 0 0 237.1 316;" xml:space="preserve">
<style type="text/css">
	.st0{fill:#FFFFFF;}
</style>
<g>
	<path class="st0" d="M178.5,116.2c17.5,0,31.6-5.4,42.4-16.3C231.6,89,237,74.2,237,55.4c0-16.9-3.2-30.2-12.8-39.9
		C214.7,5.8,200.3,1,184.2,1c-17.3,0-31.5,5.4-42.5,16.4c-11.1,10.9-16.6,24.9-16.6,41.9c0,18.2,4.8,32.2,14.4,42.1
		C149,111.3,162.1,116.2,178.5,116.2z M158.8,12.4c6.6-3.8,14.1-5.9,22.2-5.9c7.4,0,15.4,2,21.5,5.1c17.1,8.8,19.6,36.1,19.6,47.8
		c0,9.3-0.6,19.7-3.8,27.4c-3.2,7.7-7,13.1-13.2,17.1c-6.2,4-15,7-22.9,7c-12,0-22.7-5.7-30.6-14.3c-7.9-8.6-11.1-22.5-11.1-39.6
		C140.5,48.2,140.8,22.6,158.8,12.4z"/>
	<path class="st0" d="M10.1,10.2c0.2,10,0.2,83.3,0,93.3c0,2.9-1,4.9-2,5.6c-2.3,1.5-5,2.3-7.7,2.6v1.8c12-0.5,11.5-2.1,16.9-2.1
		c5.4,0.1,4.9,1.6,16.9,2.1v-1.8c-2.7-0.4-5.4-1.1-7.7-2.6c-1-0.7-2-2.7-2-5.6c-0.1-8.2-0.2-59.6-0.1-83L98,115.3l1-0.7
		c-0.2-4.6-0.1-100.1,0-104.1c0-2.9,0.8-4.9,1.8-5.6c2.3-1.5,5-2.3,7.7-2.7V0.4C96.5,0.9,97,2.5,91.6,2.5c-5.5-0.1-4.9-1.6-16.9-2.1
		v1.8c2.7,0.4,5.4,1.1,7.7,2.7c1,0.7,2,2.7,2,5.6c0.1,3.1,0.1,67.8,0,71c0-0.3-58.9-78.4-58.9-78.4l-0.1-0.2c0,0-5.4,0.9-8.2,0.6
		C11.9,3,10.7,0.8,0.3,0v1.8C3.2,2.3,6,3.1,8.1,4.6C9,5.3,10.1,7.3,10.1,10.2z"/>
	<path class="st0" d="M202.2,130.2v1.8c2.7,0.4,5.4,1.1,7.7,2.6c1,0.7,2,2.8,2,5.6c0,3.1,0.1,67.8,0,71c0-0.3-58.9-78.4-58.9-78.4
		l-0.1-0.2c0,0-5.4,0.9-8.2,0.6c-5.2-0.6-6.5-2.8-16.9-3.6v1.8c2.9,0.4,5.7,1.2,7.7,2.8c0.9,0.7,2,2.7,2,5.6c0.2,10,0.2,83.3,0,93.3
		c0,2.9-1,4.9-2,5.6c-2.3,1.5-5,2.3-7.7,2.6v1.8c12-0.5,11.5-2.1,16.9-2.1c5.4,0.1,4.9,1.6,16.9,2.1v-1.8c-2.7-0.4-5.4-1.1-7.7-2.6
		c-1-0.7-2-2.8-2-5.6c-0.1-8.2-0.2-59.6-0.1-83l73.6,94.8l1-0.7c-0.2-4.6-0.1-100.1,0-104.1c0-2.9,0.8-5,1.8-5.6
		c2.3-1.5,5-2.3,7.7-2.6v-1.8c-11.9,0.6-11.4,2.2-16.8,2.2C213.7,132.2,214.2,130.7,202.2,130.2z"/>
	<path class="st0" d="M9.9,166.5l0.1,21.9c0,3.1,0,22.3,0,25.4s-0.4,30.8,42.5,30.8s44.8-28.4,44.8-49.1c0,0,0-11.6,0.1-24.2
		c0.1-13.3,0.4-28.8,0.4-31.1c0-2.9,0.8-4.9,1.8-5.6c2.3-1.5,5-2.3,7.7-2.7v-1.8c-11.9,0.3-11.4,1.9-16.8,2c-5.5-0.1-5-1.6-16.9-2.1
		v1.8c2.7,0.4,5.4,1.1,7.7,2.7c1,0.7,2,2.7,2,5.6c0,1.8,0.2,17.6,0.3,31.1c0,5.8,0,11.8,0,17.9c0,21.9,0.6,50.7-30,50.7
		c-32.1,0-29.7-34.1-29.7-38.4c0-4.3,0-6.1,0-16l0.1-25.7c0.1-9.5,0.2-17.9,0.3-19.6c0-2.9,0.8-4.9,1.8-5.6c2.3-1.5,5-2.3,7.7-2.7
		V130c-12,0.5-11.5,2.1-16.9,2.1C11.5,132,12,130.5,0,130v1.8c2.7,0.4,5.4,1.1,7.7,2.7c1,0.7,2,2.7,2,5.6
		C9.7,141.7,9.8,154.2,9.9,166.5z"/>
	<path class="st0" d="M93,265.5c-4.2-4.4-10.6-6.6-17.7-6.6c-7.6,0-13.9,2.4-18.8,7.4s-7.3,11.4-7.3,19.1c0,8.3,2.1,14.6,6.4,19.1
		c4.2,4.5,9.9,6.7,17.2,6.7c7.8,0,14-2.5,18.8-7.4c4.7-4.9,7.1-11.7,7.1-20.2C98.7,275.9,97.2,269.9,93,265.5z M90.3,297.9
		c-1.4,3.5-3.1,6-5.8,7.8c-2.7,1.8-6.6,3.2-10.1,3.2c-5.3,0-10-2.6-13.5-6.5c-3.5-3.9-4.9-10.2-4.9-18c0-4,0.1-15.6,8.1-20.2
		c2.9-1.8,6.2-2.7,9.8-2.7c3.3,0,6.8,0.9,9.5,2.3c7.5,4,8.6,16.4,8.6,21.7C92,289.7,91.7,294.4,90.3,297.9z"/>
	<path class="st0" d="M16.5,285.9c-1-23.3,10.9-24.1,13.8-24.3c3-0.2,4.6,0,8.4,0.7c5.5,1,5.6,10,5.6,10l1.2-0.1
		c-0.4-3.6,0.6-12.7,0.6-12.7c-0.3,0.3-1.4,0.8-2.4,0.9c-2.4,0.3-6.2,0.1-12.8-0.2c-6.2-0.2-21.8,2.2-21.8,25.5s16.9,25.1,24.6,25.1
		s12.9-2.6,12.9-2.6l0.1-2.2c-3,2.1-5,3.4-12.2,3.5C28.3,309.7,17.4,308.1,16.5,285.9z"/>
	<path class="st0" d="M100.2,305.7c-1.4,0-2.4,1.1-2.4,2.4c0,1.5,1,2.4,2.4,2.4s2.4-1,2.4-2.4C102.6,306.7,101.6,305.7,100.2,305.7z
		"/>
	<path class="st0" d="M106.8,305.8c-1.1,0-2,0.7-2.1,1.7c-0.1,1.1,0.3,1.6,0.9,1.9c1.3,0.8,2.8,0.5,2.9,2.4c0,1.6-0.7,2.6-3.5,3.8
		v0.4c2.6-0.7,5.6-2.5,5.6-5.7C110.6,307.5,108.2,305.9,106.8,305.8z"/>
	<path class="st0" d="M143.4,305.5c-2,2-4.3,2.2-5.5,2.2c-3.2,0-8.2,0.4-9.2-2.3c-0.5-1.3-0.8-10.1-0.9-19.4c0-9.7,0-19.7,0.1-22
		c0-1.3,0.4-2.2,0.9-2.5c1.1-0.7,2.3-1,3.5-1.2v-0.8c-5.4,0.2-5.2,0.9-7.6,1c-2.4,0-2.2-0.7-7.6-1v0.8c1.2,0.2,2.4,0.5,3.5,1.2
		c0.5,0.3,0.9,1.2,0.9,2.5c0.1,4.5,0.1,37.7,0,42.2c0,1.3-0.5,2.2-0.9,2.5c-0.9,0.7-2.2,1.1-3.5,1.3v0.8c4.7-0.4,5.3-1.4,7.6-1.6
		c0.4,0,1,0,1.6,0c2.1,0.3,2.7,1.7,8.7,1.7c3.6,0,4.8-0.1,6.4-0.9c5.2-2.6,6.3-12,6.3-12l-1-0.7
		C146.5,300.7,145.1,303.8,143.4,305.5z"/>
	<path class="st0" d="M211.3,260.6c-1.5-0.2-3.4-0.4-6.4-0.4c-9.3,0-11.2,0.4-13.3,0.8c-0.6,0-1.1,0.1-1.6,0
		c-2.4-0.2-2.9-1.3-7.6-1.6v0.8c1.3,0.2,2.6,0.6,3.5,1.3c0.4,0.3,0.9,1.2,0.9,2.5c0,0.2,0,0.5,0,0.9c0,0.1,0,0.1,0,0.2
		c0,0.7,0,1.4,0,2.2c0,1.3,0,2.9,0,4.7v0.1c0,4,0,8.7,0,13.7c0,4.7,0,9,0,12.6c0,0.4,0,0.8,0,1.3c0,2.4,0,4.5-0.1,6.2
		c0,0.1,0,0.2,0,0.2c0,0.1,0,0.1,0,0.2c0,1.3-0.5,2.2-0.9,2.5c-0.9,0.7-2.2,1.1-3.5,1.3v0.8c4.7-0.3,5.3-1.4,7.6-1.6
		c0.4,0,1,0,1.6,0c2.1,0.3,3.5,1.5,9.9,1.2c0.2,0,0.4,0,0.6,0c7.1-0.1,12.4-1.5,14.4-2.5c2.2-1.1,14.3-6.2,13-28.3
		C228.6,264.9,219.2,261.4,211.3,260.6z M207.9,308.3c-2.1,0.3-11.1,0.9-13.4-1.8c-1.4-1.7-1.3-4.8-1.3-6.1c-0.1-4-0.1-9.9-0.1-17.2
		c0,0,0-12.8,0.1-17.1c0-1.3,0.5-2.2,0.9-2.5c2.9-2.1,8.6-1.5,10.6-1.5c3.8,0,18.1-1.4,18.1,21.6
		C222.9,306.7,210.7,307.7,207.9,308.3z"/>
	<path class="st0" d="M173.5,261.1c-1,0.1-6.3,0.7-12.7,0.5c-6.7-0.2-13.9-0.6-16.7-1.7c0,0,0.4,2.4-0.9,4.7c-1.2,2-2,4.2-2.3,6.9
		h1.1c0.3-2.3,1.9-6.6,4.4-6.8c0.7,0,6.1-0.1,11.3-0.1c0.1,12.8,0,39.9,0,41.7c0,1.3-0.4,2.2-0.8,2.5c-1.1,0.7-2.3,1-3.5,1.2v0.8
		c5.4-0.2,5.2-0.9,7.6-1c2.4,0,2.2,0.7,7.6,1V310c-1.2-0.2-2.4-0.5-3.5-1.2c-0.4-0.3-0.9-1.2-0.9-2.5c0-1,0-16,0-28.9
		c0-5.1,0-10.4,0.1-12.4c0-0.1,0-0.3,0-0.4c2.3,0,3.9,0,3.9,0c3.9,0,6.6,0.4,8.9-1.4c1.4-1.2,2.7-3.3,3.2-6.1h-1
		C178.6,259.2,177.3,260.7,173.5,261.1z"/>
</g>
</svg>
