<?xml version="1.0" encoding="utf-8"?>
<!-- Generator: Adobe Illustrator 23.1.1, SVG Export Plug-In . SVG Version: 6.00 Build 0)  -->
<svg version="1.1" id="Calque_1" xmlns="http://www.w3.org/2000/svg" xmlns:xlink="http://www.w3.org/1999/xlink" x="0px" y="0px"
	 viewBox="0 0 614.2 407.7" style="enable-background:new 0 0 614.2 407.7;" xml:space="preserve">
<style type="text/css">
	.st0{fill:#FFFFFF;}
</style>
<g>
	<path class="st0" d="M98.3,368.6c0-14.6,11.6-26,24.6-26c12.9,0,24.5,11.4,24.5,26c0,14.6-11.7,26-24.5,26
		C110,394.6,98.3,383.2,98.3,368.6 M84.7,368.6c0,22,16.9,39.1,38.1,39.1c21.3,0,38.1-17.1,38.1-39.1c0-22-16.9-39.1-38.1-39.1
		C101.6,329.5,84.7,346.6,84.7,368.6"/>
	<path class="st0" d="M193.3,342.3h18.9c8.9,0,12.9,5.3,12.9,11.4c0,6.1-4,11.4-12.9,11.4h-18.9V342.3 M180.7,406.3h12.6v-29.4h15.4
		l14.2,29.4h15.8l-17-32.2c9.1-2.8,15.9-10.6,15.9-20.5c0-13.3-9.3-23.3-24.5-23.3h-32.4V406.3z"/>
	<polygon class="st0" points="266.5,327.7 296.7,363.5 327,327.7 327,406.3 314.4,406.3 314.4,360.3 296.7,378.7 279.1,360.3 
		279.1,406.3 266.5,406.3 	"/>
	<polygon class="st0" points="357.5,369.5 357.5,330.3 409.7,330.3 409.7,342.3 370.1,342.3 370.1,360.2 397.7,360.2 397.7,372.1 
		370.1,372.1 370.1,394.3 409.7,394.3 409.7,406.3 357.5,406.3 	"/>
	<path class="st0" d="M432.4,330.3h13.5v45.5c0,12.5,7,20,16.8,20c9.9,0,16.8-7.5,16.8-20v-45.5h13.5v48.2c0,15.7-12,29.2-30.2,29.2
		c-18.2,0-30.2-13.4-30.2-29.2V330.3z"/>
	<rect x="522.3" y="330.3" class="st0" width="13.5" height="76"/>
	<g>
		<polygon class="st0" points="568.5,330.3 582,330.3 582,394.3 614.2,394.3 614.2,406.3 568.5,406.3 		"/>
	</g>
	<path class="st0" d="M70.6,365.4c-4.3-8.6-11.7-20.5-22.1-28v0c-10-7.2-19.9-10.8-29.4-10.8H0v79.7h19c9.4,0,19.3-3.7,29.3-10.8
		c10.7-7.6,18-19.4,22.3-28.1l0.5-1.1L70.6,365.4 M13.7,340.4H19c6.6,0,13.7,2.5,21,7.4c5.4,3.6,10.5,9.8,15.5,18.7
		c-5.2,8.9-10.3,15-15.6,18.6c-7.4,5-14.4,7.5-20.9,7.5h-5.3V340.4z"/>
	<path class="st0" d="M243,276.6c-0.9-3.5-3.1-6-7.5-6c-6.5,0-9.2,5.7-9.2,11.5c0,5.8,2.7,11.5,9.2,11.5c4.7,0,7.3-3.5,7.7-7.9h5.2
		c-0.4,7.3-5.6,12.3-12.9,12.3c-9.1,0-14.5-7.2-14.5-15.9c0-8.6,5.4-15.9,14.5-15.9c6.8,0,12.2,3.8,12.8,10.4H243z"/>
	<polygon class="st0" points="261.7,267 267,267 267,292.7 282.4,292.7 282.4,297.3 261.7,297.3 	"/>
	<path class="st0" d="M321.9,282.1c0,8.7-5.4,15.9-14.5,15.9c-9.1,0-14.5-7.2-14.5-15.9c0-8.6,5.4-15.9,14.5-15.9
		C316.4,266.3,321.9,273.5,321.9,282.1 M298.2,282.1c0,5.8,2.7,11.6,9.2,11.6c6.5,0,9.2-5.7,9.2-11.6c0-5.8-2.7-11.5-9.2-11.5
		C300.9,270.6,298.2,276.3,298.2,282.1"/>
	<polygon class="st0" points="332.3,267 356.8,267 356.8,271.6 347.2,271.6 347.2,297.3 341.9,297.3 341.9,271.6 332.3,271.6 	"/>
	<polygon class="st0" points="368.7,267 374,267 374,279 387.8,279 387.8,267 393,267 393,297.3 387.8,297.3 387.8,283.6 374,283.6 
		374,297.3 368.7,297.3 	"/>
	<polygon class="st0" points="282.8,211.5 282.8,211.5 279.3,213.3 278.8,211.3 283.1,209 285.4,209 285.4,228.8 282.8,228.8 	"/>
	<path class="st0" d="M299.3,208.7c3.8,0,5.8,2.4,5.8,4.9c0,1.7-0.8,3.5-3.3,4.6v0.1c2.5,1,4,2.7,4,5.1c0,3.5-3,5.8-6.7,5.8
		c-4.1,0-6.6-2.4-6.6-5.3c0-2.5,1.5-4.3,3.9-5.3v-0.1c-2.2-1-3.2-2.8-3.2-4.5C293.1,210.8,295.8,208.7,299.3,208.7 M299.1,227.2
		c2.4,0,3.9-1.5,3.9-3.5c0-2.4-1.7-3.5-4.3-4.3c-2.3,0.7-3.6,2.2-3.6,4.1C295.1,225.4,296.6,227.2,299.1,227.2L299.1,227.2z
		 M299.2,210.6c-2.2,0-3.4,1.5-3.4,3.2c0,2,1.5,3,3.8,3.7c1.7-0.6,3-1.8,3-3.6C302.5,212.2,301.6,210.6,299.2,210.6L299.2,210.6z"/>
	<path class="st0" d="M316.5,228.8v-5.4h-9.2v-1.7l8.8-12.7h2.9v12.3h2.8v2.1H319v5.4H316.5z M316.5,221.3v-6.6c0-1,0-2.1,0.1-3.1
		h-0.1c-0.6,1.2-1.1,2-1.6,3l-4.9,6.7v0.1H316.5z"/>
	<path class="st0" d="M323.8,228.8v-1.6l2.1-2.1c5.1-4.8,7.4-7.4,7.4-10.3c0-2-0.9-3.9-3.9-3.9c-1.8,0-3.3,0.9-4.2,1.7l-0.9-1.9
		c1.3-1.1,3.3-2,5.6-2c4.2,0,6,2.9,6,5.8c0,3.7-2.7,6.6-6.8,10.6l-1.5,1.5v0.1h8.9v2.2H323.8z"/>
	<path class="st0" d="M338.2,21.7h-0.4v8.9l0.6-0.7c1.7-1.8,5.5-2.7,8.9-3.8c1.7-0.5,3.3-1.1,4.5-2c1.2-0.8,2.1-2,2.1-3.6v0l0-0.1
		l-0.4,0.1l0.4,0c0-0.6-0.4-1.1-0.9-1.3c-0.5-0.2-1.1-0.3-1.9-0.3c-3,0-8.1,1.5-13.1,2.5l-0.3,0.1v0.3H338.2l0,0.4
		c5-1,10.2-2.5,13-2.5c0.7,0,1.2,0.1,1.5,0.2l0.5,0.7v0l0,0.1l0.4-0.1h-0.4c0,1.3-0.6,2.2-1.7,3c-3.3,2.4-10.6,2.8-13.6,5.9l0.3,0.3
		h0.4v-7.9H338.2l0,0.4L338.2,21.7"/>
	<polyline class="st0" points="324.8,18.3 324.8,18.4 324.8,16.5 	"/>
	<line class="st0" x1="324.8" y1="5.5" x2="324.8" y2="5.5"/>
	<path class="st0" d="M353.4,17.3l0.1-0.4l-0.1,0c-5.4-1.2-10.5-2.1-14.9-2.5c-1.6-0.1-3-0.2-4.4-0.2c-2.8,0-5.1,0.3-6.8,1
		c-1.7,0.7-2.8,1.8-2.8,3.4v0v0c0,1.6,0.8,2.8,1.9,3.5c1.1,0.7,2.7,0.9,4.4,0.9c2.3,0,4.9-0.4,7.5-1c5-1,10.2-2.5,13-2.5
		c0.7,0,1.2,0.1,1.5,0.2l0.4,0.7v0l0,0.1l0.8-0.1l-0.2-3.2l0-0.3l-0.3-0.1L353.4,17.3l-0.4,0l0.2,3.2l0.4,0l0.4-0.1l0-0.1l-0.4,0.1
		l0.4,0c0-0.6-0.4-1.1-0.9-1.3c-0.5-0.2-1.1-0.3-1.9-0.3c-3,0-8.1,1.5-13.1,2.5c-2.6,0.5-5.2,1-7.4,1c-1.7,0-3.1-0.2-4-0.8
		c-0.9-0.6-1.5-1.4-1.6-2.9l-0.4,0l0.4,0c0.1-1.2,0.8-2.1,2.4-2.7c1.5-0.6,3.8-0.9,6.5-0.9c1.3,0,2.8,0.1,4.3,0.2
		c4.3,0.4,9.4,1.3,14.8,2.5l0.1,0L353.4,17.3l-0.4,0L353.4,17.3"/>
	<polyline class="st0" points="379.7,61.4 379.7,61.4 379.7,61.2 	"/>
	<path class="st0" d="M379.7,61.4l-0.4,0c0,2,1.5,3.3,3.4,4.3c2.9,1.4,7.2,2.3,10.8,4.1c3.6,1.8,6.6,4.3,7.1,9l0.7-0.1L401,65.8v0
		c-0.7-6.8-5.7-9.2-10.5-10.7l-0.1,0l-0.1,0c-2.8,0.8-5.5,1.6-7.5,2.6c-2,1-3.4,2.1-3.5,3.7v0L379.7,61.4l0.4,0c0-1.1,1.1-2.1,3-3
		c1.9-0.9,4.5-1.7,7.3-2.6l-0.1-0.4l-0.1,0.4c4.7,1.5,9.3,3.6,10,10l0.4,0h-0.4l0.4,12.9l0.4,0l0.4,0c-0.7-6.8-6.2-9.4-11.3-11.2
		c-2.6-0.9-5.1-1.6-7-2.5c-1.9-0.9-3-2-3-3.6L379.7,61.4l0.4,0L379.7,61.4"/>
	<line class="st0" x1="379.7" y1="61.5" x2="379.7" y2="61.4"/>
	<path class="st0" d="M402.4,38.2l-0.2-0.3c-3.8,2.4-9.4,4-14.2,5.7c-2.4,0.9-4.5,1.8-6.1,2.9c-1.6,1.1-2.6,2.3-2.6,4h0.4l-0.4,0
		l-0.1,10.7v0.3l0.8,0c0-1.1,1.1-2.1,3.1-3c1.9-0.9,4.5-1.7,7.3-2.6c3.6-1.1,7.6-2.3,10.8-3.8c3.2-1.6,5.6-3.6,6.1-6.5v0v0
		c-0.1-2.5-1.8-5-4.6-7.6l-0.2-0.2l-0.2,0.1L402.4,38.2l-0.3,0.3c2.8,2.5,4.4,4.9,4.4,7h0.4l-0.4-0.1c-0.3,2.5-2.5,4.4-5.6,6
		c-3.1,1.5-7,2.7-10.7,3.8c-2.8,0.8-5.5,1.6-7.5,2.6c-2,1-3.4,2.1-3.5,3.7l0.4,0h0.4v-0.3h-0.4h0.4l0.1-10.7c0-1.2,0.8-2.3,2.3-3.3
		c4.4-3.1,14.3-5,20.2-8.6L402.4,38.2l-0.3,0.3L402.4,38.2"/>
	<polyline class="st0" points="324.8,5.6 324.8,16.5 324.8,5.5 324.8,5.6 	"/>
	<polyline class="st0" points="324.8,18.6 324.8,18.6 324.8,18.4 	"/>
	<path class="st0" d="M407,31.8h0.4c-0.1-8.7-11.9-16.5-26.4-22.3c-14.6-5.8-32-9.5-43.5-9.5c-3.7,0-6.9,0.4-9.1,1.3
		c-2.2,0.8-3.7,2.2-3.8,4.2v12.9l0,0.2l0.8,0c0.1-1.2,0.8-2.1,2.4-2.7c1.5-0.6,3.8-0.9,6.5-0.9c1.3,0,2.8,0.1,4.3,0.2
		c4.3,0.4,9.4,1.3,14.8,2.5l0.1,0c18.1,4.2,39.8,12.7,48.8,20.8l0,0l0,0c2.8,2.5,4.4,4.9,4.4,7l0.7,0.1l0,0l0-0.1l0.1-0.8v0
		l-0.1-12.8H407h-0.4l0.1,12.8l-0.1,0.7l0.4,0l-0.4-0.1l0,0l0.4,0.1l0.4,0c-0.1-2.5-1.8-5-4.6-7.6c-9.3-8.3-31-16.8-49.2-21l-0.1,0
		c-5.4-1.2-10.5-2.1-14.9-2.5c-1.6-0.1-3-0.2-4.4-0.2c-2.8,0-5.1,0.3-6.8,1c-1.7,0.7-2.8,1.8-2.8,3.4l0.4,0l0.4-0.1l0-0.1V5.5h-0.4
		l0.4,0c0.1-1.6,1.2-2.7,3.3-3.5c2.1-0.8,5.2-1.2,8.9-1.2c11.4,0,28.8,3.7,43.3,9.5c14.5,5.7,26,13.7,25.9,21.6H407"/>
	<line class="st0" x1="407" y1="45.4" x2="407" y2="45.5"/>
	<path class="st0" d="M258.7,20.5h-0.4v0.1c0,1.6,0.8,2.7,2.1,3.6c3.6,2.5,10.9,3,13.4,5.8l0.7,0.7v-9.2l-0.3-0.1
		c-5-1-10.1-2.5-13.1-2.5c-0.8,0-1.4,0.1-1.9,0.3c-0.5,0.3-0.8,0.8-0.9,1.3v0v0H258.7l0.4,0l0.4-0.7c0.3-0.2,0.8-0.2,1.5-0.2
		c2.8,0,7.9,1.5,12.9,2.5l0.1-0.4h-0.4v7.9h0.4l0.3-0.3c-2-2.1-5.9-2.9-9.2-4c-1.7-0.5-3.2-1.1-4.3-1.9c-1.1-0.8-1.7-1.7-1.7-2.9
		v-0.1H258.7l0.4,0L258.7,20.5"/>
	<line class="st0" x1="287.5" y1="5.5" x2="287.5" y2="5.5"/>
	<polyline class="st0" points="287.5,5.5 287.1,5.5 287.1,5.5 287.9,5.5 287.9,5.5 287.1,5.5 287.5,5.5 287.1,5.5 287.1,5.5 
		287.9,5.5 287.9,5.5 287.1,5.5 287.5,5.5 	"/>
	<polyline class="st0" points="287.5,18.3 287.5,16.5 287.5,18.4 287.5,18.3 	"/>
	<polyline class="st0" points="287.5,18.3 287.9,18.3 287.9,16.5 287.1,16.5 287.1,18.4 287.9,18.4 287.9,18.3 287.1,18.3 
		287.1,18.4 287.9,18.4 287.9,16.5 287.1,16.5 287.1,18.3 287.5,18.3 	"/>
	<path class="st0" d="M273.8,14.7l0-0.4c-4.4,0.4-9.5,1.3-14.9,2.5l0.1,0.4l-0.1-0.4l-0.1,0l-0.3,0.1l-0.2,3.5l0.8,0.1l0-0.1v-0.1
		l0.4-0.7c0.3-0.2,0.8-0.3,1.5-0.2c2.8,0,7.9,1.5,12.9,2.5c2.7,0.5,5.3,1,7.5,1c1.7,0,3.3-0.3,4.4-0.9c1.1-0.7,1.9-1.9,1.9-3.5v0
		c-0.1-1.6-1.2-2.7-2.9-3.4c-1.7-0.7-4-1-6.8-1c-1.4,0-2.8,0.1-4.4,0.2L273.8,14.7l0,0.4c1.5-0.1,3-0.2,4.3-0.2c2.7,0,5,0.3,6.5,0.9
		c1.5,0.6,2.3,1.5,2.4,2.7l0.4,0l-0.4,0c-0.1,1.4-0.6,2.3-1.6,2.9c-0.9,0.6-2.4,0.8-4,0.8c-2.2,0-4.7-0.4-7.4-1
		c-5-1-10.1-2.5-13.1-2.5c-0.7,0-1.4,0.1-1.9,0.3c-0.5,0.3-0.9,0.7-0.9,1.3l0.4,0l-0.4,0l0,0l0.4,0.1l0.4,0l0.2-3.2l-0.4,0l0.1,0.4
		l0.1,0h0c5.4-1.3,10.5-2.1,14.8-2.5L273.8,14.7"/>
	<rect x="232.6" y="61.2" class="st0" width="0" height="0.3"/>
	<polyline class="st0" points="232.6,61.4 233,61.3 233,61.1 232.2,61.2 232.2,61.4 233,61.5 233,61.5 233,61.4 233,61.3 
		232.6,61.4 232.3,61.2 232.3,61.3 232.6,61.4 233,61.4 233,61.2 232.6,61.2 232.2,61.2 232.3,61.4 232.6,61.4 232.3,61.2 
		232.6,61.4 	"/>
	<path class="st0" d="M222,55.5l-0.1-0.4c-4.8,1.4-9.8,3.8-10.5,10.6v0l-0.4,12.9l0.8,0c0.6-6.3,5.7-8.7,10.8-10.5
		c2.6-0.9,5.1-1.6,7.1-2.6c1.9-1,3.4-2.2,3.4-4.3v0c-0.1-1.6-1.5-2.7-3.5-3.7c-2-1-4.6-1.8-7.5-2.6l-0.1,0l-0.1,0L222,55.5l-0.1,0.4
		c2.8,0.8,5.5,1.7,7.3,2.6c1.9,0.9,3,1.9,3,3l0.4,0l-0.4,0c0,1.6-1.1,2.7-3,3.6c-2.8,1.4-7.1,2.3-10.8,4.1c-3.7,1.8-7,4.6-7.5,9.6
		l0.4,0l0.4,0l0.4-12.9l-0.4,0l0.4,0c0.7-6.4,5.2-8.5,10-10L222,55.5l-0.1,0.4L222,55.5"/>
	<rect x="232.6" y="61.4" class="st0" width="0" height="0.1"/>
	<path class="st0" d="M232.6,61.2l0.4,0l-0.1-10.7l-0.4,0h0.4c0-1.6-1.1-2.9-2.6-4c-4.7-3.2-14.5-5.1-20.2-8.6l-0.2-0.1l-0.2,0.2
		c-2.8,2.5-4.6,5.1-4.6,7.6v0.1c0.4,2.9,2.9,4.9,6.1,6.5c3.2,1.6,7.2,2.7,10.8,3.8c2.8,0.8,5.5,1.7,7.4,2.6c1.9,0.9,3,1.9,3,3l0.8,0
		v-0.3L232.6,61.2h-0.4v0.3h0.4l0.4,0c-0.1-1.6-1.5-2.7-3.5-3.7c-2-1-4.6-1.8-7.5-2.6c-3.7-1.1-7.6-2.3-10.7-3.8
		c-3.1-1.6-5.3-3.5-5.6-6l-0.4,0l0.4,0c0-2.1,1.6-4.5,4.4-7l-0.3-0.3l-0.2,0.3c3.9,2.4,9.6,4.1,14.3,5.8c2.3,0.9,4.4,1.8,5.9,2.8
		c1.5,1,2.3,2.1,2.3,3.3l0.1,10.7H232.6h-0.4H232.6"/>
	<line class="st0" x1="287.5" y1="18.4" x2="287.5" y2="18.6"/>
	<rect x="287.1" y="18.4" class="st0" width="0.8" height="0.2"/>
	<path class="st0" d="M287.5,5.5h0.4v0c-0.1-2-1.5-3.4-3.8-4.2c-2.3-0.9-5.4-1.3-9.1-1.3c-11.6,0-29,3.7-43.6,9.5
		C216.8,15.4,205,23.2,205,31.8l-0.1,12.9l0.1,0.8v0l0.8,0c0-2.1,1.6-4.5,4.4-7l0,0l0,0c9.1-8.1,30.8-16.6,48.9-20.8l-0.1-0.4
		l0.1,0.4l0.1,0h0c5.4-1.2,10.5-2.1,14.8-2.5c1.5-0.1,3-0.2,4.3-0.2c2.7,0,5,0.3,6.5,0.9c1.5,0.6,2.3,1.5,2.4,2.7h0.8l0-0.2v-1.9v0
		l0-10.9l0-0.2L287.5,5.5h0.4H287.5l-0.4,0.1l0,0.1l-0.1,10.8v1.9l0,0.2l0.4,0l0.4,0c-0.1-1.6-1.2-2.7-2.9-3.4c-1.7-0.7-4-1-6.8-1
		c-1.4,0-2.8,0.1-4.4,0.2c-4.4,0.4-9.5,1.2-14.9,2.5l0.1,0.4l-0.1-0.4l-0.1,0v0h0c-18.2,4.3-39.9,12.7-49.2,21l0,0l0,0
		c-2.8,2.5-4.6,5.1-4.6,7.6l0.4,0h0.4v0l-0.1-0.8l0.1-12.8c-0.1-7.9,11.4-15.8,25.9-21.6c14.5-5.8,31.8-9.5,43.3-9.5
		c3.7,0,6.7,0.4,8.9,1.2c2.1,0.8,3.2,2,3.3,3.5L287.5,5.5l-0.4,0v0.1l0,0.1L287.5,5.5"/>
	<line class="st0" x1="205.3" y1="45.5" x2="205.3" y2="45.4"/>
	<polyline class="st0" points="205.3,45.5 205.7,45.5 205.7,45.4 205,45.4 205,45.5 205.7,45.5 205.3,45.5 205.7,45.5 205.7,45.4 
		205,45.4 205,45.5 205.7,45.5 205.3,45.5 	"/>
	<path class="st0" d="M357,185.4l-0.4,0c0.1,1.7,1,2.5,2.2,2.8c1.7,0.4,3.8,0,5.6,0.7c1.8,0.7,3.4,2.2,3.9,6.9l0.8-0.1l-0.3-10.6
		l0,0c-0.2-1.4-0.4-2.5-0.7-3.4l-0.1-0.3l-0.3,0c-2.8,0.1-5.4,0.1-7.5,0.6c-2,0.5-3.6,1.5-3.6,3.4v0L357,185.4l0.4,0
		c0-1.4,1-2.1,3-2.6c1.9-0.5,4.6-0.5,7.3-0.6l0-0.4l-0.3,0.1c0.3,0.9,0.5,1.9,0.6,3.3l0.4,0l-0.4,0l0.3,10.6l0.4,0l0.4-0.1
		c-0.3-3.2-1.2-5.2-2.4-6.3c-1.8-1.8-4.2-1.6-6-1.7c-0.9,0-1.7-0.1-2.3-0.4c-0.5-0.3-0.9-0.8-1-1.9L357,185.4l0.4,0L357,185.4"/>
	<line class="st0" x1="357" y1="185.4" x2="357" y2="185.3"/>
	<polyline class="st0" points="357,185.4 357.4,185.4 357.4,185.3 356.6,185.3 356.6,185.4 357.4,185.4 357,185.4 357.4,185.4 
		357.4,185.3 356.6,185.3 356.6,185.4 357.4,185.4 357,185.4 	"/>
	<path class="st0" d="M381.6,174.4l0.3-0.2c-1.1-1.7-2.9-2.5-5-2.5c-4.2,0-9.8,2.8-16.6,6.5c-1.2,0.6-2.3,1.3-3.6,2v0l0,0l-0.2,0.1
		l0,4.5v0l0.1,0.5v0l0.8,0c0-1.4,1.1-2.1,3-2.6c1.9-0.5,4.6-0.5,7.3-0.6c3.3-0.1,6.8-0.2,9.5-1c2.7-0.8,4.8-2.4,4.7-5.5v0l0-1.3
		v-0.1l-0.1-0.1L381.6,174.4l-0.4,0l0,1.3l0.4,0h-0.4c0,2.6-1.6,3.9-4.2,4.7c-2.6,0.8-6,0.9-9.4,1c-2.8,0.1-5.5,0.1-7.5,0.6
		c-2,0.5-3.6,1.4-3.6,3.3l0.4,0l0.4,0l0,0l0-0.5l-0.1-4.2h-0.4l0.2,0.3l0,0c1.2-0.7,2.4-1.4,3.5-2c6.7-3.7,12.4-6.4,16.2-6.4
		c1.9,0,3.3,0.6,4.4,2.1L381.6,174.4l-0.4,0L381.6,174.4"/>
	<path class="st0" d="M245.1,181.7l-0.4-0.1c-0.3,0.9-0.6,2.1-0.7,3.5v0l-0.3,10.6l0.8,0c0.3-3.1,1.1-4.9,2.2-5.9
		c1.5-1.5,3.6-1.5,5.5-1.5c0.9,0,1.8-0.1,2.6-0.5c0.8-0.4,1.3-1.2,1.4-2.5l0,0v0c0-1.9-1.5-2.9-3.5-3.4c-2.1-0.5-4.7-0.6-7.5-0.7
		l-0.3,0l-0.1,0.3L245.1,181.7l0,0.4c2.8,0.1,5.4,0.2,7.3,0.7c1.9,0.5,2.9,1.2,3,2.6h0.4l-0.4,0c-0.2,1.4-0.7,1.8-1.6,2.1
		c-1.4,0.4-3.6,0-5.7,0.7c-2.1,0.7-3.9,2.7-4.3,7.5l0.4,0.1l0.4,0l0.3-10.6l-0.4,0l0.4,0c0.2-1.4,0.4-2.5,0.7-3.4L245.1,181.7l0,0.4
		L245.1,181.7"/>
	<rect x="255.7" y="185.3" class="st0" width="0" height="0"/>
	<polyline class="st0" points="255.7,185.4 256.1,185.4 256.1,185.3 255.4,185.3 255.4,185.4 256.1,185.4 255.7,185.4 256.1,185.4 
		256.1,185.3 255.4,185.3 255.4,185.4 256.1,185.4 255.7,185.4 	"/>
	<path class="st0" d="M255.8,180.5l0.2-0.3c-1.2-0.7-2.3-1.3-3.4-1.9h0c-6.9-3.8-12.7-6.7-16.9-6.7c-2.1,0-3.9,0.7-5,2.5l0.3,0.2
		h0.4v-0.7l-0.8,0l0,1.9v0c0,3,2,4.7,4.8,5.5c2.8,0.8,6.3,1,9.6,1.1c2.8,0.1,5.4,0.2,7.3,0.7c1.9,0.5,2.9,1.2,3,2.6l0.8,0v0l0.1-0.5
		v0l0-4.3v-0.2l-0.2-0.1L255.8,180.5l0.2-0.3L255.8,180.5l-0.2,0.3l0,0L255.8,180.5l-0.4,0l0,4.3l0,0.6v0h0.8c0-1.9-1.5-2.9-3.5-3.4
		c-2.1-0.5-4.7-0.6-7.5-0.7c-3.3-0.1-6.8-0.3-9.4-1c-2.6-0.8-4.2-2.1-4.2-4.8H231l0.4,0l0-1.9l-0.4,0h-0.4v1.9l0.7-1
		c1-1.5,2.4-2.2,4.4-2.2c3.9,0,9.6,2.8,16.5,6.6c1.1,0.6,2.2,1.3,3.4,1.9l0,0h0L255.8,180.5"/>
	<path class="st0" d="M381.6,163.6l0.4-0.1c-1-3.7-3.5-5.3-6.8-5.2c-7.1,0-18.2,6.7-30.5,13.5c-12.3,6.8-25.8,13.6-37.2,14l0,0.4
		v-0.4h-2.3v0.4l0-0.4c-11.5-0.2-25-7.1-37.3-13.9c-12.3-6.8-23.4-13.6-30.5-13.6c-3.3,0-5.7,1.6-6.7,5.2l0,0.1v11.9l0.7-1
		c1-1.5,2.4-2.2,4.4-2.2c3.9,0,9.6,2.8,16.5,6.6c1.1,0.6,2.2,1.3,3.4,1.9l0.2-0.3l-0.2,0.3l0,0l0,0l0,0
		c14.2,8.1,32.3,19.2,49.5,19.5h2.3c17.2-0.3,35.4-11.4,49.6-19.4l0,0l0,0l-0.2-0.3l0.2,0.3c1.2-0.7,2.4-1.4,3.5-2
		c6.7-3.7,12.4-6.4,16.2-6.4c1.9,0,3.4,0.6,4.4,2.1l0,0l0,0.1l0.6,0.6l0-11.7l0-0.1L381.6,163.6h-0.4l0,10.8h0.4l0.2-0.3l0,0
		l-0.3,0.3l0.3-0.2c-1.1-1.7-2.9-2.5-5-2.5c-4.2,0-9.8,2.8-16.6,6.5c-1.1,0.6-2.3,1.3-3.6,2l0,0l0,0l0.2,0.3l-0.2-0.3
		c-14.2,8.1-32.3,19.1-49.2,19.4l0,0.4v-0.4h-2.3v0.4l0-0.4c-16.9-0.3-34.9-11.3-49.1-19.4l-0.2,0.3l0.2-0.3l0,0l0,0l0,0
		c-1.2-0.7-2.3-1.3-3.4-1.9h0c-6.9-3.8-12.7-6.7-16.8-6.7c-2.1,0-3.9,0.8-5,2.5l0.3,0.2h0.4v-10.7H231l0.4,0.1c1-3.4,3-4.6,6-4.7
		c6.6,0,17.8,6.7,30.1,13.5c12.3,6.8,25.9,13.7,37.6,14h2.3c11.7-0.4,25.2-7.3,37.5-14.1c12.3-6.8,23.5-13.5,30.1-13.4
		c3.1,0,5.1,1.3,6.1,4.7L381.6,163.6h-0.4H381.6"/>
	<path class="st0" d="M256.6,173.2c-0.3,0.5-0.7,0.9-1.2,1.1c-0.6,0.2-1,0.1-1.5-0.2l-0.7-0.4l2.2-3.7l0.8,0.5
		C257.1,171.1,257.2,172.1,256.6,173.2 M257.3,173.6c0.7-1.3,0.6-2.7-0.6-3.4l-1.6-1l-0.1,0l-2.7,4.5l0,0.1l1.4,0.9
		C255.1,175.5,256.4,175,257.3,173.6"/>
	<path class="st0" d="M261.9,176.5c-0.6,1-1.5,1.7-2.5,1.1c-0.4-0.2-0.7-0.7-0.7-1.2c0-0.5,0.2-1.1,0.5-1.5c0.3-0.5,0.6-0.9,1.1-1.2
		c0.5-0.2,1-0.2,1.4,0.1C262.7,174.3,262.5,175.5,261.9,176.5 M262.6,176.9c0.8-1.4,0.8-2.8-0.5-3.6c-0.6-0.4-1.3-0.6-2-0.2
		c-0.7,0.3-1.1,0.8-1.5,1.5c-0.4,0.6-0.7,1.3-0.6,2c0.1,0.8,0.5,1.2,1.1,1.6C260.5,178.9,261.7,178.3,262.6,176.9"/>
	<path class="st0" d="M267.1,182.6l-0.5-0.2l0-0.1l2.2-3.8l-3.1,2.8c-0.5,0.4-0.4,0.4-0.9,0l-0.1-0.4l0.7-3.1l0.2-1.1l-2.2,3.8
		l-0.1,0l-0.4-0.2l0-0.1l2.6-4.6l0.1,0l0.6,0.4l0.1,0.2l-1,4.7l3.5-3.2l0.3-0.1l0.6,0.4l0,0.1l-2.6,4.6L267.1,182.6"/>
	<path class="st0" d="M273.1,184l1.8-3.3l0-0.1l-0.4-0.2l-0.1,0l-1.7,3.2c-0.4,0.7-1,0.8-1.6,0.5c-0.6-0.3-0.9-0.9-0.5-1.6l1.7-3.2
		l0-0.1l-0.5-0.3l-0.1,0l-1.8,3.3c-0.6,1.1-0.1,1.9,0.9,2.4C271.6,185.2,272.6,185.1,273.1,184"/>
	<path class="st0" d="M275.1,186.9l-0.9-0.7l-0.1-0.2l0.2-0.4l0.1-0.1l0.1,0.1l0.8,0.7c0.4,0.2,0.9,0.2,1.2-0.3l-0.1-1l-0.5-1
		c-0.2-0.5-0.3-0.9-0.1-1.5c0.4-0.9,1.3-0.9,2-0.6l0.9,0.7v0.2l-0.2,0.4l-0.1,0.1l-0.1-0.1l-0.7-0.7c-0.4-0.2-0.9-0.2-1.1,0.3
		l0.1,0.8l0.5,1c0.3,0.5,0.4,1,0.1,1.5C276.8,187.2,275.9,187.3,275.1,186.9"/>
	<path class="st0" d="M284,190.8l-0.5-0.2l-0.1-0.1l0.2-2l-1.7-0.7l-1.2,1.5l-0.1,0l-0.4-0.2l-0.1-0.1l0.1,0l3.3-4l0.7-0.1l0.2,0.5
		l-0.4,5.2l0,0.1l0,0L284,190.8 M284,185.4l-1.6,2l1.3,0.5L284,185.4z"/>
	<path class="st0" d="M290.5,193l-0.5-0.2l0-0.1l1.4-4.2l-2.5,3.4c-0.4,0.5-0.3,0.4-0.9,0.2l-0.2-0.4l0-3.2v-1.1l-1.4,4.1l-0.1,0.1
		l-0.4-0.1l-0.1-0.1l1.6-5l0.1,0l0.7,0.2l0.1,0.2l0,4.8l2.7-3.9l0.3-0.2l0.7,0.2l0.1,0.1l-1.6,5L290.5,193"/>
	<polyline class="st0" points="293.6,193.7 294.9,188.6 294.8,188.5 294.3,188.3 294.2,188.4 292.9,193.5 293,193.6 293.5,193.7 
		293.6,193.7 	"/>
	<path class="st0" d="M299.4,194.5l0-0.5l-0.1,0l-1.3,0.1c-1.2-0.2-1.7-1.1-1.4-2.4c0.2-1.3,1-2.2,2.3-1.9l1,0.5l0.1,0.1l0.1-0.1
		l0.1-0.3l-0.1-0.2l-1.2-0.5c-1.6-0.3-2.8,0.7-3.1,2.4c-0.3,1.7,0.5,2.8,2,3.1l1.2,0L299.4,194.5"/>
	<path class="st0" d="M304,192.9l-1.5-0.1l0.9-2.4 M305.2,195.4L305.2,195.4l0-0.1l-1.1-5.1l-0.4-0.4c-0.5-0.1-0.5-0.2-0.7,0.3
		l-2,4.8l0,0.1l0.1,0.1l0.4,0l0.1-0.1l0.7-1.9l1.8,0.1l0.4,2l0.1,0.1l0.5,0L305.2,195.4"/>
	<path class="st0" d="M313,192.4c0.1,0.6,0,1.2-0.3,1.6c-0.3,0.5-0.8,0.7-1.3,0.8l-0.8,0.1l-0.5-4.2l0.9-0.1
		C312.1,190.4,312.9,191.1,313,192.4 M313.8,192.3c-0.2-1.5-1.1-2.5-2.5-2.4l-1.9,0.2l-0.1,0.1l0.6,5.2l0.1,0.1l1.7-0.2
		C313.2,195.1,314,193.9,313.8,192.3"/>
	<path class="st0" d="M319.3,191.1c0.3,1.1,0.1,2.3-1,2.6c-0.5,0.1-1,0-1.3-0.4c-0.4-0.4-0.6-0.9-0.7-1.4c-0.1-0.5-0.2-1.1,0-1.6
		c0.2-0.5,0.5-0.8,1-0.9C318.4,189,319,190,319.3,191.1 M320,190.9c-0.4-1.6-1.3-2.6-2.9-2.2c-0.7,0.2-1.3,0.5-1.6,1.2
		c-0.3,0.7-0.2,1.4,0,2.1c0.2,0.7,0.4,1.4,1,1.8c0.6,0.5,1.2,0.5,1.9,0.3C320,193.8,320.4,192.6,320,190.9"/>
	<path class="st0" d="M327.3,191.3l-0.5,0.2l-0.1,0l-1.5-4.1l0.1,4.2c0,0.6,0,0.5-0.6,0.7l-0.4-0.2l-1.9-2.6l-0.7-0.9l1.5,4.1l0,0.1
		l-0.4,0.1l-0.1-0.1l-1.7-4.9l0-0.1l0.7-0.2l0.2,0.1l2.9,3.8l-0.2-4.7l0.1-0.3l0.7-0.2l0.1,0.1l1.7,5L327.3,191.3"/>
	<path class="st0" d="M331.2,189.8c-0.9,0.4-1.9,0.3-2.4-0.8l-1.5-3.5l0-0.1l0.5-0.2l0.1,0l1.4,3.3c0.3,0.8,0.9,0.9,1.6,0.6
		c0.7-0.3,1-0.8,0.6-1.6l-1.4-3.3l0-0.1l0.4-0.2l0.1,0.1l1.5,3.4C332.6,188.6,332.2,189.4,331.2,189.8"/>
	<path class="st0" d="M335.6,187.7l-1.1,0.3l-0.2-0.1l-0.2-0.4l0-0.1h0.1l1-0.1c0.4-0.2,0.7-0.6,0.4-1.1l-0.8-0.5l-1.1-0.2
		c-0.5-0.1-0.9-0.3-1.1-0.9c-0.4-0.9,0-1.6,0.8-1.9l1-0.3l0.2,0.1l0.2,0.4l0,0.1l-0.1,0l-1,0.1c-0.4,0.2-0.6,0.6-0.4,1.1l0.7,0.4
		l1.1,0.2c0.5,0.1,1,0.3,1.3,0.9C336.9,186.6,336.4,187.3,335.6,187.7"/>
	<path class="st0" d="M343,180.8c0.5,1,0.7,2.2-0.4,2.7c-0.5,0.2-0.9,0.2-1.4,0c-0.5-0.3-0.8-0.7-1.1-1.2c-0.3-0.5-0.5-1-0.4-1.6
		c0.1-0.6,0.3-0.9,0.8-1.2C341.6,179,342.4,179.9,343,180.8 M343.6,180.5c-0.8-1.4-1.9-2.1-3.4-1.4c-0.7,0.4-1.1,0.8-1.3,1.6
		c-0.1,0.7,0.1,1.4,0.5,2.1c0.4,0.6,0.8,1.2,1.4,1.5c0.7,0.3,1.3,0.2,2-0.1C344.3,183.3,344.5,182,343.6,180.5"/>
	<path class="st0" d="M346.6,179.4l-0.6,0.3l1,1.8l0,0.1l-0.5,0.3l-0.1-0.1l-2.6-4.6l0-0.1l1.2-0.7c0.8-0.5,1.7-0.3,2.2,0.6
		C347.9,178.1,347.5,178.9,346.6,179.4 M345.2,177.1l-0.5,0.3l1,1.8l0.5-0.3c0.6-0.3,0.8-0.8,0.4-1.4
		C346.3,176.9,345.8,176.8,345.2,177.1"/>
	<polyline class="st0" points="350.7,174 349.5,174.7 351.9,178.8 351.8,178.9 351.4,179.2 351.2,179.2 348.9,175.1 347.6,175.8 
		347.5,175.7 347.3,175.4 347.3,175.2 350.4,173.5 350.5,173.5 350.7,173.9 350.7,174 	"/>
	<polyline class="st0" points="355.1,177 352.4,172.4 352.3,172.4 351.8,172.7 351.8,172.8 354.4,177.3 354.6,177.4 355,177.1 
		355.1,177 	"/>
	<path class="st0" d="M361,173.7l-0.5,0.3l-0.1,0l-2.2-3.8l0.9,4.1c0.1,0.6,0.1,0.5-0.4,0.8l-0.4-0.2l-2.3-2.2l-0.8-0.8l2.2,3.8
		l0,0.1l-0.4,0.2l-0.1,0l-2.6-4.6l0-0.1l0.6-0.4l0.2,0l3.6,3.3l-1-4.6l0.1-0.3l0.6-0.4l0.1,0l2.6,4.6L361,173.7"/>
	<path class="st0" d="M363.8,169.4l-1.3,0.7l-0.5-2.5 M366.2,170.8L366.2,170.8L366.2,170.8l-3.8-3.7l-0.5-0.1
		c-0.4,0.2-0.5,0.1-0.4,0.6l0.9,5.1l0,0.1l0.1,0l0.4-0.2l0-0.1l-0.4-2l1.6-0.8l1.4,1.4l0.1,0l0.4-0.2L366.2,170.8"/>
	<polyline class="st0" points="254.3,129.3 306.3,96.8 358.4,130 353.8,137.3 306.3,107 258.7,136.6 	"/>
	<polyline class="st0" points="362.5,122.7 306.3,87.3 250.5,122.2 247.1,114.4 306.3,77.2 365.5,115 	"/>
	<path class="st0" d="M240.2,86.4c0,16.7,5.9,34.2,17.5,51.9c12.4,19.2,33.2,33.8,47.4,41.4l0.7,0.4l0.6,0.3l1.2-0.7l-0.6-1l0.6,1
		c14.2-7.7,36.8-24.4,49-43l0,0.1l0-0.1c11.7-17.8,15.8-33.5,15.8-50.3V34.6H240.2V86.4h2.4V37h127.3v49.5c0,16.4-4,31.5-15.4,49
		c-11.9,18.1-34.3,34.7-48.2,42.3l0,0l0,0l0,0l0,0c-13.9-7.5-34.4-22-46.5-40.6c-11.4-17.5-17.1-34.5-17.1-50.6H240.2"/>
	<path class="st0" d="M228.6,17.5c0.4,1,0,1.6-0.8,2l-0.7,0.3l-1.2-2.8l0.8-0.4C227.5,16.4,228.2,16.6,228.6,17.5 M229.6,17
		c-0.6-1.4-1.8-1.7-3.1-1.2l-1.9,0.8l-0.1,0.2l3,7l0.1,0.1l0.7-0.3l0.1-0.1l-1.2-2.8l0.9-0.4C229.7,19.6,230.3,18.6,229.6,17"/>
	<path class="st0" d="M235.2,16.9l-2,0.8L233,14 M238.5,19.4L238.5,19.4l-0.1-0.2l-4.7-5.9l-0.7-0.3c-0.7,0.2-0.8,0.1-0.7,0.9
		l0.5,7.5v0.1l0.2,0.1l0.6-0.2l0.1-0.1l-0.2-2.9l2.4-0.9l1.8,2.3l0.1,0l0.7-0.3L238.5,19.4"/>
	<path class="st0" d="M241.8,12.3c0.3,1-0.1,1.5-0.9,1.8l-0.7,0.3l-0.9-2.6l0.9-0.3C240.9,11.1,241.5,11.5,241.8,12.3 M245.3,17
		l-0.1-0.1l-3.6-2.6c1.1-0.4,1.6-1.3,1.2-2.5l-0.8-1.2c-0.6-0.4-1.2-0.3-1.8-0.1l-2.1,0.7l-0.1,0.2l2.5,7.2l0.2,0.1l0.7-0.3l0.1-0.2
		l-1.2-3.3l0.5,0l3.3,2.5l0.1,0l0.9-0.3L245.3,17"/>
	<polyline class="st0" points="248.6,16.1 247.8,16.4 247.7,16.3 245.4,9 245.5,8.8 246.3,8.6 246.4,8.7 248.7,16 248.6,16.1 	"/>
	<path class="st0" d="M253.2,14.9c-0.5,0.1-1.1,0.2-1.6,0.1l-0.3-0.2l-0.2-0.7l0.1-0.2l0.2,0c0.5,0.2,1.1,0.2,1.5,0
		c0.7-0.2,1.2-0.7,0.9-1.5c-0.2-0.6-0.5-0.8-1-1l-1.5-0.6c-0.7-0.3-1.2-0.7-1.4-1.5c-0.4-1.4,0.4-2.3,1.6-2.6
		c0.4-0.1,1.1-0.2,1.5-0.1l0.2,0.2l0.2,0.6l-0.1,0.2l-0.2-0.1c-0.5-0.2-0.9-0.2-1.4-0.1c-0.6,0.2-1.1,0.6-0.9,1.4
		c0.1,0.5,0.4,0.7,0.8,0.8l1.5,0.6c0.8,0.3,1.3,0.7,1.6,1.6C255.4,13.6,254.4,14.6,253.2,14.9"/>
	<polyline class="st0" points="350.9,13 347.5,12.3 347.4,12.2 348.5,4.6 348.6,4.5 349.4,4.7 349.5,4.8 348.5,11.7 351,12.2 
		351.2,12.4 351.1,12.9 350.9,13 	"/>
	<path class="st0" d="M358.8,11c-0.3,1.6-1.2,3.1-2.8,2.6c-0.7-0.2-1.3-0.6-1.6-1.4c-0.3-0.8-0.2-1.6-0.1-2.4c0.2-0.8,0.4-1.6,1-2.1
		c0.6-0.5,1.2-0.7,1.9-0.5C358.9,7.6,359.1,9.3,358.8,11 M359.9,11.2c0.5-2.4-0.2-4.3-2.5-4.8c-1-0.3-2-0.3-2.8,0.5
		c-0.8,0.7-1.1,1.7-1.3,2.7c-0.2,1-0.2,2.1,0.2,3c0.5,1.1,1.3,1.5,2.3,1.8C358.1,15,359.4,13.7,359.9,11.2"/>
	<polyline class="st0" points="366.8,17.3 366.2,17.1 365.8,16.4 363.9,9.5 362.5,15.9 362.3,16 361.8,15.8 361.7,15.6 363.4,8.2 
		363.5,8.1 364.5,8.4 364.7,8.6 366.5,15.6 367.9,9.6 368.1,9.5 368.6,9.6 368.7,9.8 367,17.2 366.8,17.3 	"/>
	<path class="st0" d="M375.7,16c-0.2,0.8-0.6,1.5-1.3,2c-0.7,0.5-1.4,0.5-2.2,0.2l-1.1-0.4l1.6-6l1.3,0.4
		C375.5,12.8,376.1,14.3,375.7,16 M376.7,16.3c0.6-2.1-0.2-4.1-2.1-4.8l-2.6-0.9l-0.1,0.1l-2,7.4l0.1,0.2l2.3,0.8
		C374.4,19.8,376.1,18.6,376.7,16.3"/>
	<path class="st0" d="M384.2,19.4c-0.5,1.6-1.5,2.9-3.1,2.2c-0.7-0.3-1.2-0.8-1.4-1.6c-0.2-0.8-0.1-1.6,0.2-2.3
		c0.2-0.8,0.6-1.5,1.2-2c0.6-0.5,1.2-0.5,2-0.3C384.7,16,384.7,17.8,384.2,19.4 M385.3,19.7c0.7-2.2,0.3-4.2-1.9-5.1
		c-1-0.4-1.9-0.5-2.9,0.1c-0.9,0.6-1.3,1.5-1.6,2.5c-0.3,1-0.5,2-0.1,3c0.4,1.1,1.1,1.7,2.1,2.1C383.1,23.3,384.5,22.1,385.3,19.7"
		/>
	<polyline class="st0" points="391.4,26.9 390.8,26.6 390.5,25.9 389.6,18.8 387.2,24.7 387.1,24.8 386.6,24.5 386.5,24.3 
		389.3,17.3 389.5,17.3 390.4,17.7 390.5,18 391.3,25.2 393.6,19.5 393.8,19.4 394.3,19.7 394.4,19.8 391.5,26.8 391.4,26.9 	"/>
	<path class="st0" d="M315.1,11.3c-0.9-1.9-2.5-4.5-4.9-6.2c-2.2-1.6-4.4-2.4-6.5-2.4h-4.2v17.5h4.2c2.1,0,4.2-0.8,6.4-2.4
		c2.4-1.7,4-4.3,4.9-6.2l0.1-0.2L315.1,11.3 M302.6,5.8h1.2c1.5,0,3,0.5,4.6,1.6c1.2,0.8,2.3,2.2,3.4,4.1c-1.2,1.9-2.3,3.3-3.4,4.1
		c-1.6,1.1-3.2,1.6-4.6,1.6h-1.2V5.8z"/>
	<line class="st0" x1="300.5" y1="53.5" x2="300.5" y2="53.5"/>
	<polyline class="st0" points="300.5,53.6 300.5,53.5 300.5,53.5 	"/>
	<path class="st0" d="M264.2,62.6L264.2,62.6L264.2,62.6 M267.4,67.4c-1.3,0-2.4-1.2-2.4-2.6c0-0.7,0.3-1.4,0.7-1.9
		c0.5,1,2,1.9,4,2.3C269.5,66.4,268.6,67.4,267.4,67.4 M274.8,65.8l-0.6,2.1l0.1,1.3c0.1,1.1-0.2,2.4-0.3,3.5c0,0.5,0.3,1.5-0.4,1.7
		c-0.7-0.2-0.4-1.2-0.4-1.7c-0.1-1.1-0.8-2.4-0.6-3.5l0.4-1.3l-0.5-2.1c-0.1-1.9-0.1,0.5-0.1-2.6c0-0.7,0.3-1,1.1-1
		c0.8,0,1.4,0.3,1.4,1C274.9,66.3,274.9,63.8,274.8,65.8 M279.9,67.4c-1.2,0-2.2-1-2.3-2.2c2-0.3,3.6-1.3,4-2.3
		c0.5,0.5,0.7,1.1,0.7,1.9C282.3,66.2,281.2,67.4,279.9,67.4"/>
	<line class="st0" x1="365.3" y1="53.6" x2="365.3" y2="53.6"/>
	<line class="st0" x1="365.3" y1="53.7" x2="365.3" y2="53.6"/>
	<path class="st0" d="M330.5,63c-0.4,0.5-0.7,1.2-0.7,1.9c0,1.5,1.1,2.6,2.4,2.6c1.2,0,2.2-1,2.3-2.2C332.5,64.9,331,64,330.5,63"/>
	<path class="st0" d="M342.3,65.2c0.2,1.2,1.1,2.2,2.3,2.2c1.3,0,2.4-1.2,2.4-2.6c0-0.7-0.3-1.4-0.7-1.9
		C345.9,64,344.3,64.9,342.3,65.2"/>
	<path class="st0" d="M338.2,62.2c-0.8,0-1.1,0.3-1.1,1c0,3.1,0,0.6,0.1,2.5l0.5,2.1l-0.4,1.4c-0.1,1.1,0.5,2.4,0.6,3.5
		c0.1,0.6-0.3,1.5,0.4,1.7c0.7-0.2,0.3-1.1,0.4-1.7c0.1-1.1,0.4-2.4,0.3-3.5l0-1.4l0.6-2.1c0.1-1.9,0.1,0.5,0.1-2.5
		C339.6,62.5,339,62.3,338.2,62.2"/>
	<line class="st0" x1="333.1" y1="134.5" x2="333.1" y2="134.5"/>
	<polyline class="st0" points="333.1,134.6 333.1,134.5 333.1,134.5 	"/>
	<path class="st0" d="M296.9,143.7L296.9,143.7L296.9,143.7 M300,148.4c-1.3,0-2.4-1.2-2.4-2.6c0-0.7,0.3-1.4,0.7-1.9
		c0.4,1,2,1.9,4,2.3C302.2,147.4,301.2,148.4,300,148.4 M307.4,146.7l-0.6,2.1l0,1.3c0.2,1.1-0.2,2.4-0.3,3.5c0,0.5,0.3,1.5-0.4,1.7
		c-0.7-0.2-0.4-1.1-0.4-1.7c-0.1-1.1-0.8-2.4-0.6-3.5l0.4-1.3l-0.6-2.1c-0.1-1.9-0.2,0.5-0.1-2.6c0-0.7,0.3-1,1.1-1
		c0.8,0,1.4,0.3,1.4,1C307.5,147.3,307.5,144.8,307.4,146.7 M312.5,148.4c-1.2,0-2.1-1-2.3-2.3c2-0.3,3.6-1.3,4-2.3
		c0.4,0.5,0.7,1.1,0.7,1.9C314.9,147.2,313.8,148.4,312.5,148.4"/>
	<polyline class="st0" points="350.4,44.4 350.4,36 349.5,36 349.5,44.8 350.4,44.5 	"/>
	<polyline class="st0" points="359.2,47.1 359.2,36 358.2,36 358.2,46.2 359.2,47.1 	"/>
	<rect x="244.7" y="36" class="st0" width="0.9" height="73.7"/>
	<path class="st0" d="M363.5,51.6V36h-1v15.3c-0.6-0.1-1.4-0.3-1.4-0.3l-0.9-2.3c-1.3-2.4-3.1-3.5-5.4-4.3V36h-1v8.2l0.3,0.1
		c-2.8-0.6-5.6,0.8-8,2.3V36h-1v11.1l-0.4,0.3c0,0-2.1,1.2-3,1.6V36h-0.9v13.1c-0.6-0.2-1.5-0.4-2.2-0.4l-1.3,0.2V36h-1v13.2
		l-0.6,0.1c0,0-2-1.2-2.8-1.6V36h-1v11c-1.1-0.7-2.2-1.4-3.4-1.9V36h-1v8.7c-1.1-0.4-2.3-0.7-3.4-0.6V36h-0.9v8.2l-0.7,0.2
		c-1.1,0.3-2.1,0.8-3,1.4l0.3-0.2V36h-0.9v10.3l0.3-0.2c-0.8,0.7-1.5,1.5-2.1,2.6l-0.9,2.3l-0.2,0l-0.5,0.1V36h-0.9v15.3l-0.5,0.1
		c-2,0.6-3.2,1.6-3.2,2.6l0,0v0l0.3-0.8V36h-0.9v93.7l0.9-0.6V54.8c0.3,0.4,0.7,0.7,1.7,0.6l0.3,0h1.4v71.7l0.9-0.6V57.7l-0.2-2.2h0
		l0.3,3.2c0.7,2.9,1.8,4.9,3.3,6.1v60.5l0.9-0.2V65.4l0.1,0.1c1,0.5,2.2,0.6,3.3,0.3v59.8l0.9,0.4V65.3c1.1-0.8,2.2-2.4,2.2-2.4
		l0.4,1.4c0,0,0.1,0.5,0.1,1.4c-0.1,1.5,0.3,2.8,0.8,3.7V129l0.4,0.6c0,0,0.3,0.7,0.5,1.3V71.5c0.4,0.8,2,4.3,2,4.3l0.8,1.5l0,0.3
		l0.3,1.8l0.1,1.1l0.1,0.5l0,0.1v51.7l0.2,0.1l-1.1-0.5l-2.1-0.5l-0.9-2.3c-1.3-2.4-3.1-3.6-5.5-4.3c-3.6-1.1-7.1,1.2-10.1,3.1
		l-3.4,1.8c0,0-1.3-0.4-2.4-0.5l0,0V36h-0.9v93.7c-1,0.2-2,0.5-2.2,0.5c0,0-0.6-0.3-1.3-0.7l0.1,0V36h-1v17.3
		c-0.4-0.7-1.4-1.4-3-1.9l-0.4-0.1V36h-1v15.1l-0.8-0.2l-0.9-2.3c-0.5-0.9-1.1-1.6-1.8-2.2V36h-0.9v9.7c-0.8-0.6-1.8-1-2.8-1.3
		l-0.6-0.1V36h-1V44c-1.2-0.1-2.3,0.2-3.4,0.6V36h-1v9c-1.2,0.5-2.3,1.2-3.4,1.9V36h-0.9v11.5c-0.7,0.4-3,1.7-3.2,1.7l-0.2-0.1V36
		h-1v12.9c-0.5-0.1-1-0.2-1.5-0.2c-0.6,0-1.3,0.2-1.9,0.3V36h-1v13.2l-3.1-1.8l-0.3-0.2V36h-1v10.6c-1.2-0.7-2.4-1.4-3.7-1.9
		l0.3,0.1V36h-1v8.5c-1.1-0.3-2.2-0.5-3.4-0.3V36h-1v8.3l-0.1,0c-1.3,0.4-2.4,0.9-3.3,1.7V36h-1v10.9c-0.4,0.5-0.8,1-1.2,1.7
		l-0.9,2.3l-0.2,0c0,0-0.6,0.1-1.1,0.3V36h-1v15.5c-1.9,0.7-3,1.5-3,2.5v0c0.1,0.7,0.4,1.6,2,1.4l0.3,0h0.7v65.8h1V55.3h0.1l0.3,0.1
		l0.3,3.1c0.6,2.5,1.5,4.3,2.6,5.5l0,0v65.8h1v-65l-0.1-0.1l0.8,0.6c0.8,0.4,1.7,0.6,2.6,0.5v71.3h1V65.7l0,0
		c1.2-0.4,2.9-2.7,2.9-2.7l0.3,1.4c0,0,0.1,0.5,0.1,1.4c0,0.5,0,1,0.1,1.5v76.2h1V70.1l0,0c0.3,0.6,0.6,1,0.6,1.1v0.1l2.1,4.5
		l0.8,1.5v0l-0.1-0.1v71.7h1V81.4l-0.3-0.5l0,0l0.6,0.9l0.6,0.6l0.3,0.8l0.6,1.1c0.5,0.5,1.1,1.1,1.8,1.6l-0.1-0.1v67.6h1V86.6
		l-0.1-0.1c0.4,0.3,0.9,0.5,1.2,0.5c0.4,0,1.3-0.3,2.3-0.8v71.4h1V85.7c0.8-0.4,1.5-0.9,1.9-1.3l0.3-0.9l0.2-0.4l0.6-0.7l0.5-0.5
		v51.6c-0.6,0.4-0.9,0.9-0.9,1.5v0c0.1,0.5,0.2,1.1,0.9,1.3v25.3h0.9v-25.2h0.1l0.3,0h1.8l0.3,0.1l0.3,3.2c0.2,0.6,0.4,1.2,0.6,1.7
		V165h1v-21.5c0.8,1.3,1.7,2.3,2.8,2.9l0.6,0.2v21.7h1v-21.5c0.7,0.1,1.5,0,2.2-0.2l1.3-0.9v25.6h0.9v-26.7l0.6-0.8l0.4,1.4
		c0,0,0.1,0.5,0.1,1.4c-0.2,3,1.6,5.2,1.6,5.5v0c0,0,0.3,0.7,0.7,1.6v20.4h1v-18.4c0.2,0.5,0.4,0.9,0.4,0.9l0.8,1.5l0,0.3l0.3,1.8
		l0.1,1.1l0.1,0.5l0.6,0.9l0.6,0.6l0.3,0.8l0.2,0.4v12.3h1v-11.1c1,1,2.4,2.2,3.2,2.2l0.2,0v11.3h0.9v-11.6c1.1-0.4,2.5-1.2,3.4-1.8
		v10.9h0.9v-12.6l0.1-0.1l0.6-0.7l0.6-0.6l0.6-0.9l0.1-0.5l0.1-0.3l0.1-0.9l-0.1-1.7l0-0.3l0.8-1.5c0,0,0.3-0.6,0.6-1.4v18.7h0.9
		v-20.9c0.2-0.4,0.4-0.8,0.5-0.9c1.9-3.1,2.1-6.9,2.1-6.9c0-0.7,0-1.2,0-1.2l-0.1-0.6c0.1,0.6,0.5,1.1,0.9,1.5v26.1h0.9v-25.4
		c0.6,0.4,1.2,0.7,1.6,0.8c0.6,0.2,1.2,0.3,1.8,0.2v21.2h0.9v-21.3l0.9-0.4c1-0.5,1.8-1.3,2.5-2.3v20.7h1v-22.5
		c0.3-0.8,0.6-1.7,0.9-2.7l0.3-2.8l0-0.4h2.1l0.1,0v24.9h1v-24.9c1-0.1,1.2-0.8,1.3-1.5c0-0.6-0.6-1.2-1.6-1.7l0.3,0.1V82.3l0.2,0.2
		l0.3,0.8l0.6,1.1c0.6,0.6,1.5,1.5,2.3,2v71h1V86.9l0.5,0.1c0.6,0,1.8-0.5,2.9-1.1v67.4h0.9v-68c0.5-0.3,1-0.7,1.3-0.9l0.3-1
		l0.2-0.4l0.6-0.7l0.6-0.5l0.6-1v-0.1v68h1V76l0.1-0.2l2-4.4c0.6-1,1-2.1,1.3-3.1v75.4h0.9V63.3c0.7,1.2,2.3,2.1,3.2,2.4l0.2,0v72.3
		h1V65.9c0.9,0.1,1.7-0.1,2.5-0.5l0.9-0.6v66.5h1V63.9c1.1-1.2,1.9-2.9,2.5-5.3l0.3-2.9l0-0.4h0.5v67.7h1V55.4h0.6l0.3,0
		c1.6,0.2,2-0.7,2.1-1.5C366.4,53,365.3,52.2,363.5,51.6 M322.1,62l-0.3,0c-0.7,0.1-1.4-0.1-2-0.6c-1.1-0.9-1.8-2.5-2-4.6l0-0.4h0.4
		c0.8,0,1.6,0.4,2.3,1.3c1,1.1,1.7,2.7,1.7,4V62z M325.5,60.5l-0.2,0.4l-0.2,0c-0.5,0.1-0.8-0.4-1.2-1.1c-0.6-1.1-1.7-3.1-4.5-4.8
		c-1.6-1-4-0.9-5.5-0.9c-1.3,0-1.9,0-1.9-0.5l0.3-0.7c1-0.9,5.3-1.9,8.5-0.2C324.9,55,325.8,59.4,325.5,60.5 M327.9,56.7l-0.6,0.8
		c0,0-1.7-2.2-2.5-3.7l-0.3-0.3l0.4-0.2l1.4-0.3c0.5,0.1,2.1,0.6,2.4,1.4L327.9,56.7z M328.5,71.3L328.5,71.3L328.5,71.3L328.5,71.3
		L328.5,71.3 M301.6,53.8L301.6,53.8l0,0.2L301.6,53.8 M301.5,54.5L301.5,54.5l0,74.4l0.1,0.1c-0.6-0.4-1.1-0.6-1.1-0.6
		c-0.8-0.5-1.6-1-2.4-1.5V55.3h1.3l0.3,0C300.8,55.5,301.3,55,301.5,54.5 M292.7,65.2V125l0.1,0c-0.8-0.1-1.7,0-2.5,0.3
		c-0.5,0.2-0.9,0.3-1.3,0.5l0.2-0.1v-60c1.1,0.2,2.2,0.1,3.2-0.4c2.1-1.1,3.5-3.2,4.3-6.8l0.2-2.2v70.1c-1.2-0.6-2.4-1.1-3.7-1.3
		l0.3,0V64.6L292.7,65.2 M290.3,61.9v-0.3c0-1.3,0.7-2.9,1.7-4c0.7-0.8,1.5-1.3,2.3-1.3h0.4l-0.1,0.4c-0.2,2.1-1,3.8-2,4.6
		c-0.6,0.5-1.3,0.7-2,0.6L290.3,61.9z M300.2,52.9l0.3,0.5l0,0.1v0.1v-0.1c0,0.6-0.6,0.6-2,0.5c-1.6,0-3.9-0.1-5.5,0.9
		c-2.8,1.7-3.9,3.6-4.5,4.8c-0.4,0.7-0.6,1.2-1.1,1.1l-0.3-0.2l0-0.2c-0.3-1.1,0.5-5.5,4.8-7.8C294.9,51,299.2,52,300.2,52.9
		 M283.7,55.6c0.3-0.8,2.2-2.6,2.7-2.7l1.1,0.3l0.3,0.1l-0.2,0.4c-0.8,1.5-2.2,2.9-2.6,4.7l-0.3,0.2L283.7,55.6 M257.3,61.9L257,62
		c-0.7,0.1-1.4-0.1-2-0.6c-1-0.9-1.8-2.6-2-4.6l-0.1-0.4h0.4c0.7,0,1.5,0.4,2.3,1.2c1,1.1,1.7,2.7,1.7,4V61.9z M260.7,60.5l-0.2,0.4
		l-0.2,0c-0.5,0.1-0.7-0.4-1.1-1.1c-0.6-1.2-1.7-3.1-4.5-4.8c-1.6-1-3.9-0.9-5.5-0.9c-1.3,0-1.9,0.1-1.9-0.5l0.3-0.7
		c1-0.9,5.3-2,8.4-0.2C260.1,54.9,261,59.4,260.7,60.5 M262.5,57.5c0,0-1.7-2.3-2.5-3.7l-0.3-0.3l0.4-0.2l1.4-0.3
		c0.5,0.1,2.1,0.6,2.4,1.4l-0.7,2.3L262.5,57.5z M275.8,83.2c-0.4,0.9-1.4,1.3-2.3,1.2c-0.8,0.1-2.7-0.4-3.1-1.2l-0.2-0.5h2.3l1,0
		l2.7,0L275.8,83.2z M279.1,75.7l-0.1,0.5l-0.2,1l0.2,1.9l-0.3,1l-0.2,0.5l-0.8,0.6l-2.6,0.3l-0.2-0.1c-0.5-0.6-0.8-1.4-0.8-2.2
		l0.5-1l1.1-0.5l0.6-0.1l0.3-1.1l-0.2-0.3c-0.5-0.6-1.2,0.2-1.2,0.2l-0.4,0.4l-0.2,0.3l-1,0.4l-1-0.4l-0.2-0.3l-0.4-0.4
		c0,0-0.7-0.8-1.3-0.2l-0.1,0.3l0.2,1.1l0.6,0.1l1.1,0.5l0.6,1c0,0.8-0.9,1.6-1.4,2.2l-0.2,0.1l-1.5-0.3l-1.6-1.1l-0.3-1l0.2-1.9
		l-0.2-0.9l-0.1-0.5l-1.2-2.6c-0.3-0.5-2.2-4.1-2.2-4.1c-0.2-0.8-0.9-4.6-0.9-6.3l-0.1-1.9c0,0,0,0.2,0-0.3l0.2-1l3.2-4.4l-0.2-0.6
		c-1.1-1-3.2-2-3.6-2.4l-0.5-0.9l-0.2-0.5h0l-0.5,0.2l-0.9,0.2l-0.6-0.6l-0.6-0.6l-0.4,0.3l-0.7,0.4l-0.7-0.5l-0.1-0.2l-0.3,0.2
		l-0.6,0.4l-0.7-0.1l-0.3-0.2c0,0-0.2,0.1-0.3,1.1l-0.1,0.2l-0.4-0.3l-0.1-0.1l0,0l-0.7-0.3l-1.1,0l-0.4,0l0-0.1v0h0
		c0-0.4,0.2-0.9,0.4-1.4c0.2-0.5,0.5-1.1,0.9-1.5l0.7-0.5c0.5-0.3,1-0.6,1.2-0.6l1,0.3c0.4-0.2,0.6-1.1,1.3-1.4
		c0.6-0.3,0.7,1.1,1.6,0.9c0.9-0.2,1.1-0.7,1.6-0.6c0.5,0.1,0.5,1.2,0.9,1.3l1.3-0.5l0.7,1.6c0.4,0.2,1.4-1.1,1.6,0
		c0.2,1.1,0.8,0.5,1.1,0.6l0.6,1l1.4,0.1c1,0.3,1.2,1.3,2.2,1c0.5-0.1,1.5-0.3,2.5-0.4c1,0.1,2,0.3,2.4,0.4c0.9,0.3,1.2-0.7,2.2-1
		l1.4-0.1l0.6-1c0.2-0.1,0.9,0.5,1.1-0.6c0.2-1.1,1.2,0.2,1.6,0l0.7-1.6l1.3,0.5c0.4-0.1,0.4-1.2,0.9-1.3c0.5-0.1,0.7,0.4,1.5,0.6
		c0.2-0.2,0.7-0.6,1.3-0.7l0.4-0.1c0.6,0.3,0.8,1.1,1.2,1.3l0.6-0.2l0.2,0l0.3-0.1c0.4,0.1,1.3,0.5,2,1.3c0.7,0.8,1.1,2,1.2,2.7
		h-0.2l0,0l-1.1,0.1l-0.8,0.2l-0.3,0.1l-0.4,0.3l-0.1-0.2c-0.2-1-0.3-1.1-0.3-1.1l-0.3,0.1l-0.7,0.1l-0.6-0.4l-0.2-0.1l-0.2,0.2
		l-0.7,0.5l-0.7-0.4l-0.4-0.3l-0.6,0.6l-0.6,0.5l-0.9-0.2l-0.4-0.2l-0.2,0.4l-0.5,0.9c-0.4,0.4-4.9,2-4.3,2.9l2.9,4.4l0.1,0.4
		l0.5,3.8c0,2.7-0.2,4.5-0.6,5.6l-0.4,0.6l0,0.1c0,0-1.9,2.7-2.2,3.2L279.1,75.7 M280.6,79.3l0-0.1l-0.1-1.8l0-0.2l0.8-1.5l2-4.4
		c0.4-0.6,0.7-1.3,1-2l-0.3,0.8v61.7l0.9-2.3l0,0V67.3l-0.1,0.2c0.5-1.8,0.6-3.2,0.6-3.2c0-0.7,0-1.2,0-1.2l-0.1-0.6
		c0.3,1.4,1.9,2.4,3,2.9v60.7l0.1,0c-1.5,0.8-2.6,1.8-3.6,3.5l-0.9,2.3l-0.2,0l-1.9,0.4c-0.5,0.2-0.9,0.4-1.3,0.5V79.3z
		 M289.9,142.9l-0.3,0.1c-0.7,0.1-1.4-0.1-2-0.6c-1-0.9-1.7-2.5-2-4.6l-0.1-0.4h0.4c0.8,0,1.6,0.4,2.3,1.2c1,1.1,1.7,2.7,1.7,4
		V142.9z M291.8,140.7c-0.7-1.2-1.7-3.1-4.5-4.8c-1.6-0.9-4-0.9-5.5-0.8c-1.3,0-1.9,0.1-1.9-0.4l0.3-0.7c1-0.9,5.3-1.9,8.5-0.3
		c4.2,2.3,5.1,6.7,4.8,7.8l-0.2,0.4l-0.2,0C292.5,141.9,292.2,141.5,291.8,140.7 M295.2,138.4c0,0-1.7-2.2-2.5-3.7l-0.3-0.3l0.4-0.2
		l1.4-0.3c0.5,0.1,2.1,0.6,2.4,1.4l-0.7,2.3L295.2,138.4z M308.4,164.2c-0.3,0.9-1.4,1.3-2.2,1.3c-0.8,0-2.7-0.4-3.1-1.3l-0.2-0.4
		l2.3,0h1l2.7,0L308.4,164.2z M311.1,164.4l-0.3,0.9v0L311.1,164.4l0.1-0.2L311.1,164.4 M315.1,154.1l0.3-0.6L315.1,154.1
		 M314.8,154.8l0.1-0.2L314.8,154.8 M315.5,150.3l-0.4,0.6l0,0.1c0,0-1.9,2.7-2.2,3.2l-1.2,2.6l-0.1,0.5l-0.2,1l0.2,1.9l-0.3,0.9
		l-0.2,0.5l-0.8,0.6l-2.6,0.3l-0.2-0.1c-0.5-0.6-0.8-1.5-0.8-2.2l0.5-1l1.1-0.5l0.6-0.2l0.3-1l-0.2-0.3c-0.6-0.6-1.2,0.2-1.2,0.2
		l-0.4,0.4l-0.2,0.4l-1,0.4l-1-0.4l-0.2-0.4l-0.4-0.4c0,0-0.8-0.8-1.3-0.2l-0.1,0.3l0.2,1.1l0.6,0.2l1.1,0.5l0.5,1
		c0,0.7-0.9,1.6-1.4,2.2l-0.2,0.1l-1.4-0.3l-1.6-1.1l-0.3-0.9l0.2-1.9l-0.2-0.9l-0.1-0.5l-1.2-2.6c-0.3-0.5-2.2-4.1-2.2-4.1
		c-0.3-0.8-0.9-4.6-0.9-6.4l-0.1-1.9c0,0,0,0.2,0-0.3l0.2-1l3.2-4.5l-0.2-0.5c-1.1-1-3.2-2-3.5-2.4l-0.6-0.8l-0.2-0.5v0l-0.4,0.2
		l-0.9,0.3l-0.7-0.6l-0.6-0.6l-0.4,0.3l-0.7,0.4l-0.7-0.5l-0.2-0.2l-0.3,0.2l-0.6,0.4l-0.7-0.1l-0.2-0.1c0,0-0.2,0.1-0.4,1.1
		l-0.1,0.2l-0.4-0.3l-0.1-0.1v0l-0.7-0.3l-1.1,0l-0.4,0l0.1-0.1v0h0c0-0.4,0.2-0.9,0.4-1.4c0.2-0.5,0.5-1.1,0.9-1.5l0.7-0.5
		c0.5-0.4,1-0.6,1.2-0.6l1,0.3c0.4-0.2,0.6-1.1,1.2-1.4c0.6-0.3,0.7,1,1.6,0.9c0.9-0.2,1.1-0.7,1.6-0.6c0.5,0.1,0.5,1.2,0.9,1.3
		l1.3-0.5l0.7,1.6c0.4,0.2,1.4-1.1,1.6,0c0.2,1.1,0.8,0.5,1.1,0.6l0.6,1l1.4,0.1c0.9,0.3,1.2,1.3,2.2,1c0.5-0.1,1.5-0.3,2.4-0.4
		c1,0.1,2,0.3,2.4,0.4c1,0.3,1.2-0.7,2.2-1l1.4-0.1l0.6-1c0.3-0.1,0.9,0.5,1.1-0.6c0.2-1.1,1.2,0.1,1.6,0l0.7-1.6l1.3,0.5
		c0.4,0,0.4-1.2,0.9-1.3c0.5-0.1,0.7,0.4,1.5,0.6c0.3-0.2,0.7-0.6,1.3-0.7l0.4-0.1c0.6,0.3,0.8,1.1,1.2,1.4l0.6-0.2l0.2,0l0.3-0.1
		c0.4,0.1,1.3,0.5,2,1.3c0.7,0.8,1.1,2,1.2,2.7h-0.2v0l-0.4,0.1l-0.8,0l-0.8,0.2l-0.3,0.2l-0.4,0.3l-0.1-0.2c-0.2-1-0.3-1.1-0.3-1.1
		l-0.3,0.1l-0.7,0.1l-0.6-0.4l-0.2-0.1l-0.2,0.2l-0.8,0.5l-0.7-0.4l-0.4-0.3l-0.6,0.6l-0.6,0.6l-0.9-0.3l-0.4-0.2l-0.2,0.4l-0.5,0.9
		c-0.4,0.4-4.9,2.1-4.3,2.9l2.9,4.5l0.1,0.4l0.5,3.8C316.1,147.4,315.9,149.2,315.5,150.3 M317.7,139.5l-0.3,0.2l-1-3.1
		c0.3-0.8,2.2-2.5,2.7-2.7l1.1,0.3l0.3,0.1l-0.2,0.4C319.4,136.2,318,137.6,317.7,139.5 M327.3,137.7c-0.2,2.1-1,3.8-2,4.6
		c-0.6,0.5-1.3,0.7-2,0.6l-0.3-0.1v-0.3c0-1.3,0.6-2.9,1.7-4c0.7-0.8,1.6-1.3,2.3-1.3h0.4L327.3,137.7z M332.8,133.9l0.3,0.6v0.1
		l0,0.1v-0.1c0,0.6-0.6,0.6-1.9,0.5c-1.6,0-3.9-0.1-5.5,0.8c-2.8,1.7-3.9,3.7-4.5,4.8c-0.4,0.7-0.7,1.2-1.1,1.1l-0.3-0.2l-0.1-0.2
		c-0.3-1.1,0.6-5.5,4.8-7.8C327.5,132,331.8,133,332.8,133.9 M340.6,83.3c-0.3,0.9-1.4,1.3-2.2,1.2c-0.8,0.1-2.8-0.4-3.1-1.2
		l-0.2-0.5l2.3,0l1,0l2.7,0L340.6,83.3z M347.7,69.4l-0.4,0.6V70c0,0-1.9,2.7-2.2,3.2l-1.2,2.5l-0.1,0.5l-0.2,1l0.2,1.9l-0.3,1
		l-0.2,0.5l-0.8,0.6l-2.6,0.3l-0.2-0.1c-0.5-0.6-0.8-1.4-0.8-2.2l0.6-1l1.1-0.5l0.6-0.2l0.2-1l-0.1-0.3c-0.5-0.6-1.2,0.2-1.2,0.2
		l-0.4,0.4l-0.2,0.3l-1,0.5l-1-0.5l-0.2-0.3l-0.4-0.4c0,0-0.7-0.8-1.2-0.2l-0.1,0.3l0.2,1l0.6,0.2l1.1,0.5l0.6,1.1
		c0,0.7-0.9,1.6-1.4,2.2l-0.2,0.1l-1.5-0.3l-1.6-1.1l-0.3-1l0.2-1.9l-0.2-0.9l-0.1-0.6l-1.2-2.6c-0.3-0.5-2.2-4.1-2.2-4.1
		c-0.2-0.8-0.9-4.6-0.9-6.3l0-1.9c0,0,0,0.2,0-0.3l0.2-1l3.2-4.4l-0.2-0.5c-1.1-1-3.3-2-3.5-2.4l-0.5-0.8l-0.2-0.5l0,0l-0.5,0.2
		l-0.9,0.3l-0.6-0.6l-0.6-0.6l-0.4,0.3l-0.7,0.4l-0.7-0.5l-0.2-0.2l-0.3,0.2l-0.6,0.4l-0.7-0.1l-0.3-0.2c0,0-0.2,0.1-0.3,1.1
		l-0.1,0.2l-0.4-0.3l-0.2-0.1l0,0.1l-0.7-0.3l-1.1,0l-0.4,0l0.1-0.1v0h0c0-0.4,0.2-0.9,0.4-1.4c0.2-0.5,0.5-1.1,0.9-1.5l0.7-0.5
		c0.5-0.4,1-0.6,1.2-0.6l1,0.2c0.4-0.2,0.6-1.1,1.3-1.4c0.6-0.3,0.7,1,1.6,0.9c0.9-0.2,1.1-0.7,1.6-0.6c0.5,0.1,0.5,1.2,0.9,1.3
		l1.3-0.5l0.7,1.7c0.4,0.2,1.3-1.1,1.6,0c0.2,1.1,0.8,0.5,1.1,0.6l0.6,1l1.4,0.1c1,0.3,1.2,1.2,2.2,1c0.5-0.2,1.5-0.3,2.5-0.4
		c1,0.1,2,0.2,2.4,0.4c1,0.2,1.2-0.7,2.2-1l1.4-0.1l0.6-1c0.2-0.1,0.9,0.5,1.1-0.6c0.2-1.1,1.1,0.2,1.6,0l0.7-1.7l1.3,0.5
		c0.4-0.1,0.4-1.2,0.9-1.3c0.5-0.1,0.7,0.3,1.5,0.5c0.3-0.2,0.7-0.7,1.3-0.7l0.4-0.1c0.6,0.3,0.8,1.1,1.2,1.4l0.6-0.2l0.2,0l0.3-0.1
		c0.4,0,1.3,0.5,2,1.3c0.7,0.8,1.1,2,1.2,2.7h-0.2v0l-1.1,0.1l-0.8,0.2l-0.3,0.1l-0.4,0.3l-0.1-0.2c-0.2-1-0.4-1.1-0.4-1.1l-0.3,0.2
		l-0.8,0.1l-0.6-0.4l-0.2-0.1l-0.2,0.2l-0.7,0.5l-0.7-0.4l-0.4-0.3l-0.6,0.6l-0.6,0.6l-0.9-0.3l-0.4-0.1l-0.2,0.5l-0.5,0.8
		c-0.4,0.4-4.9,2-4.3,2.9l2.9,4.4l0.1,0.4l0.5,3.8C348.2,66.5,348.1,68.3,347.7,69.4 M349.8,58.5l-0.3,0.2l-1-3.1
		c0.3-0.8,2.2-2.5,2.7-2.6l1.1,0.3l0.3,0.1l-0.2,0.4C351.6,55.2,350.2,56.7,349.8,58.5 M359.4,56.8c-0.2,2.1-1,3.8-2,4.6
		c-0.6,0.5-1.3,0.7-2,0.6l-0.3,0v-0.3c0-1.3,0.7-2.9,1.7-4c0.7-0.8,1.5-1.3,2.3-1.3h0.4L359.4,56.8z M365.3,53.6L365.3,53.6
		L365.3,53.6c0,0.6-0.6,0.6-2,0.5c-1.6,0-3.9-0.1-5.5,0.9c-2.8,1.7-3.9,3.6-4.6,4.8c-0.4,0.7-0.6,1.2-1.1,1.1l-0.3-0.2l-0.1-0.2
		c-0.3-1.1,0.6-5.5,4.8-7.8c3.1-1.7,7.5-0.7,8.5,0.2L365.3,53.6L365.3,53.6"/>
	<rect x="366.9" y="36" class="st0" width="0.9" height="76"/>
</g>
</svg>
