<?xml version="1.0" encoding="utf-8"?>
<!-- Generator: Adobe Illustrator 24.3.0, SVG Export Plug-In . SVG Version: 6.00 Build 0)  -->
<svg version="1.1" id="レイヤー_1" xmlns="http://www.w3.org/2000/svg" xmlns:xlink="http://www.w3.org/1999/xlink" x="0px"
	 y="0px" viewBox="0 0 427.9 44.5" style="enable-background:new 0 0 427.9 44.5;" xml:space="preserve">
<style type="text/css">
	.st0{fill:#FFFFFF;}
</style>
<g>
	<g>
		<rect y="4.6" class="st0" width="8.9" height="38.8"/>
		<path class="st0" d="M52.9,34.2c-0.7-2.9-2.8-5.5-6.6-8.3c-4.6-3.3-9.8-7.4-11.9-9c-1.3-1-4.4-3.4-4.4-4c0-1.6,0.7-1.7,2.8-1.7
			c2.5,0,4.8-0.1,7.5,0c4.3,0.1,6.4,0,6.4,0l0-6.9c0,0-14.9,0-16.8,0c-5.2,0-7.9,2.5-7.9,6.3c0,1.9,0,5.9,5.4,10.1
			c3.8,3,10.1,7.6,13.1,10c2.5,1.9,3.9,3.7,3.9,5c0,1.5-1.3,1.8-4.6,2c-1.5,0.1-12.8-0.3-12.8-0.3l-0.2,7.1c0,0,3.3,0.1,8.9,0
			c2.1,0,4.4,0,5.9,0c2.7,0,5.5-0.7,7.6-1.9c2.2-1.3,3.7-3.3,3.8-5.2C53.2,36.2,53.2,35.2,52.9,34.2z"/>
		<path class="st0" d="M72.2,25.7h11.4v-6.6H72.1v-6.8c0,0,2.3-0.5,9.6-0.5c7.7,0,10.8,0.4,10.8,0.4l-1.3-7.2c0,0-6.2-0.3-10.3-0.3
			c-11.7,0-15.6,0.3-15.6,0.3v39.4c0,0,7.2,0.1,16.3,0.1c5.5,0,9-0.1,9-0.1l2-7.2c0,0-4.8,0.6-10.1,0.6c-7.9,0-10.2-0.6-10.2-0.6
			V25.7z"/>
		<path class="st0" d="M132.9,4.7c0,0-6.8-0.4-14.8-0.4c-8,0-15.7,0.4-15.7,0.4l-2.1,7.2c0,0,8.2-0.5,12.2-0.5c0.9,0,1.7,0,1.7,0
			l-0.1,32.5h8.1l-0.1-32.5c5.6,0,0.4,0,1.1,0c2.9,0,12.5,0.5,12.5,0.5L132.9,4.7z"/>
		<path class="st0" d="M153.6,5.3l-16.4,38.1h7.7l2.6-6.5h19.5l2.8,6.5h8L160.1,5.3H153.6z M150.1,31.1L157,13l7.8,18.2L150.1,31.1z
			"/>
		<path class="st0" d="M213.6,4.1v10.2c0,0-8.1-7.8-16-10.2h-8.5v39.3h6.5V10.8c0,0,11.4,3.6,15.1,10.1c4.3,7.6,2.9,22.6,2.9,22.6h7
			V4.1H213.6z"/>
	</g>
	<g>
		<path class="st0" d="M275.7,5.4V15c0,0,4.4-7,11.5-9.6h7.4v38.1h-7V11.7c0,0-5.4,3.5-9.1,9.7c-4.3,7.3-2.9,21.9-2.9,21.9h-6.5v-38
			H275.7z"/>
		<path class="st0" d="M257.3,5.4V15c0,0,4.4-7,11.5-9.6h6.9v38.1h-6.5V11.7c0,0-5.4,3.5-9.1,9.7c-4.3,7.3-2.9,21.9-2.9,21.9h-7.1
			v-38H257.3z"/>
	</g>
	<path class="st0" d="M388.8,13.8h-4.1l-1.1-7.2V0h6.3v6.5L388.8,13.8z"/>
	<path class="st0" d="M313,24.8h11.2v-6.5h-11.4v-6.7c0,0,2.3-0.5,9.4-0.5c7.6,0,10.6,0.4,10.6,0.4l-1.3-7.1c0,0-6.1-0.3-10.2-0.3
		c-11.5,0-15.3,0.3-15.3,0.3v38.8c0,0,7.1,0.1,16,0.1c5.5,0,8.8-0.1,8.8-0.1l1.9-7.1c0,0-4.8,0.6-9.9,0.6c-7.7,0-10-0.6-10-0.6V24.8
		z"/>
	<path class="st0" d="M368.2,4.5v10c0,0-8-7.7-15.7-10h-8.3v38.6h6.4V11c0,0,11.2,3.6,14.8,9.9c4.3,7.5,2.8,22.2,2.8,22.2h6.9V4.5
		H368.2z"/>
	<path class="st0" d="M427.6,33.2c-0.7-2.8-2.7-5.4-6.5-8.2c-4.5-3.3-9.7-7.3-11.7-8.9c-1.2-1-4.4-3.3-4.4-3.9
		c0-1.6,0.7-1.7,2.8-1.7c2.5,0,4.7-0.1,7.4,0c4.3,0.1,6.3,0,6.3,0l0-6.8c0,0-14.7,0-16.6,0c-5.1,0-7.8,2.5-7.8,6.2
		c0,1.9,0,5.8,5.3,9.9c3.7,2.9,9.9,7.5,12.9,9.8c2.5,1.9,3.9,3.6,3.9,4.9c0,1.5-1.3,1.7-4.5,1.9c-1.5,0.1-12.5-0.3-12.5-0.3l-0.2,7
		c0,0,3.2,0,8.7,0c2.1,0,4.4,0,5.8,0c2.7,0,5.4-0.7,7.4-1.9c2.1-1.3,3.6-3.2,3.8-5.1C427.8,35.1,427.8,34.1,427.6,33.2z"/>
</g>
</svg>
