<?xml version="1.0" encoding="utf-8"?>
<!-- Generator: Adobe Illustrator 23.0.6, SVG Export Plug-In . SVG Version: 6.00 Build 0)  -->
<svg version="1.1" id="レイヤー_1" xmlns="http://www.w3.org/2000/svg" xmlns:xlink="http://www.w3.org/1999/xlink" x="0px"
	 y="0px" viewBox="0 0 953 315" style="enable-background:new 0 0 953 315;" xml:space="preserve">
<style type="text/css">
	.st0{fill:#FFFFFF;}
</style>
<g>
	<path class="st0" d="M553.4,148.1L521.5,88l-9.2,4.9c0,0,1.6,3.1,2.4,4.6c0.8,1.5,0.4,3.3-1.3,4.2c-12.2,6.2-21.1,8.1-32.7,8.1
		c-8.8,0-16-3-21.1-8c-5-5-8.1-12-8.1-20.6c0-8.5,3.1-15.6,8.1-20.7c5-5.1,12-8.2,20.3-8.2c9.8,0,18.3,1.7,30.8,7.2
		c2.7,1.2,2.9,3.6,2.1,5c-0.7,1.3-2.4,4.6-2.4,4.6l9.3,4.8l31.7-61.4l-9.3-4.8c0,0-0.8,1.5-1.6,3.2c-0.8,1.7-3.5,3.3-7,1.7
		c-18.2-8.3-35.6-12.3-53.6-12.3c-22.6,0-42.7,8.6-57.1,23.2c-14.3,14.5-22.9,34.8-22.9,57.8c0,23.3,8.5,43.6,23.1,57.9
		c14.6,14.3,35.1,22.6,58.6,22.5c0,0,0.1,0,0.1,0c17.3,0,33.8-4.1,53-13.1c4-1.8,6.5-1,7.1,0c0.6,1,2.3,4.2,2.3,4.2L553.4,148.1z
		 M531,139c-18.5,8.8-33.6,12.4-49.4,12.4c-21.1,0-38.8-7.3-51.3-19.6c-12.5-12.3-19.9-29.6-19.9-50.4c0-20.4,7.5-37.9,19.9-50.5
		c12.4-12.5,29.6-20,49.6-20c16.4,0,32.1,3.6,49.2,11.3c2.7,1.4,3.5,4,2.3,6.5c-0.7,1.5-7.1,13.9-10.3,20c-1.3,2.2-3.8,2.4-6.1,1.3
		c-13.4-5.8-23.8-8.1-35-8.1c-10.9,0-20.7,4.2-27.7,11.3c-7,7.1-11.1,17-11.1,28c0,11.2,4.1,21.1,11.2,28.1c7.1,7,17.1,11,28.4,11
		c10.5,0,23.7-2.5,36.6-8.8c2.9-1.2,4.6-0.1,5.6,1.6c0.7,1.3,7.2,13.6,10.6,19.9C534.7,135.3,533.8,137.6,531,139z"/>
	<g>
		<path class="st0" d="M291.1,313.9h-19.7v-3.7c0,0,2.1-0.2,3.7-0.4c1.6-0.2,2.8-0.8,2.8-2.6c0-1.2,0-23.3,0-31.3
			c0-4.3-0.3-5.9-2.5-6.8c-1.8-0.7-3.9-0.9-3.9-0.9v-3.1h12.8l32.2,33.4c0,0,0-25.9,0-27.1c0-1.4-1.1-2.1-2.7-2.5
			c-1.7-0.4-3.7-0.6-3.7-0.6v-3.1h19.6v3.1c0,0-2.3,0.2-3.7,0.6c-1.5,0.4-2.7,1.1-2.7,2.5c0,1.1,0,42.6,0,42.6h-6.4l-32.2-33.4
			c0,0,0,25.2,0,26.8c0,1.6,1,2.4,2.6,2.5c1.6,0.2,3.8,0.4,3.8,0.4V313.9z"/>
		<path class="st0" d="M840.7,313.9H821v-3.7c0,0,2.1-0.2,3.7-0.4c1.6-0.2,2.8-0.8,2.8-2.6c0-1.2,0-23.3,0-31.3
			c0-4.3-0.3-5.9-2.5-6.8c-1.8-0.7-3.9-0.9-3.9-0.9v-3.1h12.8l32.2,33.4c0,0,0-25.9,0-27.1c0-1.4-1.1-2.1-2.7-2.5
			c-1.7-0.4-3.7-0.6-3.7-0.6v-3.1h19.7v3.1c0,0-2.3,0.2-3.7,0.6c-1.5,0.4-2.7,1.1-2.7,2.5c0,1.1,0,42.6,0,42.6h-6.4l-32.2-33.4
			c0,0,0,25.2,0,26.8c0,1.6,1,2.4,2.6,2.5c1.6,0.2,3.8,0.4,3.8,0.4V313.9z"/>
		<path class="st0" d="M185.8,313.9h-47.1v-3.7l7.7-0.6c0,0,0-37.6,0-38.6c0-1-0.8-1.9-2.1-2.2c-1.7-0.3-5.6-0.6-5.6-0.6v-3.1h25.8
			v3.1c0,0-3.9,0.3-5.5,0.6c-1.3,0.2-2.3,1.1-2.3,2.2c0,1.1,0,38.6,0,38.6s12.7,0,15.3,0c3,0,6.5-0.5,7.5-2.6
			c0.8-1.5,1.5-4.7,1.5-4.7h5.5L185.8,313.9z"/>
		<path class="st0" d="M66,289.4c0-18.7,12.4-25.5,29.5-25.5c17.1,0,29.5,6.8,29.5,25.5c0,18.7-12.4,25.5-29.5,25.5
			C78.4,314.8,66,308.1,66,289.4z M95.5,268.2c-10.9,0-17.9,7.9-17.9,21.2c0,13.2,7.1,20.8,17.9,20.8c10.9,0,17.9-7.8,17.9-20.8
			C113.4,276.4,106.4,268.2,95.5,268.2z"/>
		<path class="st0" d="M197.4,289.4c0-18.7,12.4-25.5,29.5-25.5c17.1,0,29.5,6.8,29.5,25.5c0,18.7-12.4,25.5-29.5,25.5
			C209.8,314.8,197.4,308.1,197.4,289.4z M226.9,268.2c-10.9,0-17.9,7.9-17.9,21.2c0,13.2,7.1,20.8,17.9,20.8
			c10.9,0,17.9-7.8,17.9-20.8C244.8,276.4,237.8,268.2,226.9,268.2z"/>
		<path class="st0" d="M549.6,313.9h-47.1v-3.7l7.7-0.6c0,0,0-37.6,0-38.6c0-1-0.8-1.9-2.1-2.2c-1.7-0.3-5.6-0.6-5.6-0.6v-3.1h25.8
			v3.1c0,0-3.9,0.3-5.5,0.6c-1.3,0.2-2.3,1.1-2.3,2.2c0,1.1,0,38.6,0,38.6s12.7,0,15.3,0c3,0,6.5-0.5,7.5-2.6
			c0.8-1.5,1.5-4.7,1.5-4.7h5.5L549.6,313.9z"/>
		<path class="st0" d="M561.2,289.4c0-18.7,12.4-25.5,29.5-25.5c17.1,0,29.5,6.8,29.5,25.5c0,18.7-12.4,25.5-29.5,25.5
			C573.6,314.8,561.2,308.1,561.2,289.4z M590.8,268.2c-10.9,0-17.9,7.9-17.9,21.2c0,13.2,7.1,20.8,17.9,20.8
			c10.9,0,17.9-7.8,17.9-20.8C608.7,276.4,601.6,268.2,590.8,268.2z"/>
		<path class="st0" d="M50.1,278.5h-4.2c-1.4-5.6-7.4-10.3-14.8-10.3c-9.4,0-18.6,8.2-18.6,20.4c0,15,11.1,21.6,19.9,21.6
			c8,0,14-2.6,19.3-6.9v5.1c-5.2,3.9-13.3,6.3-21.2,6.3c-17,0-30.2-11-30.2-25.3c0-11.4,8.3-25.5,30.8-25.5c5.4,0,10.6,1.1,14.8,3.6
			l0.6-4.2h3.6V278.5z"/>
		<path class="st0" d="M484.2,278.5H480c-1.4-5.6-7.4-10.3-14.8-10.3c-9.4,0-18.6,8.2-18.6,20.4c0,15,11.1,21.6,19.9,21.6
			c8,0,14-2.6,19.3-6.9v5.1c-5.2,3.9-13.3,6.3-21.2,6.3c-17,0-30.2-11-30.2-25.3c0-11.4,8.3-25.5,30.8-25.5c5.4,0,10.6,1.1,14.8,3.6
			l0.7-4.2h3.5V278.5z"/>
		<path class="st0" d="M356,310.2c0,0,4.3-0.2,5.7-0.4c1.4-0.2,2.2-0.8,2.2-2.2c0-1.1,0-16.8,0-16.8s-13.9-19-14.7-20
			c-0.8-1-1.8-1.5-3.1-1.8c-1.3-0.3-4-0.8-4-0.8v-3.1H365v3.1c0,0-1.7,0.3-3.5,0.6c-1.5,0.3-1.2,1.9-0.6,2.7
			c0.5,0.7,9.4,13.3,9.4,13.3s9.6-13.3,10.2-14.1c0.6-0.9,0-1.8-0.7-2c-1.2-0.3-2.9-0.6-2.9-0.6v-3.1h18.2v3.1c0,0-2.3,0.5-3.3,0.8
			c-1,0.3-2,0.8-2.8,1.8c-0.8,1-14.9,20-14.9,20s0,15.9,0,16.9c0,1.4,0.8,1.9,2.2,2.1c1.2,0.2,5.5,0.4,5.5,0.4v3.7H356V310.2z"/>
		<path class="st0" d="M648.1,310.2c0,0,4.2-0.2,5.6-0.4c1.4-0.2,2.4-1.3,2.4-3.1c0-1.8,0-38,0-38c-5,0-10.2,1-12.3,2.9
			c-2.9,2.6-3.6,6.6-4.2,12.3c-1.6,0-3.8,0-3.8,0v-18.9h50.7v18.9c0,0-2.2,0-3.8,0c-0.6-5.8-1.6-9.6-4.6-12.3
			c-1.9-1.7-7-2.9-11.9-2.9c0,0,0,36.5,0,38.2c0,1.7,0.7,2.7,2.3,2.9c1.3,0.2,5.7,0.4,5.7,0.4v3.7h-26.2V310.2z"/>
		<path class="st0" d="M740.4,271.7c0-1.4-0.7-2.5-2.4-2.8c-1.8-0.3-5.5-0.7-5.5-0.7v-3.1h26v3.1c0,0-4.3,0.4-5.8,0.7
			c-1.6,0.2-2.1,1.6-2.1,2.8c0,1.2,0,34.5,0,35.6c0,1.1,0.6,2.1,2.2,2.5c1.6,0.4,5.7,0.5,5.7,0.5v3.7h-26v-3.7c0,0,3.8-0.1,5.5-0.5
			c1.7-0.4,2.4-1.3,2.4-2.7c0-1.3,0-15.5,0-15.5h-22c0,0,0,14.5,0,15.7c0,1.2,0.7,2.2,2.4,2.5c1.9,0.3,5.5,0.5,5.5,0.5v3.7h-26v-3.7
			c0,0,4.3-0.2,5.5-0.5c1.5-0.4,2.4-1.3,2.4-2.8c0-1.4,0-33.8,0-35.2c0-1.4-0.3-2.6-2.6-2.9c-1.8-0.3-5.3-0.7-5.3-0.7v-3.1h26v3.1
			c0,0-3.5,0.3-5.6,0.7c-1.8,0.3-2.3,1.7-2.3,2.8c0,1.2,0,14,0,14h22C740.4,285.7,740.4,273.1,740.4,271.7z"/>
		<path class="st0" d="M776.7,310.2c0,0,4.3-0.2,5.8-0.5c1.3-0.2,2-1,2-2.5c0-1.4,0-34.4,0-35.8c0-1.4-0.6-2.1-2.3-2.5
			c-1.7-0.3-5.6-0.8-5.6-0.8v-3.1h26v3.1c0,0-4,0.5-5.4,0.8c-1.6,0.4-2.5,0.9-2.5,2.3c0,1.1,0,34.5,0,35.9c0,1.4,0.7,2.3,2,2.5
			c1.5,0.3,5.9,0.5,5.9,0.5v3.7h-26V310.2z"/>
		<path class="st0" d="M953,292c0,0-3.6,0.4-5.3,0.6c-1.4,0.2-2.5,1-2.5,2.3c0,1.3,0,17.5,0,17.5c-6.4,1.5-13.2,2.4-20.6,2.4
			c-23.5,0-34.6-10.4-34.6-24.9c0-12,7.8-25.9,32.2-25.9c6.8,0,14.3,0.9,18.5,2.3l0.7-2.9h3.8v15.1h-3.8
			c-3.7-6.8-10.1-10.3-20.2-10.3c-11.3,0-19,9.3-19,21.3c0,12.4,10.7,20.7,22.5,20.7c4,0,10.6-1.6,10.6-4c0,0,0-9.9,0-11.2
			c0-1.3-0.8-2.1-2.9-2.4c-1.8-0.2-5.5-0.6-5.5-0.6v-3.1h26V292z"/>
	</g>
</g>
</svg>
