<?xml version="1.0" encoding="utf-8"?>
<!-- Generator: Adobe Illustrator 24.2.3, SVG Export Plug-In . SVG Version: 6.00 Build 0)  -->
<svg version="1.1" id="レイヤー_1" xmlns="http://www.w3.org/2000/svg" xmlns:xlink="http://www.w3.org/1999/xlink" x="0px"
	 y="0px" viewBox="0 0 441.5 129.5" style="enable-background:new 0 0 441.5 129.5;" xml:space="preserve">
<style type="text/css">
	.st0{fill:#FFFFFF;}
</style>
<g>
	<path class="st0" d="M73.2,44c0.2-14.9-4.4-25.3-12.2-32.9c-3.9-3.7-9.7-6.9-15-8.2C42.1,2,37.8,1.4,31.4,1.4c0,0-21,0.4-21.8,0.4
		c-0.8,0-8.2-0.3-8.2-0.3L1.3,4c2.2,0,2.6-0.1,4.8,0c3.5,0.1,3.8,2.1,3.8,3.8c0,0.9,0.1,10,0.1,10l0.2,58.5c0,0-0.1,3.5-0.3,4.7
		c-0.2,1.3-0.2,4.7-5.1,4.8c-0.8,0-2.6,0-4.8,0v2.1c0,0,9.9-0.5,13.6-0.5C18,87.5,32.7,88,32.7,88s4.3-0.1,5.8-0.2
		c14-1.4,20.5-8.6,23-11.2C74.2,63.1,73.2,44,73.2,44 M52.1,71.2c-0.6,1-7.8,13.3-21.3,14.2c-0.8,0.1-3.2,0-3.2,0s-2,0-2,0
		c0,0-2.5,0.1-2.5-2.3l0-76.8c0-1,0.7-1.9,1.8-2.1c0.9-0.1,3.2-0.2,6.4,0c0,0,10-0.2,17.2,7.3c0.7,0.8,5.3,4.9,8.4,14
		c1.2,3.6,2.9,10.8,2.8,17.6C59.7,45,60.1,59.3,52.1,71.2"/>
	<path class="st0" d="M436.7,85.8c-4.9-0.1-4.9-4-5.1-5.3c-0.2-1.2-0.3-4.2-0.3-4.2l0.2-58.5c0,0,0.1-7.7,0.1-8.6
		c0-1.7,0.8-5.1,4.3-5.2c2.2-0.1,2.6,0,4.7,0l-0.1-2.5c0,0-7.9,0.3-8.7,0.3h-13.6c-0.8,0-8.7-0.3-8.7-0.3L409.6,4
		c2.2,0,2.6-0.1,4.8,0c3.5,0.1,4.3,3.5,4.3,5.2c0,0.9,0.1,8.6,0.1,8.6l0.2,58.5c0,0-0.1,3.1-0.3,4.2c-0.2,1.3-0.2,5.1-5.1,5.3
		c-0.8,0-2.6,0-4.8,0v2.1c0,0,12.7-0.1,16.4,0h0.8c3.7-0.1,15.5,0,15.5,0v-2.1C439.3,85.8,437.5,85.8,436.7,85.8"/>
	<path class="st0" d="M255.7,85.8c-4.9-0.1-4.9-4-5.1-5.3c-0.2-1.2-0.3-4.2-0.3-4.2l0.2-58.5c0,0,0.1-7.7,0.1-8.6
		c0-1.7,0.8-5.1,4.3-5.2c2.2-0.1,2.6,0,4.8,0l-0.1-2.5c0,0-7.9,0.3-8.7,0.3h-13.6c-0.8,0-8.6-0.3-8.6-0.3L228.6,4
		c2.2,0,2.6-0.1,4.8,0c3.5,0.1,4.3,3.5,4.3,5.2c0,0.9,0.1,8.6,0.1,8.6l0.2,58.5c0,0-0.1,3.1-0.3,4.2c-0.2,1.3-0.2,5.1-5.1,5.3
		c-0.8,0-2.6,0-4.8,0v2.1c0,0,12.7-0.1,16.4,0h0.8c3.7-0.1,15.5,0,15.5,0v-2.1C258.4,85.8,256.5,85.8,255.7,85.8"/>
	<path class="st0" d="M153.1,80V13.4l23.7,71.3h2l20.9-72.4l0.2,64c0,0-0.1,3.1-0.3,4.2c-0.2,1.3-0.2,5.1-5.1,5.3
		c-0.8,0-2.6,0-4.8,0v2.1c0,0,12.7-0.1,16.4,0h0.8c3.7-0.1,15.5,0,15.5,0v-2.1c-2.2,0-4,0-4.8,0c-4.9-0.2-4.9-4-5.1-5.3
		c-0.2-1.2-0.3-4.2-0.3-4.2l0.2-58.5c0,0,0.1-7.7,0.1-8.6c0-1.7,0.8-5.1,4.3-5.2c2.2-0.1,2.6,0,4.8,0l-0.1-2.5c0,0-7.9,0.3-8.7,0.3
		c-4.4,0-12.6-0.4-12.6-0.4l-17.9,62.5L162.6,1.6c0,0-14.4,0.5-21.6-0.2v2.5c0,0,3.5-0.1,5.7,0.6c2.2,0.8,4.1,2.6,4.1,7.7
		c0,3.3,0.1,3.3,0.1,3.3v64.4l0,0.4c-0.2,1.3-0.6,5.4-5.5,5.5c-0.8,0-2.2,0-4.4,0v2.1c0,0,12.3-0.1,16,0h0.8c3.7-0.1,7.2,0,7.2,0
		v-2.1c-2.2,0-5.9,0-6.7,0c-4.9-0.2-4.9-4.1-5.1-5.4L153.1,80z"/>
	<path class="st0" d="M383.7,1.4c0,0,8.2,0.4,12.7,0.4c0.8,0,9.1-0.3,9.1-0.3l0.1,2.3c-2.2,0-3.5,0-5.2,0.1
		c-3.5,0.3-4.3,3.5-4.3,5.2c0,0.9-0.1,8.6-0.1,8.6l-0.2,71.5h-1.1l-28-45.3l-20.3-31.5V80l0,0.4c0.2,1.3,0.2,5.3,5.1,5.4
		c0.8,0,2.6,0,4.8,0v2.1c0,0-1.6-0.1-5.3,0h-0.8c-3.7-0.1-16.4,0-16.4,0v-2.1c2.2,0,4,0,4.8,0c4.9-0.1,5.3-4.2,5.4-5.5l0-0.4V15.4
		c0,0-0.1,0.1-0.1-3.3c0-5.1-1.9-6.9-4.1-7.7c-2.2-0.7-6.1-0.6-6.1-0.6V1.4c7.2,0.6,22,0.2,22,0.2l37.7,59.6V8.7c0,0,0.2-4.8-5-4.8
		h-4.8L383.7,1.4z"/>
	<path class="st0" d="M270.6,82.7c-1,1.7-2.6,2.5-4.2,3c-1.6,0.5-3.3,0.4-3.3,0.4v2c0,0,5.7-0.2,9.1-0.2c3.4,0,10.8,0.2,10.8,0.2V86
		l-5.3-0.4c-4.3-0.7-3-4.5-3-4.5l6.5-24.3l18.9,0c0,0,5.6,19.5,6.9,23.9c1.5,5-2.8,4.8-3.9,4.9c-1.1,0.1-3.4,0.3-3.4,0.3
		c-0.3,0-1.9,0.1-2,0.1v2l6.3-0.2h0.5c0,0,5.4-0.1,10.7-0.1c5.3,0,15.7,0.3,15.7,0.3v-2.1c-2.2,0-3.7,0-4.5-0.1
		c-2-0.4-3.8-2.3-3.8-2.3c-1.8-1.8-2.6-4-3.1-5.2C319.3,77,295.6,0,295.6,0h-1.3c0,0-18.8,69.9-19.6,72.7
		C273.8,75.4,272.6,79.1,270.6,82.7 M281.8,53.8l8.7-30.9l8.9,30.9H281.8z"/>
	<path class="st0" d="M78.3,82.5c-1,1.7-2.6,2.5-4.2,3c-1.6,0.5-3.3,0.3-3.3,0.3v2c0,0,5.7-0.2,9.1-0.2c3.4,0,10.8,0.2,10.8,0.2
		v-1.9l-5.3-0.4c-4.3-0.7-3-4.5-3-4.5L89,56.6l18.9,0c0,0,5.6,19.5,7,23.9c1.5,5-2.8,4.8-3.9,4.9c-1.1,0.1-3.4,0.3-3.4,0.3
		c-0.3,0-2,0.1-2,0.1v2l6.3-0.2h0.5c0,0,5.4-0.1,10.7-0.1c5.3,0,15.7,0.3,15.7,0.3v-2.1c-2.2,0-3.7,0-4.5-0.1
		c-2-0.4-3.7-2.3-3.7-2.3c-1.9-1.8-2.6-4-3.1-5.2c-0.4-1.3-24.1-78.2-24.1-78.2H102c0,0-18.8,69.9-19.7,72.7
		C81.5,75.3,80.4,78.9,78.3,82.5 M89.5,53.7l8.7-30.9l8.9,30.9H89.5z"/>
	<path class="st0" d="M436.1,124.7l2.4-3.1v3.1H436.1z M434,125.3v0.7h4.5v3.5h1.5V126h1.2v-1.3H440v-6h-0.6L434,125.3z
		 M422.4,127.6c0.9-1.1,1.6-1.9,1.9-2.6c0.4-0.6,0.6-1.2,0.8-1.7c0.1-0.5,0.2-0.9,0.2-1.4c0-1-0.3-1.7-0.9-2.4
		c-0.6-0.6-1.4-0.9-2.3-0.9c-0.9,0-1.7,0.3-2.6,1v1.9c0.3-0.5,0.7-0.8,1.1-1.1c0.4-0.2,0.8-0.4,1.2-0.4c0.6,0,1,0.2,1.4,0.5
		c0.3,0.4,0.5,0.8,0.5,1.4c0,0.4-0.1,0.9-0.3,1.3c-0.2,0.4-0.6,1.1-1.2,2c-0.6,0.9-1.4,1.9-2.4,3.2l-0.6,0.7v0.1h6.7V128h-4.1
		L422.4,127.6z M407.8,123.6c-0.5,0-0.9-0.2-1.3-0.5c-0.3-0.3-0.5-0.7-0.5-1.2c0-0.5,0.2-0.9,0.5-1.2c0.3-0.3,0.7-0.5,1.2-0.5
		c0.5,0,1,0.2,1.3,0.6c0.3,0.4,0.5,0.9,0.5,1.5c0,0.1,0,0.4-0.1,0.8C408.9,123.4,408.4,123.6,407.8,123.6 M409.9,126.5
		c0.8-1.3,1.2-2.6,1.2-3.9c0-1.1-0.3-2.1-1-2.8c-0.6-0.7-1.5-1.1-2.5-1.1c-0.9,0-1.6,0.3-2.3,0.9c-0.6,0.6-0.9,1.4-0.9,2.2
		c0,0.8,0.3,1.6,0.9,2.2c0.6,0.6,1.3,0.9,2.1,0.9c0.7,0,1.2-0.1,1.7-0.4c-0.2,0.7-0.6,1.5-1.2,2.2c-0.6,0.7-1.3,1.3-2.1,1.8l0.9,1.1
		C408.1,128.9,409.1,127.8,409.9,126.5 M392.1,129.5h1.5v-10.6h-1.5V129.5z M359.6,129.5h6.2v-1.3h-4.7v-3.3h4.4v-1.4h-4.4v-3.2h4.5
		v-1.4h-6V129.5z M346.8,128.2c-1.2,0-2.2-0.4-3-1.1c-0.8-0.8-1.2-1.7-1.2-2.9c0-1.2,0.4-2.1,1.2-2.9c0.8-0.8,1.8-1.2,3-1.2
		c1.2,0,2.4,0.4,3.7,1.1v-1.6c-1.4-0.6-2.6-0.9-3.7-0.9c-1.6,0-3,0.5-4.1,1.6c-1.1,1-1.7,2.4-1.7,3.9c0,1,0.2,1.9,0.7,2.7
		c0.5,0.8,1.2,1.5,2,2c0.8,0.5,1.8,0.7,3,0.7c1.5,0,2.8-0.3,3.9-0.9V127C349.3,127.8,348,128.2,346.8,128.2 M330.5,127.1l-7.2-8.3
		h-1.2v10.6h1.4v-8.2l7.1,8.2h1.3v-10.6h-1.4V127.1z M311,129.5h1.5v-10.6H311V129.5z M300.7,126.9c0,0.4-0.2,0.7-0.5,1
		c-0.3,0.3-0.7,0.4-1.2,0.4c-1.1,0-2-0.5-2.9-1.6v1.9c0.9,0.6,1.8,1,2.9,1c0.9,0,1.7-0.3,2.2-0.8c0.6-0.5,0.8-1.2,0.8-2.1
		c0-1.2-0.6-2.2-1.9-3l-1.2-0.7c-0.5-0.3-0.9-0.6-1.1-0.9c-0.2-0.3-0.4-0.6-0.4-0.9c0-0.4,0.2-0.7,0.5-0.9c0.3-0.2,0.7-0.3,1.2-0.3
		c0.9,0,1.7,0.4,2.5,1.1v-1.7c-0.7-0.5-1.6-0.7-2.5-0.7c-0.9,0-1.7,0.3-2.3,0.8c-0.6,0.5-0.9,1.2-0.9,2c0,0.6,0.1,1.1,0.5,1.5
		c0.3,0.4,0.8,0.9,1.6,1.3l1.2,0.7C300.2,125.6,300.7,126.2,300.7,126.9 M268,122.5l-2.8-3.7h-1.8l3.9,5v5.6h1.6v-5.6l3.9-5h-1.9
		L268,122.5z M251.3,129.5h6.3v-1.4h-4.8v-9.3h-1.5V129.5z M236.1,125l1.6-3.8l1.7,3.8H236.1z M232.6,129.5h1.6l1.3-3.2h4.5l1.4,3.2
		h1.6l-4.8-10.7h-1.1L232.6,129.5z M217.9,120.2h3.6v9.3h1.5v-9.3h3.7v-1.4h-8.9V120.2z M207.7,129.5h1.5v-10.6h-1.5V129.5z
		 M181.2,127.1l-7.2-8.3h-1.2v10.6h1.4v-8.2l7.1,8.2h1.3v-10.6h-1.4V127.1z M161.7,129.5h1.5v-10.6h-1.5V129.5z M131.1,129.5h6.2
		v-1.3h-4.6v-3.3h4.3v-1.4h-4.3v-3.2h4.5v-1.4h-6V129.5z M117.3,120.3c0.3,0,0.7,0.2,1,0.3c0.4,0.2,0.7,0.4,1,0.7
		c0.8,0.7,1.2,1.6,1.2,2.8c0,1.2-0.4,2.1-1.1,2.9c-0.2,0.2-0.5,0.4-0.8,0.6c-0.3,0.2-0.6,0.3-1,0.4c-0.4,0.1-1,0.2-1.8,0.2h-1.9
		v-7.9h1.9C116.4,120.2,116.9,120.2,117.3,120.3 M115.6,129.5c0.9,0,1.6,0,1.9-0.1c0.3-0.1,0.7-0.2,1.1-0.3c0.7-0.3,1.3-0.6,1.8-1.1
		c0.5-0.5,0.9-1.1,1.2-1.7c0.3-0.6,0.4-1.3,0.4-2c0-1-0.3-1.9-0.7-2.8c-0.5-0.8-1.2-1.5-2-1.9c-0.8-0.4-2-0.7-3.4-0.7h-3.6v10.6
		H115.6z M97,125l1.6-3.8l1.7,3.8H97z M93.5,129.5h1.6l1.3-3.2h4.5l1.4,3.2h1.6l-4.8-10.7h-1.1L93.5,129.5z M80.3,123.2l-3.5-4.4
		h-1.4v10.6h1.5v-8.3l3.3,4.1h0.3l3.3-4.1v8.3h1.5v-10.6h-1.4L80.3,123.2z M61.5,120.3c0.3,0,0.7,0.2,1,0.3c0.4,0.2,0.7,0.4,1,0.7
		c0.8,0.7,1.2,1.6,1.2,2.8c0,1.2-0.4,2.1-1.1,2.9c-0.2,0.2-0.5,0.4-0.8,0.6c-0.3,0.2-0.6,0.3-1.1,0.4c-0.4,0.1-1,0.2-1.8,0.2H58
		v-7.9h1.9C60.6,120.2,61.2,120.2,61.5,120.3 M59.9,129.5c0.9,0,1.6,0,1.9-0.1c0.3-0.1,0.7-0.2,1.1-0.3c0.7-0.3,1.3-0.6,1.8-1.1
		c0.5-0.5,0.9-1.1,1.2-1.7c0.3-0.6,0.4-1.3,0.4-2c0-1-0.3-1.9-0.7-2.8c-0.5-0.8-1.2-1.5-2-1.9c-0.8-0.4-2-0.7-3.4-0.7h-3.6v10.6
		H59.9z M45.6,127.1l-7.2-8.3h-1.2v10.6h1.4v-8.2l7.1,8.2H47v-10.6h-1.4V127.1z M21.9,125l1.6-3.8l1.7,3.8H21.9z M18.4,129.5H20
		l1.3-3.2h4.5l1.4,3.2h1.6L24,118.8H23L18.4,129.5z M8.5,123.5h-6v-4.6H1v10.6h1.5v-4.6h6v4.6h1.5v-10.6H8.5V123.5z"/>
</g>
</svg>
